<?xml version="1.0" encoding="UTF-8" standalone="no"?>
<!-- Created with Inkscape (http://www.inkscape.org/) -->
<svg
   xmlns:dc="http://purl.org/dc/elements/1.1/"
   xmlns:cc="http://creativecommons.org/ns#"
   xmlns:rdf="http://www.w3.org/1999/02/22-rdf-syntax-ns#"
   xmlns:svg="http://www.w3.org/2000/svg"
   xmlns="http://www.w3.org/2000/svg"
   xmlns:sodipodi="http://sodipodi.sourceforge.net/DTD/sodipodi-0.dtd"
   xmlns:inkscape="http://www.inkscape.org/namespaces/inkscape"
   version="1.0"
   width="360"
   height="240"
   id="svg2"
   sodipodi:version="0.32"
   inkscape:version="0.46"
   sodipodi:docname="eer_Flag_of_Turkey.svg"
   inkscape:output_extension="org.inkscape.output.svg.inkscape">
  <metadata
     id="metadata11">
    <rdf:RDF>
      <cc:Work
         rdf:about="">
        <dc:format>image/svg+xml</dc:format>
        <dc:type
           rdf:resource="http://purl.org/dc/dcmitype/StillImage" />
      </cc:Work>
    </rdf:RDF>
  </metadata>
  <sodipodi:namedview
     inkscape:window-height="480"
     inkscape:window-width="640"
     inkscape:pageshadow="2"
     inkscape:pageopacity="0.0"
     guidetolerance="10.0"
     gridtolerance="10.0"
     objecttolerance="10.0"
     borderopacity="1.0"
     bordercolor="#666666"
     pagecolor="#ffffff"
     id="base"
     showgrid="false" />
  <defs
     id="defs4">
    <inkscape:perspective
       sodipodi:type="inkscape:persp3d"
       inkscape:vp_x="0 : 120 : 1"
       inkscape:vp_y="0 : 1000 : 0"
       inkscape:vp_z="372 : 120 : 1"
       inkscape:persp3d-origin="186 : 80 : 1"
       id="perspective13" />
  </defs>
  <g
     id="layer1"
     transform="translate(-12,0)">
    <rect
       width="360"
       height="240"
       x="12"
       y="0"
       id="rect2385"
       style="fill:#e30a17;fill-opacity:1" />
    <path
       d="M 170,115 C 170,145.37566 145.37566,170 115,170 C 84.624339,170 60,145.37566 60,115 C 60,84.624339 84.624339,60 115,60 C 145.37566,60 170,84.624339 170,115 L 170,115 z"
       transform="matrix(1.09091,0,0,1.09091,6.54545,-5.45455)"
       id="path3161"
       style="fill:#ffffff;fill-opacity:1" />
    <path
       d="M 195,122.5 C 195,148.73353 170.37566,170 140,170 C 109.62434,170 85,148.73353 85,122.5 C 85,96.266474 109.62434,75 140,75 C 170.37566,75 195,96.266474 195,122.5 L 195,122.5 z"
       transform="matrix(0.872727,0,0,1.01053,24.8182,-3.78947)"
       id="path3167"
       style="fill:#e30a17;fill-opacity:1" />
    <path
       d="M 274.84396,90.162819 L 281.58707,110.88174 L 303.37566,110.89231 L 285.75453,123.70788 L 292.47752,144.43333 L 274.84396,131.63487 L 257.21041,144.43333 L 263.9334,123.70788 L 246.31227,110.89231 L 268.10086,110.88174 L 274.84396,90.162819 z"
       transform="matrix(0.949331,-0.314279,0.314279,0.949331,-89.6204,92.321)"
       id="path3207"
       style="fill:#ffffff;fill-opacity:1;stroke:none;stroke-width:0.1;stroke-miterlimit:4;stroke-dasharray:none;stroke-opacity:1" />
  </g>
</svg>
