<?xml version="1.0" encoding="UTF-8" standalone="no"?>
<svg xmlns:dc="http://purl.org/dc/elements/1.1/" xmlns:cc="http://creativecommons.org/ns#" xmlns:rdf="http://www.w3.org/1999/02/22-rdf-syntax-ns#" xmlns:svg="http://www.w3.org/2000/svg" xmlns="http://www.w3.org/2000/svg" xmlns:xlink="http://www.w3.org/1999/xlink" xmlns:sodipodi="http://sodipodi.sourceforge.net/DTD/sodipodi-0.dtd" xmlns:inkscape="http://www.inkscape.org/namespaces/inkscape" width="768" height="768" id="svg2" version="1.1" inkscape:version="0.48.1 r9760" sodipodi:docname="template.svg">
  <defs id="defs4">
    <clipPath clipPathUnits="userSpaceOnUse" id="clipPathFlag">
      <rect id="rect3918" height="511" x="0.5" style="fill:#000000;fill-opacity:0.67000002;stroke:none" width="511" y="0.5" ry="57"/>
    </clipPath>
    <linearGradient id="linearGradient3852" inkscape:collect="always">
      <stop id="stop3854" offset="0" style="stop-color:#dbe3db;stop-opacity:1;"/>
      <stop id="stop3856" offset="1" style="stop-color:#dbe3db;stop-opacity:0;"/>
    </linearGradient>
    <linearGradient inkscape:collect="always" xlink:href="#linearGradient3852" id="linearGradient3070" gradientUnits="userSpaceOnUse" x1="339.54913" y1="646.63617" x2="345.74551" y2="566.63617" gradientTransform="matrix(0.93191514,0,0,0.93191514,7.9467803,7.2318863)"/>
    <clipPath id="clipPath3882" clipPathUnits="userSpaceOnUse">
      <path sodipodi:type="inkscape:offset" inkscape:radius="11.844458" inkscape:original="M 243.75 118.0625 C 179.93919 118.0625 128.5625 169.43919 128.5625 233.25 L 128.5625 528.59375 C 128.5625 592.40456 179.93919 643.78125 243.75 643.78125 L 539.09375 643.78125 C 602.90456 643.78125 654.28125 592.40456 654.28125 528.59375 L 654.28125 233.25 C 654.28125 169.43919 602.90456 118.0625 539.09375 118.0625 L 243.75 118.0625 z " style="color:#000000;fill:none;stroke:none;stroke-width:20;marker:none;visibility:visible;display:inline;overflow:visible;enable-background:accumulate" id="path3884" d="m 243.75,106.21875 c -70.16845,0 -127.03125,56.8628 -127.03125,127.03125 l 0,295.34375 c 0,70.16845 56.8628,127.03125 127.03125,127.03125 l 295.34375,0 c 70.16845,0 127.03125,-56.8628 127.03125,-127.03125 l 0,-295.34375 c 0,-70.16845 -56.8628,-127.03125 -127.03125,-127.03125 l -295.34375,0 z"/>
    </clipPath>
    <linearGradient id="linearGradient3852-0" inkscape:collect="always">
      <stop id="stop3854-6" offset="0" style="stop-color:#dbe3db;stop-opacity:1;"/>
      <stop id="stop3856-1" offset="1" style="stop-color:#dbe3db;stop-opacity:0;"/>
    </linearGradient>
    <linearGradient inkscape:collect="always" xlink:href="#linearGradient3852-0" id="linearGradient3070-5" gradientUnits="userSpaceOnUse" x1="339.54913" y1="646.63617" x2="345.74551" y2="566.63617" gradientTransform="matrix(0.93191514,0,0,0.93191514,7.9467803,7.2318863)"/>
    <linearGradient inkscape:collect="always" xlink:href="#linearGradient3852-0" id="linearGradient5122" gradientUnits="userSpaceOnUse" gradientTransform="matrix(1.1571075,0,0,1.3166846,-91.204261,-253.98784)" x1="342.1882" y1="705.75824" x2="358.07608" y2="523.40735"/>
    <linearGradient inkscape:collect="always" xlink:href="#linearGradient3852-0" id="linearGradient5125" gradientUnits="userSpaceOnUse" gradientTransform="matrix(0.95302723,0,0,0.86647129,11.575117,-4.501603)" x1="405.2634" y1="118.06474" x2="405.74554" y2="360.92188"/>
    <clipPath clipPathUnits="userSpaceOnUse" id="clipPath5712">
      <rect mask="none" inkscape:label="#rect4203" ry="64.777054" y="0" width="512" style="fill:none;display:inline" x="0" height="512" id="rect5714"/>
    </clipPath>
    <filter inkscape:collect="always" id="filter5740">
      <feGaussianBlur inkscape:collect="always" stdDeviation="5.12" id="feGaussianBlur5742"/>
    </filter>
    <clipPath clipPathUnits="userSpaceOnUse" id="clipPath5796">
      <rect inkscape:label="#rect4203" ry="57" y="0" width="512" style="fill:none;stroke:#00fa00;stroke-width:20;stroke-miterlimit:4;stroke-opacity:1;stroke-dasharray:none;display:inline" x="0" height="512" id="rect5798"/>
    </clipPath>
    <filter inkscape:collect="always" id="filter5912">
      <feGaussianBlur inkscape:collect="always" stdDeviation="17.92" id="feGaussianBlur5914"/>
    </filter>
  </defs>
  <sodipodi:namedview id="base" pagecolor="#ffffff" bordercolor="#666666" borderopacity="1.0" inkscape:pageopacity="0.0" inkscape:pageshadow="2" inkscape:zoom="0.65494792" inkscape:cx="191.61829" inkscape:cy="384" inkscape:document-units="px" showgrid="false" inkscape:window-width="1280" inkscape:window-height="723" inkscape:window-x="0" inkscape:window-y="24" inkscape:window-maximized="1"/>

  <g id="template-button" inkscape:label="template-button" style="display:inline">
  &gt;
  <g inkscape:label="00" id="00" style="display:inline" transform="translate(90,90)">
    <rect inkscape:label="#rect4203" ry="57" y="56" width="512" style="fill:#000000;fill-opacity:1;stroke:#a8a8a8;stroke-width:5;stroke-miterlimit:4;stroke-opacity:1;stroke-dasharray:none;display:inline;filter:url(#filter5912)" x="38" height="512" id="shadow"/>
  </g>
  <g id="01" inkscape:label="01" style="display:inline" transform="translate(128,128)" clip-path="url(#clipPathFlag)">
    <rect id="mask" height="512" x="0" style="fill:#0000ff;fill-opacity:1;stroke:none" width="512" y="0" ry="57" inkscape:label="#rect4203"/>
  <g transform="matrix(1.0321263,0,0,1.0321263,0,3.312431e-4)" id="flag" clip-path="url(#clipPath3967)" inkscape:label="#g3858">
    <rect style="font-size:12px;fill:#319208;fill-opacity:1;fill-rule:evenodd;stroke-width:1pt" id="rect608" width="992.12598" height="70.866142" x="0" y="425.19684"/>
    <rect style="font-size:12px;fill:#de2010;fill-opacity:1;fill-rule:evenodd;stroke-width:1pt" id="rect612" width="992.12598" height="70.866142" x="0" y="283.46457"/>
    <rect style="font-size:12px;fill:#ffd200;fill-opacity:1;fill-rule:evenodd;stroke-width:1pt" id="rect611" width="992.12598" height="70.866142" x="0" y="354.33072"/>
    <rect style="font-size:12px;fill:#de2010;fill-opacity:1;fill-rule:evenodd;stroke-width:1pt" id="rect614" width="992.12598" height="70.866142" x="0" y="141.73225"/>
    <rect style="font-size:12px;fill:#ffd200;fill-opacity:1;fill-rule:evenodd;stroke-width:1pt" id="rect615" width="992.12598" height="70.866142" x="0" y="70.866119"/>
    <rect style="font-size:12px;fill:#319208;fill-opacity:1;fill-rule:evenodd;stroke-width:1pt" id="rect616" width="992.12598" height="70.866142" x="0" y="-8e-06"/>
    <path inkscape:connector-curvature="0" style="font-size:12px;fill:#000000;fill-opacity:1;fill-rule:evenodd;stroke-width:1pt" d="M 27.9921,-3.05176e-4 27.9921,496.063 361.063,248.031 27.9921,-3.05176e-4 z" id="path623" sodipodi:nodetypes="cccc"/>
    <rect style="font-size:12px;fill:#000000;fill-opacity:1;fill-rule:evenodd;stroke-width:1pt" id="rect621" width="28.346457" height="496.06296" x="0" y="-0.00019200001"/>
    <path inkscape:connector-curvature="0" style="font-size:12px;fill:#000000;fill-opacity:1;fill-rule:evenodd;stroke-width:1pt" d="M 0,-1.14441e-4 0,496.063 361.417,248.031 0,-1.14441e-4 z" id="path620" sodipodi:nodetypes="cccc"/>
    <rect style="font-size:12px;fill:#000000;fill-opacity:1;fill-rule:evenodd;stroke-width:1pt" id="rect613" width="992.12598" height="70.866142" x="0" y="212.59842"/>
    <path inkscape:connector-curvature="0" style="font-size:12px;fill:#ffffff;fill-rule:evenodd;stroke-width:1pt" d="M 0,-1.75477e-4 0,496.063 333.071,248.031 0,-1.75477e-4 z" id="path617" sodipodi:nodetypes="cccc"/>
    <g id="g584" transform="translate(-494.2325,-14.64395)">
      <polygon inkscape:randomized="0" inkscape:rounded="0" inkscape:flatsided="false" sodipodi:type="star" style="font-size:12px;fill:#d62419;fill-opacity:1;fill-rule:evenodd;stroke-width:1pt" id="polygon583" sodipodi:sides="5" sodipodi:cx="622.41516" sodipodi:cy="243.49802" sodipodi:r1="124.25008" sodipodi:r2="46.81649" sodipodi:arg1="-1.6390332" sodipodi:arg2="-1.0484346" points="613.943,119.537 645.773,202.925 737.691,197.135 668.221,253.175 702.131,338.805 627.366,290.052 556.407,348.764 579.67,262.593 501.903,213.249 591.046,208.745 613.943,119.537 " transform="matrix(1.022125,0.07327886,-0.07327887,1.022125,3.349235,-41.43091)" d="m 613.9433,119.5371 31.82993,83.38772 91.91782,-5.79005 -69.47045,56.04029 33.91084,85.62981 -74.76503,-48.75292 -70.95977,58.71219 23.26312,-86.17125 -77.76639,-49.34369 89.14243,-4.50384 z"/>
      <path inkscape:connector-curvature="0" style="fill:#f7df00;fill-opacity:1;fill-rule:evenodd;stroke:#000000;stroke-width:1pt;stroke-linecap:butt;stroke-linejoin:miter;stroke-opacity:1" d="m 542.726,175.698 c 1.606,-2.892 1.927,-4.499 10.282,-8.034 10.925,-31.811 38.881,-19.279 54.305,24.743 14.138,6.105 98.648,69.085 97.363,72.62 -0.643,3.213 -11.247,0.643 -11.247,0.643 0,0 -16.709,71.335 -17.03,71.335 -31.17,-4.177 -79.69,-4.82 -112.787,-4.177 0.321,-5.463 -8.997,-41.131 -8.997,-41.131 0,0 -8.034,-2.57 5.462,-29.883 14.46,-34.382 17.352,-90.294 -17.351,-86.116 z" id="path564" sodipodi:nodetypes="cccccccccc"/>
      <path sodipodi:type="arc" style="fill:none;stroke:#000000;stroke-width:1pt;stroke-linecap:butt;stroke-linejoin:miter;stroke-opacity:1" id="path565" d="m 571.32382,162.84433 c 0,1.95212 -1.58251,3.53462 -3.53464,3.53462 -1.95212,0 -3.53463,-1.5825 -3.53463,-3.53462 0,-1.95212 1.58251,-3.53462 3.53463,-3.53462 1.95213,0 3.53464,1.5825 3.53464,3.53462 z" sodipodi:cx="567.78918" sodipodi:cy="162.84433" sodipodi:rx="3.534637" sodipodi:ry="3.534622"/>
      <path inkscape:connector-curvature="0" style="fill:none;stroke:#000000;stroke-width:1pt;stroke-linecap:butt;stroke-linejoin:miter;stroke-opacity:1" d="m 606.349,192.407 c 0,0 -27.635,15.745 -35.668,15.423" id="path566"/>
      <path inkscape:connector-curvature="0" style="fill:none;stroke:#000000;stroke-width:1pt;stroke-linecap:butt;stroke-linejoin:miter;stroke-opacity:1" d="m 693.429,265.67 c -1.928,-1.607 -102.504,-6.427 -98.327,-40.488" id="path567" sodipodi:nodetypes="cc"/>
      <path inkscape:connector-curvature="0" style="fill:none;stroke:#000000;stroke-width:1pt;stroke-linecap:butt;stroke-linejoin:miter;stroke-opacity:1" d="m 611.169,266.312 c 0,0 10.925,6.427 20.243,-10.282" id="path568"/>
      <path inkscape:connector-curvature="0" style="fill:none;stroke:#000000;stroke-width:1pt;stroke-linecap:butt;stroke-linejoin:miter;stroke-opacity:1" d="m 623.379,265.991 c 0,0 7.712,7.069 18.959,-8.354" id="path569"/>
      <path inkscape:connector-curvature="0" style="fill:none;stroke:#000000;stroke-width:1pt;stroke-linecap:butt;stroke-linejoin:miter;stroke-opacity:1" d="m 554.936,291.697 c 0,0 7.069,0.964 8.355,-3.213" id="path570" sodipodi:nodetypes="cc"/>
      <path inkscape:connector-curvature="0" style="fill:none;stroke:#000000;stroke-width:1pt;stroke-linecap:butt;stroke-linejoin:miter;stroke-opacity:1" d="m 588.354,333.149 c 0,-0.321 -7.069,-45.629 -7.069,-45.629 34.918,3.106 71.121,3.321 104.753,9.319" id="path571" sodipodi:nodetypes="css"/>
      <path inkscape:connector-curvature="0" style="fill:none;stroke:#000000;stroke-width:1pt;stroke-linecap:butt;stroke-linejoin:miter;stroke-opacity:1" d="m 584.82,288.163 9.639,11.246 9.962,-9.64 8.354,8.998" id="path572"/>
      <path inkscape:connector-curvature="0" style="fill:none;stroke:#000000;stroke-width:1pt;stroke-linecap:butt;stroke-linejoin:miter;stroke-opacity:1" d="m 615.346,299.088 8.354,-7.391 8.998,8.676" id="path573"/>
      <path inkscape:connector-curvature="0" style="fill:none;stroke:#000000;stroke-width:1pt;stroke-linecap:butt;stroke-linejoin:miter;stroke-opacity:1" d="m 634.304,300.373 9.319,-8.354 7.069,8.355" id="path574" sodipodi:nodetypes="ccc"/>
      <path inkscape:connector-curvature="0" style="fill:none;stroke:#000000;stroke-width:1pt;stroke-linecap:butt;stroke-linejoin:miter;stroke-opacity:1" d="m 654.548,300.695 8.355,-5.784 7.39,7.069" id="path575"/>
      <path inkscape:connector-curvature="0" style="fill:none;stroke:#000000;stroke-width:1pt;stroke-linecap:butt;stroke-linejoin:miter;stroke-opacity:1" d="m 676.077,301.659 6.105,-5.784" id="path576" sodipodi:nodetypes="cc"/>
      <path inkscape:connector-curvature="0" style="fill:none;stroke:#000000;stroke-width:1pt;stroke-linecap:butt;stroke-linejoin:miter;stroke-opacity:1" d="m 583.213,298.445 10.283,11.89 10.282,-9.319 8.997,9.64 10.283,-8.997 8.676,10.282 10.604,-8.997 c 0,0 8.033,9.961 8.997,9.961 0.964,0 10.604,-8.354 10.604,-8.354 l 9.319,10.282 12.852,-10.282" id="path577" sodipodi:nodetypes="ccccccccccc"/>
      <path inkscape:connector-curvature="0" style="fill:none;stroke:#000000;stroke-width:1pt;stroke-linecap:butt;stroke-linejoin:miter;stroke-opacity:1" d="m 584.82,310.013 c 0,0 82.903,3.214 96.398,6.427" id="path578"/>
      <path inkscape:connector-curvature="0" style="fill:none;stroke:#000000;stroke-width:1pt;stroke-linecap:butt;stroke-linejoin:miter;stroke-opacity:1" d="m 598.637,272.418 c 0,0 78.725,4.177 91.257,8.997" id="path579"/>
      <path inkscape:connector-curvature="0" style="fill:none;stroke:#000000;stroke-width:1pt;stroke-linecap:butt;stroke-linejoin:miter;stroke-opacity:1" d="m 582.57,239.642 c 0.643,4.82 -5.141,21.529 -11.246,27.313 -8.355,6.748 -7.391,20.886 -7.391,20.886 0.964,5.784 13.496,5.141 15.103,2.25 1.285,-13.175 15.423,-16.067 15.423,-16.067 0,0 19.602,-5.462 27.956,-21.85" id="path580" sodipodi:nodetypes="cccccc"/>
      <path sodipodi:type="arc" style="fill:none;stroke:#000000;stroke-width:1pt;stroke-linecap:butt;stroke-linejoin:miter;stroke-opacity:1" id="path581" d="m 622.09387,281.41492 c 0,2.30704 -1.87024,4.17727 -4.17731,4.17727 -2.30706,0 -4.1773,-1.87023 -4.1773,-4.17727 0,-2.30705 1.87024,-4.17728 4.1773,-4.17728 2.30707,0 4.17731,1.87023 4.17731,4.17728 z" sodipodi:cx="617.91656" sodipodi:cy="281.41492" sodipodi:rx="4.1773071" sodipodi:ry="4.1772771"/>
      <path sodipodi:type="arc" style="fill:none;stroke:#000000;stroke-width:1pt;stroke-linecap:butt;stroke-linejoin:miter;stroke-opacity:1" id="path582" d="m 640.7309,283.02155 c 0,2.30704 -1.87022,4.17727 -4.17725,4.17727 -2.30703,0 -4.17725,-1.87023 -4.17725,-4.17727 0,-2.30705 1.87022,-4.17728 4.17725,-4.17728 2.30703,0 4.17725,1.87023 4.17725,4.17728 z" sodipodi:cx="636.55365" sodipodi:cy="283.02155" sodipodi:rx="4.1772461" sodipodi:ry="4.1772771"/>
    </g>
  </g></g>
  <g id="02" inkscape:label="02" style="display:inline" transform="translate(0,38)">
    <path sodipodi:nodetypes="sscssscss" inkscape:connector-curvature="0" id="path3862-8" d="m 214.21087,111.21099 c -45.24514,0.18809 -68.71568,7.73077 -64.09352,83.5526 l 2.8252,46.34456 c 47.4743,5.51239 56.66416,18.44506 104.35936,21.91413 68.07337,4.95126 67.93728,5.42092 130.56477,-14.38414 62.62753,-19.80506 5.82485,-65.24698 207.32205,-57.8201 4.60334,0.16968 17.3137,-3.05269 27.46187,-12.15043 5.5817,-46.52389 -2.78415,-69.14289 -66.93352,-68.87623 z" style="color:#000000;fill:url(#linearGradient5125);fill-opacity:1;fill-rule:nonzero;stroke:none;stroke-width:1.62399995;marker:none;visibility:visible;overflow:visible;enable-background:accumulate"/>
    <path inkscape:connector-curvature="0" id="path3079-9" d="m 531.03278,495.17335 c -31.60486,19.02245 -27.60116,31.26037 -37.91323,32.57276 -94.70417,12.0527 -145.97722,-0.72701 -165.79583,-12.06122 -59.58792,-34.07817 -68.46788,-13.01421 -100.22126,-16.5742 -20.11475,-2.25514 -59.24503,12.98404 -73.38763,44.34434 3.47222,27.60795 18.11064,32.09835 44.28127,31.98612 l 356.05526,-1.52684 c 69.69188,-0.29885 56.33547,-8.49265 65.54301,-56.03861 -14.77205,-21.67074 -13.15664,9.10903 -44.2237,-30.71666 z" style="color:#000000;fill:url(#linearGradient5122);fill-opacity:1;fill-rule:nonzero;stroke:none;stroke-width:1.62399994999999997;marker:none;visibility:visible;overflow:visible;enable-background:accumulate" sodipodi:nodetypes="cssscssccc"/>
    <rect id="rect5734" height="512" x="0" style="fill:none;stroke:#000000;stroke-width:20;stroke-miterlimit:4;stroke-opacity:1;stroke-dasharray:none;display:inline;filter:url(#filter5740)" width="512" y="0" ry="57" inkscape:label="#rect4203" transform="translate(128,90)" clip-path="url(#clipPath5796)"/>
  </g></g>
</svg>
