<?xml version="1.0" encoding="UTF-8" standalone="no"?>
<svg xmlns:dc="http://purl.org/dc/elements/1.1/" xmlns:cc="http://creativecommons.org/ns#" xmlns:rdf="http://www.w3.org/1999/02/22-rdf-syntax-ns#" xmlns:svg="http://www.w3.org/2000/svg" xmlns="http://www.w3.org/2000/svg" xmlns:xlink="http://www.w3.org/1999/xlink" xmlns:sodipodi="http://sodipodi.sourceforge.net/DTD/sodipodi-0.dtd" xmlns:inkscape="http://www.inkscape.org/namespaces/inkscape" width="768" height="768" id="svg2" version="1.1" inkscape:version="0.48.1 r9760" sodipodi:docname="template.svg">
  <defs id="defs4">
    <clipPath clipPathUnits="userSpaceOnUse" id="clipPathFlag">
      <rect id="rect3918" height="511" x="0.5" style="fill:#000000;fill-opacity:0.67000002;stroke:none" width="511" y="0.5" ry="57"/>
    </clipPath>
    <linearGradient id="linearGradient3852" inkscape:collect="always">
      <stop id="stop3854" offset="0" style="stop-color:#dbe3db;stop-opacity:1;"/>
      <stop id="stop3856" offset="1" style="stop-color:#dbe3db;stop-opacity:0;"/>
    </linearGradient>
    <linearGradient inkscape:collect="always" xlink:href="#linearGradient3852" id="linearGradient3070" gradientUnits="userSpaceOnUse" x1="339.54913" y1="646.63617" x2="345.74551" y2="566.63617" gradientTransform="matrix(0.93191514,0,0,0.93191514,7.9467803,7.2318863)"/>
    <clipPath id="clipPath3882" clipPathUnits="userSpaceOnUse">
      <path sodipodi:type="inkscape:offset" inkscape:radius="11.844458" inkscape:original="M 243.75 118.0625 C 179.93919 118.0625 128.5625 169.43919 128.5625 233.25 L 128.5625 528.59375 C 128.5625 592.40456 179.93919 643.78125 243.75 643.78125 L 539.09375 643.78125 C 602.90456 643.78125 654.28125 592.40456 654.28125 528.59375 L 654.28125 233.25 C 654.28125 169.43919 602.90456 118.0625 539.09375 118.0625 L 243.75 118.0625 z " style="color:#000000;fill:none;stroke:none;stroke-width:20;marker:none;visibility:visible;display:inline;overflow:visible;enable-background:accumulate" id="path3884" d="m 243.75,106.21875 c -70.16845,0 -127.03125,56.8628 -127.03125,127.03125 l 0,295.34375 c 0,70.16845 56.8628,127.03125 127.03125,127.03125 l 295.34375,0 c 70.16845,0 127.03125,-56.8628 127.03125,-127.03125 l 0,-295.34375 c 0,-70.16845 -56.8628,-127.03125 -127.03125,-127.03125 l -295.34375,0 z"/>
    </clipPath>
    <linearGradient id="linearGradient3852-0" inkscape:collect="always">
      <stop id="stop3854-6" offset="0" style="stop-color:#dbe3db;stop-opacity:1;"/>
      <stop id="stop3856-1" offset="1" style="stop-color:#dbe3db;stop-opacity:0;"/>
    </linearGradient>
    <linearGradient inkscape:collect="always" xlink:href="#linearGradient3852-0" id="linearGradient3070-5" gradientUnits="userSpaceOnUse" x1="339.54913" y1="646.63617" x2="345.74551" y2="566.63617" gradientTransform="matrix(0.93191514,0,0,0.93191514,7.9467803,7.2318863)"/>
    <linearGradient inkscape:collect="always" xlink:href="#linearGradient3852-0" id="linearGradient5122" gradientUnits="userSpaceOnUse" gradientTransform="matrix(1.1571075,0,0,1.3166846,-91.204261,-253.98784)" x1="342.1882" y1="705.75824" x2="358.07608" y2="523.40735"/>
    <linearGradient inkscape:collect="always" xlink:href="#linearGradient3852-0" id="linearGradient5125" gradientUnits="userSpaceOnUse" gradientTransform="matrix(0.95302723,0,0,0.86647129,11.575117,-4.501603)" x1="405.2634" y1="118.06474" x2="405.74554" y2="360.92188"/>
    <clipPath clipPathUnits="userSpaceOnUse" id="clipPath5712">
      <rect mask="none" inkscape:label="#rect4203" ry="64.777054" y="0" width="512" style="fill:none;display:inline" x="0" height="512" id="rect5714"/>
    </clipPath>
    <filter inkscape:collect="always" id="filter5740">
      <feGaussianBlur inkscape:collect="always" stdDeviation="5.12" id="feGaussianBlur5742"/>
    </filter>
    <clipPath clipPathUnits="userSpaceOnUse" id="clipPath5796">
      <rect inkscape:label="#rect4203" ry="57" y="0" width="512" style="fill:none;stroke:#00fa00;stroke-width:20;stroke-miterlimit:4;stroke-opacity:1;stroke-dasharray:none;display:inline" x="0" height="512" id="rect5798"/>
    </clipPath>
    <filter inkscape:collect="always" id="filter5912">
      <feGaussianBlur inkscape:collect="always" stdDeviation="17.92" id="feGaussianBlur5914"/>
    </filter>
  </defs>
  <sodipodi:namedview id="base" pagecolor="#ffffff" bordercolor="#666666" borderopacity="1.0" inkscape:pageopacity="0.0" inkscape:pageshadow="2" inkscape:zoom="0.65494792" inkscape:cx="191.61829" inkscape:cy="384" inkscape:document-units="px" showgrid="false" inkscape:window-width="1280" inkscape:window-height="723" inkscape:window-x="0" inkscape:window-y="24" inkscape:window-maximized="1"/>

  <g id="template-button" inkscape:label="template-button" style="display:inline">
  &gt;
  <g inkscape:label="00" id="00" style="display:inline" transform="translate(90,90)">
    <rect inkscape:label="#rect4203" ry="57" y="56" width="512" style="fill:#000000;fill-opacity:1;stroke:#a8a8a8;stroke-width:5;stroke-miterlimit:4;stroke-opacity:1;stroke-dasharray:none;display:inline;filter:url(#filter5912)" x="38" height="512" id="shadow"/>
  </g>
  <g id="01" inkscape:label="01" style="display:inline" transform="translate(128,128)" clip-path="url(#clipPathFlag)">
    <rect id="mask" height="512" x="0" style="fill:#0000ff;fill-opacity:1;stroke:none" width="512" y="0" ry="57" inkscape:label="#rect4203"/>
  <g transform="matrix(1.032127,0,0,1.032127,0,-1.6001e-5)" id="flag" clip-path="url(#clipPath4255)" inkscape:label="#g4214">
    <g id="g579">
      <path inkscape:connector-curvature="0" style="fill:#000000;fill-opacity:1;fill-rule:evenodd;stroke:none" d="m 0,0 336.614,212.598 407.48,0 0,70.867 -407.48,0 L 0,496.063 0,0 z" id="path553" sodipodi:nodetypes="ccccccc"/>
      <path inkscape:connector-curvature="0" style="fill:#ffff00;fill-opacity:1;fill-rule:evenodd;stroke:none" d="m 0,478.346 c 0,0 343.701,-219.685 343.701,-219.685 0,0 347.244,0 400.393,0 0,-17.716 0,-17.716 0,-21.259 l -400.393,0 L 0,17.7166 0,49.6063 c 0,0 322.441,198.4247 322.441,198.4247 0,0 -322.441,198.426 -322.441,198.426 l 0,31.889 z" id="path561" sodipodi:nodetypes="cccccccccc"/>
      <path inkscape:connector-curvature="0" style="fill:#40aa40;fill-opacity:1;fill-rule:evenodd;stroke:none" d="m 0,496.063 c 0,0 343.701,-219.685 343.701,-219.685 0,0 400.393,0 400.393,0 l 0,219.685 -744.094,0 z" id="path562" sodipodi:nodetypes="ccccc"/>
      <path inkscape:connector-curvature="0" style="font-size:12px;fill:#ce0000;fill-opacity:1;fill-rule:evenodd;stroke-width:1pt" d="m 0,0 343.701,219.685 400.393,0 L 744.094,0 0,0 z" id="path566" sodipodi:nodetypes="ccccc"/>
      <path inkscape:connector-curvature="0" style="fill:#ffff00;fill-opacity:1;fill-rule:evenodd;stroke:none" d="m 392.5,-118.937 c 13.385,-4.211 18.52,-3.257 20,-22.5 -2.636,-7.909 -2.5,-20.974 -2.5,-32.5 0.183,-15.174 0.576,-21.434 15,-17.501 8.846,1.923 22.88,-17.5 35,-17.5 18.565,-0.223 9.805,2.988 15,-10 -2.244,-17.958 -8.364,-12.5 -25,-12.5 -11.666,0 -25.833,20 -37.5,20 -7.722,-15.085 -3.189,-19.501 5,-27.5 10.929,0 27.928,-18.964 35,-22.5 11.096,-3.589 20.523,-7.342 15,-20 -1.243,-10.364 0.853,-3.859 -7.5,-7.5 -11.666,0 -25.833,20 -37.5,20 -15.611,-0.578 -15.65,-3.812 -17.5,-17.5 5.658,-7.92 13.253,-9.491 27.5,-10 15.081,0 23.424,-19.691 32.5,-25 2.721,-11.734 10.763,-19.38 -2.5,-25 -8.813,-4.935 -12.053,-4.315 -25,0 -16.688,0 -23.238,19.408 -35,12.5 1.379,-15.166 6.596,-14.81 22.5,-15 8.82,-1.917 23.145,-23.49 30,-27.5 8.728,-7.84 10.685,3.869 2.5,-20 -9.356,-7.312 -17.481,16.63 -30,20 -9.502,6.449 -19.905,7.966 -27.5,0 -8.759,-11.47 -1.954,-16.132 10,-20 10.357,-3.618 24.543,-23.521 32.5,-27.5 14.718,-1.32 16.94,-4.867 17.5,-20 -3.243,-15.835 -6.42,-6.925 -22.5,-7.5 -11.666,0 -25.833,20 -37.5,20 -2.14,-5.351 -3.894,-12.307 0,-17.5 9.123,-3.041 15.922,-6.997 30,-7.5 12.737,-1.919 17.747,-25.492 22.5,-35 -7.187,-6.229 -15.829,12.5 -30,12.5 -8.979,0 -19.693,0.684 -25,-2.5 -3.999,-15.395 -6.296,-13.323 12.5,-17.5 7.043,-6.007 21.24,-13.307 2.5,-20 -3.005,-1.093 -10.727,3.888 -20,5 -12.232,0 -24.163,-0.209 -35,2.5 -7.242,2.69 -18.163,6.097 -22.5,10 5.214,7.667 11.31,11.074 17.5,20 8.53,3.121 16.791,-1.027 20,0 -4.141,10.354 -11.153,9.826 -20,15 -15.363,0 -22.929,-20.938 -32.5,-10 7.026,3.639 21.295,23.824 30,25 8.203,0 17.952,-0.911 22.5,2.5 -0.776,15.713 -4.761,16.936 -20,17.5 -13.105,0 -22.666,-17.487 -30,-12.5 -5.384,10.768 -5.754,10.594 2.5,17.5 8.673,10.146 14.556,27.5 30,27.5 18.754,0.224 19.771,-1.492 20,17.5 -1.981,10.346 -6.942,11.233 -17.5,12.5 -12.436,0 -23.825,-18.004 -35,-20 -17.527,0.877 -9.871,-2.821 -15,10 3.894,10.974 8.211,12.142 20,17.5 8.356,2.786 21.644,20.286 30,17.5 16.184,-1.05 15.777,-2.331 10,15 -10.527,5.966 -13.397,10.634 -27.5,7.5 -14.538,-0.519 -22.176,-21.564 -35,-15 -11.231,6.912 -13.609,8.487 -2.5,20 10.507,9.757 18.542,29.535 35,30 13.597,-1.869 19.868,-5.498 27.5,-2.5 -1.586,3.967 -2.471,14.129 -5,17.5 -7.162,4.325 -17.971,4.418 -27.5,7.5 -12.844,1.736 -13.641,-7.5 -25,-7.5 -7.52,7.171 -15.439,-2.661 -12.5,10 8.384,7.277 13.155,20 27.5,20 11.667,0 25.834,5 37.5,5 16.197,3.6 13.635,7.038 17.5,22.5 -7.792,4.314 -20.341,5 -32.5,5 -11.666,0 -23.333,-17.5 -35,-17.5 -11.363,-1.623 -12.867,-7.279 -15,10 5.323,8.684 7.774,8.231 15,12.5 6.818,8.148 15.881,25.001 30,25.001 11.346,-3.742 25.427,-5.419 35,-7.501 12.95,2.816 5.274,4.958 5,20.001 2.911,13.388 4.316,15.29 0,25 l 0,0 c -1.503,11.274 -1.849,16.062 12.5,22.5 z" id="path574" sodipodi:nodetypes="cccccccccccccccccccccccccccccccccccccccccccccccccccccccccccccccccccccccccccccc" transform="matrix(0.07127294,0.04893519,-0.05575512,0.09354703,58.22032,250.2529)"/>
      <path inkscape:connector-curvature="0" style="fill:#ffff00;fill-opacity:1;fill-rule:evenodd;stroke:none" d="m 392.5,-118.937 c 13.385,-4.211 18.52,-3.257 20,-22.5 -2.636,-7.909 -2.5,-20.974 -2.5,-32.5 0.183,-15.174 0.576,-21.434 15,-17.501 8.846,1.923 22.88,-17.5 35,-17.5 18.565,-0.223 9.805,2.988 15,-10 -2.244,-17.958 -8.364,-12.5 -25,-12.5 -11.666,0 -25.833,20 -37.5,20 -7.722,-15.085 -3.189,-19.501 5,-27.5 10.929,0 27.928,-18.964 35,-22.5 11.096,-3.589 20.523,-7.342 15,-20 -1.243,-10.364 0.853,-3.859 -7.5,-7.5 -11.666,0 -25.833,20 -37.5,20 -15.611,-0.578 -15.65,-3.812 -17.5,-17.5 5.658,-7.92 13.253,-9.491 27.5,-10 15.081,0 23.424,-19.691 32.5,-25 2.721,-11.734 10.763,-19.38 -2.5,-25 -8.813,-4.935 -12.053,-4.315 -25,0 -16.688,0 -23.238,19.408 -35,12.5 1.379,-15.166 6.596,-14.81 22.5,-15 8.82,-1.917 23.145,-23.49 30,-27.5 8.728,-7.84 10.685,3.869 2.5,-20 -9.356,-7.312 -17.481,16.63 -30,20 -9.502,6.449 -19.905,7.966 -27.5,0 -8.759,-11.47 -1.954,-16.132 10,-20 10.357,-3.618 24.543,-23.521 32.5,-27.5 14.718,-1.32 16.94,-4.867 17.5,-20 -3.243,-15.835 -6.42,-6.925 -22.5,-7.5 -11.666,0 -25.833,20 -37.5,20 -2.14,-5.351 -3.894,-12.307 0,-17.5 9.123,-3.041 15.922,-6.997 30,-7.5 12.737,-1.919 17.747,-25.492 22.5,-35 -7.187,-6.229 -15.829,12.5 -30,12.5 -8.979,0 -19.693,0.684 -25,-2.5 -3.999,-15.395 -6.296,-13.323 12.5,-17.5 7.043,-6.007 21.24,-13.307 2.5,-20 -3.005,-1.093 -10.727,3.888 -20,5 -12.232,0 -24.163,-0.209 -35,2.5 -7.242,2.69 -18.163,6.097 -22.5,10 5.214,7.667 11.31,11.074 17.5,20 8.53,3.121 16.791,-1.027 20,0 -4.141,10.354 -11.153,9.826 -20,15 -15.363,0 -22.929,-20.938 -32.5,-10 7.026,3.639 21.295,23.824 30,25 8.203,0 17.952,-0.911 22.5,2.5 -0.776,15.713 -4.761,16.936 -20,17.5 -13.105,0 -22.666,-17.487 -30,-12.5 -5.384,10.768 -5.754,10.594 2.5,17.5 8.673,10.146 14.556,27.5 30,27.5 18.754,0.224 19.771,-1.492 20,17.5 -1.981,10.346 -6.942,11.233 -17.5,12.5 -12.436,0 -23.825,-18.004 -35,-20 -17.527,0.877 -9.871,-2.821 -15,10 3.894,10.974 8.211,12.142 20,17.5 8.356,2.786 21.644,20.286 30,17.5 16.184,-1.05 15.777,-2.331 10,15 -10.527,5.966 -13.397,10.634 -27.5,7.5 -14.538,-0.519 -22.176,-21.564 -35,-15 -11.231,6.912 -13.609,8.487 -2.5,20 10.507,9.757 18.542,29.535 35,30 13.597,-1.869 19.868,-5.498 27.5,-2.5 -1.586,3.967 -2.471,14.129 -5,17.5 -7.162,4.325 -17.971,4.418 -27.5,7.5 -12.844,1.736 -13.641,-7.5 -25,-7.5 -7.52,7.171 -15.439,-2.661 -12.5,10 8.384,7.277 13.155,20 27.5,20 11.667,0 25.834,5 37.5,5 16.197,3.6 13.635,7.038 17.5,22.5 -7.792,4.314 -20.341,5 -32.5,5 -11.666,0 -23.333,-17.5 -35,-17.5 -11.363,-1.623 -12.867,-7.279 -15,10 5.323,8.684 7.774,8.231 15,12.5 6.818,8.148 15.881,25.001 30,25.001 11.346,-3.742 25.427,-5.419 35,-7.501 12.95,2.816 5.274,4.958 5,20.001 2.911,13.388 4.316,15.29 0,25 l 0,0 c -1.503,11.274 -1.849,16.062 12.5,22.5 z" id="path576" sodipodi:nodetypes="cccccccccccccccccccccccccccccccccccccccccccccccccccccccccccccccccccccccccccccc" transform="matrix(0.07329115,-0.05613273,0.06368867,0.09659873,95.96606,293.0364)"/>
      <path inkscape:connector-curvature="0" style="fill:#ffff00;fill-opacity:1;fill-rule:evenodd;stroke:none" d="m 283.465,-177.165 c 0,-17.717 -2.5,-35.433 0,-35.433 141.732,0 177.165,-106.3 177.165,-177.166 0,-70.866 -49.232,-141.732 -141.732,-141.732 -106.3,0 -141.733,69.232 -141.733,141.732 0,70.866 53.15,124.016 106.3,124.016 70.866,0 88.582,-17.717 141.732,-88.583 -17.717,88.583 -106.299,124.016 -141.732,124.016 -70.867,0 -141.733,-53.15 -141.733,-159.449 0,-88.582 53.15,-177.165 177.166,-177.165 106.299,0 177.165,88.583 177.165,177.165 0,124.016 -88.583,212.599 -212.598,212.599 z" id="path577" sodipodi:nodetypes="cccccccccccc" transform="matrix(0.32,0,0,0.290909,4.252051,356.2633)"/>
    </g>
  </g></g>
  <g id="02" inkscape:label="02" style="display:inline" transform="translate(0,38)">
    <path sodipodi:nodetypes="sscssscss" inkscape:connector-curvature="0" id="path3862-8" d="m 214.21087,111.21099 c -45.24514,0.18809 -68.71568,7.73077 -64.09352,83.5526 l 2.8252,46.34456 c 47.4743,5.51239 56.66416,18.44506 104.35936,21.91413 68.07337,4.95126 67.93728,5.42092 130.56477,-14.38414 62.62753,-19.80506 5.82485,-65.24698 207.32205,-57.8201 4.60334,0.16968 17.3137,-3.05269 27.46187,-12.15043 5.5817,-46.52389 -2.78415,-69.14289 -66.93352,-68.87623 z" style="color:#000000;fill:url(#linearGradient5125);fill-opacity:1;fill-rule:nonzero;stroke:none;stroke-width:1.62399995;marker:none;visibility:visible;overflow:visible;enable-background:accumulate"/>
    <path inkscape:connector-curvature="0" id="path3079-9" d="m 531.03278,495.17335 c -31.60486,19.02245 -27.60116,31.26037 -37.91323,32.57276 -94.70417,12.0527 -145.97722,-0.72701 -165.79583,-12.06122 -59.58792,-34.07817 -68.46788,-13.01421 -100.22126,-16.5742 -20.11475,-2.25514 -59.24503,12.98404 -73.38763,44.34434 3.47222,27.60795 18.11064,32.09835 44.28127,31.98612 l 356.05526,-1.52684 c 69.69188,-0.29885 56.33547,-8.49265 65.54301,-56.03861 -14.77205,-21.67074 -13.15664,9.10903 -44.2237,-30.71666 z" style="color:#000000;fill:url(#linearGradient5122);fill-opacity:1;fill-rule:nonzero;stroke:none;stroke-width:1.62399994999999997;marker:none;visibility:visible;overflow:visible;enable-background:accumulate" sodipodi:nodetypes="cssscssccc"/>
    <rect id="rect5734" height="512" x="0" style="fill:none;stroke:#000000;stroke-width:20;stroke-miterlimit:4;stroke-opacity:1;stroke-dasharray:none;display:inline;filter:url(#filter5740)" width="512" y="0" ry="57" inkscape:label="#rect4203" transform="translate(128,90)" clip-path="url(#clipPath5796)"/>
  </g></g>
</svg>
