<?xml version="1.0" encoding="UTF-8" standalone="no"?>
<svg xmlns:dc="http://purl.org/dc/elements/1.1/" xmlns:cc="http://creativecommons.org/ns#" xmlns:rdf="http://www.w3.org/1999/02/22-rdf-syntax-ns#" xmlns:svg="http://www.w3.org/2000/svg" xmlns="http://www.w3.org/2000/svg" xmlns:xlink="http://www.w3.org/1999/xlink" xmlns:sodipodi="http://sodipodi.sourceforge.net/DTD/sodipodi-0.dtd" xmlns:inkscape="http://www.inkscape.org/namespaces/inkscape" width="768" height="768" id="svg2" version="1.1" inkscape:version="0.48.1 r9760" sodipodi:docname="template.svg">
  <defs id="defs4">
    <clipPath clipPathUnits="userSpaceOnUse" id="clipPathFlag">
      <rect id="rect3918" height="511" x="0.5" style="fill:#000000;fill-opacity:0.67000002;stroke:none" width="511" y="0.5" ry="57"/>
    </clipPath>
    <linearGradient id="linearGradient3852" inkscape:collect="always">
      <stop id="stop3854" offset="0" style="stop-color:#dbe3db;stop-opacity:1;"/>
      <stop id="stop3856" offset="1" style="stop-color:#dbe3db;stop-opacity:0;"/>
    </linearGradient>
    <linearGradient inkscape:collect="always" xlink:href="#linearGradient3852" id="linearGradient3070" gradientUnits="userSpaceOnUse" x1="339.54913" y1="646.63617" x2="345.74551" y2="566.63617" gradientTransform="matrix(0.93191514,0,0,0.93191514,7.9467803,7.2318863)"/>
    <clipPath id="clipPath3882" clipPathUnits="userSpaceOnUse">
      <path sodipodi:type="inkscape:offset" inkscape:radius="11.844458" inkscape:original="M 243.75 118.0625 C 179.93919 118.0625 128.5625 169.43919 128.5625 233.25 L 128.5625 528.59375 C 128.5625 592.40456 179.93919 643.78125 243.75 643.78125 L 539.09375 643.78125 C 602.90456 643.78125 654.28125 592.40456 654.28125 528.59375 L 654.28125 233.25 C 654.28125 169.43919 602.90456 118.0625 539.09375 118.0625 L 243.75 118.0625 z " style="color:#000000;fill:none;stroke:none;stroke-width:20;marker:none;visibility:visible;display:inline;overflow:visible;enable-background:accumulate" id="path3884" d="m 243.75,106.21875 c -70.16845,0 -127.03125,56.8628 -127.03125,127.03125 l 0,295.34375 c 0,70.16845 56.8628,127.03125 127.03125,127.03125 l 295.34375,0 c 70.16845,0 127.03125,-56.8628 127.03125,-127.03125 l 0,-295.34375 c 0,-70.16845 -56.8628,-127.03125 -127.03125,-127.03125 l -295.34375,0 z"/>
    </clipPath>
    <linearGradient id="linearGradient3852-0" inkscape:collect="always">
      <stop id="stop3854-6" offset="0" style="stop-color:#dbe3db;stop-opacity:1;"/>
      <stop id="stop3856-1" offset="1" style="stop-color:#dbe3db;stop-opacity:0;"/>
    </linearGradient>
    <linearGradient inkscape:collect="always" xlink:href="#linearGradient3852-0" id="linearGradient3070-5" gradientUnits="userSpaceOnUse" x1="339.54913" y1="646.63617" x2="345.74551" y2="566.63617" gradientTransform="matrix(0.93191514,0,0,0.93191514,7.9467803,7.2318863)"/>
    <linearGradient inkscape:collect="always" xlink:href="#linearGradient3852-0" id="linearGradient5122" gradientUnits="userSpaceOnUse" gradientTransform="matrix(1.1571075,0,0,1.3166846,-91.204261,-253.98784)" x1="342.1882" y1="705.75824" x2="358.07608" y2="523.40735"/>
    <linearGradient inkscape:collect="always" xlink:href="#linearGradient3852-0" id="linearGradient5125" gradientUnits="userSpaceOnUse" gradientTransform="matrix(0.95302723,0,0,0.86647129,11.575117,-4.501603)" x1="405.2634" y1="118.06474" x2="405.74554" y2="360.92188"/>
    <clipPath clipPathUnits="userSpaceOnUse" id="clipPath5712">
      <rect mask="none" inkscape:label="#rect4203" ry="64.777054" y="0" width="512" style="fill:none;display:inline" x="0" height="512" id="rect5714"/>
    </clipPath>
    <filter inkscape:collect="always" id="filter5740">
      <feGaussianBlur inkscape:collect="always" stdDeviation="5.12" id="feGaussianBlur5742"/>
    </filter>
    <clipPath clipPathUnits="userSpaceOnUse" id="clipPath5796">
      <rect inkscape:label="#rect4203" ry="57" y="0" width="512" style="fill:none;stroke:#00fa00;stroke-width:20;stroke-miterlimit:4;stroke-opacity:1;stroke-dasharray:none;display:inline" x="0" height="512" id="rect5798"/>
    </clipPath>
    <filter inkscape:collect="always" id="filter5912">
      <feGaussianBlur inkscape:collect="always" stdDeviation="17.92" id="feGaussianBlur5914"/>
    </filter>
  </defs>
  <sodipodi:namedview id="base" pagecolor="#ffffff" bordercolor="#666666" borderopacity="1.0" inkscape:pageopacity="0.0" inkscape:pageshadow="2" inkscape:zoom="0.65494792" inkscape:cx="191.61829" inkscape:cy="384" inkscape:document-units="px" showgrid="false" inkscape:window-width="1280" inkscape:window-height="723" inkscape:window-x="0" inkscape:window-y="24" inkscape:window-maximized="1"/>

  <g id="template-button" inkscape:label="template-button" style="display:inline">
  &gt;
  <g inkscape:label="00" id="00" style="display:inline" transform="translate(90,90)">
    <rect inkscape:label="#rect4203" ry="57" y="56" width="512" style="fill:#000000;fill-opacity:1;stroke:#a8a8a8;stroke-width:5;stroke-miterlimit:4;stroke-opacity:1;stroke-dasharray:none;display:inline;filter:url(#filter5912)" x="38" height="512" id="shadow"/>
  </g>
  <g id="01" inkscape:label="01" style="display:inline" transform="translate(128,128)" clip-path="url(#clipPathFlag)">
    <rect id="mask" height="512" x="0" style="fill:#0000ff;fill-opacity:1;stroke:none" width="512" y="0" ry="57" inkscape:label="#rect4203"/>
  <g id="flag" clip-path="url(#clipPath5207)" inkscape:label="#g5176">
    <rect style="font-size:12px;fill:#3a7dce;fill-opacity:1;fill-rule:evenodd;stroke-width:1pt" id="rect561" width="512" height="512" x="0" y="-5.7220459e-06"/>
    <path id="selection_to_path" d="m 95.838695,237.90054 c -3.701045,-7.57023 -3.701045,-7.57023 -3.701045,-15.13951 -1.850979,0 -2.197981,0.35573 -3.268206,0.0579 -1.070226,-0.29504 -1.474756,6.98014 -4.945684,5.56003 -0.578032,-0.70959 2.487452,-5.97178 -0.838283,-8.15937 -1.070226,-0.7124 0.260251,-5.02877 -0.202722,-6.92132 0,0 -4.221547,2.24642 -7.403002,-5.67673 -1.56242,-2.07089 -3.701958,1.89162 -3.701958,1.89162 0,0 0.925033,2.42475 -0.751532,3.0167 -2.371482,-1.77492 -4.107402,-0.84405 -7.114444,-3.2828 -3.007955,-2.43969 0.636474,-5.23324 -5.089964,-7.30319 3.701958,-9.46184 3.701958,-7.57022 12.95594,-11.3544 -5.552937,-3.78511 -5.552937,-3.78511 -9.253982,-9.46278 -5.552937,-1.89255 -7.403916,-3.78417 -12.956852,-7.56929 C 42.163958,164.09461 38.462,145.17092 38.462,131.92397 c 4.685433,-4.43589 11.104961,15.13951 20.359855,20.81624 0,0 12.95594,5.67766 12.95594,5.67766 7.403002,3.78512 9.253981,7.56929 14.806918,11.3544 0,0 16.657897,5.67767 16.657897,5.67767 7.403,5.67673 11.10496,13.24695 16.6579,15.13951 6.01499,0 7.1738,-3.54236 9.10239,-3.7627 10.88124,-0.57048 16.43418,-2.00367 18.60294,-5.34528 2.19706,-2.66097 7.46053,1.53776 22.26745,-4.13897 0,0 -1.85007,-7.57023 -1.85007,-7.57023 0,0 3.93299,-3.31173 9.25398,-1.89255 -0.14428,-3.45926 -0.49219,-12.68489 4.74936,-16.8472 -3.18329,-3.41444 -1.0474,-5.8616 -1.0474,-5.8616 0,0 2.95043,-2.89812 3.29651,-4.43588 -1.56059,-8.33864 1.35422,-8.46748 2.00805,-10.92118 0.65291,-2.45276 -2.51759,-1.61245 -1.6236,-4.99421 0.89215,-3.3827 6.25424,-4.18566 6.97199,-6.97174 0.72048,-2.78608 -1.52864,-4.18379 -1.39897,-4.84857 1.15698,-2.66096 0.17442,-8.93011 0,-11.35486 9.9489,-2.72045 13.18788,-10.99979 16.6579,-7.56976 1.85098,-11.354674 3.70196,-15.139598 14.80692,-15.139598 1.56242,-3.489044 -4.04987,-6.446173 -1.85098,-7.569755 3.70196,-0.473093 6.5355,-0.2365 10.87576,5.500081 1.36974,1.817862 1.61812,-2.661342 3.00612,-3.134527 1.38801,-0.473092 4.71009,-0.480468 5.20411,-2.72035 0.52233,-2.306546 1.27386,-5.322497 3.12484,-9.107328 1.56151,-3.075239 2.77601,1.182777 4.16402,7.214866 7.80936,0.295601 25.44982,2.069953 32.85282,4.13972 5.55294,1.478565 9.2549,-1.478565 14.57589,-2.069954 3.93299,4.021424 7.63495,1.005473 9.71696,9.580514 2.93946,4.627004 7.75,0.414084 8.79192,1.774166 6.18941,17.446055 27.4743,5.677295 29.09333,5.973075 2.71757,0 6.03783,7.80047 8.17737,7.60664 3.47732,-0.59877 2.49293,-3.02333 5.5301,-2.04755 -0.81088,6.56429 5.95838,14.13423 5.95838,19.04227 0,0 1.64735,0.82817 3.17415,-0.62836 1.52498,-1.4556 2.9276,-5.19636 4.28639,-5.10785 3.23898,0.47318 4.55119,0.89838 8.2842,1.56549 10.03565,3.50594 15.14753,4.29676 19.04581,6.09315 1.81354,3.39297 3.57047,5.13053 7.24594,4.49657 3.03718,2.08583 0.82185,4.81775 2.6153,4.99515 3.70196,-1.89255 4.91646,-3.96251 8.61751,-2.06995 3.70195,1.89255 7.40391,5.67766 9.25489,9.46278 0,1.89162 -1.85098,9.46184 0,20.81624 0.92503,3.78511 1.3734,6.78593 5.35022,13.27683 -1.05653,6.66829 5.00321,17.88918 5.00321,20.72848 0,3.78418 -2.95043,5.73649 -4.8014,9.52066 7.40391,5.67767 0,15.13951 -3.70105,20.81718 27.76286,5.67767 14.80692,17.03206 37.01684,11.3544 -5.55294,13.24695 -3.5869,12.1835 1.96604,25.43045 -11.10588,7.57023 -0.23012,9.87546 -7.63312,19.33731 -0.46298,0.59195 4.39413,8.22099 11.22002,8.22099 -1.85098,15.13951 -7.40392,9.46184 -5.55294,32.17158 -14.57589,-0.29504 -8.67686,16.97324 -18.50888,15.13951 0.57803,10.8222 5.61047,11.76895 3.70196,22.70879 -7.403,1.89256 -7.403,1.89256 -11.10496,7.57023 0,0 -5.55294,-1.89256 -5.55294,-1.89256 -1.85097,9.46184 -5.55202,11.3544 0,20.81718 0,0 -7.17197,0.23622 -9.25398,0 -0.17441,3.25291 3.18146,4.1399 3.70196,7.56929 -0.28947,1.36036 -10.52784,7.33306 -18.50888,7.57022 -2.082,4.6721 5.55203,9.64017 5.08997,12.00517 -8.67687,1.71422 -12.49388,12.59618 -12.49388,12.59618 0,0 4.45349,1.83374 3.70196,3.78511 -2.37057,-1.77491 -3.70196,-1.89255 -7.40301,-1.89255 -1.85098,0.47337 -6.36199,-0.11578 -10.68764,7.348 -4.74753,1.60125 -6.98843,1.02238 -10.58994,5.89148 -1.59438,-4.63849 -3.88733,0.0439 -6.69165,1.84307 -2.80158,1.80199 -6.57568,6.28082 -7.08248,6.09035 0.11597,-1.30247 1.73592,-6.03339 1.73592,-6.03339 0,0 -9.2549,1.89255 -9.2549,1.89255 0,0 -0.41274,0.0411 -1.13962,0.11671 -0.72779,0.0738 -0.53329,-5.52361 -2.28747,-5.321 -1.75327,0.20447 -6.7711,7.03989 -8.48145,7.25371 -1.70761,0.21381 -2.2482,-2.17453 -3.72022,-1.96632 -1.4711,0.20821 -4.34026,7.20982 -5.38218,7.39562 -1.04191,0.18581 -5.17488,-4.25568 -8.71704,-3.63572 -18.22031,6.56559 -21.11321,-12.95005 -23.94675,-1.95044 -3.81702,-2.07089 -3.15589,-0.86925 -7.035,0.16993 -2.47467,0.65263 -2.70022,-3.34535 -4.90094,-3.28373 -4.40327,0.12698 -4.17224,4.38546 -6.57294,3.1138 -1.96512,-8.87176 -13.82436,-7.27518 -14.98042,-11.05936 -0.94055,-3.94757 5.13745,-3.9289 7.10349,-6.60294 1.50306,-3.85887 -1.56973,-5.3238 4.52928,-9.04636 7.94907,-5.49746 3.37961,-7.57115 4.7731,-11.70266 2.49293,-5.96523 2.50754,-7.42176 0.42553,-12.68488 0,0 -6.18941,-17.03206 -7.40392,-17.03206 -3.70104,-1.06346 -3.70104,6.26774 -9.13892,8.27981 -11.10496,3.78418 -30.71146,-9.58135 -34.12485,-9.58135 -3.1221,0.0598 -17.58659,3.5022 -17.04052,-3.87195 -2.16236,7.16968 -10.11509,1.68435 -10.60546,1.68435 -7.40391,0 -4.57037,5.85506 -9.54528,5.61791 -2.25642,-0.76841 -25.04437,-2.12877 -25.04437,-2.12877 0,0 0,3.78511 0,3.78511 0,0 -14.80692,-7.57023 -14.80692,-7.57023 0,0 -12.95594,-3.78417 -12.95594,-3.78417 -11.10496,-3.78511 -5.55202,-13.24789 -24.0609,-7.57022 0,0 0,-11.3544 0,-11.3544 0,0 -9.25398,0 -9.25398,0 3.70104,-22.70974 0,-11.3544 -1.85098,-32.17158 0,0 -7.40392,1.89256 -7.40392,1.89256 -7.403,-10.23119 10.29499,-8.27982 -5.552021,-15.13951 0,0 0.288559,-11.29652 -3.701958,-7.57023 -0.809975,0.47338 1.850979,5.67767 1.850979,5.67767 -14.806918,-1.89255 -18.508876,-5.67767 -18.508876,-20.81718 0,0 12.204407,1.77492 11.10496,0 -1.735007,-2.83836 -3.990517,-21.28961 -3.585986,-22.5314 -0.173501,-2.4845 11.336903,-8.75225 9.109702,-14.72682 1.417227,-0.5322 5.581245,-0.59008 5.581245,-0.59008" style="fill:#ffffff;fill-opacity:1;stroke:none" sodipodi:nodetypes="cccccccccsccccccccccscccccccccccccccsssccccccccccscccccccccccccccccccccccccccccccscccsssssccssccccccccccccccccccccccccccccc" inkscape:connector-curvature="0"/>
    <path style="font-size:12px;fill:none;stroke:#ffffff;stroke-width:2.02688007pt;stroke-linecap:round;stroke-linejoin:round" d="m 595.512,313.50801 c -0.592,1.332 -0.487,2.662 0.125,3.612 1.099,-1.648 0.171,-2.408 -0.125,-3.612 z" id="path556" sodipodi:nodetypes="ccc" inkscape:connector-curvature="0"/>
    <path style="font-size:12px;fill:none;stroke:#ffffff;stroke-width:2.53360009;stroke-linejoin:round" d="m 119.512,164.09001 c 0,0 -3.104,-0.38 -2.407,2.344 1.014,-2.091 2.344,-2.217 2.407,-2.344 z" id="path557" sodipodi:nodetypes="ccc" inkscape:connector-curvature="0"/>
    <path style="font-size:12px;fill:none;stroke:#ffffff;stroke-width:2.53360009;stroke-linejoin:round" d="m 120.209,157.75601 c -1.71,0.064 -3.801,-0.253 -3.104,2.47 1.014,-2.09 3.041,-2.343 3.104,-2.47 z" id="path558" sodipodi:nodetypes="ccc" inkscape:connector-curvature="0"/>
    <path style="font-size:12px;fill:none;stroke:#ffffff;stroke-width:2.53360009;stroke-linejoin:round" d="m 131.888,194.05001 c 0,0 2.661,-0.19 1.964,2.534 -1.014,-2.091 -1.9,-2.407 -1.964,-2.534 z" id="path559" sodipodi:nodetypes="ccc" inkscape:connector-curvature="0"/>
  </g></g>
  <g id="02" inkscape:label="02" style="display:inline" transform="translate(0,38)">
    <path sodipodi:nodetypes="sscssscss" inkscape:connector-curvature="0" id="path3862-8" d="m 214.21087,111.21099 c -45.24514,0.18809 -68.71568,7.73077 -64.09352,83.5526 l 2.8252,46.34456 c 47.4743,5.51239 56.66416,18.44506 104.35936,21.91413 68.07337,4.95126 67.93728,5.42092 130.56477,-14.38414 62.62753,-19.80506 5.82485,-65.24698 207.32205,-57.8201 4.60334,0.16968 17.3137,-3.05269 27.46187,-12.15043 5.5817,-46.52389 -2.78415,-69.14289 -66.93352,-68.87623 z" style="color:#000000;fill:url(#linearGradient5125);fill-opacity:1;fill-rule:nonzero;stroke:none;stroke-width:1.62399995;marker:none;visibility:visible;overflow:visible;enable-background:accumulate"/>
    <path inkscape:connector-curvature="0" id="path3079-9" d="m 531.03278,495.17335 c -31.60486,19.02245 -27.60116,31.26037 -37.91323,32.57276 -94.70417,12.0527 -145.97722,-0.72701 -165.79583,-12.06122 -59.58792,-34.07817 -68.46788,-13.01421 -100.22126,-16.5742 -20.11475,-2.25514 -59.24503,12.98404 -73.38763,44.34434 3.47222,27.60795 18.11064,32.09835 44.28127,31.98612 l 356.05526,-1.52684 c 69.69188,-0.29885 56.33547,-8.49265 65.54301,-56.03861 -14.77205,-21.67074 -13.15664,9.10903 -44.2237,-30.71666 z" style="color:#000000;fill:url(#linearGradient5122);fill-opacity:1;fill-rule:nonzero;stroke:none;stroke-width:1.62399994999999997;marker:none;visibility:visible;overflow:visible;enable-background:accumulate" sodipodi:nodetypes="cssscssccc"/>
    <rect id="rect5734" height="512" x="0" style="fill:none;stroke:#000000;stroke-width:20;stroke-miterlimit:4;stroke-opacity:1;stroke-dasharray:none;display:inline;filter:url(#filter5740)" width="512" y="0" ry="57" inkscape:label="#rect4203" transform="translate(128,90)" clip-path="url(#clipPath5796)"/>
  </g></g>
</svg>
