<?xml version="1.0" encoding="UTF-8" standalone="no"?>
<svg xmlns:dc="http://purl.org/dc/elements/1.1/" xmlns:cc="http://creativecommons.org/ns#" xmlns:rdf="http://www.w3.org/1999/02/22-rdf-syntax-ns#" xmlns:svg="http://www.w3.org/2000/svg" xmlns="http://www.w3.org/2000/svg" xmlns:xlink="http://www.w3.org/1999/xlink" xmlns:sodipodi="http://sodipodi.sourceforge.net/DTD/sodipodi-0.dtd" xmlns:inkscape="http://www.inkscape.org/namespaces/inkscape" width="768" height="768" id="svg2" version="1.1" inkscape:version="0.48.1 r9760" sodipodi:docname="template.svg">
  <defs id="defs4">
    <clipPath clipPathUnits="userSpaceOnUse" id="clipPathFlag">
      <rect id="rect3918" height="511" x="0.5" style="fill:#000000;fill-opacity:0.67000002;stroke:none" width="511" y="0.5" ry="57"/>
    </clipPath>
    <linearGradient id="linearGradient3852" inkscape:collect="always">
      <stop id="stop3854" offset="0" style="stop-color:#dbe3db;stop-opacity:1;"/>
      <stop id="stop3856" offset="1" style="stop-color:#dbe3db;stop-opacity:0;"/>
    </linearGradient>
    <linearGradient inkscape:collect="always" xlink:href="#linearGradient3852" id="linearGradient3070" gradientUnits="userSpaceOnUse" x1="339.54913" y1="646.63617" x2="345.74551" y2="566.63617" gradientTransform="matrix(0.93191514,0,0,0.93191514,7.9467803,7.2318863)"/>
    <clipPath id="clipPath3882" clipPathUnits="userSpaceOnUse">
      <path sodipodi:type="inkscape:offset" inkscape:radius="11.844458" inkscape:original="M 243.75 118.0625 C 179.93919 118.0625 128.5625 169.43919 128.5625 233.25 L 128.5625 528.59375 C 128.5625 592.40456 179.93919 643.78125 243.75 643.78125 L 539.09375 643.78125 C 602.90456 643.78125 654.28125 592.40456 654.28125 528.59375 L 654.28125 233.25 C 654.28125 169.43919 602.90456 118.0625 539.09375 118.0625 L 243.75 118.0625 z " style="color:#000000;fill:none;stroke:none;stroke-width:20;marker:none;visibility:visible;display:inline;overflow:visible;enable-background:accumulate" id="path3884" d="m 243.75,106.21875 c -70.16845,0 -127.03125,56.8628 -127.03125,127.03125 l 0,295.34375 c 0,70.16845 56.8628,127.03125 127.03125,127.03125 l 295.34375,0 c 70.16845,0 127.03125,-56.8628 127.03125,-127.03125 l 0,-295.34375 c 0,-70.16845 -56.8628,-127.03125 -127.03125,-127.03125 l -295.34375,0 z"/>
    </clipPath>
    <linearGradient id="linearGradient3852-0" inkscape:collect="always">
      <stop id="stop3854-6" offset="0" style="stop-color:#dbe3db;stop-opacity:1;"/>
      <stop id="stop3856-1" offset="1" style="stop-color:#dbe3db;stop-opacity:0;"/>
    </linearGradient>
    <linearGradient inkscape:collect="always" xlink:href="#linearGradient3852-0" id="linearGradient3070-5" gradientUnits="userSpaceOnUse" x1="339.54913" y1="646.63617" x2="345.74551" y2="566.63617" gradientTransform="matrix(0.93191514,0,0,0.93191514,7.9467803,7.2318863)"/>
    <linearGradient inkscape:collect="always" xlink:href="#linearGradient3852-0" id="linearGradient5122" gradientUnits="userSpaceOnUse" gradientTransform="matrix(1.1571075,0,0,1.3166846,-91.204261,-253.98784)" x1="342.1882" y1="705.75824" x2="358.07608" y2="523.40735"/>
    <linearGradient inkscape:collect="always" xlink:href="#linearGradient3852-0" id="linearGradient5125" gradientUnits="userSpaceOnUse" gradientTransform="matrix(0.95302723,0,0,0.86647129,11.575117,-4.501603)" x1="405.2634" y1="118.06474" x2="405.74554" y2="360.92188"/>
    <clipPath clipPathUnits="userSpaceOnUse" id="clipPath5712">
      <rect mask="none" inkscape:label="#rect4203" ry="64.777054" y="0" width="512" style="fill:none;display:inline" x="0" height="512" id="rect5714"/>
    </clipPath>
    <filter inkscape:collect="always" id="filter5740">
      <feGaussianBlur inkscape:collect="always" stdDeviation="5.12" id="feGaussianBlur5742"/>
    </filter>
    <clipPath clipPathUnits="userSpaceOnUse" id="clipPath5796">
      <rect inkscape:label="#rect4203" ry="57" y="0" width="512" style="fill:none;stroke:#00fa00;stroke-width:20;stroke-miterlimit:4;stroke-opacity:1;stroke-dasharray:none;display:inline" x="0" height="512" id="rect5798"/>
    </clipPath>
    <filter inkscape:collect="always" id="filter5912">
      <feGaussianBlur inkscape:collect="always" stdDeviation="17.92" id="feGaussianBlur5914"/>
    </filter>
  </defs>
  <sodipodi:namedview id="base" pagecolor="#ffffff" bordercolor="#666666" borderopacity="1.0" inkscape:pageopacity="0.0" inkscape:pageshadow="2" inkscape:zoom="0.65494792" inkscape:cx="191.61829" inkscape:cy="384" inkscape:document-units="px" showgrid="false" inkscape:window-width="1280" inkscape:window-height="723" inkscape:window-x="0" inkscape:window-y="24" inkscape:window-maximized="1"/>

  <g id="template-button" inkscape:label="template-button" style="display:inline">
  &gt;
  <g inkscape:label="00" id="00" style="display:inline" transform="translate(90,90)">
    <rect inkscape:label="#rect4203" ry="57" y="56" width="512" style="fill:#000000;fill-opacity:1;stroke:#a8a8a8;stroke-width:5;stroke-miterlimit:4;stroke-opacity:1;stroke-dasharray:none;display:inline;filter:url(#filter5912)" x="38" height="512" id="shadow"/>
  </g>
  <g id="01" inkscape:label="01" style="display:inline" transform="translate(128,128)" clip-path="url(#clipPathFlag)">
    <rect id="mask" height="512" x="0" style="fill:#0000ff;fill-opacity:1;stroke:none" width="512" y="0" ry="57" inkscape:label="#rect4203"/>
  <g id="flag" clip-path="url(#clipPath3640)" inkscape:label="#g3447">
    <g transform="matrix(2.3703697,0,0,2.3703697,0,1.5214289e-4)" id="g3442">
      <path inkscape:connector-curvature="0" style="fill:#3399cc;stroke:none" d="M 0,-6.41853e-5 0,216 l 324,0 0,-216.0000641853 -324,0 z" id="path1359"/>
      <path inkscape:connector-curvature="0" style="fill:#ffff00;stroke:none" d="m 0,144 0,12 324,0 0,-12 -324,0 z" id="path1553"/>
      <path inkscape:connector-curvature="0" style="fill:#ffff00;stroke:none" d="m 0,168 0,12 324,0 0,-12 -324,0 z" id="path1555"/>
    </g>
    <g transform="matrix(2.3804298,0,0,2.3804298,7.806315,-0.498212)" id="g3256">
      <path inkscape:connector-curvature="0" style="fill:#99cccc;stroke:none" d="m 48,12 1,1 -1,-1 z" id="path1360"/>
      <path inkscape:connector-curvature="0" style="fill:#99cccc;stroke:none" d="m 47,14 1,1 -1,-1 m 2,0 1,1 -1,-1 z" id="path1362"/>
      <path inkscape:connector-curvature="0" style="fill:#ccccff;stroke:none" d="m 47,15 1,1 -1,-1 m 2,0 1,1 -1,-1 z" id="path1363"/>
      <path inkscape:connector-curvature="0" style="fill:#66cccc;stroke:none" d="m 46,17 1,1 -1,-1 z" id="path1364"/>
      <path inkscape:connector-curvature="0" style="fill:#cc6666;stroke:none" d="m 48,17 1,1 -1,-1 z" id="path1365"/>
      <path inkscape:connector-curvature="0" style="fill:#66cccc;stroke:none" d="m 50,17 1,1 -1,-1 z" id="path1366"/>
      <path inkscape:connector-curvature="0" style="fill:#ccccff;stroke:none" d="m 46,18 1,1 -1,-1 z" id="path1367"/>
      <path inkscape:connector-curvature="0" style="fill:#ccccff;stroke:none" d="m 50,18 1,1 -1,-1 z" id="path1369"/>
      <path inkscape:connector-curvature="0" style="fill:#ffcccc;stroke:none" d="m 47,19 1,1 -1,-1 m 2,0 1,1 -1,-1 z" id="path1370"/>
      <path inkscape:connector-curvature="0" style="fill:#66cccc;stroke:none" d="m 45,20 1,1 -1,-1 z" id="path1371"/>
      <path inkscape:connector-curvature="0" style="fill:#cc0000;stroke:#ffffff;stroke-width:1.25;stroke-opacity:1;stroke-dasharray:none" d="M 47.8346,14.0315 40.825,40.6063 14.1732,47.8437 40.748,54.7795 47.8346,81.3543 54.9213,54.7795 81.4961,47.6929 54.9213,40.6063 47.8346,14.0315 z" id="path1372" sodipodi:nodetypes="ccccccccc"/>
      <path inkscape:connector-curvature="0" style="fill:#66cccc;stroke:none" d="m 51,20 1,1 -1,-1 z" id="path1373"/>
      <path inkscape:connector-curvature="0" style="fill:#99ccff;stroke:none" d="m 45,21 1,1 -1,-1 m 6,0 1,1 -1,-1 z" id="path1374"/>
      <path inkscape:connector-curvature="0" style="fill:#ffcccc;stroke:none" d="m 46,22 1,1 -1,-1 m 4,0 1,1 -1,-1 z" id="path1375"/>
      <path inkscape:connector-curvature="0" style="fill:#6699cc;stroke:none" d="m 44,23 1,1 -1,-1 z" id="path1376"/>
      <path inkscape:connector-curvature="0" style="fill:#cc3333;stroke:none" d="m 46.3333,23.6667 0.3334,0.6666 -0.3334,-0.6666 m 4,0 0.3334,0.6666 -0.3334,-0.6666 z" id="path1377"/>
      <path inkscape:connector-curvature="0" style="fill:#6699cc;stroke:none" d="m 52,23 1,1 -1,-1 z" id="path1378"/>
      <path inkscape:connector-curvature="0" style="fill:#99ccff;stroke:none" d="m 44,24 1,1 -1,-1 m 8,0 1,1 -1,-1 z" id="path1379"/>
      <path inkscape:connector-curvature="0" style="fill:#ffcccc;stroke:none" d="m 45,25 1,1 -1,-1 m 6,0 1,1 -1,-1 z" id="path1380"/>
      <path inkscape:connector-curvature="0" style="fill:#6699cc;stroke:none" d="m 43,26 1,1 -1,-1 z" id="path1381"/>
      <path inkscape:connector-curvature="0" style="fill:#6699cc;stroke:none" d="m 53,26 1,1 -1,-1 z" id="path1383"/>
      <path inkscape:connector-curvature="0" style="fill:#99cccc;stroke:none" d="m 43,27 1,1 -1,-1 m 10,0 1,1 -1,-1 z" id="path1384"/>
      <path inkscape:connector-curvature="0" style="fill:#ccffff;stroke:none" d="m 43,28 1,1 -1,-1 m 10,0 1,1 -1,-1 z" id="path1385"/>
      <path inkscape:connector-curvature="0" style="fill:#6699cc;stroke:none" d="m 42,29 1,1 -1,-1 z" id="path1386"/>
      <path inkscape:connector-curvature="0" style="fill:#ffcccc;stroke:none" d="m 44,29 1,1 -1,-1 m 8,0 1,1 -1,-1 z" id="path1387"/>
      <path inkscape:connector-curvature="0" style="fill:#6699cc;stroke:none" d="m 54,29 1,1 -1,-1 z" id="path1388"/>
      <path inkscape:connector-curvature="0" style="fill:#99cccc;stroke:none" d="m 42,30 1,1 -1,-1 z" id="path1389"/>
      <path inkscape:connector-curvature="0" style="fill:#cc3333;stroke:none" d="m 44.3333,30.6667 0.3334,0.6666 -0.3334,-0.6666 m 8,0 0.3334,0.6666 -0.3334,-0.6666 z" id="path1390"/>
      <path inkscape:connector-curvature="0" style="fill:#99cccc;stroke:none" d="m 54,30 1,1 -1,-1 z" id="path1391"/>
      <path inkscape:connector-curvature="0" style="fill:#ccffff;stroke:none" d="m 42,31 1,1 -1,-1 m 12,0 1,1 -1,-1 z" id="path1392"/>
      <path inkscape:connector-curvature="0" style="fill:#ffcccc;stroke:none" d="m 43,32 1,1 -1,-1 m 10,0 1,1 -1,-1 z" id="path1393"/>
      <path inkscape:connector-curvature="0" style="fill:#99cccc;stroke:none" d="m 41,33 1,1 -1,-1 z" id="path1394"/>
      <path inkscape:connector-curvature="0" style="fill:#cc3333;stroke:none" d="m 43.3333,33.6667 0.3334,0.6666 -0.3334,-0.6666 m 10,0 0.3334,0.6666 -0.3334,-0.6666 z" id="path1395"/>
      <path inkscape:connector-curvature="0" style="fill:#99cccc;stroke:none" d="m 55,33 1,1 -1,-1 z" id="path1396"/>
      <path inkscape:connector-curvature="0" style="fill:#ccccff;stroke:none" d="m 41,34 1,1 -1,-1 m 14,0 1,1 -1,-1 z" id="path1397"/>
      <path inkscape:connector-curvature="0" style="fill:#ffcccc;stroke:none" d="m 42,35 1,1 -1,-1 m 12,0 1,1 -1,-1 z" id="path1398"/>
      <path inkscape:connector-curvature="0" style="fill:#99cccc;stroke:none" d="m 40,36 1,1 -1,-1 z" id="path1399"/>
      <path inkscape:connector-curvature="0" style="fill:#cc3333;stroke:none" d="m 42.3333,36.6667 0.3334,0.6666 -0.3334,-0.6666 m 12,0 0.3334,0.6666 -0.3334,-0.6666 z" id="path1400"/>
      <path inkscape:connector-curvature="0" style="fill:#99cccc;stroke:none" d="m 56,36 1,1 -1,-1 z" id="path1401"/>
      <path inkscape:connector-curvature="0" style="fill:#ccccff;stroke:none" d="m 40,37 1,1 -1,-1 m 16,0 1,1 -1,-1 z" id="path1402"/>
      <path inkscape:connector-curvature="0" style="fill:#ffcccc;stroke:none" d="m 41,38 1,1 -1,-1 m 14,0 1,1 -1,-1 z" id="path1403"/>
      <path inkscape:connector-curvature="0" style="fill:#99cccc;stroke:none" d="m 39,39 1,1 -1,-1 z" id="path1404"/>
      <path inkscape:connector-curvature="0" style="fill:#cc3333;stroke:none" d="m 41,39 1,1 -1,-1 m 14,0 1,1 -1,-1 z" id="path1405"/>
      <path inkscape:connector-curvature="0" style="fill:#99cccc;stroke:none" d="m 57,39 1,1 -1,-1 m -21,1 1,1 -1,-1 z" id="path1406"/>
      <path inkscape:connector-curvature="0" style="fill:#ccccff;stroke:none" d="m 37,40 1,1 -1,-1 m 22,0 1,1 -1,-1 z" id="path1407"/>
      <path inkscape:connector-curvature="0" style="fill:#99cccc;stroke:none" d="m 60,40 1,1 -1,-1 m -27,1 1,1 -1,-1 z" id="path1408"/>
      <path inkscape:connector-curvature="0" style="fill:#ccccff;stroke:none" d="m 34,41 1,1 -1,-1 z" id="path1409"/>
      <path inkscape:connector-curvature="0" style="fill:#ffcccc;stroke:none" d="m 38,41 1,1 -1,-1 z" id="path1410"/>
      <path inkscape:connector-curvature="0" style="fill:#cc3333;stroke:none" d="m 39,41 1,1 -1,-1 m 18,0 1,1 -1,-1 z" id="path1411"/>
      <path inkscape:connector-curvature="0" style="fill:#ffcccc;stroke:none" d="m 58,41 1,1 -1,-1 z" id="path1412"/>
      <path inkscape:connector-curvature="0" style="fill:#ccccff;stroke:none" d="m 62,41 1,1 -1,-1 z" id="path1413"/>
      <path inkscape:connector-curvature="0" style="fill:#99cccc;stroke:none" d="m 63,41 1,1 -1,-1 z" id="path1414"/>
      <path inkscape:connector-curvature="0" style="fill:#6699cc;stroke:none" d="m 29,42 1,1 -1,-1 z" id="path1415"/>
      <path inkscape:connector-curvature="0" style="fill:#99cccc;stroke:none" d="m 30,42 1,1 -1,-1 z" id="path1416"/>
      <path inkscape:connector-curvature="0" style="fill:#ccffff;stroke:none" d="m 31,42 1,1 -1,-1 z" id="path1417"/>
      <path inkscape:connector-curvature="0" style="fill:#ffcccc;stroke:none" d="m 35,42 1,1 -1,-1 z" id="path1418"/>
      <path inkscape:connector-curvature="0" style="fill:#cc3333;stroke:none" d="m 36.6667,42.3333 0.6666,0.3334 -0.6666,-0.3334 m 23,0 0.6666,0.3334 -0.6666,-0.3334 z" id="path1419"/>
      <path inkscape:connector-curvature="0" style="fill:#ffcccc;stroke:none" d="m 61,42 1,1 -1,-1 z" id="path1420"/>
      <path inkscape:connector-curvature="0" style="fill:#ccffff;stroke:none" d="m 65,42 1,1 -1,-1 z" id="path1421"/>
      <path inkscape:connector-curvature="0" style="fill:#99cccc;stroke:none" d="m 66,42 1,1 -1,-1 z" id="path1422"/>
      <path inkscape:connector-curvature="0" style="fill:#6699cc;stroke:none" d="m 67,42 1,1 -1,-1 m -41,1 1,1 -1,-1 z" id="path1423"/>
      <path inkscape:connector-curvature="0" style="fill:#99cccc;stroke:none" d="m 27,43 1,1 -1,-1 z" id="path1424"/>
      <path inkscape:connector-curvature="0" style="fill:#ccffff;stroke:none" d="m 28,43 1,1 -1,-1 z" id="path1425"/>
      <path inkscape:connector-curvature="0" style="fill:#ffcccc;stroke:none" d="m 32,43 1,1 -1,-1 z" id="path1426"/>
      <path inkscape:connector-curvature="0" style="fill:#cc3333;stroke:none" d="m 33.6667,43.3333 0.6666,0.3334 -0.6666,-0.3334 m 29,0 0.6666,0.3334 -0.6666,-0.3334 z" id="path1427"/>
      <path inkscape:connector-curvature="0" style="fill:#ffcccc;stroke:none" d="m 64,43 1,1 -1,-1 z" id="path1428"/>
      <path inkscape:connector-curvature="0" style="fill:#ccffff;stroke:none" d="m 68,43 1,1 -1,-1 z" id="path1429"/>
      <path inkscape:connector-curvature="0" style="fill:#99cccc;stroke:none" d="m 69,43 1,1 -1,-1 z" id="path1430"/>
      <path inkscape:connector-curvature="0" style="fill:#6699cc;stroke:none" d="m 70,43 1,1 -1,-1 m -47,1 1,1 -1,-1 z" id="path1431"/>
      <path inkscape:connector-curvature="0" style="fill:#99ccff;stroke:none" d="m 24,44 1,1 -1,-1 z" id="path1432"/>
      <path inkscape:connector-curvature="0" style="fill:#ffcccc;stroke:none" d="m 29,44 1,1 -1,-1 z" id="path1433"/>
      <path inkscape:connector-curvature="0" style="fill:#cc3333;stroke:none" d="m 30.6667,44.3333 0.6666,0.3334 -0.6666,-0.3334 m 35,0 0.6666,0.3334 -0.6666,-0.3334 z" id="path1434"/>
      <path inkscape:connector-curvature="0" style="fill:#ffcccc;stroke:none" d="m 67,44 1,1 -1,-1 z" id="path1435"/>
      <path inkscape:connector-curvature="0" style="fill:#99ccff;stroke:none" d="m 72,44 1,1 -1,-1 z" id="path1436"/>
      <path inkscape:connector-curvature="0" style="fill:#6699cc;stroke:none" d="m 73,44 1,1 -1,-1 z" id="path1437"/>
      <path inkscape:connector-curvature="0" style="fill:#66cccc;stroke:none" d="m 20,45 1,1 -1,-1 z" id="path1438"/>
      <path inkscape:connector-curvature="0" style="fill:#99ccff;stroke:none" d="m 21,45 1,1 -1,-1 z" id="path1439"/>
      <path inkscape:connector-curvature="0" style="fill:#ffcccc;stroke:none" d="m 25,45 1,1 -1,-1 z" id="path1440"/>
      <path inkscape:connector-curvature="0" style="fill:#ffcccc;stroke:none" d="m 71,45 1,1 -1,-1 z" id="path1442"/>
      <path inkscape:connector-curvature="0" style="fill:#99ccff;stroke:none" d="m 75,45 1,1 -1,-1 z" id="path1443"/>
      <path inkscape:connector-curvature="0" style="fill:#66cccc;stroke:none" d="m 76,45 1,1 -1,-1 m -59,1 1,1 -1,-1 z" id="path1444"/>
      <path inkscape:connector-curvature="0" style="fill:#ccccff;stroke:none" d="m 18,46 1,1 -1,-1 z" id="path1445"/>
      <path inkscape:connector-curvature="0" style="fill:#ffcccc;stroke:none" d="m 22,46 1,1 -1,-1 z" id="path1446"/>
      <path inkscape:connector-curvature="0" style="fill:#cc3333;stroke:none" d="m 23.6667,46.3333 0.6666,0.3334 -0.6666,-0.3334 m 49,0 0.6666,0.3334 -0.6666,-0.3334 z" id="path1447"/>
      <path inkscape:connector-curvature="0" style="fill:#ffcccc;stroke:none" d="m 74,46 1,1 -1,-1 z" id="path1448"/>
      <path inkscape:connector-curvature="0" style="fill:#ccccff;stroke:none" d="m 78,46 1,1 -1,-1 z" id="path1449"/>
      <path inkscape:connector-curvature="0" style="fill:#66cccc;stroke:none" d="m 79,46 1,1 -1,-1 z" id="path1450"/>
      <path inkscape:connector-curvature="0" style="fill:#99cccc;stroke:none" d="m 14,47 1,1 -1,-1 z" id="path1451"/>
      <path inkscape:connector-curvature="0" style="fill:#ccccff;stroke:none" d="m 15,47 1,1 -1,-1 z" id="path1452"/>
      <path inkscape:connector-curvature="0" style="fill:#ffcccc;stroke:none" d="m 19,47 1,1 -1,-1 z" id="path1453"/>
      <path inkscape:connector-curvature="0" style="fill:#ffcccc;stroke:none" d="m 77,47 1,1 -1,-1 z" id="path1455"/>
      <path inkscape:connector-curvature="0" style="fill:#ccccff;stroke:none" d="m 81,47 1,1 -1,-1 z" id="path1456"/>
      <path inkscape:connector-curvature="0" style="fill:#99cccc;stroke:none" d="m 82,47 1,1 -1,-1 m -70,1 1,1 -1,-1 z" id="path1457"/>
      <path inkscape:connector-curvature="0" style="fill:#cc6666;stroke:none" d="m 17,48 1,1 -1,-1 z" id="path1458"/>
      <path inkscape:connector-curvature="0" style="fill:#cc6666;stroke:none" d="m 79,48 1,1 -1,-1 z" id="path1460"/>
      <path inkscape:connector-curvature="0" style="fill:#99cccc;stroke:none" d="m 84,48 1,1 -1,-1 m -70,1 1,1 -1,-1 z" id="path1461"/>
      <path inkscape:connector-curvature="0" style="fill:#ccccff;stroke:none" d="m 15,49 1,1 -1,-1 z" id="path1462"/>
      <path inkscape:connector-curvature="0" style="fill:#ffcccc;stroke:none" d="m 19,49 1,1 -1,-1 m 58,0 1,1 -1,-1 z" id="path1463"/>
      <path inkscape:connector-curvature="0" style="fill:#ccccff;stroke:none" d="m 81,49 1,1 -1,-1 z" id="path1464"/>
      <path inkscape:connector-curvature="0" style="fill:#99cccc;stroke:none" d="m 82,49 1,1 -1,-1 z" id="path1465"/>
      <path inkscape:connector-curvature="0" style="fill:#66cccc;stroke:none" d="m 17,50 1,1 -1,-1 z" id="path1466"/>
      <path inkscape:connector-curvature="0" style="fill:#ccccff;stroke:none" d="m 18,50 1,1 -1,-1 z" id="path1467"/>
      <path inkscape:connector-curvature="0" style="fill:#ffcccc;stroke:none" d="m 22,50 1,1 -1,-1 z" id="path1468"/>
      <path inkscape:connector-curvature="0" style="fill:#cc3333;stroke:none" d="m 23.6667,50.3333 0.6666,0.3334 -0.6666,-0.3334 m 49,0 0.6666,0.3334 -0.6666,-0.3334 z" id="path1469"/>
      <path inkscape:connector-curvature="0" style="fill:#ffcccc;stroke:none" d="m 74,50 1,1 -1,-1 z" id="path1470"/>
      <path inkscape:connector-curvature="0" style="fill:#ccccff;stroke:none" d="m 78,50 1,1 -1,-1 z" id="path1471"/>
      <path inkscape:connector-curvature="0" style="fill:#66cccc;stroke:none" d="m 79,50 1,1 -1,-1 m -59,1 1,1 -1,-1 z" id="path1472"/>
      <path inkscape:connector-curvature="0" style="fill:#99ccff;stroke:none" d="m 21,51 1,1 -1,-1 z" id="path1473"/>
      <path inkscape:connector-curvature="0" style="fill:#ffcccc;stroke:none" d="m 25,51 1,1 -1,-1 z" id="path1474"/>
      <path inkscape:connector-curvature="0" style="fill:#ffcccc;stroke:none" d="m 71,51 1,1 -1,-1 z" id="path1476"/>
      <path inkscape:connector-curvature="0" style="fill:#99ccff;stroke:none" d="m 75,51 1,1 -1,-1 z" id="path1477"/>
      <path inkscape:connector-curvature="0" style="fill:#66cccc;stroke:none" d="m 76,51 1,1 -1,-1 z" id="path1478"/>
      <path inkscape:connector-curvature="0" style="fill:#6699cc;stroke:none" d="m 23,52 1,1 -1,-1 z" id="path1479"/>
      <path inkscape:connector-curvature="0" style="fill:#99ccff;stroke:none" d="m 24,52 1,1 -1,-1 z" id="path1480"/>
      <path inkscape:connector-curvature="0" style="fill:#ffcccc;stroke:none" d="m 29,52 1,1 -1,-1 z" id="path1481"/>
      <path inkscape:connector-curvature="0" style="fill:#cc3333;stroke:none" d="m 30.6667,52.3333 0.6666,0.3334 -0.6666,-0.3334 m 35,0 0.6666,0.3334 -0.6666,-0.3334 z" id="path1482"/>
      <path inkscape:connector-curvature="0" style="fill:#ffcccc;stroke:none" d="m 67,52 1,1 -1,-1 z" id="path1483"/>
      <path inkscape:connector-curvature="0" style="fill:#99ccff;stroke:none" d="m 72,52 1,1 -1,-1 z" id="path1484"/>
      <path inkscape:connector-curvature="0" style="fill:#6699cc;stroke:none" d="m 73,52 1,1 -1,-1 m -47,1 1,1 -1,-1 z" id="path1485"/>
      <path inkscape:connector-curvature="0" style="fill:#99cccc;stroke:none" d="m 27,53 1,1 -1,-1 z" id="path1486"/>
      <path inkscape:connector-curvature="0" style="fill:#ccffff;stroke:none" d="m 28,53 1,1 -1,-1 z" id="path1487"/>
      <path inkscape:connector-curvature="0" style="fill:#ffcccc;stroke:none" d="m 32,53 1,1 -1,-1 z" id="path1488"/>
      <path inkscape:connector-curvature="0" style="fill:#cc3333;stroke:none" d="m 33.6667,53.3333 0.6666,0.3334 -0.6666,-0.3334 m 29,0 0.6666,0.3334 -0.6666,-0.3334 z" id="path1489"/>
      <path inkscape:connector-curvature="0" style="fill:#ffcccc;stroke:none" d="m 64,53 1,1 -1,-1 z" id="path1490"/>
      <path inkscape:connector-curvature="0" style="fill:#ccffff;stroke:none" d="m 68,53 1,1 -1,-1 z" id="path1491"/>
      <path inkscape:connector-curvature="0" style="fill:#99cccc;stroke:none" d="m 69,53 1,1 -1,-1 z" id="path1492"/>
      <path inkscape:connector-curvature="0" style="fill:#6699cc;stroke:none" d="m 70,53 1,1 -1,-1 m -41,1 1,1 -1,-1 z" id="path1493"/>
      <path inkscape:connector-curvature="0" style="fill:#99cccc;stroke:none" d="m 30,54 1,1 -1,-1 z" id="path1494"/>
      <path inkscape:connector-curvature="0" style="fill:#ccffff;stroke:none" d="m 31,54 1,1 -1,-1 z" id="path1495"/>
      <path inkscape:connector-curvature="0" style="fill:#ffcccc;stroke:none" d="m 35,54 1,1 -1,-1 z" id="path1496"/>
      <path inkscape:connector-curvature="0" style="fill:#cc3333;stroke:none" d="m 36.6667,54.3333 0.6666,0.3334 -0.6666,-0.3334 m 23,0 0.6666,0.3334 -0.6666,-0.3334 z" id="path1497"/>
      <path inkscape:connector-curvature="0" style="fill:#ffcccc;stroke:none" d="m 61,54 1,1 -1,-1 z" id="path1498"/>
      <path inkscape:connector-curvature="0" style="fill:#ccffff;stroke:none" d="m 65,54 1,1 -1,-1 z" id="path1499"/>
      <path inkscape:connector-curvature="0" style="fill:#99cccc;stroke:none" d="m 66,54 1,1 -1,-1 z" id="path1500"/>
      <path inkscape:connector-curvature="0" style="fill:#6699cc;stroke:none" d="m 67,54 1,1 -1,-1 z" id="path1501"/>
      <path inkscape:connector-curvature="0" style="fill:#99cccc;stroke:none" d="m 33,55 1,1 -1,-1 z" id="path1502"/>
      <path inkscape:connector-curvature="0" style="fill:#ccccff;stroke:none" d="m 34,55 1,1 -1,-1 z" id="path1503"/>
      <path inkscape:connector-curvature="0" style="fill:#ffcccc;stroke:none" d="m 38,55 1,1 -1,-1 z" id="path1504"/>
      <path inkscape:connector-curvature="0" style="fill:#cc3333;stroke:none" d="m 39,55 1,1 -1,-1 m 18,0 1,1 -1,-1 z" id="path1505"/>
      <path inkscape:connector-curvature="0" style="fill:#ffcccc;stroke:none" d="m 58,55 1,1 -1,-1 z" id="path1506"/>
      <path inkscape:connector-curvature="0" style="fill:#ccccff;stroke:none" d="m 62,55 1,1 -1,-1 z" id="path1507"/>
      <path inkscape:connector-curvature="0" style="fill:#99cccc;stroke:none" d="m 63,55 1,1 -1,-1 m -27,1 1,1 -1,-1 z" id="path1508"/>
      <path inkscape:connector-curvature="0" style="fill:#ccccff;stroke:none" d="m 37,56 1,1 -1,-1 m 22,0 1,1 -1,-1 z" id="path1509"/>
      <path inkscape:connector-curvature="0" style="fill:#99cccc;stroke:none" d="m 60,56 1,1 -1,-1 m -21,1 1,1 -1,-1 z" id="path1510"/>
      <path inkscape:connector-curvature="0" style="fill:#cc3333;stroke:none" d="m 41,57 1,1 -1,-1 m 14,0 1,1 -1,-1 z" id="path1511"/>
      <path inkscape:connector-curvature="0" style="fill:#99cccc;stroke:none" d="m 57,57 1,1 -1,-1 z" id="path1512"/>
      <path inkscape:connector-curvature="0" style="fill:#ffcccc;stroke:none" d="m 41,58 1,1 -1,-1 m 14,0 1,1 -1,-1 z" id="path1513"/>
      <path inkscape:connector-curvature="0" style="fill:#ccccff;stroke:none" d="m 40,59 1,1 -1,-1 z" id="path1514"/>
      <path inkscape:connector-curvature="0" style="fill:#cc3333;stroke:none" d="m 42.3333,59.6667 0.3334,0.6666 -0.3334,-0.6666 m 12,0 0.3334,0.6666 -0.3334,-0.6666 z" id="path1515"/>
      <path inkscape:connector-curvature="0" style="fill:#ccccff;stroke:none" d="m 56,59 1,1 -1,-1 z" id="path1516"/>
      <path inkscape:connector-curvature="0" style="fill:#99cccc;stroke:none" d="m 40,60 1,1 -1,-1 m 16,0 1,1 -1,-1 z" id="path1517"/>
      <path inkscape:connector-curvature="0" style="fill:#ffcccc;stroke:none" d="m 42,61 1,1 -1,-1 m 12,0 1,1 -1,-1 z" id="path1518"/>
      <path inkscape:connector-curvature="0" style="fill:#ccccff;stroke:none" d="m 41,62 1,1 -1,-1 z" id="path1519"/>
      <path inkscape:connector-curvature="0" style="fill:#cc3333;stroke:none" d="m 43.3333,62.6667 0.3334,0.6666 -0.3334,-0.6666 m 10,0 0.3334,0.6666 -0.3334,-0.6666 z" id="path1520"/>
      <path inkscape:connector-curvature="0" style="fill:#ccccff;stroke:none" d="m 55,62 1,1 -1,-1 z" id="path1521"/>
      <path inkscape:connector-curvature="0" style="fill:#99cccc;stroke:none" d="m 41,63 1,1 -1,-1 m 14,0 1,1 -1,-1 z" id="path1522"/>
      <path inkscape:connector-curvature="0" style="fill:#ffcccc;stroke:none" d="m 43,64 1,1 -1,-1 m 10,0 1,1 -1,-1 z" id="path1523"/>
      <path inkscape:connector-curvature="0" style="fill:#ccffff;stroke:none" d="m 42,65 1,1 -1,-1 z" id="path1524"/>
      <path inkscape:connector-curvature="0" style="fill:#cc3333;stroke:none" d="m 44.3333,65.6667 0.3334,0.6666 -0.3334,-0.6666 m 8,0 0.3334,0.6666 -0.3334,-0.6666 z" id="path1525"/>
      <path inkscape:connector-curvature="0" style="fill:#ccffff;stroke:none" d="m 54,65 1,1 -1,-1 z" id="path1526"/>
      <path inkscape:connector-curvature="0" style="fill:#99cccc;stroke:none" d="m 42,66 1,1 -1,-1 m 12,0 1,1 -1,-1 z" id="path1527"/>
      <path inkscape:connector-curvature="0" style="fill:#6699cc;stroke:none" d="m 42,67 1,1 -1,-1 z" id="path1528"/>
      <path inkscape:connector-curvature="0" style="fill:#ffcccc;stroke:none" d="m 44,67 1,1 -1,-1 m 8,0 1,1 -1,-1 z" id="path1529"/>
      <path inkscape:connector-curvature="0" style="fill:#6699cc;stroke:none" d="m 54,67 1,1 -1,-1 z" id="path1530"/>
      <path inkscape:connector-curvature="0" style="fill:#ccffff;stroke:none" d="m 43,68 1,1 -1,-1 z" id="path1531"/>
      <path inkscape:connector-curvature="0" style="fill:#ccffff;stroke:none" d="m 53,68 1,1 -1,-1 z" id="path1533"/>
      <path inkscape:connector-curvature="0" style="fill:#99cccc;stroke:none" d="m 43,69 1,1 -1,-1 m 10,0 1,1 -1,-1 z" id="path1534"/>
      <path inkscape:connector-curvature="0" style="fill:#6699cc;stroke:none" d="m 43,70 1,1 -1,-1 m 10,0 1,1 -1,-1 z" id="path1535"/>
      <path inkscape:connector-curvature="0" style="fill:#ffcccc;stroke:none" d="m 45,71 1,1 -1,-1 m 6,0 1,1 -1,-1 z" id="path1536"/>
      <path inkscape:connector-curvature="0" style="fill:#99ccff;stroke:none" d="m 44,72 1,1 -1,-1 z" id="path1537"/>
      <path inkscape:connector-curvature="0" style="fill:#cc3333;stroke:none" d="m 46.3333,72.6667 0.3334,0.6666 -0.3334,-0.6666 m 4,0 0.3334,0.6666 -0.3334,-0.6666 z" id="path1538"/>
      <path inkscape:connector-curvature="0" style="fill:#99ccff;stroke:none" d="m 52,72 1,1 -1,-1 z" id="path1539"/>
      <path inkscape:connector-curvature="0" style="fill:#6699cc;stroke:none" d="m 44,73 1,1 -1,-1 m 8,0 1,1 -1,-1 z" id="path1540"/>
      <path inkscape:connector-curvature="0" style="fill:#ffcccc;stroke:none" d="m 46,74 1,1 -1,-1 m 4,0 1,1 -1,-1 z" id="path1541"/>
      <path inkscape:connector-curvature="0" style="fill:#99ccff;stroke:none" d="m 45,75 1,1 -1,-1 z" id="path1542"/>
      <path inkscape:connector-curvature="0" style="fill:#99ccff;stroke:none" d="m 51,75 1,1 -1,-1 z" id="path1544"/>
      <path inkscape:connector-curvature="0" style="fill:#66cccc;stroke:none" d="m 45,76 1,1 -1,-1 m 6,0 1,1 -1,-1 z" id="path1545"/>
      <path inkscape:connector-curvature="0" style="fill:#ffcccc;stroke:none" d="m 47,77 1,1 -1,-1 m 2,0 1,1 -1,-1 z" id="path1546"/>
      <path inkscape:connector-curvature="0" style="fill:#ccccff;stroke:none" d="m 46,78 1,1 -1,-1 m 4,0 1,1 -1,-1 z" id="path1547"/>
      <path inkscape:connector-curvature="0" style="fill:#66cccc;stroke:none" d="m 46,79 1,1 -1,-1 z" id="path1548"/>
      <path inkscape:connector-curvature="0" style="fill:#cc6666;stroke:none" d="m 48,79 1,1 -1,-1 z" id="path1549"/>
      <path inkscape:connector-curvature="0" style="fill:#66cccc;stroke:none" d="m 50,79 1,1 -1,-1 z" id="path1550"/>
      <path inkscape:connector-curvature="0" style="fill:#ccccff;stroke:none" d="m 47,81 1,1 -1,-1 m 2,0 1,1 -1,-1 z" id="path1551"/>
      <path inkscape:connector-curvature="0" style="fill:#99cccc;stroke:none" d="m 47,82 1,1 -1,-1 m 2,0 1,1 -1,-1 m -1,2 1,1 -1,-1 z" id="path1552"/>
    </g>
  </g></g>
  <g id="02" inkscape:label="02" style="display:inline" transform="translate(0,38)">
    <path sodipodi:nodetypes="sscssscss" inkscape:connector-curvature="0" id="path3862-8" d="m 214.21087,111.21099 c -45.24514,0.18809 -68.71568,7.73077 -64.09352,83.5526 l 2.8252,46.34456 c 47.4743,5.51239 56.66416,18.44506 104.35936,21.91413 68.07337,4.95126 67.93728,5.42092 130.56477,-14.38414 62.62753,-19.80506 5.82485,-65.24698 207.32205,-57.8201 4.60334,0.16968 17.3137,-3.05269 27.46187,-12.15043 5.5817,-46.52389 -2.78415,-69.14289 -66.93352,-68.87623 z" style="color:#000000;fill:url(#linearGradient5125);fill-opacity:1;fill-rule:nonzero;stroke:none;stroke-width:1.62399995;marker:none;visibility:visible;overflow:visible;enable-background:accumulate"/>
    <path inkscape:connector-curvature="0" id="path3079-9" d="m 531.03278,495.17335 c -31.60486,19.02245 -27.60116,31.26037 -37.91323,32.57276 -94.70417,12.0527 -145.97722,-0.72701 -165.79583,-12.06122 -59.58792,-34.07817 -68.46788,-13.01421 -100.22126,-16.5742 -20.11475,-2.25514 -59.24503,12.98404 -73.38763,44.34434 3.47222,27.60795 18.11064,32.09835 44.28127,31.98612 l 356.05526,-1.52684 c 69.69188,-0.29885 56.33547,-8.49265 65.54301,-56.03861 -14.77205,-21.67074 -13.15664,9.10903 -44.2237,-30.71666 z" style="color:#000000;fill:url(#linearGradient5122);fill-opacity:1;fill-rule:nonzero;stroke:none;stroke-width:1.62399994999999997;marker:none;visibility:visible;overflow:visible;enable-background:accumulate" sodipodi:nodetypes="cssscssccc"/>
    <rect id="rect5734" height="512" x="0" style="fill:none;stroke:#000000;stroke-width:20;stroke-miterlimit:4;stroke-opacity:1;stroke-dasharray:none;display:inline;filter:url(#filter5740)" width="512" y="0" ry="57" inkscape:label="#rect4203" transform="translate(128,90)" clip-path="url(#clipPath5796)"/>
  </g></g>
</svg>
