<?xml version="1.0" encoding="UTF-8" standalone="no"?>
<svg xmlns:dc="http://purl.org/dc/elements/1.1/" xmlns:cc="http://creativecommons.org/ns#" xmlns:rdf="http://www.w3.org/1999/02/22-rdf-syntax-ns#" xmlns:svg="http://www.w3.org/2000/svg" xmlns="http://www.w3.org/2000/svg" xmlns:xlink="http://www.w3.org/1999/xlink" xmlns:sodipodi="http://sodipodi.sourceforge.net/DTD/sodipodi-0.dtd" xmlns:inkscape="http://www.inkscape.org/namespaces/inkscape" width="768" height="768" id="svg2" version="1.1" inkscape:version="0.48.1 r9760" sodipodi:docname="template.svg">
  <defs id="defs4">
    <clipPath clipPathUnits="userSpaceOnUse" id="clipPathFlag">
      <rect id="rect3918" height="511" x="0.5" style="fill:#000000;fill-opacity:0.67000002;stroke:none" width="511" y="0.5" ry="57"/>
    </clipPath>
    <linearGradient id="linearGradient3852" inkscape:collect="always">
      <stop id="stop3854" offset="0" style="stop-color:#dbe3db;stop-opacity:1;"/>
      <stop id="stop3856" offset="1" style="stop-color:#dbe3db;stop-opacity:0;"/>
    </linearGradient>
    <linearGradient inkscape:collect="always" xlink:href="#linearGradient3852" id="linearGradient3070" gradientUnits="userSpaceOnUse" x1="339.54913" y1="646.63617" x2="345.74551" y2="566.63617" gradientTransform="matrix(0.93191514,0,0,0.93191514,7.9467803,7.2318863)"/>
    <clipPath id="clipPath3882" clipPathUnits="userSpaceOnUse">
      <path sodipodi:type="inkscape:offset" inkscape:radius="11.844458" inkscape:original="M 243.75 118.0625 C 179.93919 118.0625 128.5625 169.43919 128.5625 233.25 L 128.5625 528.59375 C 128.5625 592.40456 179.93919 643.78125 243.75 643.78125 L 539.09375 643.78125 C 602.90456 643.78125 654.28125 592.40456 654.28125 528.59375 L 654.28125 233.25 C 654.28125 169.43919 602.90456 118.0625 539.09375 118.0625 L 243.75 118.0625 z " style="color:#000000;fill:none;stroke:none;stroke-width:20;marker:none;visibility:visible;display:inline;overflow:visible;enable-background:accumulate" id="path3884" d="m 243.75,106.21875 c -70.16845,0 -127.03125,56.8628 -127.03125,127.03125 l 0,295.34375 c 0,70.16845 56.8628,127.03125 127.03125,127.03125 l 295.34375,0 c 70.16845,0 127.03125,-56.8628 127.03125,-127.03125 l 0,-295.34375 c 0,-70.16845 -56.8628,-127.03125 -127.03125,-127.03125 l -295.34375,0 z"/>
    </clipPath>
    <linearGradient id="linearGradient3852-0" inkscape:collect="always">
      <stop id="stop3854-6" offset="0" style="stop-color:#dbe3db;stop-opacity:1;"/>
      <stop id="stop3856-1" offset="1" style="stop-color:#dbe3db;stop-opacity:0;"/>
    </linearGradient>
    <linearGradient inkscape:collect="always" xlink:href="#linearGradient3852-0" id="linearGradient3070-5" gradientUnits="userSpaceOnUse" x1="339.54913" y1="646.63617" x2="345.74551" y2="566.63617" gradientTransform="matrix(0.93191514,0,0,0.93191514,7.9467803,7.2318863)"/>
    <linearGradient inkscape:collect="always" xlink:href="#linearGradient3852-0" id="linearGradient5122" gradientUnits="userSpaceOnUse" gradientTransform="matrix(1.1571075,0,0,1.3166846,-91.204261,-253.98784)" x1="342.1882" y1="705.75824" x2="358.07608" y2="523.40735"/>
    <linearGradient inkscape:collect="always" xlink:href="#linearGradient3852-0" id="linearGradient5125" gradientUnits="userSpaceOnUse" gradientTransform="matrix(0.95302723,0,0,0.86647129,11.575117,-4.501603)" x1="405.2634" y1="118.06474" x2="405.74554" y2="360.92188"/>
    <clipPath clipPathUnits="userSpaceOnUse" id="clipPath5712">
      <rect mask="none" inkscape:label="#rect4203" ry="64.777054" y="0" width="512" style="fill:none;display:inline" x="0" height="512" id="rect5714"/>
    </clipPath>
    <filter inkscape:collect="always" id="filter5740">
      <feGaussianBlur inkscape:collect="always" stdDeviation="5.12" id="feGaussianBlur5742"/>
    </filter>
    <clipPath clipPathUnits="userSpaceOnUse" id="clipPath5796">
      <rect inkscape:label="#rect4203" ry="57" y="0" width="512" style="fill:none;stroke:#00fa00;stroke-width:20;stroke-miterlimit:4;stroke-opacity:1;stroke-dasharray:none;display:inline" x="0" height="512" id="rect5798"/>
    </clipPath>
    <filter inkscape:collect="always" id="filter5912">
      <feGaussianBlur inkscape:collect="always" stdDeviation="17.92" id="feGaussianBlur5914"/>
    </filter>
  </defs>
  <sodipodi:namedview id="base" pagecolor="#ffffff" bordercolor="#666666" borderopacity="1.0" inkscape:pageopacity="0.0" inkscape:pageshadow="2" inkscape:zoom="0.65494792" inkscape:cx="191.61829" inkscape:cy="384" inkscape:document-units="px" showgrid="false" inkscape:window-width="1280" inkscape:window-height="723" inkscape:window-x="0" inkscape:window-y="24" inkscape:window-maximized="1"/>

  <g id="template-button" inkscape:label="template-button" style="display:inline">
  &gt;
  <g inkscape:label="00" id="00" style="display:inline" transform="translate(90,90)">
    <rect inkscape:label="#rect4203" ry="57" y="56" width="512" style="fill:#000000;fill-opacity:1;stroke:#a8a8a8;stroke-width:5;stroke-miterlimit:4;stroke-opacity:1;stroke-dasharray:none;display:inline;filter:url(#filter5912)" x="38" height="512" id="shadow"/>
  </g>
  <g id="01" inkscape:label="01" style="display:inline" transform="translate(128,128)" clip-path="url(#clipPathFlag)">
    <rect id="mask" height="512" x="0" style="fill:#0000ff;fill-opacity:1;stroke:none" width="512" y="0" ry="57" inkscape:label="#rect4203"/>
  <g id="flag" inkscape:label="#g4571">
    <rect style="font-size:12px;fill:#229e45;fill-rule:evenodd;stroke-width:1pt" id="rect552" width="512" height="512" x="0" y="0" sodipodi:fill-cmyk="(0.78 0 0.56 0.38)"/>
    <g transform="matrix(0.7480632,0,0,0.7480632,65.575502,64.495751)" id="g3551">
      <path inkscape:connector-curvature="0" sodipodi:fill-cmyk="(0 0.0775862 0.96 0.03)" sodipodi:nodetypes="ccccc" id="path554" d="M 261.7173,455.7089 569.01235,256.26761 259.86396,56.290547 -48.441302,256.74688 261.7173,455.7089 z" style="font-size:12px;fill:#f8e509;fill-rule:evenodd;stroke-width:1pt"/>
      <path sodipodi:fill-cmyk="(0.732759 0.551724 0 0.36)" transform="matrix(1.6910701,0,0,1.7116927,-100.29952,-0.71515796)" sodipodi:ry="75.827141" sodipodi:rx="76.874496" sodipodi:cy="149.97711" sodipodi:cx="216.37971" d="m 293.25421,149.97711 c 0,41.87818 -34.41788,75.82714 -76.8745,75.82714 -42.45661,0 -76.87449,-33.94896 -76.87449,-75.82714 0,-41.87817 34.41788,-75.827139 76.87449,-75.827139 42.45662,0 76.8745,33.948969 76.8745,75.827139 z" id="path557" style="font-size:12px;fill:#2b49a3;fill-rule:evenodd;stroke-width:1pt" sodipodi:type="arc"/>
      <polygon d="m 228.54263,107.67979 -2.58769,-1.46504 -2.67388,1.30112 0.5937,-2.91377 -2.06371,-2.14093 2.95462,-0.33577 1.39843,-2.624291 1.23236,2.706261 2.92799,0.51903 -2.19299,2.00832 z" inkscape:randomized="0" inkscape:rounded="0" inkscape:flatsided="false" transform="matrix(1.5566878,0,0,1.5876909,-132.89335,162.7816)" points="228.543,107.68 225.955,106.215 223.281,107.516 223.875,104.602 221.811,102.461 224.766,102.125 226.164,99.5011 227.396,102.207 230.324,102.726 228.131,104.735 228.543,107.68 " sodipodi:arg2="1.601941" sodipodi:arg1="0.9736225" sodipodi:r2="2.2389653" sodipodi:r1="4.4779305" sodipodi:cy="103.97687" sodipodi:cx="226.02466" sodipodi:sides="5" id="polygon559" style="font-size:12px;fill:#ffffef;fill-rule:evenodd;stroke-width:1pt" sodipodi:type="star"/>
      <polygon d="m 228.54263,107.67979 -2.58769,-1.46504 -2.67388,1.30112 0.5937,-2.91377 -2.06371,-2.14093 2.95462,-0.33577 1.39843,-2.624291 1.23236,2.706261 2.92799,0.51903 -2.19299,2.00832 z" inkscape:randomized="0" inkscape:rounded="0" inkscape:flatsided="false" transform="matrix(1.5566878,0,0,1.5876909,-45.770573,184.83678)" points="228.543,107.68 225.955,106.215 223.281,107.516 223.875,104.602 221.811,102.461 224.766,102.125 226.164,99.5011 227.396,102.207 230.324,102.726 228.131,104.735 228.543,107.68 " sodipodi:arg2="1.601941" sodipodi:arg1="0.9736225" sodipodi:r2="2.2389653" sodipodi:r1="4.4779305" sodipodi:cy="103.97687" sodipodi:cx="226.02466" sodipodi:sides="5" id="polygon560" style="font-size:12px;fill:#ffffef;fill-rule:evenodd;stroke-width:1pt" sodipodi:type="star"/>
      <polygon d="m 228.54263,107.67979 -2.58769,-1.46504 -2.67388,1.30112 0.5937,-2.91377 -2.06371,-2.14093 2.95462,-0.33577 1.39843,-2.624291 1.23236,2.706261 2.92799,0.51903 -2.19299,2.00832 z" inkscape:randomized="0" inkscape:rounded="0" inkscape:flatsided="false" transform="matrix(1.3448362,0,0,1.3716219,-34.893653,172.87098)" points="228.543,107.68 225.955,106.215 223.281,107.516 223.875,104.602 221.811,102.461 224.766,102.125 226.164,99.5011 227.396,102.207 230.324,102.726 228.131,104.735 228.543,107.68 " sodipodi:arg2="1.601941" sodipodi:arg1="0.9736225" sodipodi:r2="2.2389653" sodipodi:r1="4.4779305" sodipodi:cy="103.97687" sodipodi:cx="226.02466" sodipodi:sides="5" id="polygon561" style="font-size:12px;fill:#ffffef;fill-rule:evenodd;stroke-width:1pt" sodipodi:type="star"/>
      <polygon d="m 228.54263,107.67979 -2.58769,-1.46504 -2.67388,1.30112 0.5937,-2.91377 -2.06371,-2.14093 2.95462,-0.33577 1.39843,-2.624291 1.23236,2.706261 2.92799,0.51903 -2.19299,2.00832 z" inkscape:randomized="0" inkscape:rounded="0" inkscape:flatsided="false" transform="matrix(1.3203892,0,0,1.3466809,58.669428,162.8802)" points="228.543,107.68 225.955,106.215 223.281,107.516 223.875,104.602 221.811,102.461 224.766,102.125 226.164,99.5011 227.396,102.207 230.324,102.726 228.131,104.735 228.543,107.68 " sodipodi:arg2="1.601941" sodipodi:arg1="0.9736225" sodipodi:r2="2.2389653" sodipodi:r1="4.4779305" sodipodi:cy="103.97687" sodipodi:cx="226.02466" sodipodi:sides="5" id="polygon562" style="font-size:12px;fill:#ffffef;fill-rule:evenodd;stroke-width:1pt" sodipodi:type="star"/>
      <polygon d="m 228.54263,107.67979 -2.58769,-1.46504 -2.67388,1.30112 0.5937,-2.91377 -2.06371,-2.14093 2.95462,-0.33577 1.39843,-2.624291 1.23236,2.706261 2.92799,0.51903 -2.19299,2.00832 z" inkscape:randomized="0" inkscape:rounded="0" inkscape:flatsided="false" transform="matrix(1.5566878,0,0,1.5876909,-84.912075,110.55362)" points="228.543,107.68 225.955,106.215 223.281,107.516 223.875,104.602 221.811,102.461 224.766,102.125 226.164,99.5011 227.396,102.207 230.324,102.726 228.131,104.735 228.543,107.68 " sodipodi:arg2="1.601941" sodipodi:arg1="0.9736225" sodipodi:r2="2.2389653" sodipodi:r1="4.4779305" sodipodi:cy="103.97687" sodipodi:cx="226.02466" sodipodi:sides="5" id="polygon563" style="font-size:12px;fill:#ffffef;fill-rule:evenodd;stroke-width:1pt" sodipodi:type="star"/>
      <polygon d="m 228.54263,107.67979 -2.58769,-1.46504 -2.67388,1.30112 0.5937,-2.91377 -2.06371,-2.14093 2.95462,-0.33577 1.39843,-2.624291 1.23236,2.706261 2.92799,0.51903 -2.19299,2.00832 z" inkscape:randomized="0" inkscape:rounded="0" inkscape:flatsided="false" transform="matrix(1.5566878,0,0,1.5876909,-192.17902,70.277616)" points="228.543,107.68 225.955,106.215 223.281,107.516 223.875,104.602 221.811,102.461 224.766,102.125 226.164,99.5011 227.396,102.207 230.324,102.726 228.131,104.735 228.543,107.68 " sodipodi:arg2="1.601941" sodipodi:arg1="0.9736225" sodipodi:r2="2.2389653" sodipodi:r1="4.4779305" sodipodi:cy="103.97687" sodipodi:cx="226.02466" sodipodi:sides="5" id="polygon564" style="font-size:12px;fill:#ffffef;fill-rule:evenodd;stroke-width:1pt" sodipodi:type="star"/>
      <polygon d="m 228.54263,107.67979 -2.58769,-1.46504 -2.67388,1.30112 0.5937,-2.91377 -2.06371,-2.14093 2.95462,-0.33577 1.39843,-2.624291 1.23236,2.706261 2.92799,0.51903 -2.19299,2.00832 z" inkscape:randomized="0" inkscape:rounded="0" inkscape:flatsided="false" transform="matrix(1.5566878,0,0,1.5876909,-179.28184,123.8468)" points="228.543,107.68 225.955,106.215 223.281,107.516 223.875,104.602 221.811,102.461 224.766,102.125 226.164,99.5011 227.396,102.207 230.324,102.726 228.131,104.735 228.543,107.68 " sodipodi:arg2="1.601941" sodipodi:arg1="0.9736225" sodipodi:r2="2.2389653" sodipodi:r1="4.4779305" sodipodi:cy="103.97687" sodipodi:cx="226.02466" sodipodi:sides="5" id="polygon565" style="font-size:12px;fill:#ffffef;fill-rule:evenodd;stroke-width:1pt" sodipodi:type="star"/>
      <polygon d="m 228.54263,107.67979 -2.58769,-1.46504 -2.67388,1.30112 0.5937,-2.91377 -2.06371,-2.14093 2.95462,-0.33577 1.39843,-2.624291 1.23236,2.706261 2.92799,0.51903 -2.19299,2.00832 z" inkscape:randomized="0" inkscape:rounded="0" inkscape:flatsided="false" transform="matrix(1.3750982,0,0,1.4024853,-3.91883,70.49911)" points="228.543,107.68 225.955,106.215 223.281,107.516 223.875,104.602 221.811,102.461 224.766,102.125 226.164,99.5011 227.396,102.207 230.324,102.726 228.131,104.735 228.543,107.68 " sodipodi:arg2="1.601941" sodipodi:arg1="0.9736225" sodipodi:r2="2.2389653" sodipodi:r1="4.4779305" sodipodi:cy="103.97687" sodipodi:cx="226.02466" sodipodi:sides="5" id="polygon566" style="font-size:12px;fill:#ffffef;fill-rule:evenodd;stroke-width:1pt" sodipodi:type="star"/>
      <polygon d="m 228.54263,107.67979 -2.58769,-1.46504 -2.67388,1.30112 0.5937,-2.91377 -2.06371,-2.14093 2.95462,-0.33577 1.39843,-2.624291 1.23236,2.706261 2.92799,0.51903 -2.19299,2.00832 z" inkscape:randomized="0" inkscape:rounded="0" inkscape:flatsided="false" transform="matrix(1.0830034,0,0,1.1045687,55.480705,137.43077)" points="228.543,107.68 225.955,106.215 223.281,107.516 223.875,104.602 221.811,102.461 224.766,102.125 226.164,99.5011 227.396,102.207 230.324,102.726 228.131,104.735 228.543,107.68 " sodipodi:arg2="1.601941" sodipodi:arg1="0.9736225" sodipodi:r2="2.2389653" sodipodi:r1="4.4779305" sodipodi:cy="103.97687" sodipodi:cx="226.02466" sodipodi:sides="5" id="polygon567" style="font-size:12px;fill:#ffffef;fill-rule:evenodd;stroke-width:1pt" sodipodi:type="star"/>
      <polygon d="m 228.54263,107.67979 -2.58769,-1.46504 -2.67388,1.30112 0.5937,-2.91377 -2.06371,-2.14093 2.95462,-0.33577 1.39843,-2.624291 1.23236,2.706261 2.92799,0.51903 -2.19299,2.00832 z" inkscape:randomized="0" inkscape:rounded="0" inkscape:flatsided="false" transform="matrix(1.0392694,0,0,1.0599725,-79.913167,190.37531)" points="228.543,107.68 225.955,106.215 223.281,107.516 223.875,104.602 221.811,102.461 224.766,102.125 226.164,99.5011 227.396,102.207 230.324,102.726 228.131,104.735 228.543,107.68 " sodipodi:arg2="1.601941" sodipodi:arg1="0.9736225" sodipodi:r2="2.2389653" sodipodi:r1="4.4779305" sodipodi:cy="103.97687" sodipodi:cx="226.02466" sodipodi:sides="5" id="polygon568" style="font-size:12px;fill:#ffffef;fill-rule:evenodd;stroke-width:1pt" sodipodi:type="star"/>
      <polygon d="m 228.54263,107.67979 -2.58769,-1.46504 -2.67388,1.30112 0.5937,-2.91377 -2.06371,-2.14093 2.95462,-0.33577 1.39843,-2.624291 1.23236,2.706261 2.92799,0.51903 -2.19299,2.00832 z" inkscape:randomized="0" inkscape:rounded="0" inkscape:flatsided="false" transform="matrix(0.84692911,0,0,0.79301492,167.62435,231.4667)" points="228.543,107.68 225.955,106.215 223.281,107.516 223.875,104.602 221.811,102.461 224.766,102.125 226.164,99.5011 227.396,102.207 230.324,102.726 228.131,104.735 228.543,107.68 " sodipodi:arg2="1.601941" sodipodi:arg1="0.9736225" sodipodi:r2="2.2389653" sodipodi:r1="4.4779305" sodipodi:cy="103.97687" sodipodi:cx="226.02466" sodipodi:sides="5" id="polygon569" style="font-size:12px;fill:#ffffef;fill-rule:evenodd;stroke-width:1pt" sodipodi:type="star"/>
      <polygon d="m 228.54263,107.67979 -2.58769,-1.46504 -2.67388,1.30112 0.5937,-2.91377 -2.06371,-2.14093 2.95462,-0.33577 1.39843,-2.624291 1.23236,2.706261 2.92799,0.51903 -2.19299,2.00832 z" inkscape:randomized="0" inkscape:rounded="0" inkscape:flatsided="false" transform="matrix(1.0392694,0,0,1.0599725,-79.913167,190.37531)" points="228.543,107.68 225.955,106.215 223.281,107.516 223.875,104.602 221.811,102.461 224.766,102.125 226.164,99.5011 227.396,102.207 230.324,102.726 228.131,104.735 228.543,107.68 " sodipodi:arg2="1.601941" sodipodi:arg1="0.9736225" sodipodi:r2="2.2389653" sodipodi:r1="4.4779305" sodipodi:cy="103.97687" sodipodi:cx="226.02466" sodipodi:sides="5" id="polygon570" style="font-size:12px;fill:#ffffef;fill-rule:evenodd;stroke-width:1pt" sodipodi:type="star"/>
      <polygon d="m 228.54263,107.67979 -2.58769,-1.46504 -2.67388,1.30112 0.5937,-2.91377 -2.06371,-2.14093 2.95462,-0.33577 1.39843,-2.624291 1.23236,2.706261 2.92799,0.51903 -2.19299,2.00832 z" inkscape:randomized="0" inkscape:rounded="0" inkscape:flatsided="false" transform="matrix(1.0392694,0,0,1.0599725,-79.913167,190.37531)" points="228.543,107.68 225.955,106.215 223.281,107.516 223.875,104.602 221.811,102.461 224.766,102.125 226.164,99.5011 227.396,102.207 230.324,102.726 228.131,104.735 228.543,107.68 " sodipodi:arg2="1.601941" sodipodi:arg1="0.9736225" sodipodi:r2="2.2389653" sodipodi:r1="4.4779305" sodipodi:cy="103.97687" sodipodi:cx="226.02466" sodipodi:sides="5" id="polygon571" style="font-size:12px;fill:#ffffef;fill-rule:evenodd;stroke-width:1pt" sodipodi:type="star"/>
      <polygon d="m 228.54263,107.67979 -2.58769,-1.46504 -2.67388,1.30112 0.5937,-2.91377 -2.06371,-2.14093 2.95462,-0.33577 1.39843,-2.624291 1.23236,2.706261 2.92799,0.51903 -2.19299,2.00832 z" inkscape:randomized="0" inkscape:rounded="0" inkscape:flatsided="false" transform="matrix(1.0392694,0,0,1.0599725,-37.225614,190.37407)" points="228.543,107.68 225.955,106.215 223.281,107.516 223.875,104.602 221.811,102.461 224.766,102.125 226.164,99.5011 227.396,102.207 230.324,102.726 228.131,104.735 228.543,107.68 " sodipodi:arg2="1.601941" sodipodi:arg1="0.9736225" sodipodi:r2="2.2389653" sodipodi:r1="4.4779305" sodipodi:cy="103.97687" sodipodi:cx="226.02466" sodipodi:sides="5" id="polygon572" style="font-size:12px;fill:#ffffef;fill-rule:evenodd;stroke-width:1pt" sodipodi:type="star"/>
      <polygon d="m 228.54263,107.67979 -2.58769,-1.46504 -2.67388,1.30112 0.5937,-2.91377 -2.06371,-2.14093 2.95462,-0.33577 1.39843,-2.624291 1.23236,2.706261 2.92799,0.51903 -2.19299,2.00832 z" inkscape:randomized="0" inkscape:rounded="0" inkscape:flatsided="false" transform="matrix(1.0392694,0,0,1.0599725,-42.52988,204.57394)" points="228.543,107.68 225.955,106.215 223.281,107.516 223.875,104.602 221.811,102.461 224.766,102.125 226.164,99.5011 227.396,102.207 230.324,102.726 228.131,104.735 228.543,107.68 " sodipodi:arg2="1.601941" sodipodi:arg1="0.9736225" sodipodi:r2="2.2389653" sodipodi:r1="4.4779305" sodipodi:cy="103.97687" sodipodi:cx="226.02466" sodipodi:sides="5" id="polygon573" style="font-size:12px;fill:#ffffef;fill-rule:evenodd;stroke-width:1pt" sodipodi:type="star"/>
      <polygon d="m 228.54263,107.67979 -2.58769,-1.46504 -2.67388,1.30112 0.5937,-2.91377 -2.06371,-2.14093 2.95462,-0.33577 1.39843,-2.624291 1.23236,2.706261 2.92799,0.51903 -2.19299,2.00832 z" inkscape:randomized="0" inkscape:rounded="0" inkscape:flatsided="false" transform="matrix(1.0392694,0,0,1.0599725,46.107959,178.7173)" points="228.543,107.68 225.955,106.215 223.281,107.516 223.875,104.602 221.811,102.461 224.766,102.125 226.164,99.5011 227.396,102.207 230.324,102.726 228.131,104.735 228.543,107.68 " sodipodi:arg2="1.601941" sodipodi:arg1="0.9736225" sodipodi:r2="2.2389653" sodipodi:r1="4.4779305" sodipodi:cy="103.97687" sodipodi:cx="226.02466" sodipodi:sides="5" id="polygon574" style="font-size:12px;fill:#ffffef;fill-rule:evenodd;stroke-width:1pt" sodipodi:type="star"/>
      <polygon d="m 228.54263,107.67979 -2.58769,-1.46504 -2.67388,1.30112 0.5937,-2.91377 -2.06371,-2.14093 2.95462,-0.33577 1.39843,-2.624291 1.23236,2.706261 2.92799,0.51903 -2.19299,2.00832 z" inkscape:randomized="0" inkscape:rounded="0" inkscape:flatsided="false" transform="matrix(1.0392694,0,0,1.0599725,20.097598,178.71062)" points="228.543,107.68 225.955,106.215 223.281,107.516 223.875,104.602 221.811,102.461 224.766,102.125 226.164,99.5011 227.396,102.207 230.324,102.726 228.131,104.735 228.543,107.68 " sodipodi:arg2="1.601941" sodipodi:arg1="0.9736225" sodipodi:r2="2.2389653" sodipodi:r1="4.4779305" sodipodi:cy="103.97687" sodipodi:cx="226.02466" sodipodi:sides="5" id="polygon575" style="font-size:12px;fill:#ffffef;fill-rule:evenodd;stroke-width:1pt" sodipodi:type="star"/>
      <polygon d="m 228.54263,107.67979 -2.58769,-1.46504 -2.67388,1.30112 0.5937,-2.91377 -2.06371,-2.14093 2.95462,-0.33577 1.39843,-2.624291 1.23236,2.706261 2.92799,0.51903 -2.19299,2.00832 z" inkscape:randomized="0" inkscape:rounded="0" inkscape:flatsided="false" transform="matrix(0.65124951,0,0,0.66422266,38.232554,212.26184)" points="228.543,107.68 225.955,106.215 223.281,107.516 223.875,104.602 221.811,102.461 224.766,102.125 226.164,99.5011 227.396,102.207 230.324,102.726 228.131,104.735 228.543,107.68 " sodipodi:arg2="1.601941" sodipodi:arg1="0.9736225" sodipodi:r2="2.2389653" sodipodi:r1="4.4779305" sodipodi:cy="103.97687" sodipodi:cx="226.02466" sodipodi:sides="5" id="polygon576" style="font-size:12px;fill:#ffffef;fill-rule:evenodd;stroke-width:1pt" sodipodi:type="star"/>
      <polygon d="m 228.54263,107.67979 -2.58769,-1.46504 -2.67388,1.30112 0.5937,-2.91377 -2.06371,-2.14093 2.95462,-0.33577 1.39843,-2.624291 1.23236,2.706261 2.92799,0.51903 -2.19299,2.00832 z" inkscape:randomized="0" inkscape:rounded="0" inkscape:flatsided="false" transform="matrix(1.0392694,0,0,1.0599725,120.3499,213.9537)" points="228.543,107.68 225.955,106.215 223.281,107.516 223.875,104.602 221.811,102.461 224.766,102.125 226.164,99.5011 227.396,102.207 230.324,102.726 228.131,104.735 228.543,107.68 " sodipodi:arg2="1.601941" sodipodi:arg1="0.9736225" sodipodi:r2="2.2389653" sodipodi:r1="4.4779305" sodipodi:cy="103.97687" sodipodi:cx="226.02466" sodipodi:sides="5" id="polygon577" style="font-size:12px;fill:#ffffef;fill-rule:evenodd;stroke-width:1pt" sodipodi:type="star"/>
      <polygon d="m 228.54263,107.67979 -2.58769,-1.46504 -2.67388,1.30112 0.5937,-2.91377 -2.06371,-2.14093 2.95462,-0.33577 1.39843,-2.624291 1.23236,2.706261 2.92799,0.51903 -2.19299,2.00832 z" inkscape:randomized="0" inkscape:rounded="0" inkscape:flatsided="false" transform="matrix(0.86091031,0,0,0.88027577,139.46049,236.14375)" points="228.543,107.68 225.955,106.215 223.281,107.516 223.875,104.602 221.811,102.461 224.766,102.125 226.164,99.5011 227.396,102.207 230.324,102.726 228.131,104.735 228.543,107.68 " sodipodi:arg2="1.601941" sodipodi:arg1="0.9736225" sodipodi:r2="2.2389653" sodipodi:r1="4.4779305" sodipodi:cy="103.97687" sodipodi:cx="226.02466" sodipodi:sides="5" id="polygon578" style="font-size:12px;fill:#ffffef;fill-rule:evenodd;stroke-width:1pt" sodipodi:type="star"/>
      <polygon d="m 228.54263,107.67979 -2.58769,-1.46504 -2.67388,1.30112 0.5937,-2.91377 -2.06371,-2.14093 2.95462,-0.33577 1.39843,-2.624291 1.23236,2.706261 2.92799,0.51903 -2.19299,2.00832 z" inkscape:randomized="0" inkscape:rounded="0" inkscape:flatsided="false" transform="matrix(0.80183204,0,0,0.81854699,163.17574,242.54356)" points="228.543,107.68 225.955,106.215 223.281,107.516 223.875,104.602 221.811,102.461 224.766,102.125 226.164,99.5011 227.396,102.207 230.324,102.726 228.131,104.735 228.543,107.68 " sodipodi:arg2="1.601941" sodipodi:arg1="0.9736225" sodipodi:r2="2.2389653" sodipodi:r1="4.4779305" sodipodi:cy="103.97687" sodipodi:cx="226.02466" sodipodi:sides="5" id="polygon579" style="font-size:12px;fill:#ffffef;fill-rule:evenodd;stroke-width:1pt" sodipodi:type="star"/>
      <polygon d="m 228.54263,107.67979 -2.58769,-1.46504 -2.67388,1.30112 0.5937,-2.91377 -2.06371,-2.14093 2.95462,-0.33577 1.39843,-2.624291 1.23236,2.706261 2.92799,0.51903 -2.19299,2.00832 z" inkscape:randomized="0" inkscape:rounded="0" inkscape:flatsided="false" transform="matrix(0.77229669,0,0,0.78768158,199.26867,220.25773)" points="228.543,107.68 225.955,106.215 223.281,107.516 223.875,104.602 221.811,102.461 224.766,102.125 226.164,99.5011 227.396,102.207 230.324,102.726 228.131,104.735 228.543,107.68 " sodipodi:arg2="1.601941" sodipodi:arg1="0.9736225" sodipodi:r2="2.2389653" sodipodi:r1="4.4779305" sodipodi:cy="103.97687" sodipodi:cx="226.02466" sodipodi:sides="5" id="polygon580" style="font-size:12px;fill:#ffffef;fill-rule:evenodd;stroke-width:1pt" sodipodi:type="star"/>
      <polygon d="m 228.54263,107.67979 -2.58769,-1.46504 -2.67388,1.30112 0.5937,-2.91377 -2.06371,-2.14093 2.95462,-0.33577 1.39843,-2.624291 1.23236,2.706261 2.92799,0.51903 -2.19299,2.00832 z" inkscape:randomized="0" inkscape:rounded="0" inkscape:flatsided="false" transform="matrix(1.0085898,0,0,0.97286927,105.44784,240.61981)" points="228.543,107.68 225.955,106.215 223.281,107.516 223.875,104.602 221.811,102.461 224.766,102.125 226.164,99.5011 227.396,102.207 230.324,102.726 228.131,104.735 228.543,107.68 " sodipodi:arg2="1.601941" sodipodi:arg1="0.9736225" sodipodi:r2="2.2389653" sodipodi:r1="4.4779305" sodipodi:cy="103.97687" sodipodi:cx="226.02466" sodipodi:sides="5" id="polygon581" style="font-size:12px;fill:#ffffef;fill-rule:evenodd;stroke-width:1pt" sodipodi:type="star"/>
      <polygon d="m 228.54263,107.67979 -2.58769,-1.46504 -2.67388,1.30112 0.5937,-2.91377 -2.06371,-2.14093 2.95462,-0.33577 1.39843,-2.624291 1.23236,2.706261 2.92799,0.51903 -2.19299,2.00832 z" inkscape:randomized="0" inkscape:rounded="0" inkscape:flatsided="false" transform="matrix(0.91998238,0,0,0.97286927,125.85499,252.28312)" points="228.543,107.68 225.955,106.215 223.281,107.516 223.875,104.602 221.811,102.461 224.766,102.125 226.164,99.5011 227.396,102.207 230.324,102.726 228.131,104.735 228.543,107.68 " sodipodi:arg2="1.601941" sodipodi:arg1="0.9736225" sodipodi:r2="2.2389653" sodipodi:r1="4.4779305" sodipodi:cy="103.97687" sodipodi:cx="226.02466" sodipodi:sides="5" id="polygon582" style="font-size:12px;fill:#ffffef;fill-rule:evenodd;stroke-width:1pt" sodipodi:type="star"/>
      <polygon d="m 228.54263,107.67979 -2.58769,-1.46504 -2.67388,1.30112 0.5937,-2.91377 -2.06371,-2.14093 2.95462,-0.33577 1.39843,-2.624291 1.23236,2.706261 2.92799,0.51903 -2.19299,2.00832 z" inkscape:randomized="0" inkscape:rounded="0" inkscape:flatsided="false" transform="matrix(0.77229669,0,0,0.78768158,139.9299,245.86288)" points="228.543,107.68 225.955,106.215 223.281,107.516 223.875,104.602 221.811,102.461 224.766,102.125 226.164,99.5011 227.396,102.207 230.324,102.726 228.131,104.735 228.543,107.68 " sodipodi:arg2="1.601941" sodipodi:arg1="0.9736225" sodipodi:r2="2.2389653" sodipodi:r1="4.4779305" sodipodi:cy="103.97687" sodipodi:cx="226.02466" sodipodi:sides="5" id="polygon583" style="font-size:12px;fill:#ffffef;fill-rule:evenodd;stroke-width:1pt" sodipodi:type="star"/>
      <polygon d="m 228.54263,107.67979 -2.58769,-1.46504 -2.67388,1.30112 0.5937,-2.91377 -2.06371,-2.14093 2.95462,-0.33577 1.39843,-2.624291 1.23236,2.706261 2.92799,0.51903 -2.19299,2.00832 z" inkscape:randomized="0" inkscape:rounded="0" inkscape:flatsided="false" transform="matrix(0.77229669,0,0,0.78768158,121.48902,245.86391)" points="228.543,107.68 225.955,106.215 223.281,107.516 223.875,104.602 221.811,102.461 224.766,102.125 226.164,99.5011 227.396,102.207 230.324,102.726 228.131,104.735 228.543,107.68 " sodipodi:arg2="1.601941" sodipodi:arg1="0.9736225" sodipodi:r2="2.2389653" sodipodi:r1="4.4779305" sodipodi:cy="103.97687" sodipodi:cx="226.02466" sodipodi:sides="5" id="polygon584" style="font-size:12px;fill:#ffffef;fill-rule:evenodd;stroke-width:1pt" sodipodi:type="star"/>
      <polygon d="m 228.54263,107.67979 -2.58769,-1.46504 -2.67388,1.30112 0.5937,-2.91377 -2.06371,-2.14093 2.95462,-0.33577 1.39843,-2.624291 1.23236,2.706261 2.92799,0.51903 -2.19299,2.00832 z" inkscape:randomized="0" inkscape:rounded="0" inkscape:flatsided="false" transform="matrix(0.77229669,0,0,0.78768158,90.178617,218.48281)" points="228.543,107.68 225.955,106.215 223.281,107.516 223.875,104.602 221.811,102.461 224.766,102.125 226.164,99.5011 227.396,102.207 230.324,102.726 228.131,104.735 228.543,107.68 " sodipodi:arg2="1.601941" sodipodi:arg1="0.9736225" sodipodi:r2="2.2389653" sodipodi:r1="4.4779305" sodipodi:cy="103.97687" sodipodi:cx="226.02466" sodipodi:sides="5" id="polygon585" style="font-size:12px;fill:#ffffef;fill-rule:evenodd;stroke-width:1pt" sodipodi:type="star"/>
      <polygon d="m 228.54263,107.67979 -2.58769,-1.46504 -2.67388,1.30112 0.5937,-2.91377 -2.06371,-2.14093 2.95462,-0.33577 1.39843,-2.624291 1.23236,2.706261 2.92799,0.51903 -2.19299,2.00832 z" inkscape:randomized="0" inkscape:rounded="0" inkscape:flatsided="false" transform="matrix(0.65414635,0,0,0.66717661,120.6691,287.26356)" points="228.543,107.68 225.955,106.215 223.281,107.516 223.875,104.602 221.811,102.461 224.766,102.125 226.164,99.5011 227.396,102.207 230.324,102.726 228.131,104.735 228.543,107.68 " sodipodi:arg2="1.601941" sodipodi:arg1="0.9736225" sodipodi:r2="2.2389653" sodipodi:r1="4.4779305" sodipodi:cy="103.97687" sodipodi:cx="226.02466" sodipodi:sides="5" id="polygon586" style="font-size:12px;fill:#ffffef;fill-rule:evenodd;stroke-width:1pt" sodipodi:type="star"/>
      <polygon d="m 228.54263,107.67979 -2.58769,-1.46504 -2.67388,1.30112 0.5937,-2.91377 -2.06371,-2.14093 2.95462,-0.33577 1.39843,-2.624291 1.23236,2.706261 2.92799,0.51903 -2.19299,2.00832 z" inkscape:randomized="0" inkscape:rounded="0" inkscape:flatsided="false" transform="matrix(1.5566878,0,0,1.5876909,-132.89231,97.877315)" points="228.543,107.68 225.955,106.215 223.281,107.516 223.875,104.602 221.811,102.461 224.766,102.125 226.164,99.5011 227.396,102.207 230.324,102.726 228.131,104.735 228.543,107.68 " sodipodi:arg2="1.601941" sodipodi:arg1="0.9736225" sodipodi:r2="2.2389653" sodipodi:r1="4.4779305" sodipodi:cy="103.97687" sodipodi:cx="226.02466" sodipodi:sides="5" id="polygon587" style="font-size:12px;fill:#ffffef;fill-rule:evenodd;stroke-width:1pt" sodipodi:type="star"/>
      <path inkscape:connector-curvature="0" sodipodi:nodetypes="ccccc" id="path726" d="m 387.04722,302.70412 c 1.98122,-5.1813 4.53702,-12.99517 5.89421,-20.16717 -69.04765,-60.65554 -146.02188,-91.7279 -243.28398,-85.33472 -3.48674,6.68587 -6.27784,13.68327 -8.63075,21.2558 115.23629,-10.99421 199.71084,40.02622 246.02052,84.24609 z" style="font-size:12px;fill:#ffffff;fill-rule:evenodd;stroke-width:1pt;stroke-opacity:0.50314499"/>
      <path inkscape:connector-curvature="0" id="path790" d="m 356.00758,268.60035 2.46714,1.3471 c -0.38704,0.87468 -0.49104,1.6398 -0.31543,2.29196 0.18244,0.659 0.63597,1.23242 1.35889,1.72196 0.76726,0.52378 1.45267,0.75315 2.05624,0.69153 0.6104,-0.0616 1.06563,-0.31153 1.3606,-0.74801 0.18584,-0.27901 0.26257,-0.57342 0.22847,-0.87981 -0.0273,-0.3064 -0.19608,-0.6727 -0.50468,-1.09549 -0.21313,-0.28585 -0.73316,-0.89008 -1.55838,-1.81097 -1.06051,-1.18278 -1.69307,-2.18069 -1.89767,-2.99375 -0.28303,-1.14341 -0.11083,-2.18241 0.52003,-3.1187 0.40749,-0.60252 0.9548,-1.05098 1.64362,-1.34368 0.69905,-0.29441 1.46119,-0.36117 2.28301,-0.20198 0.82692,0.1609 1.69648,0.54945 2.60013,1.16566 1.47995,1.00477 2.37337,2.08656 2.67857,3.24366 0.31201,1.16053 0.12105,2.29709 -0.57459,3.40969 l -2.4501,-1.51142 c 0.30691,-0.67783 0.38193,-1.26323 0.22166,-1.7562 -0.15005,-0.49468 -0.56095,-0.96882 -1.23272,-1.42413 -0.69053,-0.469 -1.3282,-0.69495 -1.91132,-0.67612 -0.3768,0.012 -0.66665,0.17117 -0.87296,0.47757 -0.18926,0.28071 -0.23188,0.6008 -0.13129,0.96026 0.13129,0.45702 0.6803,1.2153 1.65557,2.27655 0.97185,1.05953 1.6351,1.92565 1.98803,2.59663 0.36146,0.66928 0.52515,1.36594 0.49105,2.08827 -0.0239,0.72062 -0.28986,1.45494 -0.79283,2.20295 -0.45694,0.67954 -1.07245,1.18449 -1.84652,1.52169 -0.77408,0.33721 -1.60101,0.41937 -2.4842,0.24306 -0.87808,-0.17972 -1.82947,-0.61792 -2.85248,-1.31458 -1.49017,-1.0099 -2.40405,-2.13277 -2.73824,-3.36347 -0.32906,-1.23585 -0.12787,-2.57097 0.6104,-4.00023 z" style="font-size:12px;font-weight:bold;fill:#309e3a;stroke-width:1pt;stroke-opacity:0.50196078;font-family:Arial"/>
      <path inkscape:connector-curvature="0" id="path791" d="m 344.30953,260.91827 2.52,1.2444 c -0.35124,0.88837 -0.42455,1.65864 -0.22336,2.30223 0.21142,0.65044 0.68371,1.20674 1.42709,1.66719 0.78942,0.49126 1.48165,0.69324 2.08181,0.60765 0.6104,-0.0873 1.0554,-0.35261 1.32991,-0.80107 0.17732,-0.28585 0.2404,-0.58369 0.19437,-0.88837 -0.0392,-0.30639 -0.22336,-0.66585 -0.55072,-1.07665 -0.22335,-0.2773 -0.76384,-0.85756 -1.62828,-1.74593 -1.10655,-1.13999 -1.77832,-2.11223 -2.01532,-2.91501 -0.32906,-1.13143 -0.19778,-2.17556 0.39215,-3.13754 0.38534,-0.61792 0.91389,-1.08692 1.58907,-1.40701 0.68882,-0.3218 1.44755,-0.42107 2.27448,-0.29612 0.83375,0.13009 1.71694,0.4827 2.64446,1.06125 1.52087,0.94314 2.45521,1.98899 2.80645,3.1324 0.35805,1.14854 0.21312,2.29024 -0.43478,3.43023 l -2.51148,-1.41215 c 0.27963,-0.6881 0.33248,-1.27521 0.15175,-1.76133 -0.1705,-0.48954 -0.60016,-0.94657 -1.28728,-1.37449 -0.71099,-0.44162 -1.35719,-0.64017 -1.93689,-0.59738 -0.3768,0.0257 -0.65984,0.19856 -0.85421,0.51351 -0.17561,0.28756 -0.20801,0.60594 -0.0921,0.96197 0.14834,0.45189 0.72804,1.18791 1.74423,2.20979 1.01277,1.01846 1.71182,1.85719 2.09033,2.51277 0.38875,0.65387 0.57971,1.34368 0.57459,2.06601 0.007,0.72234 -0.23188,1.46521 -0.70246,2.23547 -0.42966,0.69324 -1.02812,1.22558 -1.78514,1.5953 -0.76044,0.36802 -1.58566,0.4827 -2.47397,0.34234 -0.88149,-0.14378 -1.84993,-0.54603 -2.90192,-1.19819 -1.52769,-0.9517 -2.4859,-2.0352 -2.86953,-3.25221 -0.38192,-1.22215 -0.23358,-2.56241 0.44672,-4.01906 z" style="font-size:12px;font-weight:bold;fill:#309e3a;stroke-width:1pt;stroke-opacity:0.50196078;font-family:Arial"/>
      <path inkscape:connector-curvature="0" id="path792" d="m 329.83061,257.03958 7.41678,-12.19581 9.00755,5.52021 -1.25489,2.0643 -6.55234,-4.01734 -1.64703,2.70276 6.09881,3.73834 -1.24977,2.05403 -6.09881,-3.73663 -2.01703,3.31897 6.78593,4.15942 -1.25147,2.05574 -9.23773,-5.66399 z" style="font-size:12px;font-weight:bold;fill:#309e3a;stroke-width:1pt;stroke-opacity:0.50196078;font-family:Arial"/>
      <path inkscape:connector-curvature="0" id="path795" d="m 308.74479,239.72067 1.09973,-2.14133 5.50547,2.84997 -2.59502,5.05805 c -0.80476,0.24306 -1.81583,0.30126 -3.04003,0.17289 -1.21226,-0.1318 -2.33927,-0.46558 -3.38103,-1.00477 -1.32308,-0.68468 -2.33415,-1.55593 -3.0332,-2.6206 -0.69565,-1.06981 -1.02812,-2.24745 -0.99232,-3.53807 0.0392,-1.29746 0.36999,-2.55384 0.99573,-3.77257 0.67688,-1.32314 1.56008,-2.35358 2.64105,-3.09816 1.07586,-0.74117 2.29153,-1.11089 3.63678,-1.11089 1.02812,-0.003 2.1449,0.31153 3.35375,0.93287 1.57202,0.81477 2.62741,1.78016 3.16449,2.89961 0.54901,1.11773 0.64961,2.32448 0.30349,3.62365 l -2.78086,-0.83702 c 0.14151,-0.71548 0.058,-1.38133 -0.25405,-1.99412 -0.30179,-0.61792 -0.82181,-1.11602 -1.55667,-1.49773 -1.11848,-0.57855 -2.18752,-0.68296 -3.21564,-0.31153 -1.0196,0.36973 -1.88744,1.25296 -2.60355,2.65141 -0.77578,1.50801 -1.02471,2.81232 -0.74509,3.91465 0.28304,1.09377 0.96333,1.92223 2.04772,2.48366 0.53366,0.27558 1.12189,0.44847 1.76297,0.51693 0.65132,0.0668 1.24466,0.0496 1.78685,-0.0514 l 0.82693,-1.61241 -2.9275,-1.51314 z" style="font-size:12px;font-weight:bold;fill:#309e3a;stroke-width:1pt;stroke-opacity:0.50196078;font-family:Arial"/>
      <path inkscape:connector-curvature="0" id="path804" d="m 216.75798,216.91065 2.07329,-14.13515 4.25229,0.6299 1.14406,10.01683 3.93515,-9.26882 4.26763,0.6299 -2.07158,14.13687 -2.64106,-0.39026 1.6334,-11.12772 -4.4279,10.7152 -2.73654,-0.40567 -1.15599,-11.53852 -1.63169,11.126 -2.64106,-0.38856 z" style="font-size:12px;font-weight:bold;fill:#309e3a;stroke-width:1pt;stroke-opacity:0.50196078;font-family:Arial"/>
      <path inkscape:connector-curvature="0" id="path805" d="m 202.37966,215.24175 1.32991,-14.2293 10.50625,0.99278 -0.22165,2.40664 -7.64696,-0.72062 -0.29667,3.15465 7.11329,0.66927 -0.22336,2.39809 -7.11499,-0.67099 -0.35976,3.87185 7.91294,0.74459 -0.22165,2.39979 -10.77735,-1.01675 z" style="font-size:12px;font-weight:bold;fill:#309e3a;stroke-width:1pt;stroke-opacity:0.50196078;font-family:Arial"/>
      <g style="font-size:12px" transform="matrix(1.3970329,-0.89423081,0.89073809,1.4025114,-199.05196,128.09607)" id="g812">
        <path inkscape:connector-curvature="0" id="path810" d="m 154.793,154.478 c 0.49,-0.725 1.01,-1.26 1.56,-1.605 0.406,-0.253 0.847,-0.429 1.319,-0.529 0.476,-0.098 0.928,-0.103 1.356,-0.016 0.57,0.112 1.145,0.364 1.724,0.755 1.048,0.71 1.666,1.602 1.853,2.676 0.192,1.078 -0.105,2.196 -0.888,3.354 -0.777,1.148 -1.698,1.837 -2.763,2.064 -1.062,0.225 -2.116,-0.016 -3.16,-0.723 -1.059,-0.716 -1.681,-1.607 -1.87,-2.673 -0.187,-1.07 0.103,-2.171 0.869,-3.303 z" style="font-size:12px;font-weight:bold;fill:#309e3a;stroke-width:1pt;stroke-opacity:0.50196078;font-family:Arial"/>
        <path inkscape:connector-curvature="0" id="path811" d="m 156.306,155.431 c -0.545,0.805 -0.773,1.543 -0.683,2.212 0.091,0.666 0.424,1.193 0.997,1.58 0.572,0.387 1.181,0.499 1.824,0.336 0.649,-0.165 1.252,-0.66 1.811,-1.485 0.551,-0.815 0.783,-1.545 0.696,-2.189 -0.085,-0.642 -0.423,-1.163 -1.015,-1.564 -0.592,-0.4 -1.207,-0.519 -1.846,-0.357 -0.636,0.159 -1.231,0.648 -1.784,1.467 z" style="font-size:12px;font-weight:bold;fill:#f7ffff;fill-opacity:1;stroke-width:1pt;stroke-opacity:0.50196078;font-family:Arial"/>
      </g>
      <g style="font-size:12px" transform="matrix(1.3830214,-0.91591787,0.91234052,1.3884442,-199.31962,133.77167)" id="g815">
        <path inkscape:connector-curvature="0" id="path808" d="m 160.442,163.422 4.814,-7.115 3.023,2.046 c 0.761,0.515 1.269,0.952 1.524,1.314 0.261,0.36 0.384,0.774 0.37,1.241 -0.014,0.467 -0.163,0.91 -0.448,1.331 -0.361,0.534 -0.817,0.869 -1.367,1.006 -0.548,0.134 -1.165,0.035 -1.851,-0.297 0.188,0.391 0.31,0.764 0.363,1.116 0.058,0.354 0.07,0.924 0.039,1.71 l -0.07,1.975 -1.718,-1.162 0.009,-2.251 c 0.006,-0.802 -0.012,-1.321 -0.051,-1.555 -0.038,-0.238 -0.115,-0.434 -0.232,-0.589 -0.115,-0.157 -0.337,-0.348 -0.668,-0.571 l -0.29,-0.197 -2.01,2.97 -1.437,-0.972 z" style="font-size:12px;font-weight:bold;fill:#309e3a;stroke-width:1pt;stroke-opacity:0.50196078;font-family:Arial"/>
        <path inkscape:connector-curvature="0" id="path809" d="m 164.657,160.288 1.063,0.719 c 0.689,0.467 1.139,0.729 1.35,0.787 0.211,0.057 0.413,0.048 0.606,-0.029 0.193,-0.077 0.362,-0.222 0.507,-0.435 0.162,-0.24 0.228,-0.476 0.196,-0.709 -0.025,-0.234 -0.141,-0.45 -0.348,-0.646 -0.106,-0.095 -0.45,-0.34 -1.032,-0.734 l -1.121,-0.758 -1.221,1.805 z" style="font-size:12px;font-weight:bold;fill:#ffffff;fill-opacity:1;stroke-width:1pt;stroke-opacity:0.50196078;font-family:Arial"/>
      </g>
      <g style="font-size:12px" transform="matrix(1.4175186,-0.86112499,0.85776163,1.4230776,-194.7184,119.26492)" id="g818">
        <path inkscape:connector-curvature="0" id="path806" d="m 172.424,161.157 2.626,1.776 c 0.592,0.401 1.012,0.751 1.261,1.052 0.334,0.405 0.544,0.866 0.629,1.381 0.086,0.515 0.052,1.053 -0.101,1.615 -0.152,0.558 -0.452,1.17 -0.903,1.836 -0.396,0.586 -0.811,1.041 -1.243,1.367 -0.529,0.397 -1.065,0.644 -1.613,0.741 -0.412,0.075 -0.877,0.036 -1.393,-0.115 -0.385,-0.114 -0.843,-0.351 -1.374,-0.71 l -2.702,-1.828 4.813,-7.115 z" style="font-size:12px;font-weight:bold;fill:#309e3a;stroke-width:1pt;stroke-opacity:0.50196078;font-family:Arial"/>
        <path inkscape:connector-curvature="0" id="path807" d="m 173.046,163.332 -3.188,4.713 1.073,0.725 c 0.4,0.272 0.706,0.445 0.914,0.52 0.272,0.099 0.532,0.131 0.778,0.095 0.25,-0.034 0.53,-0.177 0.841,-0.429 0.314,-0.254 0.657,-0.656 1.029,-1.206 0.372,-0.55 0.609,-1.006 0.712,-1.366 0.102,-0.36 0.121,-0.681 0.058,-0.965 -0.063,-0.283 -0.209,-0.544 -0.438,-0.784 -0.17,-0.181 -0.548,-0.47 -1.134,-0.866 l -0.645,-0.437 z" style="font-size:12px;font-weight:bold;fill:#ffffff;fill-opacity:1;stroke-width:1pt;stroke-opacity:0.50196078;font-family:Arial"/>
      </g>
      <g style="font-size:12px" transform="matrix(1.5511433,-0.58457754,0.58229378,1.5572259,-164.55035,46.057858)" id="g824">
        <path inkscape:connector-curvature="0" id="path800" d="m 200.752,190.693 4.813,-7.115 2.306,1.56 c 0.873,0.591 1.419,1.012 1.636,1.263 0.335,0.382 0.519,0.846 0.551,1.391 0.034,0.542 -0.141,1.096 -0.524,1.662 -0.295,0.437 -0.622,0.751 -0.983,0.941 -0.359,0.191 -0.72,0.288 -1.082,0.294 -0.357,0.004 -0.68,-0.052 -0.97,-0.168 -0.388,-0.164 -0.908,-0.466 -1.558,-0.906 l -0.936,-0.634 -1.816,2.684 -1.437,-0.972 z" style="font-size:12px;font-weight:bold;fill:#309e3a;stroke-width:1pt;stroke-opacity:0.50196078;font-family:Arial"/>
        <path inkscape:connector-curvature="0" id="path801" d="m 206.188,185.754 -1.366,2.019 0.786,0.532 c 0.567,0.383 0.97,0.602 1.211,0.656 0.242,0.055 0.469,0.039 0.683,-0.047 0.217,-0.084 0.397,-0.231 0.539,-0.442 0.175,-0.259 0.244,-0.523 0.206,-0.794 -0.039,-0.272 -0.16,-0.507 -0.364,-0.706 -0.15,-0.149 -0.483,-0.398 -1.001,-0.748 l -0.694,-0.47 z" style="font-size:12px;font-weight:bold;fill:#ffffff;fill-opacity:1;stroke-width:1pt;stroke-opacity:0.50196078;font-family:Arial"/>
      </g>
      <g style="font-size:12px" transform="matrix(1.6028459,-0.4211636,0.41951839,1.6091316,-143.19355,2.8882875)" id="g827">
        <path inkscape:connector-curvature="0" id="path798" d="m 207.386,195.181 4.813,-7.114 3.024,2.046 c 0.761,0.514 1.269,0.952 1.524,1.313 0.261,0.361 0.384,0.774 0.37,1.241 -0.014,0.467 -0.163,0.911 -0.448,1.331 -0.361,0.534 -0.817,0.869 -1.367,1.006 -0.548,0.134 -1.165,0.035 -1.851,-0.296 0.188,0.391 0.31,0.763 0.363,1.115 0.058,0.355 0.07,0.925 0.039,1.71 l -0.07,1.976 -1.718,-1.162 0.009,-2.251 c 0.005,-0.803 -0.012,-1.321 -0.051,-1.556 -0.038,-0.237 -0.115,-0.433 -0.232,-0.588 -0.115,-0.158 -0.337,-0.348 -0.668,-0.572 l -0.29,-0.197 -2.01,2.971 -1.437,-0.973 z" style="font-size:12px;font-weight:bold;fill:#309e3a;stroke-width:1pt;stroke-opacity:0.50196078;font-family:Arial"/>
        <path inkscape:connector-curvature="0" id="path799" d="m 211.601,192.048 1.063,0.719 c 0.689,0.466 1.138,0.728 1.349,0.785 0.211,0.058 0.413,0.049 0.607,-0.028 0.193,-0.076 0.362,-0.222 0.506,-0.435 0.162,-0.24 0.228,-0.476 0.197,-0.709 -0.025,-0.234 -0.142,-0.449 -0.348,-0.646 -0.106,-0.095 -0.45,-0.339 -1.032,-0.733 l -1.121,-0.759 -1.221,1.806 z" style="font-size:12px;font-weight:bold;fill:#ffffff;fill-opacity:1;stroke-width:1pt;stroke-opacity:0.50196078;font-family:Arial"/>
      </g>
      <g style="font-size:12px" transform="matrix(1.5863601,-0.4799687,0.47809436,1.5925811,-149.72374,20.413807)" id="g830">
        <path inkscape:connector-curvature="0" id="path796" d="m 216.645,196.324 c 0.491,-0.725 1.011,-1.26 1.559,-1.605 0.408,-0.253 0.847,-0.43 1.321,-0.529 0.476,-0.098 0.928,-0.103 1.355,-0.017 0.571,0.112 1.145,0.364 1.724,0.756 1.049,0.709 1.666,1.601 1.854,2.676 0.191,1.077 -0.105,2.195 -0.889,3.353 -0.777,1.149 -1.698,1.837 -2.762,2.065 -1.062,0.225 -2.116,-0.017 -3.161,-0.724 -1.058,-0.715 -1.681,-1.606 -1.87,-2.672 -0.187,-1.07 0.103,-2.171 0.869,-3.303 z" style="font-size:12px;font-weight:bold;fill:#309e3a;stroke-width:1pt;stroke-opacity:0.50196078;font-family:Arial"/>
        <path inkscape:connector-curvature="0" id="path797" d="m 218.158,197.277 c -0.545,0.805 -0.773,1.542 -0.683,2.212 0.092,0.665 0.424,1.192 0.997,1.58 0.573,0.387 1.18,0.499 1.824,0.335 0.649,-0.164 1.253,-0.659 1.811,-1.484 0.552,-0.816 0.784,-1.545 0.696,-2.19 -0.084,-0.641 -0.423,-1.163 -1.015,-1.563 -0.592,-0.401 -1.207,-0.52 -1.845,-0.357 -0.636,0.159 -1.231,0.648 -1.785,1.467 z" style="font-size:12px;font-weight:bold;fill:#ffffff;fill-opacity:1;stroke-width:1pt;stroke-opacity:0.50196078;font-family:Arial"/>
      </g>
      <g style="font-size:12px" transform="matrix(1.6454301,-0.19485046,0.19408944,1.651883,-103.71444,-53.916108)" id="g833">
        <path inkscape:connector-curvature="0" id="path793" d="m 230.026,210.498 4.813,-7.115 3.024,2.046 c 0.76,0.515 1.268,0.952 1.524,1.314 0.26,0.36 0.384,0.774 0.37,1.241 -0.014,0.467 -0.164,0.91 -0.448,1.331 -0.361,0.534 -0.817,0.869 -1.368,1.006 -0.548,0.134 -1.164,0.035 -1.85,-0.297 0.188,0.391 0.309,0.764 0.363,1.116 0.057,0.355 0.07,0.924 0.039,1.71 l -0.071,1.975 -1.717,-1.162 0.008,-2.25 c 0.005,-0.804 -0.011,-1.322 -0.051,-1.556 -0.037,-0.237 -0.115,-0.434 -0.232,-0.589 -0.114,-0.157 -0.337,-0.348 -0.667,-0.571 l -0.291,-0.197 -2.009,2.97 -1.437,-0.972 z" style="font-size:12px;font-weight:bold;fill:#309e3a;stroke-width:1pt;stroke-opacity:0.50196078;font-family:Arial"/>
        <path inkscape:connector-curvature="0" id="path794" d="m 234.24,207.364 1.063,0.719 c 0.689,0.467 1.139,0.728 1.35,0.786 0.21,0.058 0.413,0.048 0.607,-0.028 0.193,-0.077 0.361,-0.222 0.506,-0.436 0.162,-0.239 0.227,-0.475 0.197,-0.708 -0.026,-0.234 -0.142,-0.45 -0.348,-0.646 -0.106,-0.095 -0.45,-0.34 -1.033,-0.734 l -1.12,-0.758 -1.222,1.805 z" style="font-size:12px;font-weight:bold;fill:#ffffff;fill-opacity:1;stroke-width:1pt;stroke-opacity:0.50196078;font-family:Arial"/>
      </g>
      <g style="font-size:12px" transform="matrix(1.6568386,0,0,1.6633355,-60.954842,-99.343601)" id="g836">
        <path inkscape:connector-curvature="0" id="path788" d="m 259.172,225.095 c 0.49,-0.725 1.01,-1.26 1.56,-1.605 0.407,-0.253 0.847,-0.429 1.32,-0.529 0.477,-0.097 0.928,-0.103 1.355,-0.017 0.571,0.113 1.146,0.365 1.725,0.757 1.048,0.709 1.666,1.601 1.854,2.676 0.191,1.077 -0.106,2.194 -0.89,3.353 -0.777,1.148 -1.697,1.837 -2.761,2.065 -1.063,0.224 -2.116,-0.017 -3.162,-0.724 -1.057,-0.716 -1.681,-1.607 -1.87,-2.673 -0.187,-1.07 0.103,-2.171 0.869,-3.303 z" style="font-size:12px;font-weight:bold;fill:#309e3a;stroke-width:1pt;stroke-opacity:0.50196078;font-family:Arial"/>
        <path inkscape:connector-curvature="0" id="path789" d="m 260.686,226.048 c -0.545,0.806 -0.773,1.543 -0.684,2.212 0.093,0.666 0.425,1.192 0.997,1.58 0.573,0.387 1.181,0.499 1.825,0.336 0.649,-0.165 1.253,-0.659 1.811,-1.485 0.551,-0.815 0.783,-1.545 0.695,-2.189 -0.085,-0.642 -0.423,-1.163 -1.015,-1.564 -0.592,-0.401 -1.207,-0.52 -1.845,-0.357 -0.636,0.159 -1.23,0.649 -1.784,1.467 z" style="font-size:12px;font-weight:bold;fill:#ffffff;fill-opacity:1;stroke-width:1pt;stroke-opacity:0.50196078;font-family:Arial"/>
      </g>
      <path inkscape:connector-curvature="0" id="path872" d="m 241.75508,219.83936 2.29153,-10.03052 7.40826,1.70827 -0.38534,1.69458 -5.38952,-1.24098 -0.51321,2.22349 5.01954,1.1571 -0.38874,1.68773 -5.01272,-1.15368 -0.62574,2.72844 5.58049,1.28548 -0.38533,1.69115 -7.59922,-1.75106 z" style="font-size:12px;font-weight:bold;fill:#309e3a;stroke-width:1pt;stroke-opacity:0.50196078;font-family:Arial"/>
    </g>
  </g></g>
  <g id="02" inkscape:label="02" style="display:inline" transform="translate(0,38)">
    <path sodipodi:nodetypes="sscssscss" inkscape:connector-curvature="0" id="path3862-8" d="m 214.21087,111.21099 c -45.24514,0.18809 -68.71568,7.73077 -64.09352,83.5526 l 2.8252,46.34456 c 47.4743,5.51239 56.66416,18.44506 104.35936,21.91413 68.07337,4.95126 67.93728,5.42092 130.56477,-14.38414 62.62753,-19.80506 5.82485,-65.24698 207.32205,-57.8201 4.60334,0.16968 17.3137,-3.05269 27.46187,-12.15043 5.5817,-46.52389 -2.78415,-69.14289 -66.93352,-68.87623 z" style="color:#000000;fill:url(#linearGradient5125);fill-opacity:1;fill-rule:nonzero;stroke:none;stroke-width:1.62399995;marker:none;visibility:visible;overflow:visible;enable-background:accumulate"/>
    <path inkscape:connector-curvature="0" id="path3079-9" d="m 531.03278,495.17335 c -31.60486,19.02245 -27.60116,31.26037 -37.91323,32.57276 -94.70417,12.0527 -145.97722,-0.72701 -165.79583,-12.06122 -59.58792,-34.07817 -68.46788,-13.01421 -100.22126,-16.5742 -20.11475,-2.25514 -59.24503,12.98404 -73.38763,44.34434 3.47222,27.60795 18.11064,32.09835 44.28127,31.98612 l 356.05526,-1.52684 c 69.69188,-0.29885 56.33547,-8.49265 65.54301,-56.03861 -14.77205,-21.67074 -13.15664,9.10903 -44.2237,-30.71666 z" style="color:#000000;fill:url(#linearGradient5122);fill-opacity:1;fill-rule:nonzero;stroke:none;stroke-width:1.62399994999999997;marker:none;visibility:visible;overflow:visible;enable-background:accumulate" sodipodi:nodetypes="cssscssccc"/>
    <rect id="rect5734" height="512" x="0" style="fill:none;stroke:#000000;stroke-width:20;stroke-miterlimit:4;stroke-opacity:1;stroke-dasharray:none;display:inline;filter:url(#filter5740)" width="512" y="0" ry="57" inkscape:label="#rect4203" transform="translate(128,90)" clip-path="url(#clipPath5796)"/>
  </g></g>
</svg>
