<?xml version="1.0" encoding="UTF-8" standalone="no"?>
<svg xmlns:dc="http://purl.org/dc/elements/1.1/" xmlns:cc="http://creativecommons.org/ns#" xmlns:rdf="http://www.w3.org/1999/02/22-rdf-syntax-ns#" xmlns:svg="http://www.w3.org/2000/svg" xmlns="http://www.w3.org/2000/svg" xmlns:xlink="http://www.w3.org/1999/xlink" xmlns:sodipodi="http://sodipodi.sourceforge.net/DTD/sodipodi-0.dtd" xmlns:inkscape="http://www.inkscape.org/namespaces/inkscape" width="768" height="768" id="svg2" version="1.1" inkscape:version="0.48.1 r9760" sodipodi:docname="template.svg">
  <defs id="defs4">
    <clipPath clipPathUnits="userSpaceOnUse" id="clipPathFlag">
      <rect id="rect3918" height="511" x="0.5" style="fill:#000000;fill-opacity:0.67000002;stroke:none" width="511" y="0.5" ry="57"/>
    </clipPath>
    <linearGradient id="linearGradient3852" inkscape:collect="always">
      <stop id="stop3854" offset="0" style="stop-color:#dbe3db;stop-opacity:1;"/>
      <stop id="stop3856" offset="1" style="stop-color:#dbe3db;stop-opacity:0;"/>
    </linearGradient>
    <linearGradient inkscape:collect="always" xlink:href="#linearGradient3852" id="linearGradient3070" gradientUnits="userSpaceOnUse" x1="339.54913" y1="646.63617" x2="345.74551" y2="566.63617" gradientTransform="matrix(0.93191514,0,0,0.93191514,7.9467803,7.2318863)"/>
    <clipPath id="clipPath3882" clipPathUnits="userSpaceOnUse">
      <path sodipodi:type="inkscape:offset" inkscape:radius="11.844458" inkscape:original="M 243.75 118.0625 C 179.93919 118.0625 128.5625 169.43919 128.5625 233.25 L 128.5625 528.59375 C 128.5625 592.40456 179.93919 643.78125 243.75 643.78125 L 539.09375 643.78125 C 602.90456 643.78125 654.28125 592.40456 654.28125 528.59375 L 654.28125 233.25 C 654.28125 169.43919 602.90456 118.0625 539.09375 118.0625 L 243.75 118.0625 z " style="color:#000000;fill:none;stroke:none;stroke-width:20;marker:none;visibility:visible;display:inline;overflow:visible;enable-background:accumulate" id="path3884" d="m 243.75,106.21875 c -70.16845,0 -127.03125,56.8628 -127.03125,127.03125 l 0,295.34375 c 0,70.16845 56.8628,127.03125 127.03125,127.03125 l 295.34375,0 c 70.16845,0 127.03125,-56.8628 127.03125,-127.03125 l 0,-295.34375 c 0,-70.16845 -56.8628,-127.03125 -127.03125,-127.03125 l -295.34375,0 z"/>
    </clipPath>
    <linearGradient id="linearGradient3852-0" inkscape:collect="always">
      <stop id="stop3854-6" offset="0" style="stop-color:#dbe3db;stop-opacity:1;"/>
      <stop id="stop3856-1" offset="1" style="stop-color:#dbe3db;stop-opacity:0;"/>
    </linearGradient>
    <linearGradient inkscape:collect="always" xlink:href="#linearGradient3852-0" id="linearGradient3070-5" gradientUnits="userSpaceOnUse" x1="339.54913" y1="646.63617" x2="345.74551" y2="566.63617" gradientTransform="matrix(0.93191514,0,0,0.93191514,7.9467803,7.2318863)"/>
    <linearGradient inkscape:collect="always" xlink:href="#linearGradient3852-0" id="linearGradient5122" gradientUnits="userSpaceOnUse" gradientTransform="matrix(1.1571075,0,0,1.3166846,-91.204261,-253.98784)" x1="342.1882" y1="705.75824" x2="358.07608" y2="523.40735"/>
    <linearGradient inkscape:collect="always" xlink:href="#linearGradient3852-0" id="linearGradient5125" gradientUnits="userSpaceOnUse" gradientTransform="matrix(0.95302723,0,0,0.86647129,11.575117,-4.501603)" x1="405.2634" y1="118.06474" x2="405.74554" y2="360.92188"/>
    <clipPath clipPathUnits="userSpaceOnUse" id="clipPath5712">
      <rect mask="none" inkscape:label="#rect4203" ry="64.777054" y="0" width="512" style="fill:none;display:inline" x="0" height="512" id="rect5714"/>
    </clipPath>
    <filter inkscape:collect="always" id="filter5740">
      <feGaussianBlur inkscape:collect="always" stdDeviation="5.12" id="feGaussianBlur5742"/>
    </filter>
    <clipPath clipPathUnits="userSpaceOnUse" id="clipPath5796">
      <rect inkscape:label="#rect4203" ry="57" y="0" width="512" style="fill:none;stroke:#00fa00;stroke-width:20;stroke-miterlimit:4;stroke-opacity:1;stroke-dasharray:none;display:inline" x="0" height="512" id="rect5798"/>
    </clipPath>
    <filter inkscape:collect="always" id="filter5912">
      <feGaussianBlur inkscape:collect="always" stdDeviation="17.92" id="feGaussianBlur5914"/>
    </filter>
  </defs>
  <sodipodi:namedview id="base" pagecolor="#ffffff" bordercolor="#666666" borderopacity="1.0" inkscape:pageopacity="0.0" inkscape:pageshadow="2" inkscape:zoom="0.65494792" inkscape:cx="191.61829" inkscape:cy="384" inkscape:document-units="px" showgrid="false" inkscape:window-width="1280" inkscape:window-height="723" inkscape:window-x="0" inkscape:window-y="24" inkscape:window-maximized="1"/>

  <g id="template-button" inkscape:label="template-button" style="display:inline">
  &gt;
  <g inkscape:label="00" id="00" style="display:inline" transform="translate(90,90)">
    <rect inkscape:label="#rect4203" ry="57" y="56" width="512" style="fill:#000000;fill-opacity:1;stroke:#a8a8a8;stroke-width:5;stroke-miterlimit:4;stroke-opacity:1;stroke-dasharray:none;display:inline;filter:url(#filter5912)" x="38" height="512" id="shadow"/>
  </g>
  <g id="01" inkscape:label="01" style="display:inline" transform="translate(128,128)" clip-path="url(#clipPathFlag)">
    <rect id="mask" height="512" x="0" style="fill:#0000ff;fill-opacity:1;stroke:none" width="512" y="0" ry="57" inkscape:label="#rect4203"/>
  <g id="flag" clip-path="url(#clipPath5277)" inkscape:label="#g5249">
    <g id="g5244" transform="translate(42,0)">
      <rect style="font-size:12px;fill:#be0027;fill-opacity:1;fill-rule:evenodd;stroke-width:1pt" id="rect686" width="591.45428" height="512" x="-90" y="0"/>
      <path style="fill:#b4d7f4;fill-opacity:1;fill-rule:evenodd;stroke:none" d="M -90,511.99988 501.45403,511.67917 501.41712,255.99771 -90,511.99988 z" id="path684" inkscape:connector-curvature="0"/>
      <path style="fill:#239e46;fill-opacity:1;fill-rule:evenodd;stroke:none" d="M -90,4.142434e-4 501.45403,0.32112749 501.41712,256.0003 -90,4.142434e-4 z" id="path685" inkscape:connector-curvature="0"/>
    </g>
    <path inkscape:connector-curvature="0" sodipodi:nodetypes="cccccccccccccccccscccsccsccccsccscsccsscsccccscsscccccccsccccccccccccccccccccccccccccscccccsccsccsccsccscccccccccccccccccc" id="path687" d="m 148.75748,351.44315 c -8.70482,2.40354 -13.69539,9.15702 -13.56759,15.52876 l 42.84743,-0.17203 c 0.38503,-6.84688 -5.24779,-13.17929 -13.82318,-15.67294 41.95124,-0.86671 78.39581,-16.5806 85.01822,-26.66332 -6.5536,-2.84426 -14.1312,1.73343 -19.53301,0.67994 12.8254,-5.92773 51.25079,-30.79865 45.00357,-57.46197 -4.85621,14.8095 -19.56741,27.06309 -25.83265,30.353 14.35402,-21.79563 33.9542,-44.48747 16.94925,-62.05931 0.85852,10.18429 -6.47168,21.39258 -9.70916,22.23472 8.32635,-23.02935 16.27095,-51.94383 -1.76947,-71.00498 2.36913,6.88948 1.4123,26.32418 -1.84975,27.19744 -1.00434,-15.65982 -3.67657,-48.59822 -20.16871,-48.12964 5.23797,4.66289 7.53009,17.38998 7.64641,30.24487 -3.75848,-8.8064 -8.02979,-15.43701 -17.16551,-21.93982 -7.39082,-14.17379 -20.54062,-25.91785 -33.69206,-34.33103 1.4762,10.31701 2.69845,18.45658 17.10326,29.15697 -7.51043,-0.46695 -15.01921,-14.70464 -23.04574,-15.0995 -6.38484,-0.30802 -11.39507,5.78519 -21.8284,2.27902 1.15507,3.44391 6.02276,4.96926 7.05004,7.51698 -2.23478,1.54337 -7.53992,-0.24085 -11.95049,-2.53789 6.06699,8.26409 15.46813,13.12359 23.44878,11.48355 9.49125,-1.82518 19.66735,-0.86016 29.37323,4.66289 -2.4789,1.27303 -12.12743,1.26484 -18.31895,0.48988 5.62791,5.69835 9.40278,9.47487 19.18894,9.41261 8.74087,-0.0573 13.32347,-4.66289 15.56808,-1.81044 5.48209,6.49626 9.17176,12.98924 13.75764,20.63729 -10.13022,1.11903 -7.07625,-11.45733 -18.35827,-17.88969 -6.33897,13.12031 7.29088,28.67364 16.56914,35.13877 0.12452,9.86153 1.56631,18.11251 5.74915,25.6213 2.81968,5.29367 6.46512,10.71185 5.09051,22.65907 -5.55418,-4.04521 -10.9822,-17.68817 -8.98499,-28.51799 -6.95173,1.89563 -9.66984,14.11973 -6.39304,20.27356 2.44777,4.68418 4.08126,13.64951 1.25829,17.65704 -2.75087,3.73391 -3.03923,3.31612 -3.00318,11.32953 0.0983,4.7956 -2.58048,10.4661 -6.94354,14.41956 0.91095,-3.37838 1.94969,-9.19142 0.94044,-12.8254 -3.44883,5.85073 -12.10122,11.90462 -14.82588,18.19444 -2.67551,6.30456 -3.35381,17.2245 -16.30208,19.74272 -16.65761,3.30629 -22.40676,6.19315 -33.12517,10.57915 -1.18948,-8.14121 2.37076,-25.11832 9.17831,-24.15002 6.64699,1.18292 26.79931,-6.94354 19.59035,-23.92064 -1.42377,5.35101 -6.17349,10.57259 -11.30823,10.80361 5.54762,-7.19749 15.44847,-14.65057 10.62666,-26.71084 -2.68042,5.12656 -6.89603,11.27875 -13.28906,14.74069 6.85342,-13.13342 0.79626,-17.0623 -7.34167,-6.24558 -3.07364,4.173 -4.92995,12.5354 -6.88292,23.1555 -3.19652,-8.63764 -2.98517,-20.00814 -6.77315,-29.24052 -3.95673,-9.98441 5.25107,-12.6206 9.58464,-11.81942 10.61028,2.8328 28.34268,2.83116 27.02541,-14.69808 -4.58261,5.92937 -12.61896,7.7611 -21.29756,5.62626 9.74684,-7.11721 17.4424,-20.50457 6.58145,-27.49399 -0.36209,7.41212 -6.09812,15.72209 -13.75601,19.54939 -1.79241,-6.25377 -1.79241,-12.89093 -0.25559,-20.16707 -4.27622,4.50069 -7.39901,13.86578 -9.88283,24.51211 -0.18677,-10.52345 1.80388,-18.10596 3.28008,-23.76663 2.23806,-8.26901 7.80042,-2.8885 16.31519,-2.27902 8.20019,0.46531 19.49041,-4.06651 17.33263,-15.18633 -2.80002,4.39911 -8.54753,6.11123 -14.41956,5.64593 7.0697,-4.28278 19.38719,-11.89315 12.63207,-23.59951 -2.83771,4.43351 -3.75685,8.2264 -11.97015,9.58627 2.15122,-4.94796 2.50839,-11.94393 8.8834,-14.71611 -11.37213,-2.26426 -17.88313,5.19865 -21.1927,16.88699 -1.34185,-8.10352 -2.93929,-11.08705 -3.25714,-17.01478 6.14728,-6.82721 6.79117,-20.18345 -6.51756,-23.17025 -0.7897,6.88947 -0.55541,8.53115 0.95847,14.14103 -6.24722,-3.71098 -15.05198,-5.75898 -20.91418,-0.51118 3.97148,4.28605 10.11876,8.05929 19.59363,3.38493 -2.23806,7.32201 -8.05929,6.06863 -16.05796,3.2768 4.88898,9.18323 11.0592,10.81508 17.86839,9.75667 3.56516,9.3995 3.72244,16.54129 -6.69614,30.23012 0.48169,-8.50657 -0.12288,-14.8439 -6.88128,-21.72191 -5.79175,-5.67214 -10.49887,0.24249 -1.44835,12.85325 -5.49028,-4.04357 -11.70473,-12.25031 -13.57578,-20.45542 -1.81043,10.13678 -0.18022,22.08399 5.4313,28.78177 -2.65421,2.83607 -5.67214,-0.30146 -10.13678,-7.24009 1.68919,22.20524 11.16242,26.48965 23.89442,21.54005 0.36209,12.18805 0.36209,23.47335 1.08626,38.19602 -7.42359,-10.6791 -16.83456,-18.645 -22.08563,-20.63565 -1.62857,5.9736 4.5269,13.756 7.9659,18.10104 -5.24943,-1.08626 -16.65434,-9.77469 -16.65434,-9.77469 -1.14688,9.89593 11.64739,19.0677 19.91312,23.17025 -9.71408,-0.42271 -14.00013,-4.10255 -20.2752,-10.13678 0.12124,27.45467 29.74679,22.68692 35.29933,18.46313 0.72417,13.5168 1.75636,29.14222 2.48053,42.65902 -8.3755,-1.46145 -7.71686,-3.97968 -14.88322,-4.64323 -19.89018,-0.77496 -35.66797,-23.8764 -40.892828,-40.86989 -1.499136,2.79675 -0.309658,5.72294 -1.680999,9.15866 -3.229286,-8.34109 -7.354777,-19.11357 -12.887654,-24.12708 1.409024,4.86277 1.558118,9.80419 1.068237,18.89239 -1.898906,-5.88841 -3.665101,-7.69392 -3.792896,-14.60633 0.121241,-5.30678 5.12,-9.22256 4.84311,-16.68711 -0.2048,-5.44932 -5.175706,-17.26054 -5.906432,-26.40445 -2.40681,9.41097 -3.917414,19.33148 -7.603814,25.15763 1.831731,-10.04995 1.244528,-16.98529 4.343398,-23.74861 3.579904,-7.12048 6.624051,-13.47748 4.240179,-20.6635 -2.285568,2.77545 -1.499136,5.29695 -7.241564,12.0406 -1.247314,-7.33348 7.425065,-19.07097 15.841526,-23.78956 5.935923,-3.12771 13.418497,-14.31471 8.544256,-21.98242 -5.582029,4.00917 -8.088781,9.42572 -15.9744,18.68104 5.624627,-21.98733 20.239151,-27.73975 37.735631,-27.81512 3.87154,-0.018 11.67687,-1.41558 13.86742,-6.53885 -4.93159,1.90382 -10.76265,2.1463 -15.95147,1.10756 3.77651,-5.54435 11.72931,-4.82345 19.13979,-4.85622 5.81304,-0.0279 14.88814,-0.81592 18.55652,-9.09476 -7.091,3.072 -18.1502,3.71098 -25.1134,1.53518 11.07395,-5.73768 28.41969,-6.35535 37.3162,-13.88544 -10.14005,-7.56777 -35.51396,1.76292 -51.54078,12.75495 4.47938,-4.096 11.55891,-11.36231 15.46485,-17.22778 -8.76544,-4.2025 -30.93299,20.35548 -38.569571,34.94707 -7.253197,4.096 -10.154803,10.51689 -12.971213,14.99791 3.864986,-13.05968 4.274586,-22.53619 7.498957,-33.29064 -24.863375,8.559 -14.528676,54.49809 -19.93687,65.48848 0.636518,-12.13399 0.121078,-27.72173 -4.874568,-35.75972 -7.658209,5.84254 -8.276214,40.22928 -1.086259,68.85704 -2.596373,-7.66116 -7.496827,-14.81277 -9.069036,-24.13691 -11.334123,20.67169 6.644204,45.05928 21.677671,64.32359 -11.31774,-5.89497 -22.508012,-18.57455 -29.858529,-29.20448 2.02883,36.99834 40.665415,44.68572 46.663598,53.77884 -8.14121,-3.78962 -23.705355,-11.28858 -30.309745,-3.43081 10.751508,2.48217 19.327549,5.35101 26.238321,9.88119 10.027008,12.51901 29.014424,17.99454 62.082254,19.37735 z" style="fill:#f3e295;fill-opacity:1;fill-rule:evenodd;stroke:none"/>
  </g></g>
  <g id="02" inkscape:label="02" style="display:inline" transform="translate(0,38)">
    <path sodipodi:nodetypes="sscssscss" inkscape:connector-curvature="0" id="path3862-8" d="m 214.21087,111.21099 c -45.24514,0.18809 -68.71568,7.73077 -64.09352,83.5526 l 2.8252,46.34456 c 47.4743,5.51239 56.66416,18.44506 104.35936,21.91413 68.07337,4.95126 67.93728,5.42092 130.56477,-14.38414 62.62753,-19.80506 5.82485,-65.24698 207.32205,-57.8201 4.60334,0.16968 17.3137,-3.05269 27.46187,-12.15043 5.5817,-46.52389 -2.78415,-69.14289 -66.93352,-68.87623 z" style="color:#000000;fill:url(#linearGradient5125);fill-opacity:1;fill-rule:nonzero;stroke:none;stroke-width:1.62399995;marker:none;visibility:visible;overflow:visible;enable-background:accumulate"/>
    <path inkscape:connector-curvature="0" id="path3079-9" d="m 531.03278,495.17335 c -31.60486,19.02245 -27.60116,31.26037 -37.91323,32.57276 -94.70417,12.0527 -145.97722,-0.72701 -165.79583,-12.06122 -59.58792,-34.07817 -68.46788,-13.01421 -100.22126,-16.5742 -20.11475,-2.25514 -59.24503,12.98404 -73.38763,44.34434 3.47222,27.60795 18.11064,32.09835 44.28127,31.98612 l 356.05526,-1.52684 c 69.69188,-0.29885 56.33547,-8.49265 65.54301,-56.03861 -14.77205,-21.67074 -13.15664,9.10903 -44.2237,-30.71666 z" style="color:#000000;fill:url(#linearGradient5122);fill-opacity:1;fill-rule:nonzero;stroke:none;stroke-width:1.62399994999999997;marker:none;visibility:visible;overflow:visible;enable-background:accumulate" sodipodi:nodetypes="cssscssccc"/>
    <rect id="rect5734" height="512" x="0" style="fill:none;stroke:#000000;stroke-width:20;stroke-miterlimit:4;stroke-opacity:1;stroke-dasharray:none;display:inline;filter:url(#filter5740)" width="512" y="0" ry="57" inkscape:label="#rect4203" transform="translate(128,90)" clip-path="url(#clipPath5796)"/>
  </g></g>
</svg>
