<?xml version="1.0" encoding="UTF-8" standalone="no"?>
<svg xmlns:dc="http://purl.org/dc/elements/1.1/" xmlns:cc="http://creativecommons.org/ns#" xmlns:rdf="http://www.w3.org/1999/02/22-rdf-syntax-ns#" xmlns:svg="http://www.w3.org/2000/svg" xmlns="http://www.w3.org/2000/svg" xmlns:xlink="http://www.w3.org/1999/xlink" xmlns:sodipodi="http://sodipodi.sourceforge.net/DTD/sodipodi-0.dtd" xmlns:inkscape="http://www.inkscape.org/namespaces/inkscape" width="768" height="768" id="svg2" version="1.1" inkscape:version="0.48.1 r9760" sodipodi:docname="template.svg">
  <defs id="defs4">
    <clipPath clipPathUnits="userSpaceOnUse" id="clipPathFlag">
      <rect id="rect3918" height="511" x="0.5" style="fill:#000000;fill-opacity:0.67000002;stroke:none" width="511" y="0.5" ry="57"/>
    </clipPath>
    <linearGradient id="linearGradient3852" inkscape:collect="always">
      <stop id="stop3854" offset="0" style="stop-color:#dbe3db;stop-opacity:1;"/>
      <stop id="stop3856" offset="1" style="stop-color:#dbe3db;stop-opacity:0;"/>
    </linearGradient>
    <linearGradient inkscape:collect="always" xlink:href="#linearGradient3852" id="linearGradient3070" gradientUnits="userSpaceOnUse" x1="339.54913" y1="646.63617" x2="345.74551" y2="566.63617" gradientTransform="matrix(0.93191514,0,0,0.93191514,7.9467803,7.2318863)"/>
    <clipPath id="clipPath3882" clipPathUnits="userSpaceOnUse">
      <path sodipodi:type="inkscape:offset" inkscape:radius="11.844458" inkscape:original="M 243.75 118.0625 C 179.93919 118.0625 128.5625 169.43919 128.5625 233.25 L 128.5625 528.59375 C 128.5625 592.40456 179.93919 643.78125 243.75 643.78125 L 539.09375 643.78125 C 602.90456 643.78125 654.28125 592.40456 654.28125 528.59375 L 654.28125 233.25 C 654.28125 169.43919 602.90456 118.0625 539.09375 118.0625 L 243.75 118.0625 z " style="color:#000000;fill:none;stroke:none;stroke-width:20;marker:none;visibility:visible;display:inline;overflow:visible;enable-background:accumulate" id="path3884" d="m 243.75,106.21875 c -70.16845,0 -127.03125,56.8628 -127.03125,127.03125 l 0,295.34375 c 0,70.16845 56.8628,127.03125 127.03125,127.03125 l 295.34375,0 c 70.16845,0 127.03125,-56.8628 127.03125,-127.03125 l 0,-295.34375 c 0,-70.16845 -56.8628,-127.03125 -127.03125,-127.03125 l -295.34375,0 z"/>
    </clipPath>
    <linearGradient id="linearGradient3852-0" inkscape:collect="always">
      <stop id="stop3854-6" offset="0" style="stop-color:#dbe3db;stop-opacity:1;"/>
      <stop id="stop3856-1" offset="1" style="stop-color:#dbe3db;stop-opacity:0;"/>
    </linearGradient>
    <linearGradient inkscape:collect="always" xlink:href="#linearGradient3852-0" id="linearGradient3070-5" gradientUnits="userSpaceOnUse" x1="339.54913" y1="646.63617" x2="345.74551" y2="566.63617" gradientTransform="matrix(0.93191514,0,0,0.93191514,7.9467803,7.2318863)"/>
    <linearGradient inkscape:collect="always" xlink:href="#linearGradient3852-0" id="linearGradient5122" gradientUnits="userSpaceOnUse" gradientTransform="matrix(1.1571075,0,0,1.3166846,-91.204261,-253.98784)" x1="342.1882" y1="705.75824" x2="358.07608" y2="523.40735"/>
    <linearGradient inkscape:collect="always" xlink:href="#linearGradient3852-0" id="linearGradient5125" gradientUnits="userSpaceOnUse" gradientTransform="matrix(0.95302723,0,0,0.86647129,11.575117,-4.501603)" x1="405.2634" y1="118.06474" x2="405.74554" y2="360.92188"/>
    <clipPath clipPathUnits="userSpaceOnUse" id="clipPath5712">
      <rect mask="none" inkscape:label="#rect4203" ry="64.777054" y="0" width="512" style="fill:none;display:inline" x="0" height="512" id="rect5714"/>
    </clipPath>
    <filter inkscape:collect="always" id="filter5740">
      <feGaussianBlur inkscape:collect="always" stdDeviation="5.12" id="feGaussianBlur5742"/>
    </filter>
    <clipPath clipPathUnits="userSpaceOnUse" id="clipPath5796">
      <rect inkscape:label="#rect4203" ry="57" y="0" width="512" style="fill:none;stroke:#00fa00;stroke-width:20;stroke-miterlimit:4;stroke-opacity:1;stroke-dasharray:none;display:inline" x="0" height="512" id="rect5798"/>
    </clipPath>
    <filter inkscape:collect="always" id="filter5912">
      <feGaussianBlur inkscape:collect="always" stdDeviation="17.92" id="feGaussianBlur5914"/>
    </filter>
  </defs>
  <sodipodi:namedview id="base" pagecolor="#ffffff" bordercolor="#666666" borderopacity="1.0" inkscape:pageopacity="0.0" inkscape:pageshadow="2" inkscape:zoom="0.65494792" inkscape:cx="191.61829" inkscape:cy="384" inkscape:document-units="px" showgrid="false" inkscape:window-width="1280" inkscape:window-height="723" inkscape:window-x="0" inkscape:window-y="24" inkscape:window-maximized="1"/>

  <g id="template-button" inkscape:label="template-button" style="display:inline">
  &gt;
  <g inkscape:label="00" id="00" style="display:inline" transform="translate(90,90)">
    <rect inkscape:label="#rect4203" ry="57" y="56" width="512" style="fill:#000000;fill-opacity:1;stroke:#a8a8a8;stroke-width:5;stroke-miterlimit:4;stroke-opacity:1;stroke-dasharray:none;display:inline;filter:url(#filter5912)" x="38" height="512" id="shadow"/>
  </g>
  <g id="01" inkscape:label="01" style="display:inline" transform="translate(128,128)" clip-path="url(#clipPathFlag)">
    <rect id="mask" height="512" x="0" style="fill:#0000ff;fill-opacity:1;stroke:none" width="512" y="0" ry="57" inkscape:label="#rect4203"/>
  <g transform="matrix(0.72248902,0,0,0.72248902,-128,-2.3315799e-6)" id="flag" clip-path="url(#clipPath9097)" inkscape:label="#g8997">
    <rect width="1062.99" height="708.66101" x="0" y="0" style="font-size:12px;fill:#ffffff;fill-rule:evenodd;stroke-width:1pt" id="rect171"/>
    <rect width="1062.99" height="236.22" x="0" y="472.44101" transform="translate(0,2.81206e-4)" style="font-size:12px;fill:#329203;fill-rule:evenodd;stroke-width:1pt" id="rect256"/>
    <rect width="1062.99" height="236.22" x="0" y="0" style="font-size:12px;fill:#e77300;fill-rule:evenodd;stroke-width:1pt" id="rect255"/>
    <g transform="matrix(0.366639,0,0,0.366639,398.443,219.601)" style="font-size:12px" id="g228">
      <ellipse sodipodi:ry="305.00201" sodipodi:rx="305.00204" sodipodi:cy="367.47272" sodipodi:cx="362.90067" cx="362.90067" cy="367.47272" rx="305.00204" ry="305.00201" style="fill:#08399c;fill-rule:evenodd;stroke-width:1pt" id="path200" d="m 667.90271,367.47272 c 0,168.44796 -136.55407,305.00201 -305.00204,305.00201 -168.44798,0 -305.002049,-136.55405 -305.002049,-305.00201 0,-168.44796 136.554069,-305.002017 305.002049,-305.002017 168.44797,0 305.00204,136.554057 305.00204,305.002017 z"/>
      <path inkscape:connector-curvature="0" d="m 297.088,104.968 c 6.1,-1.639 9.354,-1.974 15.188,-3.158 3.641,11.977 11.578,18.241 19.562,16.838 7.19,-1.157 17.438,-6.421 15.338,-21.3987 5.942,-0.3557 9.356,-0.5144 15.673,-0.4981 -0.117,45.2048 -2.964,92.8368 -7.129,137.2758 -3.004,32.785 6.062,40.636 7.422,57.697 1.52,19.795 0.264,35.374 1.668,76.254 -8.058,-40.105 -12.981,-55.871 -15.885,-74.435 -2.681,-17.866 3.817,-24.71 -8.936,-58 -16.47,-42.047 -31.171,-86.918 -42.901,-130.575 z" transform="matrix(0.0050186,0.999987,-0.999987,0.0050186,730.681,1.42004)" style="fill:#ffffff;fill-rule:evenodd;stroke-width:1pt" id="path175"/>
      <path inkscape:connector-curvature="0" d="m 297.088,104.968 c 6.1,-1.639 9.354,-1.974 15.188,-3.158 3.641,11.977 11.578,18.241 19.562,16.838 7.19,-1.157 17.438,-6.421 15.338,-21.3987 5.942,-0.3557 9.356,-0.5144 15.673,-0.4981 -0.117,45.2048 -2.964,92.8368 -7.129,137.2758 -3.004,32.785 6.062,40.636 7.422,57.697 1.52,19.795 0.264,35.374 1.668,76.254 -8.058,-40.105 -12.981,-55.871 -15.885,-74.435 -2.681,-17.866 3.817,-24.71 -8.936,-58 -16.47,-42.047 -31.171,-86.918 -42.901,-130.575 z" transform="matrix(0.999999,0.00146689,-0.00146689,0.999999,0.540109,-0.431542)" style="fill:#ffffff;fill-rule:evenodd;stroke-width:1pt" id="path205"/>
      <path inkscape:connector-curvature="0" d="m 297.088,104.968 c 6.1,-1.639 9.354,-1.974 15.188,-3.158 3.641,11.977 11.578,18.241 19.562,16.838 7.19,-1.157 17.438,-6.421 15.338,-21.3987 5.942,-0.3557 9.356,-0.5144 15.673,-0.4981 -0.117,45.2048 -2.964,92.8368 -7.129,137.2758 -3.004,32.785 6.062,40.636 7.422,57.697 1.52,19.795 0.264,35.374 1.668,76.254 -8.058,-40.105 -12.981,-55.871 -15.885,-74.435 -2.681,-17.866 3.817,-24.71 -8.936,-58 -16.47,-42.047 -31.171,-86.918 -42.901,-130.575 z" transform="matrix(0.966391,0.257075,-0.257075,0.966391,106.818,-81.2843)" style="fill:#ffffff;fill-rule:evenodd;stroke-width:1pt" id="path206"/>
      <path inkscape:connector-curvature="0" d="m 297.088,104.968 c 6.1,-1.639 9.354,-1.974 15.188,-3.158 3.641,11.977 11.578,18.241 19.562,16.838 7.19,-1.157 17.438,-6.421 15.338,-21.3987 5.942,-0.3557 9.356,-0.5144 15.673,-0.4981 -0.117,45.2048 -2.964,92.8368 -7.129,137.2758 -3.004,32.785 6.062,40.636 7.422,57.697 1.52,19.795 0.264,35.374 1.668,76.254 -8.058,-40.105 -12.981,-55.871 -15.885,-74.435 -2.681,-17.866 3.817,-24.71 -8.936,-58 -16.47,-42.047 -31.171,-86.918 -42.901,-130.575 z" transform="matrix(0.867187,0.497982,-0.497982,0.867187,231.61,-132.647)" style="fill:#ffffff;fill-rule:evenodd;stroke-width:1pt" id="path207"/>
      <path inkscape:connector-curvature="0" d="m 297.088,104.968 c 6.1,-1.639 9.354,-1.974 15.188,-3.158 3.641,11.977 11.578,18.241 19.562,16.838 7.19,-1.157 17.438,-6.421 15.338,-21.3987 5.942,-0.3557 9.356,-0.5144 15.673,-0.4981 -0.117,45.2048 -2.964,92.8368 -7.129,137.2758 -3.004,32.785 6.062,40.636 7.422,57.697 1.52,19.795 0.264,35.374 1.668,76.254 -8.058,-40.105 -12.981,-55.871 -15.885,-74.435 -2.681,-17.866 3.817,-24.71 -8.936,-58 -16.47,-42.047 -31.171,-86.918 -42.901,-130.575 z" transform="matrix(0.709124,0.705084,-0.705084,0.709124,365.432,-150.031)" style="fill:#ffffff;fill-rule:evenodd;stroke-width:1pt" id="path208"/>
      <path inkscape:connector-curvature="0" d="m 297.088,104.968 c 6.1,-1.639 9.354,-1.974 15.188,-3.158 3.641,11.977 11.578,18.241 19.562,16.838 7.19,-1.157 17.438,-6.421 15.338,-21.3987 5.942,-0.3557 9.356,-0.5144 15.673,-0.4981 -0.117,45.2048 -2.964,92.8368 -7.129,137.2758 -3.004,32.785 6.062,40.636 7.422,57.697 1.52,19.795 0.264,35.374 1.668,76.254 -8.058,-40.105 -12.981,-55.871 -15.885,-74.435 -2.681,-17.866 3.817,-24.71 -8.936,-58 -16.47,-42.047 -31.171,-86.918 -42.901,-130.575 z" transform="matrix(0.504288,0.863535,-0.863535,0.504288,498.416,-132.469)" style="fill:#ffffff;fill-rule:evenodd;stroke-width:1pt" id="path209"/>
      <path inkscape:connector-curvature="0" d="m 297.088,104.968 c 6.1,-1.639 9.354,-1.974 15.188,-3.158 3.641,11.977 11.578,18.241 19.562,16.838 7.19,-1.157 17.438,-6.421 15.338,-21.3987 5.942,-0.3557 9.356,-0.5144 15.673,-0.4981 -0.117,45.2048 -2.964,92.8368 -7.129,137.2758 -3.004,32.785 6.062,40.636 7.422,57.697 1.52,19.795 0.264,35.374 1.668,76.254 -8.058,-40.105 -12.981,-55.871 -15.885,-74.435 -2.681,-17.866 3.817,-24.71 -8.936,-58 -16.47,-42.047 -31.171,-86.918 -42.901,-130.575 z" transform="matrix(0.259619,0.965711,-0.965711,0.259619,625.226,-79.7316)" style="fill:#ffffff;fill-rule:evenodd;stroke-width:1pt" id="path210"/>
      <path inkscape:connector-curvature="0" d="m 297.088,104.968 c 6.1,-1.639 9.354,-1.974 15.188,-3.158 3.641,11.977 11.578,18.241 19.562,16.838 7.19,-1.157 17.438,-6.421 15.338,-21.3987 5.942,-0.3557 9.356,-0.5144 15.673,-0.4981 -0.117,45.2048 -2.964,92.8368 -7.129,137.2758 -3.004,32.785 6.062,40.636 7.422,57.697 1.52,19.795 0.264,35.374 1.668,76.254 -8.058,-40.105 -12.981,-55.871 -15.885,-74.435 -2.681,-17.866 3.817,-24.71 -8.936,-58 -16.47,-42.047 -31.171,-86.918 -42.901,-130.575 z" transform="matrix(0.00113884,-0.999999,0.999999,0.00113884,-3.57304,732.199)" style="fill:#ffffff;fill-rule:evenodd;stroke-width:1pt" id="path211"/>
      <path inkscape:connector-curvature="0" d="m 297.088,104.968 c 6.1,-1.639 9.354,-1.974 15.188,-3.158 3.641,11.977 11.578,18.241 19.562,16.838 7.19,-1.157 17.438,-6.421 15.338,-21.3987 5.942,-0.3557 9.356,-0.5144 15.673,-0.4981 -0.117,45.2048 -2.964,92.8368 -7.129,137.2758 -3.004,32.785 6.062,40.636 7.422,57.697 1.52,19.795 0.264,35.374 1.668,76.254 -8.058,-40.105 -12.981,-55.871 -15.885,-74.435 -2.681,-17.866 3.817,-24.71 -8.936,-58 -16.47,-42.047 -31.171,-86.918 -42.901,-130.575 z" transform="matrix(-0.250504,0.968115,-0.968115,-0.250504,812.141,107.034)" style="fill:#ffffff;fill-rule:evenodd;stroke-width:1pt" id="path212"/>
      <path inkscape:connector-curvature="0" d="m 297.088,104.968 c 6.1,-1.639 9.354,-1.974 15.188,-3.158 3.641,11.977 11.578,18.241 19.562,16.838 7.19,-1.157 17.438,-6.421 15.338,-21.3987 5.942,-0.3557 9.356,-0.5144 15.673,-0.4981 -0.117,45.2048 -2.964,92.8368 -7.129,137.2758 -3.004,32.785 6.062,40.636 7.422,57.697 1.52,19.795 0.264,35.374 1.668,76.254 -8.058,-40.105 -12.981,-55.871 -15.885,-74.435 -2.681,-17.866 3.817,-24.71 -8.936,-58 -16.47,-42.047 -31.171,-86.918 -42.901,-130.575 z" transform="matrix(-0.492329,0.870408,-0.870408,-0.492329,864.389,231.618)" style="fill:#ffffff;fill-rule:evenodd;stroke-width:1pt" id="path213"/>
      <path inkscape:connector-curvature="0" d="m 297.088,104.968 c 6.1,-1.639 9.354,-1.974 15.188,-3.158 3.641,11.977 11.578,18.241 19.562,16.838 7.19,-1.157 17.438,-6.421 15.338,-21.3987 5.942,-0.3557 9.356,-0.5144 15.673,-0.4981 -0.117,45.2048 -2.964,92.8368 -7.129,137.2758 -3.004,32.785 6.062,40.636 7.422,57.697 1.52,19.795 0.264,35.374 1.668,76.254 -8.058,-40.105 -12.981,-55.871 -15.885,-74.435 -2.681,-17.866 3.817,-24.71 -8.936,-58 -16.47,-42.047 -31.171,-86.918 -42.901,-130.575 z" transform="matrix(-0.700821,0.713336,-0.713336,-0.700821,882.645,365.59)" style="fill:#ffffff;fill-rule:evenodd;stroke-width:1pt" id="path214"/>
      <path inkscape:connector-curvature="0" d="m 297.088,104.968 c 6.1,-1.639 9.354,-1.974 15.188,-3.158 3.641,11.977 11.578,18.241 19.562,16.838 7.19,-1.157 17.438,-6.421 15.338,-21.3987 5.942,-0.3557 9.356,-0.5144 15.673,-0.4981 -0.117,45.2048 -2.964,92.8368 -7.129,137.2758 -3.004,32.785 6.062,40.636 7.422,57.697 1.52,19.795 0.264,35.374 1.668,76.254 -8.058,-40.105 -12.981,-55.871 -15.885,-74.435 -2.681,-17.866 3.817,-24.71 -8.936,-58 -16.47,-42.047 -31.171,-86.918 -42.901,-130.575 z" transform="matrix(-0.861651,0.5075,-0.5075,-0.861651,865.582,499.813)" style="fill:#ffffff;fill-rule:evenodd;stroke-width:1pt" id="path215"/>
      <path inkscape:connector-curvature="0" d="m 297.088,104.968 c 6.1,-1.639 9.354,-1.974 15.188,-3.158 3.641,11.977 11.578,18.241 19.562,16.838 7.19,-1.157 17.438,-6.421 15.338,-21.3987 5.942,-0.3557 9.356,-0.5144 15.673,-0.4981 -0.117,45.2048 -2.964,92.8368 -7.129,137.2758 -3.004,32.785 6.062,40.636 7.422,57.697 1.52,19.795 0.264,35.374 1.668,76.254 -8.058,-40.105 -12.981,-55.871 -15.885,-74.435 -2.681,-17.866 3.817,-24.71 -8.936,-58 -16.47,-42.047 -31.171,-86.918 -42.901,-130.575 z" transform="matrix(-0.964221,0.265097,-0.265097,-0.964221,813.822,625.941)" style="fill:#ffffff;fill-rule:evenodd;stroke-width:1pt" id="path216"/>
      <path inkscape:connector-curvature="0" d="m 297.088,104.968 c 6.1,-1.639 9.354,-1.974 15.188,-3.158 3.641,11.977 11.578,18.241 19.562,16.838 7.19,-1.157 17.438,-6.421 15.338,-21.3987 5.942,-0.3557 9.356,-0.5144 15.673,-0.4981 -0.117,45.2048 -2.964,92.8368 -7.129,137.2758 -3.004,32.785 6.062,40.636 7.422,57.697 1.52,19.795 0.264,35.374 1.668,76.254 -8.058,-40.105 -12.981,-55.871 -15.885,-74.435 -2.681,-17.866 3.817,-24.71 -8.936,-58 -16.47,-42.047 -31.171,-86.918 -42.901,-130.575 z" transform="matrix(-0.999983,0.00579202,-0.00579202,-0.999983,731.482,733.659)" style="fill:#ffffff;fill-rule:evenodd;stroke-width:1pt" id="path217"/>
      <path inkscape:connector-curvature="0" d="m 297.088,104.968 c 6.1,-1.639 9.354,-1.974 15.188,-3.158 3.641,11.977 11.578,18.241 19.562,16.838 7.19,-1.157 17.438,-6.421 15.338,-21.3987 5.942,-0.3557 9.356,-0.5144 15.673,-0.4981 -0.117,45.2048 -2.964,92.8368 -7.129,137.2758 -3.004,32.785 6.062,40.636 7.422,57.697 1.52,19.795 0.264,35.374 1.668,76.254 -8.058,-40.105 -12.981,-55.871 -15.885,-74.435 -2.681,-17.866 3.817,-24.71 -8.936,-58 -16.47,-42.047 -31.171,-86.918 -42.901,-130.575 z" transform="matrix(-0.966932,-0.255034,0.255034,-0.966932,623.487,816.619)" style="fill:#ffffff;fill-rule:evenodd;stroke-width:1pt" id="path218"/>
      <path inkscape:connector-curvature="0" d="m 297.088,104.968 c 6.1,-1.639 9.354,-1.974 15.188,-3.158 3.641,11.977 11.578,18.241 19.562,16.838 7.19,-1.157 17.438,-6.421 15.338,-21.3987 5.942,-0.3557 9.356,-0.5144 15.673,-0.4981 -0.117,45.2048 -2.964,92.8368 -7.129,137.2758 -3.004,32.785 6.062,40.636 7.422,57.697 1.52,19.795 0.264,35.374 1.668,76.254 -8.058,-40.105 -12.981,-55.871 -15.885,-74.435 -2.681,-17.866 3.817,-24.71 -8.936,-58 -16.47,-42.047 -31.171,-86.918 -42.901,-130.575 z" transform="matrix(-0.868276,-0.49608,0.49608,-0.868276,498.844,868.234)" style="fill:#ffffff;fill-rule:evenodd;stroke-width:1pt" id="path219"/>
      <path inkscape:connector-curvature="0" d="m 297.088,104.968 c 6.1,-1.639 9.354,-1.974 15.188,-3.158 3.641,11.977 11.578,18.241 19.562,16.838 7.19,-1.157 17.438,-6.421 15.338,-21.3987 5.942,-0.3557 9.356,-0.5144 15.673,-0.4981 -0.117,45.2048 -2.964,92.8368 -7.129,137.2758 -3.004,32.785 6.062,40.636 7.422,57.697 1.52,19.795 0.264,35.374 1.668,76.254 -8.058,-40.105 -12.981,-55.871 -15.885,-74.435 -2.681,-17.866 3.817,-24.71 -8.936,-58 -16.47,-42.047 -31.171,-86.918 -42.901,-130.575 z" transform="matrix(-0.710016,-0.704184,0.704184,-0.710016,364.582,885.911)" style="fill:#ffffff;fill-rule:evenodd;stroke-width:1pt" id="path220"/>
      <path inkscape:connector-curvature="0" d="m 297.088,104.968 c 6.1,-1.639 9.354,-1.974 15.188,-3.158 3.641,11.977 11.578,18.241 19.562,16.838 7.19,-1.157 17.438,-6.421 15.338,-21.3987 5.942,-0.3557 9.356,-0.5144 15.673,-0.4981 -0.117,45.2048 -2.964,92.8368 -7.129,137.2758 -3.004,32.785 6.062,40.636 7.422,57.697 1.52,19.795 0.264,35.374 1.668,76.254 -8.058,-40.105 -12.981,-55.871 -15.885,-74.435 -2.681,-17.866 3.817,-24.71 -8.936,-58 -16.47,-42.047 -31.171,-86.918 -42.901,-130.575 z" transform="matrix(-0.502848,-0.864374,0.864374,-0.502848,230.108,868.125)" style="fill:#ffffff;fill-rule:evenodd;stroke-width:1pt" id="path221"/>
      <path inkscape:connector-curvature="0" d="m 297.088,104.968 c 6.1,-1.639 9.354,-1.974 15.188,-3.158 3.641,11.977 11.578,18.241 19.562,16.838 7.19,-1.157 17.438,-6.421 15.338,-21.3987 5.942,-0.3557 9.356,-0.5144 15.673,-0.4981 -0.117,45.2048 -2.964,92.8368 -7.129,137.2758 -3.004,32.785 6.062,40.636 7.422,57.697 1.52,19.795 0.264,35.374 1.668,76.254 -8.058,-40.105 -12.981,-55.871 -15.885,-74.435 -2.681,-17.866 3.817,-24.71 -8.936,-58 -16.47,-42.047 -31.171,-86.918 -42.901,-130.575 z" transform="matrix(-0.259259,-0.965807,0.965807,-0.259259,103.965,815.514)" style="fill:#ffffff;fill-rule:evenodd;stroke-width:1pt" id="path222"/>
      <path inkscape:connector-curvature="0" d="m 297.088,104.968 c 6.1,-1.639 9.354,-1.974 15.188,-3.158 3.641,11.977 11.578,18.241 19.562,16.838 7.19,-1.157 17.438,-6.421 15.338,-21.3987 5.942,-0.3557 9.356,-0.5144 15.673,-0.4981 -0.117,45.2048 -2.964,92.8368 -7.129,137.2758 -3.004,32.785 6.062,40.636 7.422,57.697 1.52,19.795 0.264,35.374 1.668,76.254 -8.058,-40.105 -12.981,-55.871 -15.885,-74.435 -2.681,-17.866 3.817,-24.71 -8.936,-58 -16.47,-42.047 -31.171,-86.918 -42.901,-130.575 z" transform="matrix(0.966945,-0.254982,0.254982,0.966945,-81.7369,105.248)" style="fill:#ffffff;fill-rule:evenodd;stroke-width:1pt" id="path223"/>
      <path inkscape:connector-curvature="0" d="m 297.088,104.968 c 6.1,-1.639 9.354,-1.974 15.188,-3.158 3.641,11.977 11.578,18.241 19.562,16.838 7.19,-1.157 17.438,-6.421 15.338,-21.3987 5.942,-0.3557 9.356,-0.5144 15.673,-0.4981 -0.117,45.2048 -2.964,92.8368 -7.129,137.2758 -3.004,32.785 6.062,40.636 7.422,57.697 1.52,19.795 0.264,35.374 1.668,76.254 -8.058,-40.105 -12.981,-55.871 -15.885,-74.435 -2.681,-17.866 3.817,-24.71 -8.936,-58 -16.47,-42.047 -31.171,-86.918 -42.901,-130.575 z" transform="matrix(0.261593,-0.965178,0.965178,0.261593,-85.7465,623.696)" style="fill:#ffffff;fill-rule:evenodd;stroke-width:1pt" id="path224"/>
      <path inkscape:connector-curvature="0" d="m 297.088,104.968 c 6.1,-1.639 9.354,-1.974 15.188,-3.158 3.641,11.977 11.578,18.241 19.562,16.838 7.19,-1.157 17.438,-6.421 15.338,-21.3987 5.942,-0.3557 9.356,-0.5144 15.673,-0.4981 -0.117,45.2048 -2.964,92.8368 -7.129,137.2758 -3.004,32.785 6.062,40.636 7.422,57.697 1.52,19.795 0.264,35.374 1.668,76.254 -8.058,-40.105 -12.981,-55.871 -15.885,-74.435 -2.681,-17.866 3.817,-24.71 -8.936,-58 -16.47,-42.047 -31.171,-86.918 -42.901,-130.575 z" transform="matrix(0.500258,-0.865876,0.865876,0.500258,-136.255,499.693)" style="fill:#ffffff;fill-rule:evenodd;stroke-width:1pt" id="path225"/>
      <path inkscape:connector-curvature="0" d="m 297.088,104.968 c 6.1,-1.639 9.354,-1.974 15.188,-3.158 3.641,11.977 11.578,18.241 19.562,16.838 7.19,-1.157 17.438,-6.421 15.338,-21.3987 5.942,-0.3557 9.356,-0.5144 15.673,-0.4981 -0.117,45.2048 -2.964,92.8368 -7.129,137.2758 -3.004,32.785 6.062,40.636 7.422,57.697 1.52,19.795 0.264,35.374 1.668,76.254 -8.058,-40.105 -12.981,-55.871 -15.885,-74.435 -2.681,-17.866 3.817,-24.71 -8.936,-58 -16.47,-42.047 -31.171,-86.918 -42.901,-130.575 z" transform="matrix(0.707599,-0.706613,0.706613,0.707599,-153.286,365.345)" style="fill:#ffffff;fill-rule:evenodd;stroke-width:1pt" id="path226"/>
      <path inkscape:connector-curvature="0" d="m 297.088,104.968 c 6.1,-1.639 9.354,-1.974 15.188,-3.158 3.641,11.977 11.578,18.241 19.562,16.838 7.19,-1.157 17.438,-6.421 15.338,-21.3987 5.942,-0.3557 9.356,-0.5144 15.673,-0.4981 -0.117,45.2048 -2.964,92.8368 -7.129,137.2758 -3.004,32.785 6.062,40.636 7.422,57.697 1.52,19.795 0.264,35.374 1.668,76.254 -8.058,-40.105 -12.981,-55.871 -15.885,-74.435 -2.681,-17.866 3.817,-24.71 -8.936,-58 -16.47,-42.047 -31.171,-86.918 -42.901,-130.575 z" transform="matrix(0.869088,-0.494657,0.494657,0.869088,-134.212,228.648)" style="fill:#ffffff;fill-rule:evenodd;stroke-width:1pt" id="path227"/>
    </g>
  </g></g>
  <g id="02" inkscape:label="02" style="display:inline" transform="translate(0,38)">
    <path sodipodi:nodetypes="sscssscss" inkscape:connector-curvature="0" id="path3862-8" d="m 214.21087,111.21099 c -45.24514,0.18809 -68.71568,7.73077 -64.09352,83.5526 l 2.8252,46.34456 c 47.4743,5.51239 56.66416,18.44506 104.35936,21.91413 68.07337,4.95126 67.93728,5.42092 130.56477,-14.38414 62.62753,-19.80506 5.82485,-65.24698 207.32205,-57.8201 4.60334,0.16968 17.3137,-3.05269 27.46187,-12.15043 5.5817,-46.52389 -2.78415,-69.14289 -66.93352,-68.87623 z" style="color:#000000;fill:url(#linearGradient5125);fill-opacity:1;fill-rule:nonzero;stroke:none;stroke-width:1.62399995;marker:none;visibility:visible;overflow:visible;enable-background:accumulate"/>
    <path inkscape:connector-curvature="0" id="path3079-9" d="m 531.03278,495.17335 c -31.60486,19.02245 -27.60116,31.26037 -37.91323,32.57276 -94.70417,12.0527 -145.97722,-0.72701 -165.79583,-12.06122 -59.58792,-34.07817 -68.46788,-13.01421 -100.22126,-16.5742 -20.11475,-2.25514 -59.24503,12.98404 -73.38763,44.34434 3.47222,27.60795 18.11064,32.09835 44.28127,31.98612 l 356.05526,-1.52684 c 69.69188,-0.29885 56.33547,-8.49265 65.54301,-56.03861 -14.77205,-21.67074 -13.15664,9.10903 -44.2237,-30.71666 z" style="color:#000000;fill:url(#linearGradient5122);fill-opacity:1;fill-rule:nonzero;stroke:none;stroke-width:1.62399994999999997;marker:none;visibility:visible;overflow:visible;enable-background:accumulate" sodipodi:nodetypes="cssscssccc"/>
    <rect id="rect5734" height="512" x="0" style="fill:none;stroke:#000000;stroke-width:20;stroke-miterlimit:4;stroke-opacity:1;stroke-dasharray:none;display:inline;filter:url(#filter5740)" width="512" y="0" ry="57" inkscape:label="#rect4203" transform="translate(128,90)" clip-path="url(#clipPath5796)"/>
  </g></g>
</svg>
