<?xml version="1.0" encoding="UTF-8" standalone="no"?>
<svg xmlns:dc="http://purl.org/dc/elements/1.1/" xmlns:cc="http://creativecommons.org/ns#" xmlns:rdf="http://www.w3.org/1999/02/22-rdf-syntax-ns#" xmlns:svg="http://www.w3.org/2000/svg" xmlns="http://www.w3.org/2000/svg" xmlns:xlink="http://www.w3.org/1999/xlink" xmlns:sodipodi="http://sodipodi.sourceforge.net/DTD/sodipodi-0.dtd" xmlns:inkscape="http://www.inkscape.org/namespaces/inkscape" width="768" height="768" id="svg2" version="1.1" inkscape:version="0.48.1 r9760" sodipodi:docname="template.svg">
  <defs id="defs4">
    <clipPath clipPathUnits="userSpaceOnUse" id="clipPathFlag">
      <rect id="rect3918" height="511" x="0.5" style="fill:#000000;fill-opacity:0.67000002;stroke:none" width="511" y="0.5" ry="57"/>
    </clipPath>
    <linearGradient id="linearGradient3852" inkscape:collect="always">
      <stop id="stop3854" offset="0" style="stop-color:#dbe3db;stop-opacity:1;"/>
      <stop id="stop3856" offset="1" style="stop-color:#dbe3db;stop-opacity:0;"/>
    </linearGradient>
    <linearGradient inkscape:collect="always" xlink:href="#linearGradient3852" id="linearGradient3070" gradientUnits="userSpaceOnUse" x1="339.54913" y1="646.63617" x2="345.74551" y2="566.63617" gradientTransform="matrix(0.93191514,0,0,0.93191514,7.9467803,7.2318863)"/>
    <clipPath id="clipPath3882" clipPathUnits="userSpaceOnUse">
      <path sodipodi:type="inkscape:offset" inkscape:radius="11.844458" inkscape:original="M 243.75 118.0625 C 179.93919 118.0625 128.5625 169.43919 128.5625 233.25 L 128.5625 528.59375 C 128.5625 592.40456 179.93919 643.78125 243.75 643.78125 L 539.09375 643.78125 C 602.90456 643.78125 654.28125 592.40456 654.28125 528.59375 L 654.28125 233.25 C 654.28125 169.43919 602.90456 118.0625 539.09375 118.0625 L 243.75 118.0625 z " style="color:#000000;fill:none;stroke:none;stroke-width:20;marker:none;visibility:visible;display:inline;overflow:visible;enable-background:accumulate" id="path3884" d="m 243.75,106.21875 c -70.16845,0 -127.03125,56.8628 -127.03125,127.03125 l 0,295.34375 c 0,70.16845 56.8628,127.03125 127.03125,127.03125 l 295.34375,0 c 70.16845,0 127.03125,-56.8628 127.03125,-127.03125 l 0,-295.34375 c 0,-70.16845 -56.8628,-127.03125 -127.03125,-127.03125 l -295.34375,0 z"/>
    </clipPath>
    <linearGradient id="linearGradient3852-0" inkscape:collect="always">
      <stop id="stop3854-6" offset="0" style="stop-color:#dbe3db;stop-opacity:1;"/>
      <stop id="stop3856-1" offset="1" style="stop-color:#dbe3db;stop-opacity:0;"/>
    </linearGradient>
    <linearGradient inkscape:collect="always" xlink:href="#linearGradient3852-0" id="linearGradient3070-5" gradientUnits="userSpaceOnUse" x1="339.54913" y1="646.63617" x2="345.74551" y2="566.63617" gradientTransform="matrix(0.93191514,0,0,0.93191514,7.9467803,7.2318863)"/>
    <linearGradient inkscape:collect="always" xlink:href="#linearGradient3852-0" id="linearGradient5122" gradientUnits="userSpaceOnUse" gradientTransform="matrix(1.1571075,0,0,1.3166846,-91.204261,-253.98784)" x1="342.1882" y1="705.75824" x2="358.07608" y2="523.40735"/>
    <linearGradient inkscape:collect="always" xlink:href="#linearGradient3852-0" id="linearGradient5125" gradientUnits="userSpaceOnUse" gradientTransform="matrix(0.95302723,0,0,0.86647129,11.575117,-4.501603)" x1="405.2634" y1="118.06474" x2="405.74554" y2="360.92188"/>
    <clipPath clipPathUnits="userSpaceOnUse" id="clipPath5712">
      <rect mask="none" inkscape:label="#rect4203" ry="64.777054" y="0" width="512" style="fill:none;display:inline" x="0" height="512" id="rect5714"/>
    </clipPath>
    <filter inkscape:collect="always" id="filter5740">
      <feGaussianBlur inkscape:collect="always" stdDeviation="5.12" id="feGaussianBlur5742"/>
    </filter>
    <clipPath clipPathUnits="userSpaceOnUse" id="clipPath5796">
      <rect inkscape:label="#rect4203" ry="57" y="0" width="512" style="fill:none;stroke:#00fa00;stroke-width:20;stroke-miterlimit:4;stroke-opacity:1;stroke-dasharray:none;display:inline" x="0" height="512" id="rect5798"/>
    </clipPath>
    <filter inkscape:collect="always" id="filter5912">
      <feGaussianBlur inkscape:collect="always" stdDeviation="17.92" id="feGaussianBlur5914"/>
    </filter>
  </defs>
  <sodipodi:namedview id="base" pagecolor="#ffffff" bordercolor="#666666" borderopacity="1.0" inkscape:pageopacity="0.0" inkscape:pageshadow="2" inkscape:zoom="0.65494792" inkscape:cx="191.61829" inkscape:cy="384" inkscape:document-units="px" showgrid="false" inkscape:window-width="1280" inkscape:window-height="723" inkscape:window-x="0" inkscape:window-y="24" inkscape:window-maximized="1"/>

  <g id="template-button" inkscape:label="template-button" style="display:inline">
  &gt;
  <g inkscape:label="00" id="00" style="display:inline" transform="translate(90,90)">
    <rect inkscape:label="#rect4203" ry="57" y="56" width="512" style="fill:#000000;fill-opacity:1;stroke:#a8a8a8;stroke-width:5;stroke-miterlimit:4;stroke-opacity:1;stroke-dasharray:none;display:inline;filter:url(#filter5912)" x="38" height="512" id="shadow"/>
  </g>
  <g id="01" inkscape:label="01" style="display:inline" transform="translate(128,128)" clip-path="url(#clipPathFlag)">
    <rect id="mask" height="512" x="0" style="fill:#0000ff;fill-opacity:1;stroke:none" width="512" y="0" ry="57" inkscape:label="#rect4203"/>
  <g id="flag" clip-path="url(#clipPath8018)" inkscape:label="#g7932">
    <rect transform="scale(-1,-1)" id="rect149" style="font-size:12px;fill:#ffffff;fill-rule:evenodd;stroke:none" y="-511.56009" x="-610.61017" height="512" width="730.17029"/>
    <path transform="matrix(0.68690229,0,0,0.68690229,-88.735218,-532.53928)" sodipodi:ry="163.79163" sodipodi:rx="163.79161" sodipodi:cy="1147.9642" sodipodi:cx="332.07068" d="m 495.86229,1147.9642 a 163.79161,163.79163 0 1 1 -327.58322,0 163.79161,163.79163 0 1 1 327.58322,0 z" id="path607" style="fill:#ffffff;fill-opacity:1;fill-rule:evenodd;stroke:none" sodipodi:type="arc"/>
    <path transform="matrix(0.63783823,0,0,0.64460559,-74.971736,16.482675)" sodipodi:ry="227.73766" sodipodi:rx="227.73764" sodipodi:cy="381.73358" sodipodi:cx="505.95901" d="m 733.69666,381.73358 a 227.73764,227.73766 0 1 1 -455.47529,0 227.73764,227.73766 0 1 1 455.47529,0 z" id="path635" style="fill:#c70000;fill-opacity:1;fill-rule:evenodd;stroke:none" sodipodi:type="arc"/>
    <rect transform="matrix(0.65400889,-0.75648686,0.75648686,0.65400889,0,0)" y="45.308788" x="-127.96757" height="26.20068" width="127.92106" id="rect636" style="font-size:12px;fill:#000000;fill-opacity:1;fill-rule:evenodd;stroke-width:1pt"/>
    <rect transform="matrix(0.65400889,-0.75648686,0.75648686,0.65400889,0,0)" y="81.527458" x="-127.96757" height="26.20068" width="127.92106" id="rect637" style="font-size:12px;fill:#000000;fill-opacity:1;fill-rule:evenodd;stroke-width:1pt"/>
    <rect transform="matrix(0.65400889,-0.75648686,0.75648686,0.65400889,0,0)" y="45.308788" x="-127.96757" height="26.20068" width="127.92106" id="rect638" style="font-size:12px;fill:#000000;fill-opacity:1;fill-rule:evenodd;stroke-width:1pt"/>
    <rect transform="matrix(0.65400889,-0.75648686,0.75648686,0.65400889,0,0)" y="45.308788" x="-127.96757" height="26.20068" width="127.92106" id="rect639" style="font-size:12px;fill:#000000;fill-opacity:1;fill-rule:evenodd;stroke-width:1pt"/>
    <rect transform="matrix(0.65400889,-0.75648686,0.75648686,0.65400889,0,0)" y="118.51671" x="-127.96757" height="26.20068" width="127.92106" id="rect640" style="font-size:12px;fill:#000000;fill-opacity:1;fill-rule:evenodd;stroke-width:1pt"/>
    <rect transform="matrix(0.65400889,-0.75648686,0.75648686,0.65400889,0,0)" y="45.308788" x="-127.96757" height="26.20068" width="127.92106" id="rect641" style="font-size:12px;fill:#000000;fill-opacity:1;fill-rule:evenodd;stroke-width:1pt"/>
    <rect transform="matrix(0.65400889,-0.75648686,0.75648686,0.65400889,0,0)" y="45.308788" x="-127.96757" height="26.20068" width="127.92106" id="rect643" style="font-size:12px;fill:#000000;fill-opacity:1;fill-rule:evenodd;stroke-width:1pt"/>
    <rect transform="matrix(0.6488637,0.76090465,-0.76090465,0.6488637,0,0)" y="-330.33914" x="320.65216" height="26.200708" width="127.9212" id="rect644" style="font-size:12px;fill:#000000;fill-opacity:1;fill-rule:evenodd;stroke-width:1pt"/>
    <rect transform="matrix(0.6488637,0.76090465,-0.76090465,0.6488637,0,0)" y="-257.13116" x="320.65216" height="26.200708" width="127.9212" id="rect645" style="font-size:12px;fill:#000000;fill-opacity:1;fill-rule:evenodd;stroke-width:1pt"/>
    <path id="path649" d="m 417.55476,133.19131 78.60222,-67.813673 14.64133,16.953367 -83.99648,75.519416 -9.24707,-24.65911 z" style="fill:#ffffff;fill-opacity:1;fill-rule:evenodd;stroke:none" inkscape:connector-curvature="0"/>
    <rect transform="matrix(-0.64281581,0.76602078,-0.76881104,-0.63947603,0,0)" y="-633.04565" x="-42.832348" height="25.644007" width="125.10479" id="rect646" style="font-size:12px;fill:#000000;fill-opacity:1;fill-rule:evenodd;stroke-width:1pt"/>
    <rect transform="matrix(0.6488637,0.76090465,-0.76090465,0.6488637,0,0)" y="-294.12045" x="320.65216" height="26.200708" width="127.9212" id="rect642" style="font-size:12px;fill:#000000;fill-opacity:1;fill-rule:evenodd;stroke-width:1pt"/>
    <rect transform="matrix(-0.64281581,0.76602078,-0.76881104,-0.63947603,0,0)" y="-668.49469" x="-42.832348" height="25.644007" width="125.10479" id="rect647" style="font-size:12px;fill:#000000;fill-opacity:1;fill-rule:evenodd;stroke-width:1pt"/>
    <rect transform="matrix(-0.64281581,0.76602078,-0.76881104,-0.63947603,0,0)" y="-596.84222" x="-42.832348" height="25.644007" width="125.10479" id="rect648" style="font-size:12px;fill:#000000;fill-opacity:1;fill-rule:evenodd;stroke-width:1pt"/>
    <path sodipodi:nodetypes="cccccccc" id="path653" d="m 104.59864,236.67864 c 4.59194,36.97389 11.29679,78.17497 68.19909,82.45506 21.32763,1.27764 62.81653,-5.07346 77.06082,-63.18952 18.68787,-55.82867 74.9747,-71.87951 113.27912,-41.61322 21.71779,14.16598 27.72681,36.66615 29.28333,53.55708 -1.73855,54.24261 -32.87377,101.20338 -72.82263,122.14153 C 273.6659,417.32913 210.04363,417.90201 154.30289,376.54431 129.176,352.96776 94.081477,309.52119 104.59864,236.67864 z" style="fill:#3d5897;fill-opacity:1;fill-rule:evenodd;stroke:none" inkscape:connector-curvature="0"/>
    <path id="path654" d="m 435.91428,370.58955 78.73411,67.66056 -14.59117,16.99671 -87.15554,-71.85066 23.0126,-12.80661 z" style="fill:#ffffff;fill-opacity:1;fill-rule:evenodd;stroke:none" inkscape:connector-curvature="0"/>
    <rect transform="matrix(0.6488637,0.76090465,-0.76090465,0.6488637,0,0)" y="233.20715" x="270.56992" height="26.200722" width="127.92126" id="rect658" style="font-size:12px;fill-rule:evenodd;stroke-width:1pt"/>
    <path id="path657" d="m -16.187938,437.24702 78.602229,-67.81374 14.641322,16.95344 -83.9964727,75.51941 -9.2470783,-24.65911 z" style="font-size:12px;fill:#ffffff;fill-rule:evenodd;stroke-width:1pt" inkscape:connector-curvature="0"/>
    <rect transform="matrix(0.6488637,0.76090465,-0.76090465,0.6488637,0,0)" y="196.98845" x="270.56992" height="26.200722" width="127.92126" id="rect655" style="font-size:12px;fill-rule:evenodd;stroke-width:1pt"/>
    <rect transform="matrix(0.6488637,0.76090465,-0.76090465,0.6488637,0,0)" y="270.19647" x="270.56992" height="26.200722" width="127.92126" id="rect656" style="font-size:12px;fill-rule:evenodd;stroke-width:1pt"/>
  </g></g>
  <g id="02" inkscape:label="02" style="display:inline" transform="translate(0,38)">
    <path sodipodi:nodetypes="sscssscss" inkscape:connector-curvature="0" id="path3862-8" d="m 214.21087,111.21099 c -45.24514,0.18809 -68.71568,7.73077 -64.09352,83.5526 l 2.8252,46.34456 c 47.4743,5.51239 56.66416,18.44506 104.35936,21.91413 68.07337,4.95126 67.93728,5.42092 130.56477,-14.38414 62.62753,-19.80506 5.82485,-65.24698 207.32205,-57.8201 4.60334,0.16968 17.3137,-3.05269 27.46187,-12.15043 5.5817,-46.52389 -2.78415,-69.14289 -66.93352,-68.87623 z" style="color:#000000;fill:url(#linearGradient5125);fill-opacity:1;fill-rule:nonzero;stroke:none;stroke-width:1.62399995;marker:none;visibility:visible;overflow:visible;enable-background:accumulate"/>
    <path inkscape:connector-curvature="0" id="path3079-9" d="m 531.03278,495.17335 c -31.60486,19.02245 -27.60116,31.26037 -37.91323,32.57276 -94.70417,12.0527 -145.97722,-0.72701 -165.79583,-12.06122 -59.58792,-34.07817 -68.46788,-13.01421 -100.22126,-16.5742 -20.11475,-2.25514 -59.24503,12.98404 -73.38763,44.34434 3.47222,27.60795 18.11064,32.09835 44.28127,31.98612 l 356.05526,-1.52684 c 69.69188,-0.29885 56.33547,-8.49265 65.54301,-56.03861 -14.77205,-21.67074 -13.15664,9.10903 -44.2237,-30.71666 z" style="color:#000000;fill:url(#linearGradient5122);fill-opacity:1;fill-rule:nonzero;stroke:none;stroke-width:1.62399994999999997;marker:none;visibility:visible;overflow:visible;enable-background:accumulate" sodipodi:nodetypes="cssscssccc"/>
    <rect id="rect5734" height="512" x="0" style="fill:none;stroke:#000000;stroke-width:20;stroke-miterlimit:4;stroke-opacity:1;stroke-dasharray:none;display:inline;filter:url(#filter5740)" width="512" y="0" ry="57" inkscape:label="#rect4203" transform="translate(128,90)" clip-path="url(#clipPath5796)"/>
  </g></g>
</svg>
