<?xml version="1.0" encoding="UTF-8" standalone="no"?>
<svg xmlns:dc="http://purl.org/dc/elements/1.1/" xmlns:cc="http://creativecommons.org/ns#" xmlns:rdf="http://www.w3.org/1999/02/22-rdf-syntax-ns#" xmlns:svg="http://www.w3.org/2000/svg" xmlns="http://www.w3.org/2000/svg" xmlns:xlink="http://www.w3.org/1999/xlink" xmlns:sodipodi="http://sodipodi.sourceforge.net/DTD/sodipodi-0.dtd" xmlns:inkscape="http://www.inkscape.org/namespaces/inkscape" width="768" height="768" id="svg2" version="1.1" inkscape:version="0.48.1 r9760" sodipodi:docname="template.svg">
  <defs id="defs4">
    <clipPath clipPathUnits="userSpaceOnUse" id="clipPathFlag">
      <rect id="rect3918" height="511" x="0.5" style="fill:#000000;fill-opacity:0.67000002;stroke:none" width="511" y="0.5" ry="57"/>
    </clipPath>
    <linearGradient id="linearGradient3852" inkscape:collect="always">
      <stop id="stop3854" offset="0" style="stop-color:#dbe3db;stop-opacity:1;"/>
      <stop id="stop3856" offset="1" style="stop-color:#dbe3db;stop-opacity:0;"/>
    </linearGradient>
    <linearGradient inkscape:collect="always" xlink:href="#linearGradient3852" id="linearGradient3070" gradientUnits="userSpaceOnUse" x1="339.54913" y1="646.63617" x2="345.74551" y2="566.63617" gradientTransform="matrix(0.93191514,0,0,0.93191514,7.9467803,7.2318863)"/>
    <clipPath id="clipPath3882" clipPathUnits="userSpaceOnUse">
      <path sodipodi:type="inkscape:offset" inkscape:radius="11.844458" inkscape:original="M 243.75 118.0625 C 179.93919 118.0625 128.5625 169.43919 128.5625 233.25 L 128.5625 528.59375 C 128.5625 592.40456 179.93919 643.78125 243.75 643.78125 L 539.09375 643.78125 C 602.90456 643.78125 654.28125 592.40456 654.28125 528.59375 L 654.28125 233.25 C 654.28125 169.43919 602.90456 118.0625 539.09375 118.0625 L 243.75 118.0625 z " style="color:#000000;fill:none;stroke:none;stroke-width:20;marker:none;visibility:visible;display:inline;overflow:visible;enable-background:accumulate" id="path3884" d="m 243.75,106.21875 c -70.16845,0 -127.03125,56.8628 -127.03125,127.03125 l 0,295.34375 c 0,70.16845 56.8628,127.03125 127.03125,127.03125 l 295.34375,0 c 70.16845,0 127.03125,-56.8628 127.03125,-127.03125 l 0,-295.34375 c 0,-70.16845 -56.8628,-127.03125 -127.03125,-127.03125 l -295.34375,0 z"/>
    </clipPath>
    <linearGradient id="linearGradient3852-0" inkscape:collect="always">
      <stop id="stop3854-6" offset="0" style="stop-color:#dbe3db;stop-opacity:1;"/>
      <stop id="stop3856-1" offset="1" style="stop-color:#dbe3db;stop-opacity:0;"/>
    </linearGradient>
    <linearGradient inkscape:collect="always" xlink:href="#linearGradient3852-0" id="linearGradient3070-5" gradientUnits="userSpaceOnUse" x1="339.54913" y1="646.63617" x2="345.74551" y2="566.63617" gradientTransform="matrix(0.93191514,0,0,0.93191514,7.9467803,7.2318863)"/>
    <linearGradient inkscape:collect="always" xlink:href="#linearGradient3852-0" id="linearGradient5122" gradientUnits="userSpaceOnUse" gradientTransform="matrix(1.1571075,0,0,1.3166846,-91.204261,-253.98784)" x1="342.1882" y1="705.75824" x2="358.07608" y2="523.40735"/>
    <linearGradient inkscape:collect="always" xlink:href="#linearGradient3852-0" id="linearGradient5125" gradientUnits="userSpaceOnUse" gradientTransform="matrix(0.95302723,0,0,0.86647129,11.575117,-4.501603)" x1="405.2634" y1="118.06474" x2="405.74554" y2="360.92188"/>
    <clipPath clipPathUnits="userSpaceOnUse" id="clipPath5712">
      <rect mask="none" inkscape:label="#rect4203" ry="64.777054" y="0" width="512" style="fill:none;display:inline" x="0" height="512" id="rect5714"/>
    </clipPath>
    <filter inkscape:collect="always" id="filter5740">
      <feGaussianBlur inkscape:collect="always" stdDeviation="5.12" id="feGaussianBlur5742"/>
    </filter>
    <clipPath clipPathUnits="userSpaceOnUse" id="clipPath5796">
      <rect inkscape:label="#rect4203" ry="57" y="0" width="512" style="fill:none;stroke:#00fa00;stroke-width:20;stroke-miterlimit:4;stroke-opacity:1;stroke-dasharray:none;display:inline" x="0" height="512" id="rect5798"/>
    </clipPath>
    <filter inkscape:collect="always" id="filter5912">
      <feGaussianBlur inkscape:collect="always" stdDeviation="17.92" id="feGaussianBlur5914"/>
    </filter>
  </defs>
  <sodipodi:namedview id="base" pagecolor="#ffffff" bordercolor="#666666" borderopacity="1.0" inkscape:pageopacity="0.0" inkscape:pageshadow="2" inkscape:zoom="0.65494792" inkscape:cx="191.61829" inkscape:cy="384" inkscape:document-units="px" showgrid="false" inkscape:window-width="1280" inkscape:window-height="723" inkscape:window-x="0" inkscape:window-y="24" inkscape:window-maximized="1"/>

  <g id="template-button" inkscape:label="template-button" style="display:inline">
  &gt;
  <g inkscape:label="00" id="00" style="display:inline" transform="translate(90,90)">
    <rect inkscape:label="#rect4203" ry="57" y="56" width="512" style="fill:#000000;fill-opacity:1;stroke:#a8a8a8;stroke-width:5;stroke-miterlimit:4;stroke-opacity:1;stroke-dasharray:none;display:inline;filter:url(#filter5912)" x="38" height="512" id="shadow"/>
  </g>
  <g id="01" inkscape:label="01" style="display:inline" transform="translate(128,128)" clip-path="url(#clipPathFlag)">
    <rect id="mask" height="512" x="0" style="fill:#0000ff;fill-opacity:1;stroke:none" width="512" y="0" ry="57" inkscape:label="#rect4203"/>
  <g transform="matrix(1.032127,0,0,1.032127,-128,1.153985e-5)" id="flag" clip-path="url(#clipPath6890)" inkscape:label="#g6841">
    <rect style="font-size:12px;fill:#199d00;fill-opacity:1;fill-rule:evenodd;stroke:none" id="rect681" width="744.09448" height="496.06299" x="0" y="-7.5999997e-05" transform="translate(0,6.103516e-5)"/>
    <path inkscape:connector-curvature="0" style="font-size:12px;fill:#feffff;fill-rule:evenodd;stroke-width:1pt;stroke-linejoin:round" d="m 370.795,277.772 c -11.663,8.12 -23.864,15.299 -35.527,23.419 -14.615,1.034 -28.788,1.181 -43.846,0.443 0,0 -31.445,-5.314 -39.417,-19.044 -0.443,-1.329 10.186,-6.201 10.186,-6.201 16.092,11.368 33.955,21.407 67.32,19.931 -41.189,-3.691 -69.091,-26.426 -77.506,-47.39 22.292,-15.649 59.2,-15.354 89.464,6.2 -9.448,-11.81 -41.041,-24.949 -64.662,-21.258 -3.396,-3.544 -6.348,-7.973 -9.744,-11.516 27.164,-6.053 64.958,11.368 78.835,25.688 -14.615,-23.473 -25.245,-50.047 -7.972,-82.378 3.395,3.248 7.234,6.496 10.629,9.744 -12.991,23.768 -8.267,51.523 2.215,70.862 -18.159,-37.498 -3.544,-74.553 20.372,-92.564 27.902,16.83 35.875,61.562 19.488,93.451 9.3,-5.315 16.83,-45.176 3.986,-71.749 2.953,-3.543 5.905,-7.086 8.858,-10.629 19.34,26.13 7.677,68.205 -8.415,84.149 12.253,-10.63 43.993,-31.445 81.049,-26.573 -2.953,3.543 -7.677,6.643 -10.63,10.186 -30.412,-1.181 -55.065,11.81 -65.99,23.03 26.721,-17.715 63.628,-26.574 90.792,-6.643 -12.548,33.512 -48.128,43.551 -77.506,46.503 24.949,1.919 48.128,-5.462 66.877,-18.601 3.543,1.919 7.086,3.839 10.629,5.758 -7.972,7.529 -19.487,15.058 -35.874,17.272 -15.796,2.067 -30.707,1.477 -46.503,1.772 -12.253,-7.972 -24.855,-15.891 -37.108,-23.862 z" id="path678" sodipodi:nodetypes="ccccccccccccccccccccccccccccc"/>
    <path inkscape:connector-curvature="0" style="font-size:12px;fill:#ffffff;fill-rule:evenodd;stroke-width:1pt" d="m 370.795,285.612 -30.378,22.861 -81.424,-0.313 c 1,3.281 4.113,7.474 5.95,9.395 l 80.798,0.314 25.054,-19.417 24.114,19.103 81.738,0 c 2.349,-2.505 4.854,-5.95 7.046,-8.925 l -82.834,0.157 -30.064,-23.175 z" id="path683" sodipodi:nodetypes="ccccccccccc"/>
    <path inkscape:connector-curvature="0" style="font-size:12px;fill:#ffffff;fill-rule:evenodd;stroke-width:0.95193501pt;stroke-linejoin:round" d="m 324.132,364.134 c 23.384,11.542 73.074,10.595 95.518,-0.283 l -95.518,0.283 z" id="path687" sodipodi:nodetypes="ccc"/>
    <path inkscape:connector-curvature="0" style="font-size:12px;fill:#ffffff;fill-rule:evenodd;stroke-width:1pt;stroke-linejoin:round" d="m 270.359,325.385 c 0.94,0 200.808,-0.157 200.808,-0.157 -3.497,3.967 -7.621,8.247 -11.901,11.9 l -178.627,-0.782 c -3.353,-2.325 -7.813,-7.75 -10.28,-10.961 z" id="path688" sodipodi:nodetypes="ccccc"/>
    <path inkscape:connector-curvature="0" style="font-size:12px;fill:#ffffff;fill-rule:evenodd;stroke-width:1pt;stroke-linejoin:round" d="m 284.153,339.79 172.45,0.471 c -3.236,2.505 -5.845,5.48 -9.551,7.359 l -153.298,-0.13 c -3.539,-1.902 -7.169,-5.133 -9.601,-7.7 z" id="path689" sodipodi:nodetypes="ccccc"/>
    <path inkscape:connector-curvature="0" style="font-size:12px;fill:#ffffff;fill-rule:evenodd;stroke-width:1.0493pt;stroke-linejoin:round" d="m 299.862,352.624 140.927,-0.344 c -3.758,2.413 -7.986,4.983 -12.683,7.24 l -115.561,0 c -3.915,-1.359 -8.456,-4.284 -12.683,-6.896 z" id="path690" sodipodi:nodetypes="ccccc"/>
    <polygon d="m 205.58449,128.73621 -10.01635,-6.84893 -9.90282,7.01206 3.41849,-11.64254 -9.72901,-7.2513 12.12909,-0.34657 3.88997,-11.493607 4.0777,11.428357 12.13314,0.14786 -9.60893,7.40967 z" inkscape:randomized="0" inkscape:rounded="0" inkscape:flatsided="false" sodipodi:type="star" style="font-size:12px;fill:#feb700;fill-rule:evenodd;stroke-width:1pt" id="polygon564" sodipodi:sides="5" sodipodi:cx="195.51263" sodipodi:cy="115.10958" sodipodi:r1="16.944826" sodipodi:r2="6.7779307" sodipodi:arg1="0.93428808" sodipodi:arg2="1.5626066" points="205.584,128.736 195.568,121.887 185.665,128.899 189.084,117.257 179.355,110.006 191.484,109.659 195.374,98.1653 199.452,109.594 211.585,109.742 201.976,117.151 205.584,128.736 " transform="matrix(0.692721,0.271214,-0.271214,0.692721,338.05,8.336662)"/>
    <polygon d="m 205.58449,128.73621 -10.01635,-6.84893 -9.90282,7.01206 3.41849,-11.64254 -9.72901,-7.2513 12.12909,-0.34657 3.88997,-11.493607 4.0777,11.428357 12.13314,0.14786 -9.60893,7.40967 z" inkscape:randomized="0" inkscape:rounded="0" inkscape:flatsided="false" sodipodi:type="star" style="font-size:12px;fill:#feb700;fill-rule:evenodd;stroke-width:1pt" id="polygon714" sodipodi:sides="5" sodipodi:cx="195.51263" sodipodi:cy="115.10958" sodipodi:r1="16.944826" sodipodi:r2="6.7779307" sodipodi:arg1="0.93428808" sodipodi:arg2="1.5626066" points="205.584,128.736 195.568,121.887 185.665,128.899 189.084,117.257 179.355,110.006 191.484,109.659 195.374,98.1653 199.452,109.594 211.585,109.742 201.976,117.151 205.584,128.736 " transform="matrix(1.005342,0,0,1.005342,175.1531,13.22089)"/>
    <polygon d="m 205.58449,128.73621 -10.01635,-6.84893 -9.90282,7.01206 3.41849,-11.64254 -9.72901,-7.2513 12.12909,-0.34657 3.88997,-11.493607 4.0777,11.428357 12.13314,0.14786 -9.60893,7.40967 z" inkscape:randomized="0" inkscape:rounded="0" inkscape:flatsided="false" sodipodi:type="star" style="font-size:12px;fill:#feb700;fill-rule:evenodd;stroke-width:1pt" id="polygon715" sodipodi:sides="5" sodipodi:cx="195.51263" sodipodi:cy="115.10958" sodipodi:r1="16.944826" sodipodi:r2="6.7779307" sodipodi:arg1="0.93428808" sodipodi:arg2="1.5626066" points="205.584,128.736 195.568,121.887 185.665,128.899 189.084,117.257 179.355,110.006 191.484,109.659 195.374,98.1653 199.452,109.594 211.585,109.742 201.976,117.151 205.584,128.736 " transform="matrix(0.72912,-0.147654,0.147654,0.72912,318.8847,139.2056)"/>
    <polygon d="m 205.58449,128.73621 -10.01635,-6.84893 -9.90282,7.01206 3.41849,-11.64254 -9.72901,-7.2513 12.12909,-0.34657 3.88997,-11.493607 4.0777,11.428357 12.13314,0.14786 -9.60893,7.40967 z" inkscape:randomized="0" inkscape:rounded="0" inkscape:flatsided="false" sodipodi:type="star" style="font-size:12px;fill:#feb700;fill-rule:evenodd;stroke-width:1pt" id="polygon716" sodipodi:sides="5" sodipodi:cx="195.51263" sodipodi:cy="115.10958" sodipodi:r1="16.944826" sodipodi:r2="6.7779307" sodipodi:arg1="0.93428808" sodipodi:arg2="1.5626066" points="205.584,128.736 195.568,121.887 185.665,128.899 189.084,117.257 179.355,110.006 191.484,109.659 195.374,98.1653 199.452,109.594 211.585,109.742 201.976,117.151 205.584,128.736 " transform="matrix(-0.69272,0.271214,0.271214,0.69272,403.8054,8.197807)"/>
    <polygon d="m 205.58449,128.73621 -10.01635,-6.84893 -9.90282,7.01206 3.41849,-11.64254 -9.72901,-7.2513 12.12909,-0.34657 3.88997,-11.493607 4.0777,11.428357 12.13314,0.14786 -9.60893,7.40967 z" inkscape:randomized="0" inkscape:rounded="0" inkscape:flatsided="false" sodipodi:type="star" style="font-size:12px;fill:#feb700;fill-rule:evenodd;stroke-width:1pt" id="polygon717" sodipodi:sides="5" sodipodi:cx="195.51263" sodipodi:cy="115.10958" sodipodi:r1="16.944826" sodipodi:r2="6.7779307" sodipodi:arg1="0.93428808" sodipodi:arg2="1.5626066" points="205.584,128.736 195.568,121.887 185.665,128.899 189.084,117.257 179.355,110.006 191.484,109.659 195.374,98.1653 199.452,109.594 211.585,109.742 201.976,117.151 205.584,128.736 " transform="matrix(-0.72912,-0.147654,-0.147654,0.72912,420.9945,138.8833)"/>
  </g></g>
  <g id="02" inkscape:label="02" style="display:inline" transform="translate(0,38)">
    <path sodipodi:nodetypes="sscssscss" inkscape:connector-curvature="0" id="path3862-8" d="m 214.21087,111.21099 c -45.24514,0.18809 -68.71568,7.73077 -64.09352,83.5526 l 2.8252,46.34456 c 47.4743,5.51239 56.66416,18.44506 104.35936,21.91413 68.07337,4.95126 67.93728,5.42092 130.56477,-14.38414 62.62753,-19.80506 5.82485,-65.24698 207.32205,-57.8201 4.60334,0.16968 17.3137,-3.05269 27.46187,-12.15043 5.5817,-46.52389 -2.78415,-69.14289 -66.93352,-68.87623 z" style="color:#000000;fill:url(#linearGradient5125);fill-opacity:1;fill-rule:nonzero;stroke:none;stroke-width:1.62399995;marker:none;visibility:visible;overflow:visible;enable-background:accumulate"/>
    <path inkscape:connector-curvature="0" id="path3079-9" d="m 531.03278,495.17335 c -31.60486,19.02245 -27.60116,31.26037 -37.91323,32.57276 -94.70417,12.0527 -145.97722,-0.72701 -165.79583,-12.06122 -59.58792,-34.07817 -68.46788,-13.01421 -100.22126,-16.5742 -20.11475,-2.25514 -59.24503,12.98404 -73.38763,44.34434 3.47222,27.60795 18.11064,32.09835 44.28127,31.98612 l 356.05526,-1.52684 c 69.69188,-0.29885 56.33547,-8.49265 65.54301,-56.03861 -14.77205,-21.67074 -13.15664,9.10903 -44.2237,-30.71666 z" style="color:#000000;fill:url(#linearGradient5122);fill-opacity:1;fill-rule:nonzero;stroke:none;stroke-width:1.62399994999999997;marker:none;visibility:visible;overflow:visible;enable-background:accumulate" sodipodi:nodetypes="cssscssccc"/>
    <rect id="rect5734" height="512" x="0" style="fill:none;stroke:#000000;stroke-width:20;stroke-miterlimit:4;stroke-opacity:1;stroke-dasharray:none;display:inline;filter:url(#filter5740)" width="512" y="0" ry="57" inkscape:label="#rect4203" transform="translate(128,90)" clip-path="url(#clipPath5796)"/>
  </g></g>
</svg>
