<?xml version="1.0" encoding="UTF-8" standalone="no"?>
<svg xmlns:dc="http://purl.org/dc/elements/1.1/" xmlns:cc="http://creativecommons.org/ns#" xmlns:rdf="http://www.w3.org/1999/02/22-rdf-syntax-ns#" xmlns:svg="http://www.w3.org/2000/svg" xmlns="http://www.w3.org/2000/svg" xmlns:xlink="http://www.w3.org/1999/xlink" xmlns:sodipodi="http://sodipodi.sourceforge.net/DTD/sodipodi-0.dtd" xmlns:inkscape="http://www.inkscape.org/namespaces/inkscape" width="768" height="768" id="svg2" version="1.1" inkscape:version="0.48.1 r9760" sodipodi:docname="template.svg">
  <defs id="defs4">
    <clipPath clipPathUnits="userSpaceOnUse" id="clipPathFlag">
      <rect id="rect3918" height="511" x="0.5" style="fill:#000000;fill-opacity:0.67000002;stroke:none" width="511" y="0.5" ry="57"/>
    </clipPath>
    <linearGradient id="linearGradient3852" inkscape:collect="always">
      <stop id="stop3854" offset="0" style="stop-color:#dbe3db;stop-opacity:1;"/>
      <stop id="stop3856" offset="1" style="stop-color:#dbe3db;stop-opacity:0;"/>
    </linearGradient>
    <linearGradient inkscape:collect="always" xlink:href="#linearGradient3852" id="linearGradient3070" gradientUnits="userSpaceOnUse" x1="339.54913" y1="646.63617" x2="345.74551" y2="566.63617" gradientTransform="matrix(0.93191514,0,0,0.93191514,7.9467803,7.2318863)"/>
    <clipPath id="clipPath3882" clipPathUnits="userSpaceOnUse">
      <path sodipodi:type="inkscape:offset" inkscape:radius="11.844458" inkscape:original="M 243.75 118.0625 C 179.93919 118.0625 128.5625 169.43919 128.5625 233.25 L 128.5625 528.59375 C 128.5625 592.40456 179.93919 643.78125 243.75 643.78125 L 539.09375 643.78125 C 602.90456 643.78125 654.28125 592.40456 654.28125 528.59375 L 654.28125 233.25 C 654.28125 169.43919 602.90456 118.0625 539.09375 118.0625 L 243.75 118.0625 z " style="color:#000000;fill:none;stroke:none;stroke-width:20;marker:none;visibility:visible;display:inline;overflow:visible;enable-background:accumulate" id="path3884" d="m 243.75,106.21875 c -70.16845,0 -127.03125,56.8628 -127.03125,127.03125 l 0,295.34375 c 0,70.16845 56.8628,127.03125 127.03125,127.03125 l 295.34375,0 c 70.16845,0 127.03125,-56.8628 127.03125,-127.03125 l 0,-295.34375 c 0,-70.16845 -56.8628,-127.03125 -127.03125,-127.03125 l -295.34375,0 z"/>
    </clipPath>
    <linearGradient id="linearGradient3852-0" inkscape:collect="always">
      <stop id="stop3854-6" offset="0" style="stop-color:#dbe3db;stop-opacity:1;"/>
      <stop id="stop3856-1" offset="1" style="stop-color:#dbe3db;stop-opacity:0;"/>
    </linearGradient>
    <linearGradient inkscape:collect="always" xlink:href="#linearGradient3852-0" id="linearGradient3070-5" gradientUnits="userSpaceOnUse" x1="339.54913" y1="646.63617" x2="345.74551" y2="566.63617" gradientTransform="matrix(0.93191514,0,0,0.93191514,7.9467803,7.2318863)"/>
    <linearGradient inkscape:collect="always" xlink:href="#linearGradient3852-0" id="linearGradient5122" gradientUnits="userSpaceOnUse" gradientTransform="matrix(1.1571075,0,0,1.3166846,-91.204261,-253.98784)" x1="342.1882" y1="705.75824" x2="358.07608" y2="523.40735"/>
    <linearGradient inkscape:collect="always" xlink:href="#linearGradient3852-0" id="linearGradient5125" gradientUnits="userSpaceOnUse" gradientTransform="matrix(0.95302723,0,0,0.86647129,11.575117,-4.501603)" x1="405.2634" y1="118.06474" x2="405.74554" y2="360.92188"/>
    <clipPath clipPathUnits="userSpaceOnUse" id="clipPath5712">
      <rect mask="none" inkscape:label="#rect4203" ry="64.777054" y="0" width="512" style="fill:none;display:inline" x="0" height="512" id="rect5714"/>
    </clipPath>
    <filter inkscape:collect="always" id="filter5740">
      <feGaussianBlur inkscape:collect="always" stdDeviation="5.12" id="feGaussianBlur5742"/>
    </filter>
    <clipPath clipPathUnits="userSpaceOnUse" id="clipPath5796">
      <rect inkscape:label="#rect4203" ry="57" y="0" width="512" style="fill:none;stroke:#00fa00;stroke-width:20;stroke-miterlimit:4;stroke-opacity:1;stroke-dasharray:none;display:inline" x="0" height="512" id="rect5798"/>
    </clipPath>
    <filter inkscape:collect="always" id="filter5912">
      <feGaussianBlur inkscape:collect="always" stdDeviation="17.92" id="feGaussianBlur5914"/>
    </filter>
  </defs>
  <sodipodi:namedview id="base" pagecolor="#ffffff" bordercolor="#666666" borderopacity="1.0" inkscape:pageopacity="0.0" inkscape:pageshadow="2" inkscape:zoom="0.65494792" inkscape:cx="191.61829" inkscape:cy="384" inkscape:document-units="px" showgrid="false" inkscape:window-width="1280" inkscape:window-height="723" inkscape:window-x="0" inkscape:window-y="24" inkscape:window-maximized="1"/>

  <g id="template-button" inkscape:label="template-button" style="display:inline">
  &gt;
  <g inkscape:label="00" id="00" style="display:inline" transform="translate(90,90)">
    <rect inkscape:label="#rect4203" ry="57" y="56" width="512" style="fill:#000000;fill-opacity:1;stroke:#a8a8a8;stroke-width:5;stroke-miterlimit:4;stroke-opacity:1;stroke-dasharray:none;display:inline;filter:url(#filter5912)" x="38" height="512" id="shadow"/>
  </g>
  <g id="01" inkscape:label="01" style="display:inline" transform="translate(128,128)" clip-path="url(#clipPathFlag)">
    <rect id="mask" height="512" x="0" style="fill:#0000ff;fill-opacity:1;stroke:none" width="512" y="0" ry="57" inkscape:label="#rect4203"/>
  <g transform="matrix(0.72248902,0,0,0.72248902,-129.83996,-2.3315799e-6)" id="flag" clip-path="url(#clipPath6009)" inkscape:label="#g5885">
    <rect width="1062.99" height="708.66101" x="0" y="0" style="font-size:12px;fill:#f41408;fill-rule:evenodd;stroke-width:1pt" id="rect171"/>
    <rect width="1062.99" height="236.22" x="0" y="472.44101" transform="translate(0,2.81206e-4)" style="font-size:12px;fill:#21873b;fill-rule:evenodd;stroke-width:1pt" id="rect256"/>
    <rect width="1062.99" height="236.22" x="0" y="0" style="font-size:12px;fill-rule:evenodd;stroke-width:1pt" id="rect255"/>
    <path inkscape:connector-curvature="0" d="M 259.713,214.667 C 321.144,65.0663 492.415,-6.49242 642.016,54.9377 717.36,85.8764 770.729,139.223 801.699,214.555 l -541.986,0.112 z" transform="matrix(0.502618,0,0,0.502618,270.878,106.136)" style="font-size:12px;fill:#f31509;fill-rule:evenodd;stroke-width:1pt" id="path386"/>
    <path inkscape:connector-curvature="0" d="m 537.977,92.5913 c -5.966,-31.9967 -7.592,-67.2469 -7.05,-73.2125 0.542,-5.9654 3.796,-7.0501 6.507,-7.0501 2.712,0 6.508,2.7116 6.508,7.05 0,8.1348 10e-4,41.216 -5.965,73.2126 z" transform="matrix(0.255734,-0.966747,0.966747,0.255734,138.376,720.17)" style="font-size:12px;fill:#f31509;fill-rule:evenodd;stroke-width:1pt" id="path353"/>
    <path inkscape:connector-curvature="0" d="m 537.977,92.5913 c -5.966,-31.9967 -7.592,-67.2469 -7.05,-73.2125 0.542,-5.9654 3.796,-7.0501 6.507,-7.0501 2.712,0 6.508,2.7116 6.508,7.05 0,8.1348 10e-4,41.216 -5.965,73.2126 z" transform="matrix(0.99999,0.00441702,-0.00441702,0.99999,0.414166,-2.34377)" style="font-size:12px;fill:#f31509;fill-rule:evenodd;stroke-width:1pt" id="path354"/>
    <path inkscape:connector-curvature="0" d="m 537.977,92.5913 c -5.966,-31.9967 -7.592,-67.2469 -7.05,-73.2125 0.542,-5.9654 3.796,-7.0501 6.507,-7.0501 2.712,0 6.508,2.7116 6.508,7.05 0,8.1348 10e-4,41.216 -5.965,73.2126 z" transform="matrix(0.995934,0.0900828,-0.0900828,0.995934,26.5007,-47.3117)" style="font-size:12px;fill:#f31509;fill-rule:evenodd;stroke-width:1pt" id="path355"/>
    <path inkscape:connector-curvature="0" d="m 537.977,92.5913 c -5.966,-31.9967 -7.592,-67.2469 -7.05,-73.2125 0.542,-5.9654 3.796,-7.0501 6.507,-7.0501 2.712,0 6.508,2.7116 6.508,7.05 0,8.1348 10e-4,41.216 -5.965,73.2126 z" transform="matrix(0.985144,0.171728,-0.171728,0.985144,54.3375,-88.2742)" style="font-size:12px;fill:#f31509;fill-rule:evenodd;stroke-width:1pt" id="path356"/>
    <path inkscape:connector-curvature="0" d="m 537.977,92.5913 c -5.966,-31.9967 -7.592,-67.2469 -7.05,-73.2125 0.542,-5.9654 3.796,-7.0501 6.507,-7.0501 2.712,0 6.508,2.7116 6.508,7.05 0,8.1348 10e-4,41.216 -5.965,73.2126 z" transform="matrix(0.966217,0.257731,-0.257731,0.966217,87.7237,-129.382)" style="font-size:12px;fill:#f31509;fill-rule:evenodd;stroke-width:1pt" id="path357"/>
    <path inkscape:connector-curvature="0" d="m 537.977,92.5913 c -5.966,-31.9967 -7.592,-67.2469 -7.05,-73.2125 0.542,-5.9654 3.796,-7.0501 6.507,-7.0501 2.712,0 6.508,2.7116 6.508,7.05 0,8.1348 10e-4,41.216 -5.965,73.2126 z" transform="matrix(0.939525,0.34248,-0.34248,0.939525,124.944,-167.72)" style="font-size:12px;fill:#f31509;fill-rule:evenodd;stroke-width:1pt" id="path358"/>
    <path inkscape:connector-curvature="0" d="m 537.977,92.5913 c -5.966,-31.9967 -7.592,-67.2469 -7.05,-73.2125 0.542,-5.9654 3.796,-7.0501 6.507,-7.0501 2.712,0 6.508,2.7116 6.508,7.05 0,8.1348 10e-4,41.216 -5.965,73.2126 z" transform="matrix(0.906804,0.421551,-0.421551,0.906804,163.871,-201.38)" style="font-size:12px;fill:#f31509;fill-rule:evenodd;stroke-width:1pt" id="path359"/>
    <path inkscape:connector-curvature="0" d="m 537.977,92.5913 c -5.966,-31.9967 -7.592,-67.2469 -7.05,-73.2125 0.542,-5.9654 3.796,-7.0501 6.507,-7.0501 2.712,0 6.508,2.7116 6.508,7.05 0,8.1348 10e-4,41.216 -5.965,73.2126 z" transform="matrix(0.866413,0.499327,-0.499327,0.866413,206.57,-232.272)" style="font-size:12px;fill:#f31509;fill-rule:evenodd;stroke-width:1pt" id="path360"/>
    <path inkscape:connector-curvature="0" d="m 537.977,92.5913 c -5.966,-31.9967 -7.592,-67.2469 -7.05,-73.2125 0.542,-5.9654 3.796,-7.0501 6.507,-7.0501 2.712,0 6.508,2.7116 6.508,7.05 0,8.1348 10e-4,41.216 -5.965,73.2126 z" transform="matrix(0.819597,0.57294,-0.57294,0.819597,251.598,-259.194)" style="font-size:12px;fill:#f31509;fill-rule:evenodd;stroke-width:1pt" id="path361"/>
    <path inkscape:connector-curvature="0" d="m 537.977,92.5913 c -5.966,-31.9967 -7.592,-67.2469 -7.05,-73.2125 0.542,-5.9654 3.796,-7.0501 6.507,-7.0501 2.712,0 6.508,2.7116 6.508,7.05 0,8.1348 10e-4,41.216 -5.965,73.2126 z" transform="matrix(0.766464,0.642287,-0.642287,0.766464,298.87,-282.118)" style="font-size:12px;fill:#f31509;fill-rule:evenodd;stroke-width:1pt" id="path362"/>
    <path inkscape:connector-curvature="0" d="m 537.977,92.5913 c -5.966,-31.9967 -7.592,-67.2469 -7.05,-73.2125 0.542,-5.9654 3.796,-7.0501 6.507,-7.0501 2.712,0 6.508,2.7116 6.508,7.05 0,8.1348 10e-4,41.216 -5.965,73.2126 z" transform="matrix(0.707341,0.706872,-0.706872,0.707341,348.075,-300.866)" style="font-size:12px;fill:#f31509;fill-rule:evenodd;stroke-width:1pt" id="path363"/>
    <path inkscape:connector-curvature="0" d="m 537.977,92.5913 c -5.966,-31.9967 -7.592,-67.2469 -7.05,-73.2125 0.542,-5.9654 3.796,-7.0501 6.507,-7.0501 2.712,0 6.508,2.7116 6.508,7.05 0,8.1348 10e-4,41.216 -5.965,73.2126 z" transform="matrix(0.642603,0.766199,-0.766199,0.642603,398.879,-315.273)" style="font-size:12px;fill:#f31509;fill-rule:evenodd;stroke-width:1pt" id="path364"/>
    <path inkscape:connector-curvature="0" d="m 537.977,92.5913 c -5.966,-31.9967 -7.592,-67.2469 -7.05,-73.2125 0.542,-5.9654 3.796,-7.0501 6.507,-7.0501 2.712,0 6.508,2.7116 6.508,7.05 0,8.1348 10e-4,41.216 -5.965,73.2126 z" transform="matrix(0.5762,0.817309,-0.817309,0.5762,448.359,-324.814)" style="font-size:12px;fill:#f31509;fill-rule:evenodd;stroke-width:1pt" id="path365"/>
    <path inkscape:connector-curvature="0" d="m 537.977,92.5913 c -5.966,-31.9967 -7.592,-67.2469 -7.05,-73.2125 0.542,-5.9654 3.796,-7.0501 6.507,-7.0501 2.712,0 6.508,2.7116 6.508,7.05 0,8.1348 10e-4,41.216 -5.965,73.2126 z" transform="matrix(0.504163,0.863609,-0.863609,0.504163,499.568,-330.25)" style="font-size:12px;fill:#f31509;fill-rule:evenodd;stroke-width:1pt" id="path366"/>
    <path inkscape:connector-curvature="0" d="m 537.977,92.5913 c -5.966,-31.9967 -7.592,-67.2469 -7.05,-73.2125 0.542,-5.9654 3.796,-7.0501 6.507,-7.0501 2.712,0 6.508,2.7116 6.508,7.05 0,8.1348 10e-4,41.216 -5.965,73.2126 z" transform="matrix(0.422041,0.906577,-0.906577,0.422041,555.298,-331.174)" style="font-size:12px;fill:#f31509;fill-rule:evenodd;stroke-width:1pt" id="path367"/>
    <path inkscape:connector-curvature="0" d="m 537.977,92.5913 c -5.966,-31.9967 -7.592,-67.2469 -7.05,-73.2125 0.542,-5.9654 3.796,-7.0501 6.507,-7.0501 2.712,0 6.508,2.7116 6.508,7.05 0,8.1348 10e-4,41.216 -5.965,73.2126 z" transform="matrix(0.342725,0.939436,-0.939436,0.342725,606.791,-327.422)" style="font-size:12px;fill:#f31509;fill-rule:evenodd;stroke-width:1pt" id="path368"/>
    <path inkscape:connector-curvature="0" d="m 537.977,92.5913 c -5.966,-31.9967 -7.592,-67.2469 -7.05,-73.2125 0.542,-5.9654 3.796,-7.0501 6.507,-7.0501 2.712,0 6.508,2.7116 6.508,7.05 0,8.1348 10e-4,41.216 -5.965,73.2126 z" transform="matrix(0.25861,0.965982,-0.965982,0.25861,659.158,-318.982)" style="font-size:12px;fill:#f31509;fill-rule:evenodd;stroke-width:1pt" id="path369"/>
    <path inkscape:connector-curvature="0" d="m 537.977,92.5913 c -5.966,-31.9967 -7.592,-67.2469 -7.05,-73.2125 0.542,-5.9654 3.796,-7.0501 6.507,-7.0501 2.712,0 6.508,2.7116 6.508,7.05 0,8.1348 10e-4,41.216 -5.965,73.2126 z" transform="matrix(0.996112,-0.0880929,0.0880929,0.996112,-21.6896,48.3893)" style="font-size:12px;fill:#f31509;fill-rule:evenodd;stroke-width:1pt" id="path370"/>
    <path inkscape:connector-curvature="0" d="m 537.977,92.5913 c -5.966,-31.9967 -7.592,-67.2469 -7.05,-73.2125 0.542,-5.9654 3.796,-7.0501 6.507,-7.0501 2.712,0 6.508,2.7116 6.508,7.05 0,8.1348 10e-4,41.216 -5.965,73.2126 z" transform="matrix(0.98462,-0.174707,0.174707,0.98462,-38.8937,98.0365)" style="font-size:12px;fill:#f31509;fill-rule:evenodd;stroke-width:1pt" id="path371"/>
    <path inkscape:connector-curvature="0" d="m 537.977,92.5913 c -5.966,-31.9967 -7.592,-67.2469 -7.05,-73.2125 0.542,-5.9654 3.796,-7.0501 6.507,-7.0501 2.712,0 6.508,2.7116 6.508,7.05 0,8.1348 10e-4,41.216 -5.965,73.2126 z" transform="matrix(0.965398,-0.260781,0.260781,0.965398,-51.7976,149.48)" style="font-size:12px;fill:#f31509;fill-rule:evenodd;stroke-width:1pt" id="path372"/>
    <path inkscape:connector-curvature="0" d="m 537.977,92.5913 c -5.966,-31.9967 -7.592,-67.2469 -7.05,-73.2125 0.542,-5.9654 3.796,-7.0501 6.507,-7.0501 2.712,0 6.508,2.7116 6.508,7.05 0,8.1348 10e-4,41.216 -5.965,73.2126 z" transform="matrix(0.939769,-0.341809,0.341809,0.939769,-59.8969,199.941)" style="font-size:12px;fill:#f31509;fill-rule:evenodd;stroke-width:1pt" id="path373"/>
    <path inkscape:connector-curvature="0" d="m 537.977,92.5913 c -5.966,-31.9967 -7.592,-67.2469 -7.05,-73.2125 0.542,-5.9654 3.796,-7.0501 6.507,-7.0501 2.712,0 6.508,2.7116 6.508,7.05 0,8.1348 10e-4,41.216 -5.965,73.2126 z" transform="matrix(0.907038,-0.421048,0.421048,0.907038,-63.6966,251.358)" style="font-size:12px;fill:#f31509;fill-rule:evenodd;stroke-width:1pt" id="path374"/>
    <path inkscape:connector-curvature="0" d="m 537.977,92.5913 c -5.966,-31.9967 -7.592,-67.2469 -7.05,-73.2125 0.542,-5.9654 3.796,-7.0501 6.507,-7.0501 2.712,0 6.508,2.7116 6.508,7.05 0,8.1348 10e-4,41.216 -5.965,73.2126 z" transform="matrix(0.865427,-0.501036,0.501036,0.865427,-62.926,305.575)" style="font-size:12px;fill:#f31509;fill-rule:evenodd;stroke-width:1pt" id="path375"/>
    <path inkscape:connector-curvature="0" d="m 537.977,92.5913 c -5.966,-31.9967 -7.592,-67.2469 -7.05,-73.2125 0.542,-5.9654 3.796,-7.0501 6.507,-7.0501 2.712,0 6.508,2.7116 6.508,7.05 0,8.1348 10e-4,41.216 -5.965,73.2126 z" transform="matrix(0.818947,-0.573869,0.573869,0.818947,-57.6084,357.26)" style="font-size:12px;fill:#f31509;fill-rule:evenodd;stroke-width:1pt" id="path376"/>
    <path inkscape:connector-curvature="0" d="m 537.977,92.5913 c -5.966,-31.9967 -7.592,-67.2469 -7.05,-73.2125 0.542,-5.9654 3.796,-7.0501 6.507,-7.0501 2.712,0 6.508,2.7116 6.508,7.05 0,8.1348 10e-4,41.216 -5.965,73.2126 z" transform="matrix(0.766991,-0.641658,0.641658,0.766991,-48.0514,407.661)" style="font-size:12px;fill:#f31509;fill-rule:evenodd;stroke-width:1pt" id="path377"/>
    <path inkscape:connector-curvature="0" d="m 537.977,92.5913 c -5.966,-31.9967 -7.592,-67.2469 -7.05,-73.2125 0.542,-5.9654 3.796,-7.0501 6.507,-7.0501 2.712,0 6.508,2.7116 6.508,7.05 0,8.1348 10e-4,41.216 -5.965,73.2126 z" transform="matrix(0.706724,-0.707489,0.707489,0.706724,-33.5076,459.256)" style="font-size:12px;fill:#f31509;fill-rule:evenodd;stroke-width:1pt" id="path378"/>
    <path inkscape:connector-curvature="0" d="m 537.977,92.5913 c -5.966,-31.9967 -7.592,-67.2469 -7.05,-73.2125 0.542,-5.9654 3.796,-7.0501 6.507,-7.0501 2.712,0 6.508,2.7116 6.508,7.05 0,8.1348 10e-4,41.216 -5.965,73.2126 z" transform="matrix(0.644944,-0.764229,0.764229,0.644944,-15.696,506.384)" style="font-size:12px;fill:#f31509;fill-rule:evenodd;stroke-width:1pt" id="path379"/>
    <path inkscape:connector-curvature="0" d="m 537.977,92.5913 c -5.966,-31.9967 -7.592,-67.2469 -7.05,-73.2125 0.542,-5.9654 3.796,-7.0501 6.507,-7.0501 2.712,0 6.508,2.7116 6.508,7.05 0,8.1348 10e-4,41.216 -5.965,73.2126 z" transform="matrix(0.57445,-0.81854,0.81854,0.57445,7.44682,554.562)" style="font-size:12px;fill:#f31509;fill-rule:evenodd;stroke-width:1pt" id="path380"/>
    <path inkscape:connector-curvature="0" d="m 537.977,92.5913 c -5.966,-31.9967 -7.592,-67.2469 -7.05,-73.2125 0.542,-5.9654 3.796,-7.0501 6.507,-7.0501 2.712,0 6.508,2.7116 6.508,7.05 0,8.1348 10e-4,41.216 -5.965,73.2126 z" transform="matrix(0.498227,-0.867047,0.867047,0.498227,35.2305,601.175)" style="font-size:12px;fill:#f31509;fill-rule:evenodd;stroke-width:1pt" id="path381"/>
    <path inkscape:connector-curvature="0" d="m 537.977,92.5913 c -5.966,-31.9967 -7.592,-67.2469 -7.05,-73.2125 0.542,-5.9654 3.796,-7.0501 6.507,-7.0501 2.712,0 6.508,2.7116 6.508,7.05 0,8.1348 10e-4,41.216 -5.965,73.2126 z" transform="matrix(0.420773,-0.907166,0.907166,0.420773,65.9405,643.622)" style="font-size:12px;fill:#f31509;fill-rule:evenodd;stroke-width:1pt" id="path382"/>
    <path inkscape:connector-curvature="0" d="m 537.977,92.5913 c -5.966,-31.9967 -7.592,-67.2469 -7.05,-73.2125 0.542,-5.9654 3.796,-7.0501 6.507,-7.0501 2.712,0 6.508,2.7116 6.508,7.05 0,8.1348 10e-4,41.216 -5.965,73.2126 z" transform="matrix(0.343257,-0.939241,0.939241,0.343257,98.8568,681.77)" style="font-size:12px;fill:#f31509;fill-rule:evenodd;stroke-width:1pt" id="path383"/>
    <path inkscape:connector-curvature="0" d="m 537.977,92.5913 c -5.966,-31.9967 -7.592,-67.2469 -7.05,-73.2125 0.542,-5.9654 3.796,-7.0501 6.507,-7.0501 2.712,0 6.508,2.7116 6.508,7.05 0,8.1348 10e-4,41.216 -5.965,73.2126 z" transform="matrix(0.255734,-0.966747,0.966747,0.255734,138.376,720.17)" style="font-size:12px;fill:#f31509;fill-rule:evenodd;stroke-width:1pt" id="path384"/>
    <rect width="527.66101" height="19.1738" x="275.33499" y="214.745" style="font-size:12px;fill-rule:evenodd;stroke-width:1pt" id="rect385"/>
  </g></g>
  <g id="02" inkscape:label="02" style="display:inline" transform="translate(0,38)">
    <path sodipodi:nodetypes="sscssscss" inkscape:connector-curvature="0" id="path3862-8" d="m 214.21087,111.21099 c -45.24514,0.18809 -68.71568,7.73077 -64.09352,83.5526 l 2.8252,46.34456 c 47.4743,5.51239 56.66416,18.44506 104.35936,21.91413 68.07337,4.95126 67.93728,5.42092 130.56477,-14.38414 62.62753,-19.80506 5.82485,-65.24698 207.32205,-57.8201 4.60334,0.16968 17.3137,-3.05269 27.46187,-12.15043 5.5817,-46.52389 -2.78415,-69.14289 -66.93352,-68.87623 z" style="color:#000000;fill:url(#linearGradient5125);fill-opacity:1;fill-rule:nonzero;stroke:none;stroke-width:1.62399995;marker:none;visibility:visible;overflow:visible;enable-background:accumulate"/>
    <path inkscape:connector-curvature="0" id="path3079-9" d="m 531.03278,495.17335 c -31.60486,19.02245 -27.60116,31.26037 -37.91323,32.57276 -94.70417,12.0527 -145.97722,-0.72701 -165.79583,-12.06122 -59.58792,-34.07817 -68.46788,-13.01421 -100.22126,-16.5742 -20.11475,-2.25514 -59.24503,12.98404 -73.38763,44.34434 3.47222,27.60795 18.11064,32.09835 44.28127,31.98612 l 356.05526,-1.52684 c 69.69188,-0.29885 56.33547,-8.49265 65.54301,-56.03861 -14.77205,-21.67074 -13.15664,9.10903 -44.2237,-30.71666 z" style="color:#000000;fill:url(#linearGradient5122);fill-opacity:1;fill-rule:nonzero;stroke:none;stroke-width:1.62399994999999997;marker:none;visibility:visible;overflow:visible;enable-background:accumulate" sodipodi:nodetypes="cssscssccc"/>
    <rect id="rect5734" height="512" x="0" style="fill:none;stroke:#000000;stroke-width:20;stroke-miterlimit:4;stroke-opacity:1;stroke-dasharray:none;display:inline;filter:url(#filter5740)" width="512" y="0" ry="57" inkscape:label="#rect4203" transform="translate(128,90)" clip-path="url(#clipPath5796)"/>
  </g></g>
</svg>
