<?xml version="1.0" encoding="UTF-8" standalone="no"?>
<svg xmlns:dc="http://purl.org/dc/elements/1.1/" xmlns:cc="http://creativecommons.org/ns#" xmlns:rdf="http://www.w3.org/1999/02/22-rdf-syntax-ns#" xmlns:svg="http://www.w3.org/2000/svg" xmlns="http://www.w3.org/2000/svg" xmlns:xlink="http://www.w3.org/1999/xlink" xmlns:sodipodi="http://sodipodi.sourceforge.net/DTD/sodipodi-0.dtd" xmlns:inkscape="http://www.inkscape.org/namespaces/inkscape" width="768" height="768" id="svg2" version="1.1" inkscape:version="0.48.1 r9760" sodipodi:docname="template.svg">
  <defs id="defs4">
    <clipPath clipPathUnits="userSpaceOnUse" id="clipPathFlag">
      <rect id="rect3918" height="511" x="0.5" style="fill:#000000;fill-opacity:0.67000002;stroke:none" width="511" y="0.5" ry="57"/>
    </clipPath>
    <linearGradient id="linearGradient3852" inkscape:collect="always">
      <stop id="stop3854" offset="0" style="stop-color:#dbe3db;stop-opacity:1;"/>
      <stop id="stop3856" offset="1" style="stop-color:#dbe3db;stop-opacity:0;"/>
    </linearGradient>
    <linearGradient inkscape:collect="always" xlink:href="#linearGradient3852" id="linearGradient3070" gradientUnits="userSpaceOnUse" x1="339.54913" y1="646.63617" x2="345.74551" y2="566.63617" gradientTransform="matrix(0.93191514,0,0,0.93191514,7.9467803,7.2318863)"/>
    <clipPath id="clipPath3882" clipPathUnits="userSpaceOnUse">
      <path sodipodi:type="inkscape:offset" inkscape:radius="11.844458" inkscape:original="M 243.75 118.0625 C 179.93919 118.0625 128.5625 169.43919 128.5625 233.25 L 128.5625 528.59375 C 128.5625 592.40456 179.93919 643.78125 243.75 643.78125 L 539.09375 643.78125 C 602.90456 643.78125 654.28125 592.40456 654.28125 528.59375 L 654.28125 233.25 C 654.28125 169.43919 602.90456 118.0625 539.09375 118.0625 L 243.75 118.0625 z " style="color:#000000;fill:none;stroke:none;stroke-width:20;marker:none;visibility:visible;display:inline;overflow:visible;enable-background:accumulate" id="path3884" d="m 243.75,106.21875 c -70.16845,0 -127.03125,56.8628 -127.03125,127.03125 l 0,295.34375 c 0,70.16845 56.8628,127.03125 127.03125,127.03125 l 295.34375,0 c 70.16845,0 127.03125,-56.8628 127.03125,-127.03125 l 0,-295.34375 c 0,-70.16845 -56.8628,-127.03125 -127.03125,-127.03125 l -295.34375,0 z"/>
    </clipPath>
    <linearGradient id="linearGradient3852-0" inkscape:collect="always">
      <stop id="stop3854-6" offset="0" style="stop-color:#dbe3db;stop-opacity:1;"/>
      <stop id="stop3856-1" offset="1" style="stop-color:#dbe3db;stop-opacity:0;"/>
    </linearGradient>
    <linearGradient inkscape:collect="always" xlink:href="#linearGradient3852-0" id="linearGradient3070-5" gradientUnits="userSpaceOnUse" x1="339.54913" y1="646.63617" x2="345.74551" y2="566.63617" gradientTransform="matrix(0.93191514,0,0,0.93191514,7.9467803,7.2318863)"/>
    <linearGradient inkscape:collect="always" xlink:href="#linearGradient3852-0" id="linearGradient5122" gradientUnits="userSpaceOnUse" gradientTransform="matrix(1.1571075,0,0,1.3166846,-91.204261,-253.98784)" x1="342.1882" y1="705.75824" x2="358.07608" y2="523.40735"/>
    <linearGradient inkscape:collect="always" xlink:href="#linearGradient3852-0" id="linearGradient5125" gradientUnits="userSpaceOnUse" gradientTransform="matrix(0.95302723,0,0,0.86647129,11.575117,-4.501603)" x1="405.2634" y1="118.06474" x2="405.74554" y2="360.92188"/>
    <clipPath clipPathUnits="userSpaceOnUse" id="clipPath5712">
      <rect mask="none" inkscape:label="#rect4203" ry="64.777054" y="0" width="512" style="fill:none;display:inline" x="0" height="512" id="rect5714"/>
    </clipPath>
    <filter inkscape:collect="always" id="filter5740">
      <feGaussianBlur inkscape:collect="always" stdDeviation="5.12" id="feGaussianBlur5742"/>
    </filter>
    <clipPath clipPathUnits="userSpaceOnUse" id="clipPath5796">
      <rect inkscape:label="#rect4203" ry="57" y="0" width="512" style="fill:none;stroke:#00fa00;stroke-width:20;stroke-miterlimit:4;stroke-opacity:1;stroke-dasharray:none;display:inline" x="0" height="512" id="rect5798"/>
    </clipPath>
    <filter inkscape:collect="always" id="filter5912">
      <feGaussianBlur inkscape:collect="always" stdDeviation="17.92" id="feGaussianBlur5914"/>
    </filter>
  </defs>
  <sodipodi:namedview id="base" pagecolor="#ffffff" bordercolor="#666666" borderopacity="1.0" inkscape:pageopacity="0.0" inkscape:pageshadow="2" inkscape:zoom="0.65494792" inkscape:cx="191.61829" inkscape:cy="384" inkscape:document-units="px" showgrid="false" inkscape:window-width="1280" inkscape:window-height="723" inkscape:window-x="0" inkscape:window-y="24" inkscape:window-maximized="1"/>

  <g id="template-button" inkscape:label="template-button" style="display:inline">
  &gt;
  <g inkscape:label="00" id="00" style="display:inline" transform="translate(90,90)">
    <rect inkscape:label="#rect4203" ry="57" y="56" width="512" style="fill:#000000;fill-opacity:1;stroke:#a8a8a8;stroke-width:5;stroke-miterlimit:4;stroke-opacity:1;stroke-dasharray:none;display:inline;filter:url(#filter5912)" x="38" height="512" id="shadow"/>
  </g>
  <g id="01" inkscape:label="01" style="display:inline" transform="translate(128,128)" clip-path="url(#clipPathFlag)">
    <rect id="mask" height="512" x="0" style="fill:#0000ff;fill-opacity:1;stroke:none" width="512" y="0" ry="57" inkscape:label="#rect4203"/>
  <g transform="matrix(1.0321268,0,0,1.0321268,0,8.32116e-5)" id="flag" clip-path="url(#clipPath4451)" inkscape:label="#g4396">
    <rect style="font-size:12px;fill:#009a00;fill-opacity:1;fill-rule:evenodd;stroke-width:1pt" id="rect937" width="744.09448" height="155.01968" x="0" y="-2.9999999e-05"/>
    <rect style="font-size:12px;fill:#ffffff;fill-opacity:1;fill-rule:evenodd;stroke-width:1pt" id="rect935" width="744.09448" height="15.519679" x="0" y="154.98424"/>
    <rect style="font-size:12px;fill:#000000;fill-opacity:1;fill-rule:evenodd;stroke-width:1pt" id="rect934" width="744.09448" height="155.01968" x="0" y="170.50392"/>
    <rect style="font-size:12px;fill:#ffffff;fill-opacity:1;fill-rule:evenodd;stroke-width:1pt" id="rect933" width="744.09448" height="15.519679" x="0" y="325.52356"/>
    <rect style="font-size:12px;fill:#ffca00;fill-opacity:1;fill-rule:evenodd;stroke-width:1pt" id="rect931" width="744.09448" height="155.01968" x="0" y="341.04327"/>
    <path inkscape:connector-curvature="0" style="font-size:12px;fill:#ff0000;fill-opacity:1;fill-rule:evenodd;stroke-width:1pt" d="M 0,-7.62939e-5 0,496.063 325.559,248.031 0,-7.62939e-5 z" id="path932" sodipodi:nodetypes="cccc"/>
    <g id="g938" transform="matrix(0.85471,0,0,0.85471,33.72718,138.3376)">
      <polygon inkscape:randomized="0" inkscape:rounded="0" inkscape:flatsided="false" sodipodi:type="star" style="font-size:12px;fill:#ffca00;fill-opacity:1;fill-rule:evenodd;stroke-width:1pt" id="polygon916" sodipodi:sides="5" sodipodi:cx="128.01648" sodipodi:cy="133.50133" sodipodi:r1="101.77328" sodipodi:r2="38.502586" sodipodi:arg1="0.92156446" sodipodi:arg2="1.5508169" points="189.546,214.569 128.786,171.996 69.9305,217.071 91.6433,146.128 30.5878,104.083 104.767,102.81 125.888,31.7503 150.021,101.906 224.13,100.034 164.865,144.665 189.546,214.569 " transform="matrix(0.969893,0.02018534,-0.02018534,0.969893,6.076984,3.653458)" d="m 189.54603,214.56867 -60.76034,-42.57244 -58.855159,45.07437 21.71282,-70.94213 -61.055514,-42.04584 74.179603,-1.2722 21.12078,-71.060124 24.13269,70.155864 74.10887,-1.87174 -59.26477,44.63092 z"/>
      <path inkscape:connector-curvature="0" style="fill:#ffffff;fill-opacity:1;fill-rule:evenodd;stroke:#000000;stroke-width:1.25;stroke-linecap:round;stroke-linejoin:round;stroke-opacity:1;stroke-dasharray:none" d="m 77.1122,167.913 41.8338,0 c 3.366,3.776 10.876,5.316 18.029,-0.045 13.112,-7.18 38.479,0.045 38.479,0.045 l 4.995,-5.307 -12.176,-39.961 -4.371,-4.683 c 0,0 -9.365,-5.619 -27.161,-3.746 -17.795,1.873 -24.039,-0.624 -24.039,-0.624 0,0 -15.6093,1.873 -19.9801,4.058 -0.4805,0.389 -4.9951,4.995 -4.9951,4.995 l -10.6146,45.268 z" id="path919" sodipodi:nodetypes="cccccccccccc"/>
      <path inkscape:connector-curvature="0" style="fill:none;stroke:#000000;stroke-width:1.25;stroke-linecap:round;stroke-linejoin:round;stroke-opacity:1;stroke-dasharray:none" d="m 85.5415,157.611 c 0,0 39.9605,-4.995 51.5125,10.302 -6.524,4.464 -12.268,4.832 -18.42,0.313 0.98,-1.633 14.361,-15.61 48.39,-10.927" id="path918" sodipodi:nodetypes="cccc"/>
      <path inkscape:connector-curvature="0" style="fill:none;stroke:#000000;stroke-width:1pt;stroke-linecap:butt;stroke-linejoin:miter;stroke-opacity:1" d="M 128.312,117.65 128,161.67" id="path920"/>
      <path inkscape:connector-curvature="0" style="fill:none;stroke:#000000;stroke-width:1pt;stroke-linecap:butt;stroke-linejoin:miter;stroke-opacity:1" d="m 163.902,118.274 7.493,34.966" id="path921"/>
      <path inkscape:connector-curvature="0" style="fill:none;stroke:#000000;stroke-width:1.25;stroke-linecap:round;stroke-linejoin:round;stroke-opacity:1;stroke-dasharray:none" d="m 93.1339,117.725 -4.1583,18.032" id="path922" sodipodi:nodetypes="cc"/>
      <path inkscape:connector-curvature="0" style="fill:#000000;fill-opacity:1;fill-rule:evenodd;stroke:#000000;stroke-width:1.25;stroke-linecap:round;stroke-linejoin:round;stroke-opacity:1;stroke-dasharray:none" d="m 49.9417,172.706 9.8382,11.535 c 1.1553,0.689 2.1815,0.645 3.2077,0 l 14.5805,-17.496 6.1238,-7.582 c 0.9482,-1.123 1.2509,-2.376 1.1664,-3.499 l 11.7074,-10.403 c 0.9577,0.066 1.5281,0.174 2.4858,0.239 -1.1315,-0.293 -1.9617,-0.844 -1.0708,-2.084 l 2.6243,-2.041 2.041,2.624 c 0,0 -2.9156,3.791 -3.2072,3.791 -0.2916,0 -3.2077,0 -3.2077,0 l -6.1238,5.541 2.677,2.366 4.03,11.048 4.9577,-3.5 -3.2081,-11.372 6.9991,-7.582 -2.625,-4.083 1.75,-2.333 c 0,0 24.222,15.25 33.554,11.168 0.252,0.091 0.564,-10.876 0.564,-10.876 0,0 -25.078,-2.624 -25.662,-7.582 -0.583,-4.957 5.541,-5.54 5.541,-5.54 l -2.625,-3.791 0.584,-2.042 4.374,5.541 9.915,-8.457 58.321,66.487 c 3.184,-1.291 3.864,-2.07 4.083,-5.249 -0.082,-0.08 -57.155,-65.612 -57.155,-65.612 l 4.374,-4.665 c 0.862,-0.972 1.165,-1.385 1.166,-2.917 l 6.707,-5.8318 c 2.017,0.6929 3.303,1.9018 4.374,3.4988 l 18.439,-15.6269 c 0.486,0.486 1.962,0.972 2.964,0.4254 L 204.691,57.5442 171.466,81.0116 170.3,80.1368 c 0,-0.9721 1.205,-1.2125 0,-2.9161 -1.291,-1.5491 -3.208,1.4581 -3.499,1.4581 -0.292,0 -4.809,-1.5964 -5.799,-3.6188 l -0.325,5.3684 -8.457,7.8735 -6.415,-0.2916 -9.332,9.0398 -1.166,3.4989 1.458,2.917 c 0,0 -4.958,4.374 -4.958,4.082 0,-0.291 -1.002,-1.289 -1.045,-1.418 l 4.253,-3.831 0.583,-2.6243 -1.419,-2.2158 c -0.43,0.3125 -5.871,6.0071 -6.163,5.4231 C 127.53,102.338 112.27,85.0942 112.27,85.0942 l 0.874,-3.2077 -9.914,-10.7896 c -3.6145,-1.2479 -9.3318,-1.458 -10.4982,6.4154 -0.9083,1.8493 -8.4567,0.2916 -8.4567,0.2916 l -4.0825,0.8749 -23.0372,32.6602 12.8308,15.455 26.2449,-33.2432 0.7791,-9.4176 5.5068,6.1573 c 1.836,0.2359 3.585,0.2566 5.249,-0.5832 l 15.549,17.3557 -2.589,2.526 c 0.875,0.972 1.477,1.593 2.352,2.565 0.875,-0.583 1.71,-1.283 2.585,-1.867 0.292,0.39 0.778,1.129 1.07,1.518 -1.303,0.709 -2.217,1.653 -3.52,2.362 -2.085,-1.359 -4.098,-3.051 -3.945,-5.744 l -8.748,7.29 -0.292,1.458 -25.9529,21.579 -2.3329,0.292 -0.5832,6.707 16.9133,-13.997 0,-2.042 1.7497,1.458 13.122,-10.497 c 0,0 0.875,1.166 0.584,1.166 -0.292,0 -11.665,10.498 -11.665,10.498 l -0.291,1.166 -2.0416,1.75 -1.1665,-0.875 -15.7469,13.997 -2.3328,0 -8.7483,8.749 c -2.2564,0.196 -4.2116,0.435 -6.1238,1.749 l -15.6704,13.835 z" id="path917" sodipodi:nodetypes="cccccccccccccccccccccccccccccccccccccccccccccccccccccccccccccccccccccccccccccccccccccccccccccc"/>
    </g>
  </g></g>
  <g id="02" inkscape:label="02" style="display:inline" transform="translate(0,38)">
    <path sodipodi:nodetypes="sscssscss" inkscape:connector-curvature="0" id="path3862-8" d="m 214.21087,111.21099 c -45.24514,0.18809 -68.71568,7.73077 -64.09352,83.5526 l 2.8252,46.34456 c 47.4743,5.51239 56.66416,18.44506 104.35936,21.91413 68.07337,4.95126 67.93728,5.42092 130.56477,-14.38414 62.62753,-19.80506 5.82485,-65.24698 207.32205,-57.8201 4.60334,0.16968 17.3137,-3.05269 27.46187,-12.15043 5.5817,-46.52389 -2.78415,-69.14289 -66.93352,-68.87623 z" style="color:#000000;fill:url(#linearGradient5125);fill-opacity:1;fill-rule:nonzero;stroke:none;stroke-width:1.62399995;marker:none;visibility:visible;overflow:visible;enable-background:accumulate"/>
    <path inkscape:connector-curvature="0" id="path3079-9" d="m 531.03278,495.17335 c -31.60486,19.02245 -27.60116,31.26037 -37.91323,32.57276 -94.70417,12.0527 -145.97722,-0.72701 -165.79583,-12.06122 -59.58792,-34.07817 -68.46788,-13.01421 -100.22126,-16.5742 -20.11475,-2.25514 -59.24503,12.98404 -73.38763,44.34434 3.47222,27.60795 18.11064,32.09835 44.28127,31.98612 l 356.05526,-1.52684 c 69.69188,-0.29885 56.33547,-8.49265 65.54301,-56.03861 -14.77205,-21.67074 -13.15664,9.10903 -44.2237,-30.71666 z" style="color:#000000;fill:url(#linearGradient5122);fill-opacity:1;fill-rule:nonzero;stroke:none;stroke-width:1.62399994999999997;marker:none;visibility:visible;overflow:visible;enable-background:accumulate" sodipodi:nodetypes="cssscssccc"/>
    <rect id="rect5734" height="512" x="0" style="fill:none;stroke:#000000;stroke-width:20;stroke-miterlimit:4;stroke-opacity:1;stroke-dasharray:none;display:inline;filter:url(#filter5740)" width="512" y="0" ry="57" inkscape:label="#rect4203" transform="translate(128,90)" clip-path="url(#clipPath5796)"/>
  </g></g>
</svg>
