<?xml version="1.0" encoding="UTF-8" standalone="no"?>
<svg xmlns:dc="http://purl.org/dc/elements/1.1/" xmlns:cc="http://creativecommons.org/ns#" xmlns:rdf="http://www.w3.org/1999/02/22-rdf-syntax-ns#" xmlns:svg="http://www.w3.org/2000/svg" xmlns="http://www.w3.org/2000/svg" xmlns:xlink="http://www.w3.org/1999/xlink" xmlns:sodipodi="http://sodipodi.sourceforge.net/DTD/sodipodi-0.dtd" xmlns:inkscape="http://www.inkscape.org/namespaces/inkscape" width="768" height="768" id="svg2" version="1.1" inkscape:version="0.48.1 r9760" sodipodi:docname="template.svg">
  <defs id="defs4">
    <clipPath clipPathUnits="userSpaceOnUse" id="clipPathFlag">
      <rect id="rect3918" height="511" x="0.5" style="fill:#000000;fill-opacity:0.67000002;stroke:none" width="511" y="0.5" ry="57"/>
    </clipPath>
    <linearGradient id="linearGradient3852" inkscape:collect="always">
      <stop id="stop3854" offset="0" style="stop-color:#dbe3db;stop-opacity:1;"/>
      <stop id="stop3856" offset="1" style="stop-color:#dbe3db;stop-opacity:0;"/>
    </linearGradient>
    <linearGradient inkscape:collect="always" xlink:href="#linearGradient3852" id="linearGradient3070" gradientUnits="userSpaceOnUse" x1="339.54913" y1="646.63617" x2="345.74551" y2="566.63617" gradientTransform="matrix(0.93191514,0,0,0.93191514,7.9467803,7.2318863)"/>
    <clipPath id="clipPath3882" clipPathUnits="userSpaceOnUse">
      <path sodipodi:type="inkscape:offset" inkscape:radius="11.844458" inkscape:original="M 243.75 118.0625 C 179.93919 118.0625 128.5625 169.43919 128.5625 233.25 L 128.5625 528.59375 C 128.5625 592.40456 179.93919 643.78125 243.75 643.78125 L 539.09375 643.78125 C 602.90456 643.78125 654.28125 592.40456 654.28125 528.59375 L 654.28125 233.25 C 654.28125 169.43919 602.90456 118.0625 539.09375 118.0625 L 243.75 118.0625 z " style="color:#000000;fill:none;stroke:none;stroke-width:20;marker:none;visibility:visible;display:inline;overflow:visible;enable-background:accumulate" id="path3884" d="m 243.75,106.21875 c -70.16845,0 -127.03125,56.8628 -127.03125,127.03125 l 0,295.34375 c 0,70.16845 56.8628,127.03125 127.03125,127.03125 l 295.34375,0 c 70.16845,0 127.03125,-56.8628 127.03125,-127.03125 l 0,-295.34375 c 0,-70.16845 -56.8628,-127.03125 -127.03125,-127.03125 l -295.34375,0 z"/>
    </clipPath>
    <linearGradient id="linearGradient3852-0" inkscape:collect="always">
      <stop id="stop3854-6" offset="0" style="stop-color:#dbe3db;stop-opacity:1;"/>
      <stop id="stop3856-1" offset="1" style="stop-color:#dbe3db;stop-opacity:0;"/>
    </linearGradient>
    <linearGradient inkscape:collect="always" xlink:href="#linearGradient3852-0" id="linearGradient3070-5" gradientUnits="userSpaceOnUse" x1="339.54913" y1="646.63617" x2="345.74551" y2="566.63617" gradientTransform="matrix(0.93191514,0,0,0.93191514,7.9467803,7.2318863)"/>
    <linearGradient inkscape:collect="always" xlink:href="#linearGradient3852-0" id="linearGradient5122" gradientUnits="userSpaceOnUse" gradientTransform="matrix(1.1571075,0,0,1.3166846,-91.204261,-253.98784)" x1="342.1882" y1="705.75824" x2="358.07608" y2="523.40735"/>
    <linearGradient inkscape:collect="always" xlink:href="#linearGradient3852-0" id="linearGradient5125" gradientUnits="userSpaceOnUse" gradientTransform="matrix(0.95302723,0,0,0.86647129,11.575117,-4.501603)" x1="405.2634" y1="118.06474" x2="405.74554" y2="360.92188"/>
    <clipPath clipPathUnits="userSpaceOnUse" id="clipPath5712">
      <rect mask="none" inkscape:label="#rect4203" ry="64.777054" y="0" width="512" style="fill:none;display:inline" x="0" height="512" id="rect5714"/>
    </clipPath>
    <filter inkscape:collect="always" id="filter5740">
      <feGaussianBlur inkscape:collect="always" stdDeviation="5.12" id="feGaussianBlur5742"/>
    </filter>
    <clipPath clipPathUnits="userSpaceOnUse" id="clipPath5796">
      <rect inkscape:label="#rect4203" ry="57" y="0" width="512" style="fill:none;stroke:#00fa00;stroke-width:20;stroke-miterlimit:4;stroke-opacity:1;stroke-dasharray:none;display:inline" x="0" height="512" id="rect5798"/>
    </clipPath>
    <filter inkscape:collect="always" id="filter5912">
      <feGaussianBlur inkscape:collect="always" stdDeviation="17.92" id="feGaussianBlur5914"/>
    </filter>
  </defs>
  <sodipodi:namedview id="base" pagecolor="#ffffff" bordercolor="#666666" borderopacity="1.0" inkscape:pageopacity="0.0" inkscape:pageshadow="2" inkscape:zoom="0.65494792" inkscape:cx="191.61829" inkscape:cy="384" inkscape:document-units="px" showgrid="false" inkscape:window-width="1280" inkscape:window-height="723" inkscape:window-x="0" inkscape:window-y="24" inkscape:window-maximized="1"/>

  <g id="template-button" inkscape:label="template-button" style="display:inline">
  &gt;
  <g inkscape:label="00" id="00" style="display:inline" transform="translate(90,90)">
    <rect inkscape:label="#rect4203" ry="57" y="56" width="512" style="fill:#000000;fill-opacity:1;stroke:#a8a8a8;stroke-width:5;stroke-miterlimit:4;stroke-opacity:1;stroke-dasharray:none;display:inline;filter:url(#filter5912)" x="38" height="512" id="shadow"/>
  </g>
  <g id="01" inkscape:label="01" style="display:inline" transform="translate(128,128)" clip-path="url(#clipPathFlag)">
    <rect id="mask" height="512" x="0" style="fill:#0000ff;fill-opacity:1;stroke:none" width="512" y="0" ry="57" inkscape:label="#rect4203"/>
  <g id="flag" inkscape:label="#g3004">
    <rect inkscape:label="#rect580" style="font-size:12px;fill:#00006a;fill-opacity:1;fill-rule:evenodd;stroke-width:1pt" id="rect580" width="512" height="512" x="0.0040665804" y="-3.9057618e-06"/>
    <g id="g560" transform="matrix(1.0175708,0,0,0.95604785,-9.9033974e-4,-1.0435174)">
      <path inkscape:connector-curvature="0" transform="matrix(0.46237,0,0,0.474578,-29.82254,-137.2798)" style="font-size:12px;fill:#ffffff;fill-opacity:1;fill-rule:evenodd;stroke-width:1pt" d="m 64.5014,291.568 514.0806,508.631 105.447,0 L 181.047,291.814 64.5014,291.568 z" id="path572" sodipodi:nodetypes="ccccc"/>
      <path inkscape:connector-curvature="0" transform="matrix(-0.461902,0,0,-0.476346,317.3934,383.4745)" style="font-size:12px;fill:#ff0000;fill-opacity:1;fill-rule:evenodd;stroke-width:1pt" d="m 105.539,296.008 503.838,506.725 39.211,-0.619 -505.949,-506.106 -37.1,0 z" id="path577" sodipodi:nodetypes="ccccc"/>
      <path inkscape:connector-curvature="0" transform="matrix(-0.46237,0,0,0.474578,316.2764,-137.2798)" style="font-size:12px;fill:#ffffff;fill-opacity:1;fill-rule:evenodd;stroke-width:1pt" d="m 64.5014,291.568 514.0806,508.631 105.447,0 L 181.047,291.814 64.5014,291.568 z" id="path581" sodipodi:nodetypes="ccccc"/>
      <path inkscape:connector-curvature="0" transform="matrix(-0.461718,0,0,0.476346,317.3236,-139.9103)" style="font-size:12px;fill:#ff0000;fill-opacity:1;fill-rule:evenodd;stroke-width:1pt" d="m 105.539,296.008 503.838,506.725 39.211,0.02 -505.949,-506.745 -37.1,0 z" id="path579" sodipodi:nodetypes="ccccc"/>
      <rect style="font-size:12px;fill:#ffffff;fill-opacity:1;fill-rule:evenodd;stroke-width:1pt" id="rect570" width="45.831039" height="241.37968" x="120.31142" y="1.0944771"/>
      <rect style="font-size:12px;fill:#ffffff;fill-opacity:1;fill-rule:evenodd;stroke-width:1pt" id="rect569" width="286.44406" height="48.275917" x="0.0049350001" y="97.646347"/>
      <rect style="font-size:12px;fill:#ff0000;fill-opacity:1;fill-rule:evenodd;stroke-width:1pt" id="rect574" width="25.779947" height="241.37962" x="130.33699" y="1.094487"/>
      <rect style="font-size:12px;fill:#ff0000;fill-opacity:1;fill-rule:evenodd;stroke-width:1pt" id="rect575" width="286.44406" height="24.137976" x="0.0049339999" y="109.71532"/>
    </g>
    <g transform="matrix(0.8656228,0,0,0.8656228,-61.259702,103.94337)" id="g8203">
      <g transform="matrix(1.026601,0,0,1.032127,-9.9878156e-4,4.455906e-4)" id="g591">
        <polygon d="m 519.06818,108.72801 -22.02531,-16.19344 -22.83816,15.02531 8.59468,-25.951362 -21.3473,-17.077307 27.33711,0.154617 9.64481,-25.579666 8.30058,26.04692 27.30812,1.268204 -22.20707,15.943265 z" transform="translate(0,-1.966187)" points="519.068,108.728 497.043,92.5346 474.205,107.56 482.799,81.6085 461.452,64.5312 488.789,64.6858 498.434,39.1062 506.735,65.1531 534.043,66.4213 511.836,82.3645 519.068,108.728 " sodipodi:arg2="1.596828" sodipodi:arg1="0.96850938" sodipodi:r2="15.270433" sodipodi:r1="38.176083" sodipodi:cy="77.26931" sodipodi:cx="497.44034" sodipodi:sides="5" id="polygon589" style="font-size:12px;fill:#ffffff;fill-opacity:1;fill-rule:evenodd;stroke-width:1pt" sodipodi:type="star" inkscape:flatsided="false" inkscape:rounded="0" inkscape:randomized="0"/>
        <polygon d="m 511.20355,91.032508 -13.4698,-8.733191 -12.86977,9.595493 4.14336,-15.509251 -13.10283,-9.274702 16.03054,-0.852053 4.77177,-15.327575 5.76406,14.982654 16.05195,-0.19826 -12.46816,10.111842 z" transform="matrix(0.99883,0.04836373,-0.04836373,0.99883,4.035646,-21.99739)" points="511.204,91.0325 497.734,82.2993 484.864,91.8948 489.007,76.3856 475.905,67.1109 491.935,66.2588 496.707,50.9312 502.471,65.9139 518.523,65.7156 506.055,75.8275 511.204,91.0325 " sodipodi:arg2="1.5380701" sodipodi:arg1="0.90975159" sodipodi:r2="8.9671125" sodipodi:r1="22.41778" sodipodi:cy="73.337006" sodipodi:cx="497.44034" sodipodi:sides="5" id="polygon590" style="font-size:12px;fill:#ff0000;fill-opacity:1;fill-rule:evenodd;stroke-width:1pt" sodipodi:type="star" inkscape:flatsided="false" inkscape:rounded="0" inkscape:randomized="0"/>
      </g>
      <g transform="matrix(1.026601,0,0,1.032127,-86.795213,144.08306)" id="g594">
        <polygon d="m 519.06818,108.72801 -22.02531,-16.19344 -22.83816,15.02531 8.59468,-25.951362 -21.3473,-17.077307 27.33711,0.154617 9.64481,-25.579666 8.30058,26.04692 27.30812,1.268204 -22.20707,15.943265 z" transform="translate(0,-1.966187)" points="519.068,108.728 497.043,92.5346 474.205,107.56 482.799,81.6085 461.452,64.5312 488.789,64.6858 498.434,39.1062 506.735,65.1531 534.043,66.4213 511.836,82.3645 519.068,108.728 " sodipodi:arg2="1.596828" sodipodi:arg1="0.96850938" sodipodi:r2="15.270433" sodipodi:r1="38.176083" sodipodi:cy="77.26931" sodipodi:cx="497.44034" sodipodi:sides="5" id="polygon595" style="font-size:12px;fill:#ffffff;fill-opacity:1;fill-rule:evenodd;stroke-width:1pt" sodipodi:type="star" inkscape:flatsided="false" inkscape:rounded="0" inkscape:randomized="0"/>
        <polygon d="m 511.20355,91.032508 -13.4698,-8.733191 -12.86977,9.595493 4.14336,-15.509251 -13.10283,-9.274702 16.03054,-0.852053 4.77177,-15.327575 5.76406,14.982654 16.05195,-0.19826 -12.46816,10.111842 z" transform="matrix(0.99883,0.04836373,-0.04836373,0.99883,4.035646,-21.99739)" points="511.204,91.0325 497.734,82.2993 484.864,91.8948 489.007,76.3856 475.905,67.1109 491.935,66.2588 496.707,50.9312 502.471,65.9139 518.523,65.7156 506.055,75.8275 511.204,91.0325 " sodipodi:arg2="1.5380701" sodipodi:arg1="0.90975159" sodipodi:r2="8.9671125" sodipodi:r1="22.41778" sodipodi:cy="73.337006" sodipodi:cx="497.44034" sodipodi:sides="5" id="polygon596" style="font-size:12px;fill:#ff0000;fill-opacity:1;fill-rule:evenodd;stroke-width:1pt" sodipodi:type="star" inkscape:flatsided="false" inkscape:rounded="0" inkscape:randomized="0"/>
      </g>
      <g transform="matrix(1.026601,0,0,1.032127,90.830087,129.87779)" id="g597">
        <polygon d="m 519.06818,108.72801 -22.02531,-16.19344 -22.83816,15.02531 8.59468,-25.951362 -21.3473,-17.077307 27.33711,0.154617 9.64481,-25.579666 8.30058,26.04692 27.30812,1.268204 -22.20707,15.943265 z" transform="translate(0,-1.966187)" points="519.068,108.728 497.043,92.5346 474.205,107.56 482.799,81.6085 461.452,64.5312 488.789,64.6858 498.434,39.1062 506.735,65.1531 534.043,66.4213 511.836,82.3645 519.068,108.728 " sodipodi:arg2="1.596828" sodipodi:arg1="0.96850938" sodipodi:r2="15.270433" sodipodi:r1="38.176083" sodipodi:cy="77.26931" sodipodi:cx="497.44034" sodipodi:sides="5" id="polygon598" style="font-size:12px;fill:#ffffff;fill-opacity:1;fill-rule:evenodd;stroke-width:1pt" sodipodi:type="star" inkscape:flatsided="false" inkscape:rounded="0" inkscape:randomized="0"/>
        <polygon d="m 511.20355,91.032508 -13.4698,-8.733191 -12.86977,9.595493 4.14336,-15.509251 -13.10283,-9.274702 16.03054,-0.852053 4.77177,-15.327575 5.76406,14.982654 16.05195,-0.19826 -12.46816,10.111842 z" transform="matrix(0.99883,0.04836373,-0.04836373,0.99883,4.035646,-21.99739)" points="511.204,91.0325 497.734,82.2993 484.864,91.8948 489.007,76.3856 475.905,67.1109 491.935,66.2588 496.707,50.9312 502.471,65.9139 518.523,65.7156 506.055,75.8275 511.204,91.0325 " sodipodi:arg2="1.5380701" sodipodi:arg1="0.90975159" sodipodi:r2="8.9671125" sodipodi:r1="22.41778" sodipodi:cy="73.337006" sodipodi:cx="497.44034" sodipodi:sides="5" id="polygon599" style="font-size:12px;fill:#ff0000;fill-opacity:1;fill-rule:evenodd;stroke-width:1pt" sodipodi:type="star" inkscape:flatsided="false" inkscape:rounded="0" inkscape:randomized="0"/>
      </g>
      <g transform="matrix(1.026601,0,0,1.032127,-2.019471,334.84036)" id="g600">
        <polygon d="m 519.06818,108.72801 -22.02531,-16.19344 -22.83816,15.02531 8.59468,-25.951362 -21.3473,-17.077307 27.33711,0.154617 9.64481,-25.579666 8.30058,26.04692 27.30812,1.268204 -22.20707,15.943265 z" transform="translate(0,-1.966187)" points="519.068,108.728 497.043,92.5346 474.205,107.56 482.799,81.6085 461.452,64.5312 488.789,64.6858 498.434,39.1062 506.735,65.1531 534.043,66.4213 511.836,82.3645 519.068,108.728 " sodipodi:arg2="1.596828" sodipodi:arg1="0.96850938" sodipodi:r2="15.270433" sodipodi:r1="38.176083" sodipodi:cy="77.26931" sodipodi:cx="497.44034" sodipodi:sides="5" id="polygon601" style="font-size:12px;fill:#ffffff;fill-opacity:1;fill-rule:evenodd;stroke-width:1pt" sodipodi:type="star" inkscape:flatsided="false" inkscape:rounded="0" inkscape:randomized="0"/>
        <polygon d="m 511.20355,91.032508 -13.4698,-8.733191 -12.86977,9.595493 4.14336,-15.509251 -13.10283,-9.274702 16.03054,-0.852053 4.77177,-15.327575 5.76406,14.982654 16.05195,-0.19826 -12.46816,10.111842 z" transform="matrix(0.99883,0.04836373,-0.04836373,0.99883,4.035646,-21.99739)" points="511.204,91.0325 497.734,82.2993 484.864,91.8948 489.007,76.3856 475.905,67.1109 491.935,66.2588 496.707,50.9312 502.471,65.9139 518.523,65.7156 506.055,75.8275 511.204,91.0325 " sodipodi:arg2="1.5380701" sodipodi:arg1="0.90975159" sodipodi:r2="8.9671125" sodipodi:r1="22.41778" sodipodi:cy="73.337006" sodipodi:cx="497.44034" sodipodi:sides="5" id="polygon602" style="font-size:12px;fill:#ff0000;fill-opacity:1;fill-rule:evenodd;stroke-width:1pt" sodipodi:type="star" inkscape:flatsided="false" inkscape:rounded="0" inkscape:randomized="0"/>
      </g>
    </g>
  </g></g>
  <g id="02" inkscape:label="02" style="display:inline" transform="translate(0,38)">
    <path sodipodi:nodetypes="sscssscss" inkscape:connector-curvature="0" id="path3862-8" d="m 214.21087,111.21099 c -45.24514,0.18809 -68.71568,7.73077 -64.09352,83.5526 l 2.8252,46.34456 c 47.4743,5.51239 56.66416,18.44506 104.35936,21.91413 68.07337,4.95126 67.93728,5.42092 130.56477,-14.38414 62.62753,-19.80506 5.82485,-65.24698 207.32205,-57.8201 4.60334,0.16968 17.3137,-3.05269 27.46187,-12.15043 5.5817,-46.52389 -2.78415,-69.14289 -66.93352,-68.87623 z" style="color:#000000;fill:url(#linearGradient5125);fill-opacity:1;fill-rule:nonzero;stroke:none;stroke-width:1.62399995;marker:none;visibility:visible;overflow:visible;enable-background:accumulate"/>
    <path inkscape:connector-curvature="0" id="path3079-9" d="m 531.03278,495.17335 c -31.60486,19.02245 -27.60116,31.26037 -37.91323,32.57276 -94.70417,12.0527 -145.97722,-0.72701 -165.79583,-12.06122 -59.58792,-34.07817 -68.46788,-13.01421 -100.22126,-16.5742 -20.11475,-2.25514 -59.24503,12.98404 -73.38763,44.34434 3.47222,27.60795 18.11064,32.09835 44.28127,31.98612 l 356.05526,-1.52684 c 69.69188,-0.29885 56.33547,-8.49265 65.54301,-56.03861 -14.77205,-21.67074 -13.15664,9.10903 -44.2237,-30.71666 z" style="color:#000000;fill:url(#linearGradient5122);fill-opacity:1;fill-rule:nonzero;stroke:none;stroke-width:1.62399994999999997;marker:none;visibility:visible;overflow:visible;enable-background:accumulate" sodipodi:nodetypes="cssscssccc"/>
    <rect id="rect5734" height="512" x="0" style="fill:none;stroke:#000000;stroke-width:20;stroke-miterlimit:4;stroke-opacity:1;stroke-dasharray:none;display:inline;filter:url(#filter5740)" width="512" y="0" ry="57" inkscape:label="#rect4203" transform="translate(128,90)" clip-path="url(#clipPath5796)"/>
  </g></g>
</svg>
