<?xml version="1.0" encoding="UTF-8" standalone="no"?>
<svg xmlns:dc="http://purl.org/dc/elements/1.1/" xmlns:cc="http://creativecommons.org/ns#" xmlns:rdf="http://www.w3.org/1999/02/22-rdf-syntax-ns#" xmlns:svg="http://www.w3.org/2000/svg" xmlns="http://www.w3.org/2000/svg" xmlns:xlink="http://www.w3.org/1999/xlink" xmlns:sodipodi="http://sodipodi.sourceforge.net/DTD/sodipodi-0.dtd" xmlns:inkscape="http://www.inkscape.org/namespaces/inkscape" width="768" height="768" id="svg2" version="1.1" inkscape:version="0.48.1 r9760" sodipodi:docname="template.svg">
  <defs id="defs4">
    <clipPath clipPathUnits="userSpaceOnUse" id="clipPathFlag">
      <rect id="rect3918" height="511" x="0.5" style="fill:#000000;fill-opacity:0.67000002;stroke:none" width="511" y="0.5" ry="57"/>
    </clipPath>
    <linearGradient id="linearGradient3852" inkscape:collect="always">
      <stop id="stop3854" offset="0" style="stop-color:#dbe3db;stop-opacity:1;"/>
      <stop id="stop3856" offset="1" style="stop-color:#dbe3db;stop-opacity:0;"/>
    </linearGradient>
    <linearGradient inkscape:collect="always" xlink:href="#linearGradient3852" id="linearGradient3070" gradientUnits="userSpaceOnUse" x1="339.54913" y1="646.63617" x2="345.74551" y2="566.63617" gradientTransform="matrix(0.93191514,0,0,0.93191514,7.9467803,7.2318863)"/>
    <clipPath id="clipPath3882" clipPathUnits="userSpaceOnUse">
      <path sodipodi:type="inkscape:offset" inkscape:radius="11.844458" inkscape:original="M 243.75 118.0625 C 179.93919 118.0625 128.5625 169.43919 128.5625 233.25 L 128.5625 528.59375 C 128.5625 592.40456 179.93919 643.78125 243.75 643.78125 L 539.09375 643.78125 C 602.90456 643.78125 654.28125 592.40456 654.28125 528.59375 L 654.28125 233.25 C 654.28125 169.43919 602.90456 118.0625 539.09375 118.0625 L 243.75 118.0625 z " style="color:#000000;fill:none;stroke:none;stroke-width:20;marker:none;visibility:visible;display:inline;overflow:visible;enable-background:accumulate" id="path3884" d="m 243.75,106.21875 c -70.16845,0 -127.03125,56.8628 -127.03125,127.03125 l 0,295.34375 c 0,70.16845 56.8628,127.03125 127.03125,127.03125 l 295.34375,0 c 70.16845,0 127.03125,-56.8628 127.03125,-127.03125 l 0,-295.34375 c 0,-70.16845 -56.8628,-127.03125 -127.03125,-127.03125 l -295.34375,0 z"/>
    </clipPath>
    <linearGradient id="linearGradient3852-0" inkscape:collect="always">
      <stop id="stop3854-6" offset="0" style="stop-color:#dbe3db;stop-opacity:1;"/>
      <stop id="stop3856-1" offset="1" style="stop-color:#dbe3db;stop-opacity:0;"/>
    </linearGradient>
    <linearGradient inkscape:collect="always" xlink:href="#linearGradient3852-0" id="linearGradient3070-5" gradientUnits="userSpaceOnUse" x1="339.54913" y1="646.63617" x2="345.74551" y2="566.63617" gradientTransform="matrix(0.93191514,0,0,0.93191514,7.9467803,7.2318863)"/>
    <linearGradient inkscape:collect="always" xlink:href="#linearGradient3852-0" id="linearGradient5122" gradientUnits="userSpaceOnUse" gradientTransform="matrix(1.1571075,0,0,1.3166846,-91.204261,-253.98784)" x1="342.1882" y1="705.75824" x2="358.07608" y2="523.40735"/>
    <linearGradient inkscape:collect="always" xlink:href="#linearGradient3852-0" id="linearGradient5125" gradientUnits="userSpaceOnUse" gradientTransform="matrix(0.95302723,0,0,0.86647129,11.575117,-4.501603)" x1="405.2634" y1="118.06474" x2="405.74554" y2="360.92188"/>
    <clipPath clipPathUnits="userSpaceOnUse" id="clipPath5712">
      <rect mask="none" inkscape:label="#rect4203" ry="64.777054" y="0" width="512" style="fill:none;display:inline" x="0" height="512" id="rect5714"/>
    </clipPath>
    <filter inkscape:collect="always" id="filter5740">
      <feGaussianBlur inkscape:collect="always" stdDeviation="5.12" id="feGaussianBlur5742"/>
    </filter>
    <clipPath clipPathUnits="userSpaceOnUse" id="clipPath5796">
      <rect inkscape:label="#rect4203" ry="57" y="0" width="512" style="fill:none;stroke:#00fa00;stroke-width:20;stroke-miterlimit:4;stroke-opacity:1;stroke-dasharray:none;display:inline" x="0" height="512" id="rect5798"/>
    </clipPath>
    <filter inkscape:collect="always" id="filter5912">
      <feGaussianBlur inkscape:collect="always" stdDeviation="17.92" id="feGaussianBlur5914"/>
    </filter>
  </defs>
  <sodipodi:namedview id="base" pagecolor="#ffffff" bordercolor="#666666" borderopacity="1.0" inkscape:pageopacity="0.0" inkscape:pageshadow="2" inkscape:zoom="0.65494792" inkscape:cx="191.61829" inkscape:cy="384" inkscape:document-units="px" showgrid="false" inkscape:window-width="1280" inkscape:window-height="723" inkscape:window-x="0" inkscape:window-y="24" inkscape:window-maximized="1"/>

  <g id="template-button" inkscape:label="template-button" style="display:inline">
  &gt;
  <g inkscape:label="00" id="00" style="display:inline" transform="translate(90,90)">
    <rect inkscape:label="#rect4203" ry="57" y="56" width="512" style="fill:#000000;fill-opacity:1;stroke:#a8a8a8;stroke-width:5;stroke-miterlimit:4;stroke-opacity:1;stroke-dasharray:none;display:inline;filter:url(#filter5912)" x="38" height="512" id="shadow"/>
  </g>
  <g id="01" inkscape:label="01" style="display:inline" transform="translate(128,128)" clip-path="url(#clipPathFlag)">
    <rect id="mask" height="512" x="0" style="fill:#0000ff;fill-opacity:1;stroke:none" width="512" y="0" ry="57" inkscape:label="#rect4203"/>
  <g transform="matrix(1.0321278,0,0,1.0321278,-84,-4.128514e-4)" id="flag" clip-path="url(#clipPath6582)" inkscape:label="#g6536">
    <g id="g575">
      <path inkscape:connector-curvature="0" style="font-size:12px;fill-rule:evenodd;stroke:none" d="M 0.514263,4.67968e-4 0,496.063 l 659.05,0 L 0.514263,4.67968e-4 z" id="path572" sodipodi:nodetypes="cccc"/>
      <path inkscape:connector-curvature="0" style="font-size:12px;fill:#ff0000;fill-opacity:1;fill-rule:evenodd;stroke:none" d="M 0.514263,4.67968e-4 0,496.063 l 659.05,0 L 0.514263,4.67968e-4 z" id="path574" sodipodi:nodetypes="cccc" transform="matrix(-1,0,0,-1,659.05,496.0634)"/>
    </g>
    <g id="g578" transform="matrix(2.285971,0,0,2.285971,0,-1.525879e-5)" style="font-size:12px">
      <path inkscape:connector-curvature="0" id="selection_to_path" d="m 178,54 c 0,0 -3.84,-0.2 -3.84,-0.2 -1.18,-2.78 -4.513,-3.8233 -6.563,-2.6533 C 165.737,51.3067 156,51 156,51 c 0,0 7.12,3.12 7.12,3.12 1.76,4.76 7.88,5.88 7.88,5.88 -0.543,8.7748 -8.881,-1.1324 -15.881,3.8676 -5,3 -5.059,6.5828 -7.761,12.3708 C 146.523,77.8476 143,82 143,82 c 0,0 5.88,-0.5 5.88,-0.5 0,0 -1.88,2.5 -1.88,2.5 0,0 7,-1 7,-1 0,0 -0.94,0.7848 -1.5,1.38 1.037,0.2028 8,-1.63 8,-1.63 0,0 -0.5,2.25 -0.5,2.25 3.57,-1.43 8,-2.88 8,-2.88 0,0 1.57,1.31 3,1.88 0,0 1,-4 1,-4 0,0 4,1 4,1 0,0 1,-4 1,-4 6,8 8,16 19,18 0,0 -1,-4 -1,-4 3.06,1.31 8.74,4.09 8.74,4.09 0,0 0.86,-1.83 0.86,-1.83 4.77,3.42 8.73,3.36 11.4,3.74 0,0 -1.99,-4.98 -2,-5 0.13,0.05 1.99,1.01 2,1 0,0 -3,-8 -3,-8 0,0 3,1 3,1 0,0 -4,-6 -4,-6 0,0 1.5,-1 1.5,-1 0,0 -0.5,-3 -0.5,-3 6,2 14,5 15,12 1,11 -11,14 -19,13 6,5 17,3 22,-2 2,-2 3,-5 4,-8 1,3 3,7 3,11 -1,9 -13,12 -21,13 9,5 25,-1 26,-14 0,-11 -7,-16 -10,-21 -0.45,-1.82 -1,-5.38 -1,-5.38 0.388,0.1144 3,1.39 3,1.39 0,0 -1.77,-3.31 -2,-4.01 0,0 -3.12,-8.5 -4.25,-10.38 0.186,-0.1052 2.25,0.35 2.25,0.35 0,0 -8.19,-10.27 -8.19,-10.27 0,0 1.976,-0.1796 2.32,-0.24 0,0 -9.52,-7.51 -12.13,-8.46 0,0 3,-1 3,-1 -6,-3 -13,-1 -19,3 0,0 1,-3 1,-3 0,0 -1.83,0.17 -1.83,0.17 0,0 0,-3.43 0,-3.43 0,0 1.83,-2.74 1.83,-2.74 0,0 -3,-1 -3,-1 0,0 2,-5 2,-5 0,0 -3,1 -3,1 0,0 1,-5 1,-5 0,0 -2.24,1.04 -3.6,0.89 0.05,0.11 1.59,-3.42 1.59,-3.42 C 192.036,21.98 193,19 193,19 c -7,1 -8,2 -12,8 -6,11 -4,16 -3,27 z" sodipodi:nodetypes="ccccccccccccccccccccccccccccccccccccccccccccccccccccccccccccccc" style="fill:#ffcc00;fill-opacity:1;stroke:#ffcc00;stroke-width:1;stroke-opacity:1"/>
      <path inkscape:connector-curvature="0" style="fill:#ff0000;fill-opacity:1;fill-rule:evenodd;stroke:#ff0000;stroke-width:1pt;stroke-linecap:butt;stroke-linejoin:miter;stroke-opacity:1" d="m 215.782,70.438 c 0.521,0.8594 6.197,3.5937 10.468,6.0156 -1.146,-4.6093 -9.479,-5.625 -10.468,-6.0156 z" id="path566" sodipodi:nodetypes="ccc"/>
      <polygon inkscape:randomized="0" inkscape:rounded="0" inkscape:flatsided="false" sodipodi:type="star" style="font-size:12px;fill:#ffffff;fill-opacity:1;fill-rule:evenodd;stroke-width:1pt" id="polygon567" sodipodi:sides="5" sodipodi:cx="70.824211" sodipodi:cy="170.16096" sodipodi:r1="12.67197" sodipodi:r2="6.2779093" sodipodi:arg1="0.94039422" sodipodi:arg2="1.3931158" points="78.294,180.397 71.9338,176.34 63.3972,180.428 65.2905,173.126 58.7643,166.27 66.2946,165.814 70.7978,157.489 73.5585,164.51 82.8678,166.22 77.0437,171.015 78.294,180.397 " d="m 78.293953,180.39726 -6.36014,-4.05722 -8.536623,4.08826 1.893261,-7.3026 -6.526133,-6.85547 7.530239,-0.45603 4.503251,-8.32518 2.760683,7.02076 9.309295,1.71023 -5.824042,4.7951 z"/>
      <polygon inkscape:randomized="0" inkscape:rounded="0" inkscape:flatsided="false" sodipodi:type="star" style="font-size:12px;fill:#ffffff;fill-opacity:1;fill-rule:evenodd;stroke-width:1pt" id="polygon568" sodipodi:sides="5" sodipodi:cx="91.573486" sodipodi:cy="140.83533" sodipodi:r1="4.9257159" sodipodi:r2="2.462858" sodipodi:arg1="0.90482324" sodipodi:arg2="1.5331419" points="94.6167,144.708 91.6662,143.296 88.8303,144.926 89.2615,141.684 86.8349,139.491 90.0519,138.899 91.3881,135.913 92.9451,138.79 96.1975,139.138 93.9428,141.508 94.6167,144.708 " d="m 94.616715,144.7085 -2.950513,-1.41206 -2.835909,1.63004 0.431187,-3.24245 -2.426609,-2.1934 3.217001,-0.59189 1.336183,-2.98564 1.557028,2.87665 3.252415,0.34817 -2.254704,2.36975 z"/>
      <polygon inkscape:randomized="0" inkscape:rounded="0" inkscape:flatsided="false" sodipodi:type="star" style="font-size:12px;fill:#ffffff;fill-opacity:1;fill-rule:evenodd;stroke-width:1pt" id="polygon569" sodipodi:sides="5" sodipodi:cx="102.36312" sodipodi:cy="115.65951" sodipodi:r1="10.846242" sodipodi:r2="5.423121" sodipodi:arg1="0.91199213" sodipodi:arg2="1.5403106" points="109.003,124.236 102.528,121.08 96.2583,124.625 97.2589,117.492 91.9504,112.624 99.0432,111.371 102.033,104.818 105.416,111.177 112.572,111.995 107.57,117.177 109.003,124.236 " d="m 109.00288,124.2359 -6.47446,-3.15579 -6.270134,3.54444 1.000618,-7.13277 -5.308541,-4.86797 7.092876,-1.2525 2.989281,-6.553 3.38302,6.35868 7.15601,0.81798 -5.00205,5.18238 z"/>
      <polygon inkscape:randomized="0" inkscape:rounded="0" inkscape:flatsided="false" sodipodi:type="star" style="font-size:12px;fill:#ffffff;fill-opacity:1;fill-rule:evenodd;stroke-width:1pt" id="polygon570" sodipodi:sides="5" sodipodi:cx="71.654182" sodipodi:cy="85.503906" sodipodi:r1="12.83698" sodipodi:r2="6.4184899" sodipodi:arg1="0.92298394" sodipodi:arg2="1.5513024" points="79.4006,95.7402 71.7793,91.9212 64.3127,96.0343 65.5897,87.6059 59.3705,81.7758 67.781,80.3858 71.404,72.6694 75.3249,80.2387 83.7832,81.2998 77.796,87.368 79.4006,95.7402 " d="m 79.400574,95.740189 -7.621278,-3.819012 -7.46663,4.11317 1.276992,-8.428405 -6.219173,-5.830148 8.410501,-1.390029 3.62297,-7.7164 3.920984,7.56932 8.458292,1.061151 -5.9872,6.068126 z"/>
      <polygon inkscape:randomized="0" inkscape:rounded="0" inkscape:flatsided="false" sodipodi:type="star" style="font-size:12px;fill:#ffffff;fill-opacity:1;fill-rule:evenodd;stroke-width:1pt" id="polygon571" sodipodi:sides="5" sodipodi:cx="43.158501" sodipodi:cy="114.82954" sodipodi:r1="13.058678" sodipodi:r2="5.9499664" sodipodi:arg1="0.93576926" sodipodi:arg2="1.5606979" points="50.9049,125.343 43.2186,120.779 35.5538,125.445 37.5186,116.725 30.7122,110.878 39.6128,110.051 43.0709,101.771 46.607,109.981 55.5507,110.711 48.8355,116.611 50.9049,125.343 " transform="translate(1.106625,-1.525879e-5)" d="m 50.904899,125.3425 -7.686314,-4.5633 -7.664737,4.66628 1.964754,-8.72025 -6.806433,-5.84764 8.900598,-0.82612 3.45813,-8.28032 3.536119,8.20969 8.943675,0.73012 -6.715157,5.89998 z"/>
    </g>
  </g></g>
  <g id="02" inkscape:label="02" style="display:inline" transform="translate(0,38)">
    <path sodipodi:nodetypes="sscssscss" inkscape:connector-curvature="0" id="path3862-8" d="m 214.21087,111.21099 c -45.24514,0.18809 -68.71568,7.73077 -64.09352,83.5526 l 2.8252,46.34456 c 47.4743,5.51239 56.66416,18.44506 104.35936,21.91413 68.07337,4.95126 67.93728,5.42092 130.56477,-14.38414 62.62753,-19.80506 5.82485,-65.24698 207.32205,-57.8201 4.60334,0.16968 17.3137,-3.05269 27.46187,-12.15043 5.5817,-46.52389 -2.78415,-69.14289 -66.93352,-68.87623 z" style="color:#000000;fill:url(#linearGradient5125);fill-opacity:1;fill-rule:nonzero;stroke:none;stroke-width:1.62399995;marker:none;visibility:visible;overflow:visible;enable-background:accumulate"/>
    <path inkscape:connector-curvature="0" id="path3079-9" d="m 531.03278,495.17335 c -31.60486,19.02245 -27.60116,31.26037 -37.91323,32.57276 -94.70417,12.0527 -145.97722,-0.72701 -165.79583,-12.06122 -59.58792,-34.07817 -68.46788,-13.01421 -100.22126,-16.5742 -20.11475,-2.25514 -59.24503,12.98404 -73.38763,44.34434 3.47222,27.60795 18.11064,32.09835 44.28127,31.98612 l 356.05526,-1.52684 c 69.69188,-0.29885 56.33547,-8.49265 65.54301,-56.03861 -14.77205,-21.67074 -13.15664,9.10903 -44.2237,-30.71666 z" style="color:#000000;fill:url(#linearGradient5122);fill-opacity:1;fill-rule:nonzero;stroke:none;stroke-width:1.62399994999999997;marker:none;visibility:visible;overflow:visible;enable-background:accumulate" sodipodi:nodetypes="cssscssccc"/>
    <rect id="rect5734" height="512" x="0" style="fill:none;stroke:#000000;stroke-width:20;stroke-miterlimit:4;stroke-opacity:1;stroke-dasharray:none;display:inline;filter:url(#filter5740)" width="512" y="0" ry="57" inkscape:label="#rect4203" transform="translate(128,90)" clip-path="url(#clipPath5796)"/>
  </g></g>
</svg>
