<?xml version="1.0" encoding="UTF-8" standalone="no"?>
<svg xmlns:dc="http://purl.org/dc/elements/1.1/" xmlns:cc="http://creativecommons.org/ns#" xmlns:rdf="http://www.w3.org/1999/02/22-rdf-syntax-ns#" xmlns:svg="http://www.w3.org/2000/svg" xmlns="http://www.w3.org/2000/svg" xmlns:xlink="http://www.w3.org/1999/xlink" xmlns:sodipodi="http://sodipodi.sourceforge.net/DTD/sodipodi-0.dtd" xmlns:inkscape="http://www.inkscape.org/namespaces/inkscape" width="768" height="768" id="svg2" version="1.1" inkscape:version="0.48.1 r9760" sodipodi:docname="template.svg">
  <defs id="defs4">
    <clipPath clipPathUnits="userSpaceOnUse" id="clipPathFlag">
      <rect id="rect3918" height="511" x="0.5" style="fill:#000000;fill-opacity:0.67000002;stroke:none" width="511" y="0.5" ry="57"/>
    </clipPath>
    <linearGradient id="linearGradient3852" inkscape:collect="always">
      <stop id="stop3854" offset="0" style="stop-color:#dbe3db;stop-opacity:1;"/>
      <stop id="stop3856" offset="1" style="stop-color:#dbe3db;stop-opacity:0;"/>
    </linearGradient>
    <linearGradient inkscape:collect="always" xlink:href="#linearGradient3852" id="linearGradient3070" gradientUnits="userSpaceOnUse" x1="339.54913" y1="646.63617" x2="345.74551" y2="566.63617" gradientTransform="matrix(0.93191514,0,0,0.93191514,7.9467803,7.2318863)"/>
    <clipPath id="clipPath3882" clipPathUnits="userSpaceOnUse">
      <path sodipodi:type="inkscape:offset" inkscape:radius="11.844458" inkscape:original="M 243.75 118.0625 C 179.93919 118.0625 128.5625 169.43919 128.5625 233.25 L 128.5625 528.59375 C 128.5625 592.40456 179.93919 643.78125 243.75 643.78125 L 539.09375 643.78125 C 602.90456 643.78125 654.28125 592.40456 654.28125 528.59375 L 654.28125 233.25 C 654.28125 169.43919 602.90456 118.0625 539.09375 118.0625 L 243.75 118.0625 z " style="color:#000000;fill:none;stroke:none;stroke-width:20;marker:none;visibility:visible;display:inline;overflow:visible;enable-background:accumulate" id="path3884" d="m 243.75,106.21875 c -70.16845,0 -127.03125,56.8628 -127.03125,127.03125 l 0,295.34375 c 0,70.16845 56.8628,127.03125 127.03125,127.03125 l 295.34375,0 c 70.16845,0 127.03125,-56.8628 127.03125,-127.03125 l 0,-295.34375 c 0,-70.16845 -56.8628,-127.03125 -127.03125,-127.03125 l -295.34375,0 z"/>
    </clipPath>
    <linearGradient id="linearGradient3852-0" inkscape:collect="always">
      <stop id="stop3854-6" offset="0" style="stop-color:#dbe3db;stop-opacity:1;"/>
      <stop id="stop3856-1" offset="1" style="stop-color:#dbe3db;stop-opacity:0;"/>
    </linearGradient>
    <linearGradient inkscape:collect="always" xlink:href="#linearGradient3852-0" id="linearGradient3070-5" gradientUnits="userSpaceOnUse" x1="339.54913" y1="646.63617" x2="345.74551" y2="566.63617" gradientTransform="matrix(0.93191514,0,0,0.93191514,7.9467803,7.2318863)"/>
    <linearGradient inkscape:collect="always" xlink:href="#linearGradient3852-0" id="linearGradient5122" gradientUnits="userSpaceOnUse" gradientTransform="matrix(1.1571075,0,0,1.3166846,-91.204261,-253.98784)" x1="342.1882" y1="705.75824" x2="358.07608" y2="523.40735"/>
    <linearGradient inkscape:collect="always" xlink:href="#linearGradient3852-0" id="linearGradient5125" gradientUnits="userSpaceOnUse" gradientTransform="matrix(0.95302723,0,0,0.86647129,11.575117,-4.501603)" x1="405.2634" y1="118.06474" x2="405.74554" y2="360.92188"/>
    <clipPath clipPathUnits="userSpaceOnUse" id="clipPath5712">
      <rect mask="none" inkscape:label="#rect4203" ry="64.777054" y="0" width="512" style="fill:none;display:inline" x="0" height="512" id="rect5714"/>
    </clipPath>
    <filter inkscape:collect="always" id="filter5740">
      <feGaussianBlur inkscape:collect="always" stdDeviation="5.12" id="feGaussianBlur5742"/>
    </filter>
    <clipPath clipPathUnits="userSpaceOnUse" id="clipPath5796">
      <rect inkscape:label="#rect4203" ry="57" y="0" width="512" style="fill:none;stroke:#00fa00;stroke-width:20;stroke-miterlimit:4;stroke-opacity:1;stroke-dasharray:none;display:inline" x="0" height="512" id="rect5798"/>
    </clipPath>
    <filter inkscape:collect="always" id="filter5912">
      <feGaussianBlur inkscape:collect="always" stdDeviation="17.92" id="feGaussianBlur5914"/>
    </filter>
  </defs>
  <sodipodi:namedview id="base" pagecolor="#ffffff" bordercolor="#666666" borderopacity="1.0" inkscape:pageopacity="0.0" inkscape:pageshadow="2" inkscape:zoom="0.65494792" inkscape:cx="191.61829" inkscape:cy="384" inkscape:document-units="px" showgrid="false" inkscape:window-width="1280" inkscape:window-height="723" inkscape:window-x="0" inkscape:window-y="24" inkscape:window-maximized="1"/>

  <g id="template-button" inkscape:label="template-button" style="display:inline">
  &gt;
  <g inkscape:label="00" id="00" style="display:inline" transform="translate(90,90)">
    <rect inkscape:label="#rect4203" ry="57" y="56" width="512" style="fill:#000000;fill-opacity:1;stroke:#a8a8a8;stroke-width:5;stroke-miterlimit:4;stroke-opacity:1;stroke-dasharray:none;display:inline;filter:url(#filter5912)" x="38" height="512" id="shadow"/>
  </g>
  <g id="01" inkscape:label="01" style="display:inline" transform="translate(128,128)" clip-path="url(#clipPathFlag)">
    <rect id="mask" height="512" x="0" style="fill:#0000ff;fill-opacity:1;stroke:none" width="512" y="0" ry="57" inkscape:label="#rect4203"/>
  <g transform="matrix(1.032127,0,0,1.032127,-256,-3.9057617e-6)" id="flag" clip-path="url(#clipPath4390)" inkscape:label="#g4359">
    <rect style="font-size:12px;fill:#009af4;fill-opacity:1;fill-rule:evenodd;stroke-width:1pt" id="rect1242" width="744.09448" height="248.03149" x="0" y="-8e-06"/>
    <rect style="font-size:12px;fill:#1c8f31;fill-opacity:1;fill-rule:evenodd;stroke-width:1pt" id="rect1243" width="744.09448" height="124.01575" x="0" y="372.04724"/>
    <rect style="font-size:12px;fill:#efef00;fill-opacity:1;fill-rule:evenodd;stroke-width:1pt" id="rect1244" width="744.09448" height="124.01576" x="0" y="248.03148"/>
    <polygon d="m 673.45575,171.0214 -36.01357,-19.86386 21.41117,35.11569 -29.64529,-28.50802 11.593,39.46077 -21.25673,-35.20939 0.98477,41.11667 -11.41956,-39.51131 -9.69056,39.97053 -0.80418,-41.1206 -19.70549,36.10047 9.86602,-39.92758 -28.37753,29.77021 19.86386,-36.01356 -35.11569,21.41117 28.50801,-29.64529 -39.46077,11.593 35.2094,-21.25674 -41.11667,0.98478 39.51131,-11.41957 -39.97053,-9.69055 41.12059,-0.80418 -36.10046,-19.705493 39.92758,9.866023 -29.77022,-28.377535 36.01357,19.863862 -21.41117,-35.115691 29.64529,28.508014 -11.593,-39.460771 21.25673,35.209392 -0.98477,-41.116666 11.41956,39.511308 9.69056,-39.970528 0.80418,41.120594 19.70549,-36.100464 -9.86602,39.927579 28.37753,-29.770213 -19.86386,36.013566 35.11569,-21.411173 -28.50801,29.645286 39.46077,-11.592993 -35.20939,21.256733 41.11666,-0.98477 -39.51131,11.41956 39.97053,9.69056 -41.12059,0.80417 36.10046,19.7055 -39.92758,-9.86602 z" inkscape:randomized="0" inkscape:rounded="0" inkscape:flatsided="false" sodipodi:type="star" style="font-size:12px;fill:#ffda00;fill-opacity:1;fill-rule:evenodd;stroke-width:1pt" id="polygon1249" sodipodi:sides="24" sodipodi:cx="608.22998" sodipodi:cy="123.18922" sodipodi:r1="80.884598" sodipodi:r2="40.442299" sodipodi:arg1="0.63274837" sodipodi:arg2="0.76364803" points="673.456,171.021 637.442,151.158 658.853,186.273 629.208,157.765 640.801,197.226 619.544,162.017 620.529,203.133 609.11,163.622 599.419,203.592 598.615,162.472 578.909,198.572 588.775,158.645 560.398,188.415 580.262,152.401 545.146,173.813 573.654,144.167 534.193,155.76 569.403,134.504 528.286,135.488 567.797,124.069 527.827,114.378 568.947,113.574 532.847,93.8686 572.774,103.735 543.004,75.357 579.018,95.2209 557.607,60.1052 587.252,88.6132 575.659,49.1525 596.916,84.3618 595.931,43.2452 607.35,82.7565 617.041,42.786 617.845,83.9066 637.551,47.8061 627.685,87.7337 656.062,57.9635 636.198,93.977 671.314,72.5658 642.806,102.211 682.267,90.6181 647.057,111.875 688.174,110.89 648.663,122.31 688.633,132 647.513,132.804 683.613,152.51 643.686,142.644 673.456,171.021 " transform="translate(2.174187,1.630615)"/>
    <path sodipodi:type="arc" style="fill:#0098f6;fill-opacity:1;fill-rule:evenodd;stroke:none" id="path1251" d="m 639.75583,123.18922 c 0,17.11102 -13.87124,30.98224 -30.98227,30.98224 -17.11104,0 -30.98227,-13.87122 -30.98227,-30.98224 0,-17.11102 13.87123,-30.982246 30.98227,-30.982246 17.11103,0 30.98227,13.871226 30.98227,30.982246 z" sodipodi:cx="608.77356" sodipodi:cy="123.18922" sodipodi:rx="30.982269" sodipodi:ry="30.982243" transform="matrix(1.012406,0,0,1.012406,-5.921838,0.102333)"/>
    <path sodipodi:type="arc" style="fill:#ffd900;fill-opacity:1;fill-rule:evenodd;stroke:none" id="path1250" d="m 639.75583,123.18922 c 0,17.11102 -13.87124,30.98224 -30.98227,30.98224 -17.11104,0 -30.98227,-13.87122 -30.98227,-30.98224 0,-17.11102 13.87123,-30.982246 30.98227,-30.982246 17.11103,0 30.98227,13.871226 30.98227,30.982246 z" sodipodi:cx="608.77356" sodipodi:cy="123.18922" sodipodi:rx="30.982269" sodipodi:ry="30.982243" transform="matrix(0.813919,0,0,0.825781,114.9118,23.09256)"/>
  </g></g>
  <g id="02" inkscape:label="02" style="display:inline" transform="translate(0,38)">
    <path sodipodi:nodetypes="sscssscss" inkscape:connector-curvature="0" id="path3862-8" d="m 214.21087,111.21099 c -45.24514,0.18809 -68.71568,7.73077 -64.09352,83.5526 l 2.8252,46.34456 c 47.4743,5.51239 56.66416,18.44506 104.35936,21.91413 68.07337,4.95126 67.93728,5.42092 130.56477,-14.38414 62.62753,-19.80506 5.82485,-65.24698 207.32205,-57.8201 4.60334,0.16968 17.3137,-3.05269 27.46187,-12.15043 5.5817,-46.52389 -2.78415,-69.14289 -66.93352,-68.87623 z" style="color:#000000;fill:url(#linearGradient5125);fill-opacity:1;fill-rule:nonzero;stroke:none;stroke-width:1.62399995;marker:none;visibility:visible;overflow:visible;enable-background:accumulate"/>
    <path inkscape:connector-curvature="0" id="path3079-9" d="m 531.03278,495.17335 c -31.60486,19.02245 -27.60116,31.26037 -37.91323,32.57276 -94.70417,12.0527 -145.97722,-0.72701 -165.79583,-12.06122 -59.58792,-34.07817 -68.46788,-13.01421 -100.22126,-16.5742 -20.11475,-2.25514 -59.24503,12.98404 -73.38763,44.34434 3.47222,27.60795 18.11064,32.09835 44.28127,31.98612 l 356.05526,-1.52684 c 69.69188,-0.29885 56.33547,-8.49265 65.54301,-56.03861 -14.77205,-21.67074 -13.15664,9.10903 -44.2237,-30.71666 z" style="color:#000000;fill:url(#linearGradient5122);fill-opacity:1;fill-rule:nonzero;stroke:none;stroke-width:1.62399994999999997;marker:none;visibility:visible;overflow:visible;enable-background:accumulate" sodipodi:nodetypes="cssscssccc"/>
    <rect id="rect5734" height="512" x="0" style="fill:none;stroke:#000000;stroke-width:20;stroke-miterlimit:4;stroke-opacity:1;stroke-dasharray:none;display:inline;filter:url(#filter5740)" width="512" y="0" ry="57" inkscape:label="#rect4203" transform="translate(128,90)" clip-path="url(#clipPath5796)"/>
  </g></g>
</svg>
