<?xml version="1.0" encoding="UTF-8" standalone="no"?>
<svg xmlns:dc="http://purl.org/dc/elements/1.1/" xmlns:cc="http://creativecommons.org/ns#" xmlns:rdf="http://www.w3.org/1999/02/22-rdf-syntax-ns#" xmlns:svg="http://www.w3.org/2000/svg" xmlns="http://www.w3.org/2000/svg" xmlns:xlink="http://www.w3.org/1999/xlink" xmlns:sodipodi="http://sodipodi.sourceforge.net/DTD/sodipodi-0.dtd" xmlns:inkscape="http://www.inkscape.org/namespaces/inkscape" width="768" height="768" id="svg2" version="1.1" inkscape:version="0.48.1 r9760" sodipodi:docname="template.svg">
  <defs id="defs4">
    <clipPath clipPathUnits="userSpaceOnUse" id="clipPathFlag">
      <rect id="rect3918" height="511" x="0.5" style="fill:#000000;fill-opacity:0.67000002;stroke:none" width="511" y="0.5" ry="57"/>
    </clipPath>
    <linearGradient id="linearGradient3852" inkscape:collect="always">
      <stop id="stop3854" offset="0" style="stop-color:#dbe3db;stop-opacity:1;"/>
      <stop id="stop3856" offset="1" style="stop-color:#dbe3db;stop-opacity:0;"/>
    </linearGradient>
    <linearGradient inkscape:collect="always" xlink:href="#linearGradient3852" id="linearGradient3070" gradientUnits="userSpaceOnUse" x1="339.54913" y1="646.63617" x2="345.74551" y2="566.63617" gradientTransform="matrix(0.93191514,0,0,0.93191514,7.9467803,7.2318863)"/>
    <clipPath id="clipPath3882" clipPathUnits="userSpaceOnUse">
      <path sodipodi:type="inkscape:offset" inkscape:radius="11.844458" inkscape:original="M 243.75 118.0625 C 179.93919 118.0625 128.5625 169.43919 128.5625 233.25 L 128.5625 528.59375 C 128.5625 592.40456 179.93919 643.78125 243.75 643.78125 L 539.09375 643.78125 C 602.90456 643.78125 654.28125 592.40456 654.28125 528.59375 L 654.28125 233.25 C 654.28125 169.43919 602.90456 118.0625 539.09375 118.0625 L 243.75 118.0625 z " style="color:#000000;fill:none;stroke:none;stroke-width:20;marker:none;visibility:visible;display:inline;overflow:visible;enable-background:accumulate" id="path3884" d="m 243.75,106.21875 c -70.16845,0 -127.03125,56.8628 -127.03125,127.03125 l 0,295.34375 c 0,70.16845 56.8628,127.03125 127.03125,127.03125 l 295.34375,0 c 70.16845,0 127.03125,-56.8628 127.03125,-127.03125 l 0,-295.34375 c 0,-70.16845 -56.8628,-127.03125 -127.03125,-127.03125 l -295.34375,0 z"/>
    </clipPath>
    <linearGradient id="linearGradient3852-0" inkscape:collect="always">
      <stop id="stop3854-6" offset="0" style="stop-color:#dbe3db;stop-opacity:1;"/>
      <stop id="stop3856-1" offset="1" style="stop-color:#dbe3db;stop-opacity:0;"/>
    </linearGradient>
    <linearGradient inkscape:collect="always" xlink:href="#linearGradient3852-0" id="linearGradient3070-5" gradientUnits="userSpaceOnUse" x1="339.54913" y1="646.63617" x2="345.74551" y2="566.63617" gradientTransform="matrix(0.93191514,0,0,0.93191514,7.9467803,7.2318863)"/>
    <linearGradient inkscape:collect="always" xlink:href="#linearGradient3852-0" id="linearGradient5122" gradientUnits="userSpaceOnUse" gradientTransform="matrix(1.1571075,0,0,1.3166846,-91.204261,-253.98784)" x1="342.1882" y1="705.75824" x2="358.07608" y2="523.40735"/>
    <linearGradient inkscape:collect="always" xlink:href="#linearGradient3852-0" id="linearGradient5125" gradientUnits="userSpaceOnUse" gradientTransform="matrix(0.95302723,0,0,0.86647129,11.575117,-4.501603)" x1="405.2634" y1="118.06474" x2="405.74554" y2="360.92188"/>
    <clipPath clipPathUnits="userSpaceOnUse" id="clipPath5712">
      <rect mask="none" inkscape:label="#rect4203" ry="64.777054" y="0" width="512" style="fill:none;display:inline" x="0" height="512" id="rect5714"/>
    </clipPath>
    <filter inkscape:collect="always" id="filter5740">
      <feGaussianBlur inkscape:collect="always" stdDeviation="5.12" id="feGaussianBlur5742"/>
    </filter>
    <clipPath clipPathUnits="userSpaceOnUse" id="clipPath5796">
      <rect inkscape:label="#rect4203" ry="57" y="0" width="512" style="fill:none;stroke:#00fa00;stroke-width:20;stroke-miterlimit:4;stroke-opacity:1;stroke-dasharray:none;display:inline" x="0" height="512" id="rect5798"/>
    </clipPath>
    <filter inkscape:collect="always" id="filter5912">
      <feGaussianBlur inkscape:collect="always" stdDeviation="17.92" id="feGaussianBlur5914"/>
    </filter>
  </defs>
  <sodipodi:namedview id="base" pagecolor="#ffffff" bordercolor="#666666" borderopacity="1.0" inkscape:pageopacity="0.0" inkscape:pageshadow="2" inkscape:zoom="0.65494792" inkscape:cx="191.61829" inkscape:cy="384" inkscape:document-units="px" showgrid="false" inkscape:window-width="1280" inkscape:window-height="723" inkscape:window-x="0" inkscape:window-y="24" inkscape:window-maximized="1"/>

  <g id="template-button" inkscape:label="template-button" style="display:inline">
  &gt;
  <g inkscape:label="00" id="00" style="display:inline" transform="translate(90,90)">
    <rect inkscape:label="#rect4203" ry="57" y="56" width="512" style="fill:#000000;fill-opacity:1;stroke:#a8a8a8;stroke-width:5;stroke-miterlimit:4;stroke-opacity:1;stroke-dasharray:none;display:inline;filter:url(#filter5912)" x="38" height="512" id="shadow"/>
  </g>
  <g id="01" inkscape:label="01" style="display:inline" transform="translate(128,128)" clip-path="url(#clipPathFlag)">
    <rect id="mask" height="512" x="0" style="fill:#0000ff;fill-opacity:1;stroke:none" width="512" y="0" ry="57" inkscape:label="#rect4203"/>
  <g transform="matrix(1.0294972,0,0,1.0294972,-62,-1.7158752e-5)" id="flag" clip-path="url(#clipPath5006)" inkscape:label="#g4960">
    <rect style="font-size:12px;fill:#ffffff;fill-opacity:1;fill-rule:evenodd;stroke-width:1pt" id="rect555" width="994.6604" height="497.33017" x="0" y="0"/>
    <rect style="font-size:12px;fill:#de2918;fill-opacity:1;fill-rule:evenodd;stroke-width:1pt" id="rect556" x="0" height="165.77672" width="994.6604" y="331.55344"/>
    <rect style="font-size:12px;fill:#08399c;fill-opacity:1;fill-rule:evenodd;stroke-width:1pt" id="rect563" x="0" height="165.77672" width="994.6604" y="165.77672"/>
    <path inkscape:connector-curvature="0" style="font-size:12px;fill:#de2918;fill-rule:evenodd;stroke-width:1pt" d="m 311.663,103.348 c -3.351,59.885 -5.271,92.702 -13.098,107.885 -8.463,16.308 -16.696,28.248 -49.717,42.625 -33.022,-14.377 -41.255,-26.317 -49.718,-42.625 -7.827,-15.183 -9.747,-48 -13.098,-107.885 l 4.88,-1.915 c 9.824,-3.4903 17.154,-6.2979 22.576,-7.544 7.765,-1.9145 14.364,-4.0792 35.232,-4.5872 20.868,0.4182 27.5,2.7175 35.265,4.6321 5.377,1.3358 13.021,3.9639 22.772,7.5221 l 4.906,1.892 z" id="path694" sodipodi:nodetypes="ccccccccccc" transform="matrix(1.165015,0,0,1,-81.04471,-13.03642)"/>
    <path inkscape:connector-curvature="0" style="font-size:12px;fill:#08399c;fill-rule:evenodd;stroke-width:1pt" d="m 306.853,101.427 c -3.17,59.739 -5.822,87.096 -9.958,100.249 -8.026,22.522 -20.732,34.87 -48.079,46.648 -27.346,-11.778 -40.052,-24.126 -48.078,-46.648 -4.136,-13.153 -6.749,-40.432 -9.828,-100.309 9.617,-3.4982 17.156,-6.2319 22.578,-7.478 7.765,-1.9145 14.364,-4.169 35.232,-4.5872 20.868,0.4182 27.545,2.6727 35.31,4.5872 5.422,1.2461 13.117,3.9798 22.823,7.538 z" id="path675" sodipodi:nodetypes="ccccccccc" transform="matrix(1.165015,0,0,1.000282,-81.04471,-13.10655)"/>
    <path inkscape:connector-curvature="0" transform="matrix(1.347046,0,0,1.110715,-107.3459,0.92219)" style="font-size:12px;fill:#ffcc00;fill-rule:evenodd;stroke-width:1pt" d="m 234.698,95.1828 1.134,3.2555 4.983,0.8285 -3.229,2.3612 3.122,2.531 -4.541,0.923 -1.382,2.95 -1.554,-3.038 -4.323,-0.744 2.942,-2.586 -3.029,-2.3535 4.785,-0.8896 1.092,-3.2381 z" id="path651" sodipodi:nodetypes="ccccccccccccc"/>
    <path inkscape:connector-curvature="0" style="font-size:12px;fill:#ffffff;fill-rule:evenodd;stroke-width:1pt" d="m 294.918,187.514 -3.194,-2.941 -2.308,-4.424 -4.521,-4.569 -2.356,-4.617 -4.521,-4.713 -2.212,-4.616 -2.404,-2.261 -1.587,-1.779 -4.084,4.172 -2.226,4.531 -2.774,2.93 -3.047,-2.773 -2.304,-4.727 -8.553,-17.695 -8.554,17.695 -2.304,4.727 -3.047,2.773 -2.774,-2.93 -2.226,-4.531 -4.084,-4.172 -1.587,1.779 -2.404,2.261 -2.212,4.616 -4.521,4.713 -2.356,4.617 -4.521,4.569 -2.308,4.424 -3.186,3.01 c 1.654,16.402 10.629,29.253 15.519,35.132 5.457,6.173 16.708,14.432 30.466,19.899 13.797,-5.35 25.204,-13.726 30.661,-19.899 4.89,-5.879 13.865,-18.73 15.529,-35.201 z" id="path627" sodipodi:nodetypes="ccccccccccccccccccccccccccccccccc" transform="matrix(1.165015,0,0,1,-81.04471,-13.03642)"/>
    <path inkscape:connector-curvature="0" transform="matrix(1.347046,0,0,1.110715,-91.32693,-24.2341)" style="font-size:12px;fill:#ffcc00;fill-rule:evenodd;stroke-width:1pt" d="m 234.698,95.1828 1.134,3.2555 4.983,0.8285 -3.229,2.3612 3.122,2.531 -4.541,0.923 -1.382,2.95 -1.554,-3.038 -4.323,-0.744 2.942,-2.586 -3.029,-2.3535 4.785,-0.8896 1.092,-3.2381 z" id="path654" sodipodi:nodetypes="ccccccccccccc"/>
    <path inkscape:connector-curvature="0" transform="matrix(1.347046,0,0,1.110715,-123.3649,-24.28933)" style="font-size:12px;fill:#ffcc00;fill-rule:evenodd;stroke-width:1pt" d="m 234.698,95.1828 1.134,3.2555 4.983,0.8285 -3.229,2.3612 3.122,2.531 -4.541,0.923 -1.382,2.95 -1.554,-3.038 -4.323,-0.744 2.942,-2.586 -3.029,-2.3535 4.785,-0.8896 1.092,-3.2381 z" id="path655" sodipodi:nodetypes="ccccccccccccc"/>
    <path inkscape:connector-curvature="0" style="font-size:12px;fill:#08399c;fill-opacity:1;fill-rule:evenodd;stroke-width:1pt" d="m 287.777,210.249 -6.227,0.022 -5.746,-0.498 -6.96,-3.977 -7.845,0.055 -6.794,3.867 -5.359,0.552 -5.359,-0.552 -6.794,-3.867 -7.845,-0.055 -6.96,3.977 -5.746,0.498 -6.305,-0.101 -3.045,-6.009 0.113,-0.138 9.315,1.795 5.746,-0.498 6.96,-3.977 7.845,0.055 6.794,3.867 5.359,0.552 5.359,-0.552 6.794,-3.867 7.845,-0.055 6.96,3.977 5.746,0.498 9.066,-1.852 0.12,0.278 -3.037,6.005 z" id="path664" sodipodi:nodetypes="cccccccccccccccccccccccccc" transform="matrix(1.165015,0,0,1,-81.04471,-13.03642)"/>
    <path inkscape:connector-curvature="0" style="font-size:12px;fill:#08399c;fill-opacity:1;fill-rule:evenodd;stroke-width:1pt" d="m 215.724,210.271 6.164,-0.498 6.96,-3.977 7.845,0.055 6.794,3.867 5.359,0.552 5.359,-0.552 6.794,-3.867 7.845,-0.055 6.96,3.977 6.248,0.498 4.031,-5.789 -0.136,-0.131 -4.319,1.467 -5.746,-0.498 -6.96,-3.977 -7.845,0.055 -6.794,3.867 -5.359,0.552 -5.359,-0.552 -6.794,-3.867 -7.845,-0.055 -6.96,3.977 -5.746,0.498 -4.233,-1.243 -0.051,0.242 3.788,5.454 z" id="path665" transform="matrix(1.165015,0,0,1,-81.09022,-3.81768)" sodipodi:nodetypes="cccccccccccccccccccccccc"/>
  </g></g>
  <g id="02" inkscape:label="02" style="display:inline" transform="translate(0,38)">
    <path sodipodi:nodetypes="sscssscss" inkscape:connector-curvature="0" id="path3862-8" d="m 214.21087,111.21099 c -45.24514,0.18809 -68.71568,7.73077 -64.09352,83.5526 l 2.8252,46.34456 c 47.4743,5.51239 56.66416,18.44506 104.35936,21.91413 68.07337,4.95126 67.93728,5.42092 130.56477,-14.38414 62.62753,-19.80506 5.82485,-65.24698 207.32205,-57.8201 4.60334,0.16968 17.3137,-3.05269 27.46187,-12.15043 5.5817,-46.52389 -2.78415,-69.14289 -66.93352,-68.87623 z" style="color:#000000;fill:url(#linearGradient5125);fill-opacity:1;fill-rule:nonzero;stroke:none;stroke-width:1.62399995;marker:none;visibility:visible;overflow:visible;enable-background:accumulate"/>
    <path inkscape:connector-curvature="0" id="path3079-9" d="m 531.03278,495.17335 c -31.60486,19.02245 -27.60116,31.26037 -37.91323,32.57276 -94.70417,12.0527 -145.97722,-0.72701 -165.79583,-12.06122 -59.58792,-34.07817 -68.46788,-13.01421 -100.22126,-16.5742 -20.11475,-2.25514 -59.24503,12.98404 -73.38763,44.34434 3.47222,27.60795 18.11064,32.09835 44.28127,31.98612 l 356.05526,-1.52684 c 69.69188,-0.29885 56.33547,-8.49265 65.54301,-56.03861 -14.77205,-21.67074 -13.15664,9.10903 -44.2237,-30.71666 z" style="color:#000000;fill:url(#linearGradient5122);fill-opacity:1;fill-rule:nonzero;stroke:none;stroke-width:1.62399994999999997;marker:none;visibility:visible;overflow:visible;enable-background:accumulate" sodipodi:nodetypes="cssscssccc"/>
    <rect id="rect5734" height="512" x="0" style="fill:none;stroke:#000000;stroke-width:20;stroke-miterlimit:4;stroke-opacity:1;stroke-dasharray:none;display:inline;filter:url(#filter5740)" width="512" y="0" ry="57" inkscape:label="#rect4203" transform="translate(128,90)" clip-path="url(#clipPath5796)"/>
  </g></g>
</svg>
