<?xml version="1.0" encoding="UTF-8" standalone="no"?>
<svg xmlns:dc="http://purl.org/dc/elements/1.1/" xmlns:cc="http://creativecommons.org/ns#" xmlns:rdf="http://www.w3.org/1999/02/22-rdf-syntax-ns#" xmlns:svg="http://www.w3.org/2000/svg" xmlns="http://www.w3.org/2000/svg" xmlns:xlink="http://www.w3.org/1999/xlink" xmlns:sodipodi="http://sodipodi.sourceforge.net/DTD/sodipodi-0.dtd" xmlns:inkscape="http://www.inkscape.org/namespaces/inkscape" width="768" height="768" id="svg2" version="1.1" inkscape:version="0.48.1 r9760" sodipodi:docname="template.svg">
  <defs id="defs4">
    <clipPath clipPathUnits="userSpaceOnUse" id="clipPathFlag">
      <rect id="rect3918" height="511" x="0.5" style="fill:#000000;fill-opacity:0.67000002;stroke:none" width="511" y="0.5" ry="57"/>
    </clipPath>
    <linearGradient id="linearGradient3852" inkscape:collect="always">
      <stop id="stop3854" offset="0" style="stop-color:#dbe3db;stop-opacity:1;"/>
      <stop id="stop3856" offset="1" style="stop-color:#dbe3db;stop-opacity:0;"/>
    </linearGradient>
    <linearGradient inkscape:collect="always" xlink:href="#linearGradient3852" id="linearGradient3070" gradientUnits="userSpaceOnUse" x1="339.54913" y1="646.63617" x2="345.74551" y2="566.63617" gradientTransform="matrix(0.93191514,0,0,0.93191514,7.9467803,7.2318863)"/>
    <clipPath id="clipPath3882" clipPathUnits="userSpaceOnUse">
      <path sodipodi:type="inkscape:offset" inkscape:radius="11.844458" inkscape:original="M 243.75 118.0625 C 179.93919 118.0625 128.5625 169.43919 128.5625 233.25 L 128.5625 528.59375 C 128.5625 592.40456 179.93919 643.78125 243.75 643.78125 L 539.09375 643.78125 C 602.90456 643.78125 654.28125 592.40456 654.28125 528.59375 L 654.28125 233.25 C 654.28125 169.43919 602.90456 118.0625 539.09375 118.0625 L 243.75 118.0625 z " style="color:#000000;fill:none;stroke:none;stroke-width:20;marker:none;visibility:visible;display:inline;overflow:visible;enable-background:accumulate" id="path3884" d="m 243.75,106.21875 c -70.16845,0 -127.03125,56.8628 -127.03125,127.03125 l 0,295.34375 c 0,70.16845 56.8628,127.03125 127.03125,127.03125 l 295.34375,0 c 70.16845,0 127.03125,-56.8628 127.03125,-127.03125 l 0,-295.34375 c 0,-70.16845 -56.8628,-127.03125 -127.03125,-127.03125 l -295.34375,0 z"/>
    </clipPath>
    <linearGradient id="linearGradient3852-0" inkscape:collect="always">
      <stop id="stop3854-6" offset="0" style="stop-color:#dbe3db;stop-opacity:1;"/>
      <stop id="stop3856-1" offset="1" style="stop-color:#dbe3db;stop-opacity:0;"/>
    </linearGradient>
    <linearGradient inkscape:collect="always" xlink:href="#linearGradient3852-0" id="linearGradient3070-5" gradientUnits="userSpaceOnUse" x1="339.54913" y1="646.63617" x2="345.74551" y2="566.63617" gradientTransform="matrix(0.93191514,0,0,0.93191514,7.9467803,7.2318863)"/>
    <linearGradient inkscape:collect="always" xlink:href="#linearGradient3852-0" id="linearGradient5122" gradientUnits="userSpaceOnUse" gradientTransform="matrix(1.1571075,0,0,1.3166846,-91.204261,-253.98784)" x1="342.1882" y1="705.75824" x2="358.07608" y2="523.40735"/>
    <linearGradient inkscape:collect="always" xlink:href="#linearGradient3852-0" id="linearGradient5125" gradientUnits="userSpaceOnUse" gradientTransform="matrix(0.95302723,0,0,0.86647129,11.575117,-4.501603)" x1="405.2634" y1="118.06474" x2="405.74554" y2="360.92188"/>
    <clipPath clipPathUnits="userSpaceOnUse" id="clipPath5712">
      <rect mask="none" inkscape:label="#rect4203" ry="64.777054" y="0" width="512" style="fill:none;display:inline" x="0" height="512" id="rect5714"/>
    </clipPath>
    <filter inkscape:collect="always" id="filter5740">
      <feGaussianBlur inkscape:collect="always" stdDeviation="5.12" id="feGaussianBlur5742"/>
    </filter>
    <clipPath clipPathUnits="userSpaceOnUse" id="clipPath5796">
      <rect inkscape:label="#rect4203" ry="57" y="0" width="512" style="fill:none;stroke:#00fa00;stroke-width:20;stroke-miterlimit:4;stroke-opacity:1;stroke-dasharray:none;display:inline" x="0" height="512" id="rect5798"/>
    </clipPath>
    <filter inkscape:collect="always" id="filter5912">
      <feGaussianBlur inkscape:collect="always" stdDeviation="17.92" id="feGaussianBlur5914"/>
    </filter>
  </defs>
  <sodipodi:namedview id="base" pagecolor="#ffffff" bordercolor="#666666" borderopacity="1.0" inkscape:pageopacity="0.0" inkscape:pageshadow="2" inkscape:zoom="0.65494792" inkscape:cx="191.61829" inkscape:cy="384" inkscape:document-units="px" showgrid="false" inkscape:window-width="1280" inkscape:window-height="723" inkscape:window-x="0" inkscape:window-y="24" inkscape:window-maximized="1"/>

  <g id="template-button" inkscape:label="template-button" style="display:inline">
  &gt;
  <g inkscape:label="00" id="00" style="display:inline" transform="translate(90,90)">
    <rect inkscape:label="#rect4203" ry="57" y="56" width="512" style="fill:#000000;fill-opacity:1;stroke:#a8a8a8;stroke-width:5;stroke-miterlimit:4;stroke-opacity:1;stroke-dasharray:none;display:inline;filter:url(#filter5912)" x="38" height="512" id="shadow"/>
  </g>
  <g id="01" inkscape:label="01" style="display:inline" transform="translate(128,128)" clip-path="url(#clipPathFlag)">
    <rect id="mask" height="512" x="0" style="fill:#0000ff;fill-opacity:1;stroke:none" width="512" y="0" ry="57" inkscape:label="#rect4203"/>
  <g transform="matrix(0.7224893,0,0,0.7224893,-69,2.4115845e-6)" id="flag" clip-path="url(#clipPath4897)" inkscape:label="#g4863">
    <rect width="1062.99" height="708.66101" x="0" y="0" style="font-size:12px;fill:#ffffff;fill-rule:evenodd;stroke-width:1pt" id="rect171"/>
    <rect width="1062.99" height="472.44101" x="0" y="236.22" style="font-size:12px;fill:#01017e;fill-rule:evenodd;stroke-width:1pt" id="rect403"/>
    <rect width="1062.99" height="236.22" x="0" y="472.44101" style="font-size:12px;fill:#fe0101;fill-rule:evenodd;stroke-width:1pt" id="rect135"/>
    <path inkscape:connector-curvature="0" d="m 185.105,160.833 0,198.715 c 13.61,77.581 49.679,156.523 171.494,196.674 121.135,-40.151 159.925,-115.691 174.216,-198.035 l 0,-197.354 -345.71,0 z" style="font-size:12px;fill:#ffffff;fill-rule:evenodd;stroke-width:1pt" id="path150"/>
    <path inkscape:connector-curvature="0" d="m 198.715,176.485 0,173.536 C 210.964,413.31 234.784,499.738 356.599,539.889 477.734,499.738 505.636,413.31 516.524,350.021 l 0,-173.536 -317.809,0 z" style="font-size:12px;fill:#fe0101;fill-rule:evenodd;stroke-width:1pt" id="path140"/>
    <path inkscape:connector-curvature="0" d="m 375.654,281.287 0,27.902 55.804,0 c 7.482,0 14.518,-3.63 21.777,-5.445 l 0,52.401 c 0,0 0,0 0,0 -7.486,-1.588 -14.805,-4.763 -22.458,-4.763 l -54.442,0 0,63.97 -37.43,-1.361 0,-62.609 -53.081,0 c -7.978,0 -15.425,4.083 -23.138,6.124 l 0,-55.803 c 7.259,2.268 14.172,6.805 21.777,6.805 l 54.442,0 0,-27.902 -40.151,0 c -7.036,0 -13.157,4.991 -19.736,7.486 l 0,-53.081 c 7.486,3.176 14.326,9.527 22.458,9.527 l 38.11,0 0,-23.819 c 0,-11.125 -6.352,-21.323 -9.528,-31.985 l 53.762,0 c -2.722,10.889 -8.166,21.442 -8.166,32.666 l 0,23.138 36.068,0 c 9.411,0 18.148,-4.99 27.222,-7.485 l 0,52.401 c -8.167,-2.722 -15.892,-8.167 -24.5,-8.167 l -38.79,0 z" style="font-size:12px;fill:#ffffff;fill-rule:evenodd;stroke-width:1pt" id="path153"/>
    <path inkscape:connector-curvature="0" d="m 306.92,422.838 c -31.986,-15.993 -62.54,-7.062 -77.156,18.544 22.713,43.384 65.927,78.431 126.835,98.507 60.568,-20.076 104.632,-55.123 128.791,-96.465 -18.82,-35.903 -54.613,-31.135 -77.751,-19.905 -16.333,-40.152 -83.025,-38.11 -100.719,-0.681 z" style="font-size:12px;fill:#01017e;fill-rule:evenodd;stroke-width:1pt" id="path152"/>
  </g></g>
  <g id="02" inkscape:label="02" style="display:inline" transform="translate(0,38)">
    <path sodipodi:nodetypes="sscssscss" inkscape:connector-curvature="0" id="path3862-8" d="m 214.21087,111.21099 c -45.24514,0.18809 -68.71568,7.73077 -64.09352,83.5526 l 2.8252,46.34456 c 47.4743,5.51239 56.66416,18.44506 104.35936,21.91413 68.07337,4.95126 67.93728,5.42092 130.56477,-14.38414 62.62753,-19.80506 5.82485,-65.24698 207.32205,-57.8201 4.60334,0.16968 17.3137,-3.05269 27.46187,-12.15043 5.5817,-46.52389 -2.78415,-69.14289 -66.93352,-68.87623 z" style="color:#000000;fill:url(#linearGradient5125);fill-opacity:1;fill-rule:nonzero;stroke:none;stroke-width:1.62399995;marker:none;visibility:visible;overflow:visible;enable-background:accumulate"/>
    <path inkscape:connector-curvature="0" id="path3079-9" d="m 531.03278,495.17335 c -31.60486,19.02245 -27.60116,31.26037 -37.91323,32.57276 -94.70417,12.0527 -145.97722,-0.72701 -165.79583,-12.06122 -59.58792,-34.07817 -68.46788,-13.01421 -100.22126,-16.5742 -20.11475,-2.25514 -59.24503,12.98404 -73.38763,44.34434 3.47222,27.60795 18.11064,32.09835 44.28127,31.98612 l 356.05526,-1.52684 c 69.69188,-0.29885 56.33547,-8.49265 65.54301,-56.03861 -14.77205,-21.67074 -13.15664,9.10903 -44.2237,-30.71666 z" style="color:#000000;fill:url(#linearGradient5122);fill-opacity:1;fill-rule:nonzero;stroke:none;stroke-width:1.62399994999999997;marker:none;visibility:visible;overflow:visible;enable-background:accumulate" sodipodi:nodetypes="cssscssccc"/>
    <rect id="rect5734" height="512" x="0" style="fill:none;stroke:#000000;stroke-width:20;stroke-miterlimit:4;stroke-opacity:1;stroke-dasharray:none;display:inline;filter:url(#filter5740)" width="512" y="0" ry="57" inkscape:label="#rect4203" transform="translate(128,90)" clip-path="url(#clipPath5796)"/>
  </g></g>
</svg>
