<?xml version="1.0" encoding="UTF-8" standalone="no"?>
<svg xmlns:dc="http://purl.org/dc/elements/1.1/" xmlns:cc="http://creativecommons.org/ns#" xmlns:rdf="http://www.w3.org/1999/02/22-rdf-syntax-ns#" xmlns:svg="http://www.w3.org/2000/svg" xmlns="http://www.w3.org/2000/svg" xmlns:xlink="http://www.w3.org/1999/xlink" xmlns:sodipodi="http://sodipodi.sourceforge.net/DTD/sodipodi-0.dtd" xmlns:inkscape="http://www.inkscape.org/namespaces/inkscape" width="768" height="768" id="svg2" version="1.1" inkscape:version="0.48.1 r9760" sodipodi:docname="template.svg">
  <defs id="defs4">
    <clipPath clipPathUnits="userSpaceOnUse" id="clipPathFlag">
      <rect id="rect3918" height="511" x="0.5" style="fill:#000000;fill-opacity:0.67000002;stroke:none" width="511" y="0.5" ry="57"/>
    </clipPath>
    <linearGradient id="linearGradient3852" inkscape:collect="always">
      <stop id="stop3854" offset="0" style="stop-color:#dbe3db;stop-opacity:1;"/>
      <stop id="stop3856" offset="1" style="stop-color:#dbe3db;stop-opacity:0;"/>
    </linearGradient>
    <linearGradient inkscape:collect="always" xlink:href="#linearGradient3852" id="linearGradient3070" gradientUnits="userSpaceOnUse" x1="339.54913" y1="646.63617" x2="345.74551" y2="566.63617" gradientTransform="matrix(0.93191514,0,0,0.93191514,7.9467803,7.2318863)"/>
    <clipPath id="clipPath3882" clipPathUnits="userSpaceOnUse">
      <path sodipodi:type="inkscape:offset" inkscape:radius="11.844458" inkscape:original="M 243.75 118.0625 C 179.93919 118.0625 128.5625 169.43919 128.5625 233.25 L 128.5625 528.59375 C 128.5625 592.40456 179.93919 643.78125 243.75 643.78125 L 539.09375 643.78125 C 602.90456 643.78125 654.28125 592.40456 654.28125 528.59375 L 654.28125 233.25 C 654.28125 169.43919 602.90456 118.0625 539.09375 118.0625 L 243.75 118.0625 z " style="color:#000000;fill:none;stroke:none;stroke-width:20;marker:none;visibility:visible;display:inline;overflow:visible;enable-background:accumulate" id="path3884" d="m 243.75,106.21875 c -70.16845,0 -127.03125,56.8628 -127.03125,127.03125 l 0,295.34375 c 0,70.16845 56.8628,127.03125 127.03125,127.03125 l 295.34375,0 c 70.16845,0 127.03125,-56.8628 127.03125,-127.03125 l 0,-295.34375 c 0,-70.16845 -56.8628,-127.03125 -127.03125,-127.03125 l -295.34375,0 z"/>
    </clipPath>
    <linearGradient id="linearGradient3852-0" inkscape:collect="always">
      <stop id="stop3854-6" offset="0" style="stop-color:#dbe3db;stop-opacity:1;"/>
      <stop id="stop3856-1" offset="1" style="stop-color:#dbe3db;stop-opacity:0;"/>
    </linearGradient>
    <linearGradient inkscape:collect="always" xlink:href="#linearGradient3852-0" id="linearGradient3070-5" gradientUnits="userSpaceOnUse" x1="339.54913" y1="646.63617" x2="345.74551" y2="566.63617" gradientTransform="matrix(0.93191514,0,0,0.93191514,7.9467803,7.2318863)"/>
    <linearGradient inkscape:collect="always" xlink:href="#linearGradient3852-0" id="linearGradient5122" gradientUnits="userSpaceOnUse" gradientTransform="matrix(1.1571075,0,0,1.3166846,-91.204261,-253.98784)" x1="342.1882" y1="705.75824" x2="358.07608" y2="523.40735"/>
    <linearGradient inkscape:collect="always" xlink:href="#linearGradient3852-0" id="linearGradient5125" gradientUnits="userSpaceOnUse" gradientTransform="matrix(0.95302723,0,0,0.86647129,11.575117,-4.501603)" x1="405.2634" y1="118.06474" x2="405.74554" y2="360.92188"/>
    <clipPath clipPathUnits="userSpaceOnUse" id="clipPath5712">
      <rect mask="none" inkscape:label="#rect4203" ry="64.777054" y="0" width="512" style="fill:none;display:inline" x="0" height="512" id="rect5714"/>
    </clipPath>
    <filter inkscape:collect="always" id="filter5740">
      <feGaussianBlur inkscape:collect="always" stdDeviation="5.12" id="feGaussianBlur5742"/>
    </filter>
    <clipPath clipPathUnits="userSpaceOnUse" id="clipPath5796">
      <rect inkscape:label="#rect4203" ry="57" y="0" width="512" style="fill:none;stroke:#00fa00;stroke-width:20;stroke-miterlimit:4;stroke-opacity:1;stroke-dasharray:none;display:inline" x="0" height="512" id="rect5798"/>
    </clipPath>
    <filter inkscape:collect="always" id="filter5912">
      <feGaussianBlur inkscape:collect="always" stdDeviation="17.92" id="feGaussianBlur5914"/>
    </filter>
  </defs>
  <sodipodi:namedview id="base" pagecolor="#ffffff" bordercolor="#666666" borderopacity="1.0" inkscape:pageopacity="0.0" inkscape:pageshadow="2" inkscape:zoom="0.65494792" inkscape:cx="191.61829" inkscape:cy="384" inkscape:document-units="px" showgrid="false" inkscape:window-width="1280" inkscape:window-height="723" inkscape:window-x="0" inkscape:window-y="24" inkscape:window-maximized="1"/>

  <g id="template-button" inkscape:label="template-button" style="display:inline">
  &gt;
  <g inkscape:label="00" id="00" style="display:inline" transform="translate(90,90)">
    <rect inkscape:label="#rect4203" ry="57" y="56" width="512" style="fill:#000000;fill-opacity:1;stroke:#a8a8a8;stroke-width:5;stroke-miterlimit:4;stroke-opacity:1;stroke-dasharray:none;display:inline;filter:url(#filter5912)" x="38" height="512" id="shadow"/>
  </g>
  <g id="01" inkscape:label="01" style="display:inline" transform="translate(128,128)" clip-path="url(#clipPathFlag)">
    <rect id="mask" height="512" x="0" style="fill:#0000ff;fill-opacity:1;stroke:none" width="512" y="0" ry="57" inkscape:label="#rect4203"/>
  <g id="flag" clip-path="url(#clipPath3680)" inkscape:label="#g3414">
    <path style="fill:#000066;fill-opacity:1;stroke:none" d="m 1024.0005,512 0,-511.999902 -1023.99978923354,0 0,511.999902 L 1024.0005,512 z" id="path14" inkscape:connector-curvature="0"/>
    <g transform="matrix(1.023999,0,0,1.023999,0,2.3038593e-4)" id="g1690">
      <rect style="fill:#000066;fill-opacity:1;fill-rule:evenodd;stroke:none" id="rect3207" width="500" height="250" x="0" y="-1.1368684e-13"/>
      <g id="g878" style="font-size:12px" transform="matrix(8.333338,0,0,8.333343,0,-2.256992e-4)">
        <path d="M 0,0 0,3.3541 53.2918,30 60,30 60,26.6459 6.7082,0 0,0 z M 60,0 60,3.35405 6.7082,30 0,30 0,26.6458 53.2918,0 60,0 z" id="path879" style="font-size:12px;fill:#ffffff;stroke-width:1pt" inkscape:connector-curvature="0"/>
        <path d="M 25,0 25,30 35,30 35,0 25,0 z M 0,10 0,20 60,20 60,10 0,10 z" id="path880" style="font-size:12px;fill:#ffffff;stroke-width:1pt" inkscape:connector-curvature="0"/>
        <path d="m 0,12 0,6 60,0 0,-6 -60,0 z m 27,-12 0,30 6,0 0,-30 -6,0 z" id="path881" style="font-size:12px;fill:#cc0000;stroke-width:1pt" inkscape:connector-curvature="0"/>
        <path d="M 0,30 20,20 24.4721,20 4.47214,30 0,30 z M 0,0 20,10 15.5279,10 0,2.23607 0,0 z m 35.5279,10 20,-10 L 60,0 40,10 35.5279,10 z M 60,30 40,20 44.4721,20 60,27.7639 60,30 z" id="path882" style="font-size:12px;fill:#cc0000;stroke-width:1pt" inkscape:connector-curvature="0"/>
      </g>
    </g>
    <g transform="matrix(1.3675505,0,0,1.3675505,-886.20918,-93.325826)" id="g2827">
      <path style="fill:#ffffff;fill-opacity:0.996081;stroke:none" d="m 1008.9384,171.24828 c 0,0 0,64.14416 0,85.17472 0,69.92774 -27.46731,133.93966 -108.95348,172.84805 C 818.49875,390.36266 791.03147,326.35074 791.03147,256.423 c 0,-21.03056 0,-85.17472 0,-85.17472 l 217.90693,0 z" id="path1392" inkscape:connector-curvature="0"/>
      <path style="fill:#fdc300;fill-opacity:0.996081;stroke:none" d="m 1001.6078,179.92842 c 0,0 0,59.82842 0,79.44399 0,65.22286 -25.61926,124.92794 -101.62288,161.21851 -76.00361,-36.29057 -101.62286,-95.99565 -101.62286,-161.21851 0,-19.61557 0,-79.44399 0,-79.44399 l 203.24574,0 z" id="path18" inkscape:connector-curvature="0"/>
      <g id="g20" transform="matrix(4.166408,0,0,4.166876,-5.45887,-5.459652)">
        <path style="fill:#ff9e3d;stroke:#000000;stroke-width:0.0625" d="m 205.963,52.8468 c -0.353,-0.2648 -0.736,-0.4266 -1.265,-0.4413 0.117,-1.2946 -0.824,-1.8536 -1.501,-2.089 -0.676,-0.2354 -0.912,-0.5002 -1.029,-1.0298 -0.118,-0.5296 -0.471,-0.8532 -1.089,-1.0297 -0.618,-0.1766 -1.148,-0.7944 -1.383,-1.0887 -0.235,-0.2942 -0.324,-0.2354 -0.5,0.2648 -0.177,0.5002 -0.883,1.4417 -0.236,1.4712 -0.47,0.3824 -0.735,0.8238 -0.441,1.4122 -0.324,0.2648 -0.559,0.6473 -0.118,0.7944 0.442,0.1471 0.559,0.2648 0.589,0.3825 -0.397,0 -0.5,0.7944 0.441,0.9709 -0.206,0.0294 -0.294,0.6767 0.089,0.6767 -0.53,0 -0.972,0.7945 -1.648,0.7945 -0.677,0 -1.03,0.147 -1.059,0.4413 -0.03,0.2942 -0.383,0.6472 -0.559,0.7944 0.5,0.0588 0.823,0 1.088,-0.206 0.265,-0.206 0.706,-0.2648 1.001,-0.0294 0.294,0.2354 0.912,0.353 1.206,0.2942 -0.647,0.4414 -1.118,1.0298 -1.177,1.5888 -0.059,0.5591 -0.441,1.2063 -0.883,1.3829 -0.441,0.1765 -1.029,0.6473 -1.235,1.2063 0.559,1.3828 1.352,1.7244 2.147,2.0889 1.413,0.6474 2.295,1.1181 2.884,1.7654 0.588,0.6473 0.824,0.1765 1.706,1.2945 0.883,1.1181 1.707,3.2365 2.589,3.5896 0.883,0.353 2.001,0.1177 2.648,-1.0004 0.648,-1.118 1.06,-12.4161 -2.265,-14.2992 z" id="path22" inkscape:connector-curvature="0"/>
        <path style="fill:#ff927f;fill-opacity:1;stroke:#000000;stroke-width:0.0625" d="m 207.464,48.1392 c -0.824,0.8827 -1.884,1.7654 -1.707,3.3542 0.177,1.5888 0.353,4.178 -1.118,5.0606 -1.471,0.8827 -2.177,3.1188 -0.412,4.4133 1.765,1.2947 1.824,2.8835 2.118,4.3546 0.295,1.4711 1.06,2.6479 2.237,1.6476 1.176,0.1765 1.824,-0.2942 1.824,-1.2357 0,-0.9415 0.059,-1.4711 0.941,-1.7654 0.883,-0.2942 1.118,-0.5885 1.53,-1.3828 0.412,-0.7944 0.647,-1.1475 0.412,-1.6183 -0.235,-0.4707 -0.324,-1.4416 -0.147,-2.1478 0.177,-0.7061 -0.235,-1.0886 -0.471,-1.5299 -0.235,-0.4413 -0.323,-0.8238 -0.206,-1.4123 0.118,-0.5885 -0.176,-0.9709 -0.588,-1.2652 -0.412,-0.2942 -0.589,-0.5884 -0.5,-1.0592 0.088,-0.4707 -0.295,-0.7649 -0.736,-1.118 -0.441,-0.3531 -0.765,-0.8238 -0.765,-1.5299 0,-0.7062 -1.353,-2.3539 -2.412,-2.7658 z" id="path24" inkscape:connector-curvature="0"/>
        <path style="fill:#ff9ee1;stroke:#000000;stroke-width:0.0625" d="m 207.787,67.352 c 1.971,-0.5002 1.795,-3.7366 1.501,-5.09 -0.295,-1.3535 -1.051,-3.292 -0.471,-4.8253 0.824,-2.1772 -1.001,-4.2368 -0.53,-5.0606 0.471,-0.8239 0.412,-1.2652 0.353,-1.53 -0.058,-0.2648 -0.5,-0.4707 -0.529,0.0883 -0.03,0.559 -0.177,0.7649 -0.53,1.118 -0.353,0.3531 -0.265,1.118 0,1.9713 0.265,0.8532 0.824,2.1479 -0.059,3.8543 -0.882,1.7065 -0.519,2.4669 -0.176,3.2659 0.529,1.2357 1.795,5.5314 0.441,6.2081 z" id="path26" inkscape:connector-curvature="0"/>
        <path style="fill:none;stroke:#000000;stroke-width:0.0625" d="m 198.96,48.9043 c 0.221,0 0.648,-0.0884 0.648,0.2059" id="path28" inkscape:connector-curvature="0"/>
        <path style="fill:none;stroke:#000000;stroke-width:0.0625" d="m 198.519,50.3165 c 0.265,-0.1913 0.736,0.0294 1.206,-0.2501" id="path30" inkscape:connector-curvature="0"/>
        <path style="fill:none;stroke:#000000;stroke-width:0.0625" d="m 198.99,51.4934 c 0.353,0 0.824,-0.0147 1.265,-0.3678" id="path32" inkscape:connector-curvature="0"/>
        <path style="fill:none;stroke:#000000;stroke-width:0.0625" d="m 199.431,52.4643 c 0.324,0 0.927,-0.2059 1.074,-0.6325" id="path34" inkscape:connector-curvature="0"/>
        <path style="fill:none;stroke:#000000;stroke-width:0.0625" d="m 199.52,53.141 c 0.632,-0.0294 1.471,0.206 1.588,-0.0147" id="path36" inkscape:connector-curvature="0"/>
        <path style="fill:none;stroke:#000000;stroke-width:0.0625" d="m 199.549,55.23 c 0.441,-0.4119 1.486,-0.6914 1.721,-1.118" id="path38" inkscape:connector-curvature="0"/>
        <path style="fill:none;stroke:#000000;stroke-width:0.0625" d="m 200.667,48.6688 c 0.735,0.2355 0.431,0.6901 0.794,0.971 0.648,0.5002 0.059,1.0592 0.589,1.2063 0.529,0.1471 0.52,0.2365 0.382,0.8238 -0.162,0.6915 0.5,0.7208 0.265,1.1769" id="path40" inkscape:connector-curvature="0"/>
        <path style="fill:none;stroke:#000000;stroke-width:0.0625" d="m 204.698,52.4055 c -0.294,0 -1.162,0.0294 -1.53,0.8091" id="path42" inkscape:connector-curvature="0"/>
        <path style="fill:none;stroke:#000000;stroke-width:0.0625" d="m 198.416,60.8938 c 0.339,0.0589 0.508,-0.1338 0.603,-0.3236 0.103,-0.206 0.147,-0.3531 0.456,-0.3678 0.309,-0.0148 0.78,-0.103 0.883,-0.3384 0.103,-0.2353 0.471,-0.0147 0.78,-0.6326 0.309,-0.6178 0.515,-1.3534 1.338,-1.6182" id="path44" inkscape:connector-curvature="0"/>
      </g>
      <g id="g136" transform="matrix(4.166408,0,0,4.166876,-5.45887,-5.459652)">
        <path style="fill:#00a728;fill-opacity:1;stroke:#000000;stroke-width:0.0625" d="m 221.758,73.7502 c 0.333,0.4838 -0.012,1.0068 0.553,1.216 0.662,0.245 0.084,1.1156 0.865,1.4224 0.692,0.2722 0.005,1.1045 0.753,1.4783 0.669,0.3347 -0.112,1.1157 0.781,1.562 0.892,0.4462 -0.168,1.4503 0.502,1.8408 0.669,0.3905 -0.223,1.3946 0.558,1.7851 0.781,0.3904 -0.335,1.1714 0.39,1.7293 0.725,0.5578 -0.167,1.3945 0.558,1.8966 0.725,0.5021 -0.445,1.1725 0.279,1.8967 0.558,0.5578 -0.201,1.1041 0.223,1.9524 0.279,0.5578 -0.279,2.7892 -1.841,2.566 -0.558,0.9484 -2.733,1.7851 -3.514,1.5062 -0.781,0.5578 -3.291,1.3388 -4.575,0.1116 -1.282,1.2272 -3.793,0.4462 -4.574,-0.1116 -0.781,0.2789 -2.956,-0.5578 -3.514,-1.5062 -1.562,0.2232 -2.12,-2.0082 -1.841,-2.566 0.424,-0.8483 -0.335,-1.3946 0.223,-1.9524 0.724,-0.7242 -0.446,-1.3946 0.279,-1.8967 0.725,-0.5021 -0.167,-1.3388 0.558,-1.8966 0.725,-0.5579 -0.391,-1.3389 0.39,-1.7293 0.781,-0.3905 -0.111,-1.3946 0.558,-1.7851 0.67,-0.3905 -0.39,-1.3946 0.502,-1.8408 0.893,-0.4463 0.112,-1.2273 0.781,-1.562 0.748,-0.3738 0.061,-1.2061 0.753,-1.4783 0.781,-0.3068 0.203,-1.1774 0.865,-1.4224 0.574,-0.2125 0.208,-0.7489 0.57,-1.2391 1.661,0.6534 6.803,1.1223 8.918,0.0231 z" id="path138" inkscape:connector-curvature="0"/>
        <g id="g140">
          <path style="fill:#fdc300;fill-opacity:0.996081;stroke:#000000;stroke-width:0.0625" d="m 213.511,76.6675 c 0.001,0.2505 -0.005,0.5 -0.237,0.8089 -0.502,0.6694 0.223,1.0042 -0.335,1.7293 -0.557,0.7252 0.112,1.1715 -0.502,1.7851 -0.613,0.6136 0.112,1.1715 -0.502,1.8409 -0.613,0.6694 0.112,1.1156 -0.502,1.7292 -0.613,0.6137 0.112,1.2831 -0.502,1.8966 -0.613,0.6137 0.112,1.3946 -0.558,2.1199 -0.669,0.7251 0.112,1.2829 -0.446,1.8408 -0.558,0.5578 -0.056,1.1156 -0.446,1.5061 0.669,-0.502 0.669,-1.2829 1.171,-1.6734 0.502,-0.3906 -0.167,-0.9484 0.112,-1.2273 0.279,-0.2789 0.056,-1.4504 0.558,-2.0082 0.502,-0.5579 0.056,-1.6735 0.502,-2.064 0.446,-0.3905 0.111,-1.5619 0.669,-1.9524 0.558,-0.3905 0,-1.3388 0.446,-1.8409 0.447,-0.502 0,-1.283 0.447,-1.8966 0.446,-0.6136 0.02,-1.1707 0.334,-1.6735 0.14,-0.2231 0.14,-1.8408 -0.209,-0.9205 z" id="path142" inkscape:connector-curvature="0"/>
          <path style="fill:#fdc300;fill-opacity:0.996081;stroke:#000000;stroke-width:0.0625" d="m 215.115,77.3649 c -0.39,0.7252 0.279,0.8925 -0.223,1.6177 -0.502,0.7252 0.279,1.283 -0.279,2.0082 -0.558,0.7252 0.279,1.1156 -0.223,1.8409 -0.502,0.7251 0.223,1.1156 -0.223,1.6735 -0.447,0.5578 0.334,1.1156 -0.223,1.785 -0.558,0.6695 0.223,1.1715 -0.224,1.7851 -0.446,0.6136 0.168,1.283 -0.223,1.785 -0.39,0.5021 0.279,1.2273 -0.279,1.8967 -0.558,0.6694 0.112,1.1157 -0.223,1.562 0.67,-0.2232 0.419,-1.1436 0.67,-1.3388 0.251,-0.1953 -0.084,-1.4783 0.306,-1.813 0.391,-0.3347 -0.251,-1.3672 0.112,-1.813 0.614,-0.753 0.084,-1.2551 0.446,-1.8408 0.363,-0.5858 -0.138,-1.3377 0.14,-1.7293 0.474,-0.6694 -0.21,-1.2728 0.139,-1.7572 0.502,-0.6973 -0.097,-1.2715 0.251,-1.7293 0.53,-0.6973 -0.056,-1.3946 0.168,-1.7572 0.223,-0.3626 0.585,-1.9245 -0.112,-2.1755 z" id="path144" inkscape:connector-curvature="0"/>
          <path style="fill:#fdc300;fill-opacity:0.996081;stroke:#000000;stroke-width:0.0625" d="m 217.29,77.9738 c -0.39,0.972 0.279,1.3608 0.056,2.1383 -0.223,0.7776 0.279,1.3608 -0.056,2.2031 -0.334,0.8424 0.447,1.4903 0,2.5919 -0.446,1.1016 0.288,1.3758 0,2.4623 -0.334,1.2637 0.558,1.9331 0,2.8257 -0.557,0.8925 0.639,1.188 0.056,2.1197 -0.279,0.4463 0.028,1.5899 0.474,0.2232 0.447,-1.3667 -0.334,-1.534 0.056,-2.0919 0.391,-0.5579 -0.139,-2.0361 0.028,-2.8171 0.168,-0.781 -0.39,-1.8409 -0.028,-2.6776 0.363,-0.8367 -0.558,-1.7292 -0.195,-2.4545 0.363,-0.7251 -0.167,-1.6177 0.167,-2.2034 0.335,-0.5857 -0.251,-1.3667 -0.111,-1.7014 0.139,-0.3347 -0.14,-1.5712 -0.447,-0.6183 z" id="path146" inkscape:connector-curvature="0"/>
        </g>
        <path style="fill:#ef072d;stroke:#000000;stroke-width:0.0625" d="m 221.474,74.4083 c 0,-6.3035 -0.892,-8.479 -4.184,-8.479 -3.291,0 -4.183,2.1755 -4.183,8.479 l 8.367,0 z" id="path148" inkscape:connector-curvature="0"/>
        <g id="g150">
          <path style="fill:none;stroke:#000000;stroke-width:0.0625" d="m 214.334,73.9063 c -0.614,0.6136 0.112,1.0599 -0.502,1.785 -0.614,0.7253 -0.056,1.1157 -0.558,1.7851 -0.502,0.6694 0.223,1.0042 -0.335,1.7293 -0.557,0.7252 0.112,1.1715 -0.502,1.7851 -0.613,0.6136 0.112,1.1715 -0.502,1.8409 -0.613,0.6694 0.112,1.1156 -0.502,1.7292 -0.613,0.6137 0.112,1.2831 -0.502,1.8966 -0.613,0.6137 0.112,1.3946 -0.558,2.1199 -0.669,0.7251 0.112,1.2829 -0.446,1.8408 -0.558,0.5578 -0.056,1.1156 -0.446,1.5061 -0.391,0.3905 -0.446,0.9345 -0.279,1.1715" id="path152" inkscape:connector-curvature="0"/>
          <path style="fill:none;stroke:#000000;stroke-width:0.0625" d="m 215.505,74.1294 c -0.557,0.7252 0.279,1.0599 -0.223,1.6735 -0.502,0.6137 0.223,0.8368 -0.167,1.562 -0.39,0.7252 0.279,0.8925 -0.223,1.6177 -0.502,0.7252 0.279,1.283 -0.279,2.0082 -0.558,0.7252 0.279,1.1156 -0.223,1.8409 -0.502,0.7251 0.223,1.1156 -0.223,1.6735 -0.447,0.5578 0.334,1.1156 -0.223,1.785 -0.558,0.6695 0.223,1.1715 -0.224,1.7851 -0.446,0.6136 0.168,1.283 -0.223,1.785 -0.39,0.5021 0.279,1.2273 -0.279,1.8967 -0.558,0.6694 0.112,1.1157 -0.223,1.562 -0.335,0.4462 -0.599,1.1017 -0.279,1.283" id="path154" inkscape:connector-curvature="0"/>
          <path style="fill:none;stroke:#000000;stroke-width:0.0625" d="m 217.29,74.7988 c -0.278,1.1663 0.391,2.2031 0,3.175 -0.39,0.972 0.279,1.3608 0.056,2.1383 -0.223,0.7776 0.279,1.3608 -0.056,2.2031 -0.334,0.8424 0.447,1.4903 0,2.5919 -0.446,1.1016 0.288,1.3758 0,2.4623 -0.334,1.2637 0.558,1.9331 0,2.8257 -0.557,0.8925 0.503,1.1157 0.056,2.1197 -0.446,1.0042 0.279,1.3946 -0.056,2.3988" id="path156" inkscape:connector-curvature="0"/>
          <path style="fill:none;stroke:#000000;stroke-width:0.0625" d="m 220.247,73.9063 c 0.614,0.6136 -0.112,1.0599 0.502,1.785 0.614,0.7253 0.056,1.1157 0.558,1.7851 0.502,0.6694 -0.223,1.0042 0.335,1.7293 0.557,0.7252 -0.112,1.1715 0.502,1.7851 0.613,0.6136 -0.112,1.1715 0.502,1.8409 0.613,0.6694 -0.112,1.1156 0.502,1.7292 0.613,0.6137 -0.112,1.2831 0.502,1.8966 0.613,0.6137 -0.112,1.3946 0.558,2.1199 0.669,0.7251 -0.112,1.2829 0.446,1.8408 0.558,0.5578 0.056,1.1156 0.446,1.5061 0.391,0.3905 0.447,0.9345 0.279,1.1715" id="path158" inkscape:connector-curvature="0"/>
          <path style="fill:none;stroke:#000000;stroke-width:0.0625" d="m 219.076,74.1294 c 0.557,0.7252 -0.279,1.0599 0.223,1.6735 0.502,0.6137 -0.223,0.8368 0.167,1.562 0.391,0.7252 -0.279,0.8925 0.223,1.6177 0.502,0.7252 -0.279,1.283 0.279,2.0082 0.558,0.7252 -0.279,1.1156 0.223,1.8409 0.502,0.7251 -0.223,1.1156 0.223,1.6735 0.447,0.5578 -0.334,1.1156 0.224,1.785 0.557,0.6695 -0.224,1.1715 0.223,1.7851 0.446,0.6136 -0.168,1.283 0.223,1.785 0.39,0.5021 -0.279,1.2273 0.279,1.8967 0.558,0.6694 -0.112,1.1157 0.223,1.562 0.335,0.4462 0.6,1.1017 0.279,1.283" id="path160" inkscape:connector-curvature="0"/>
        </g>
        <path style="fill:#000000;stroke:#000000;stroke-width:0.0625" d="m 213.107,74.4083 c 0,-6.3035 0.892,-8.479 4.183,-8.479 -1.506,0 -2.426,1.1713 -2.677,1.9523 -0.251,0.781 -0.112,0.7252 0.223,0.4184 0.335,-0.3068 0.167,0.3626 -0.111,0.7252 -0.279,0.3626 -0.558,1.3946 -0.168,1.0599 0.391,-0.3347 0.697,0.0558 0.279,0.6415 -0.418,0.5857 -0.781,1.9524 -0.363,1.4783 0.419,-0.4742 0.502,0.3068 0.252,0.6973 -0.252,0.3905 -0.224,0.7251 0,0.5578 0.223,-0.1673 0.195,0.6415 -0.028,0.9483 l -1.59,0 z" id="path162" inkscape:connector-curvature="0"/>
        <path style="fill:#000000;stroke:#000000;stroke-width:0.0625" d="m 220.833,74.0457 c 0,-4.9368 -0.613,-6.4151 -1.84,-6.9171 -0.695,-0.2847 -0.715,-0.2231 -0.383,0.2231 0.332,0.4462 0.281,1.0878 -0.026,0.6415 -0.306,-0.4462 -0.408,-0.5299 -0.536,-0.3346 -0.128,0.1952 0.357,1.1156 0.715,1.9524 0.288,0.673 0.102,1.004 -0.332,0.3346 -0.434,-0.6694 -0.434,-0.063 -0.053,0.5021 0.489,0.7252 0.474,2.9286 0.474,3.849 l 1.981,-0.251 z" id="path164" inkscape:connector-curvature="0"/>
        <path style="fill:#ef072d;stroke:#000000;stroke-width:0.0625" d="m 217.29,75.3288 c 1.311,0 2.746,-0.2336 3.71,-0.6079 1.144,-0.4441 1.205,-0.8343 0.809,-1.3325 -0.279,-0.3507 -0.893,-0.1402 -1.478,0.1169 -0.586,0.2571 -2.204,0.4208 -3.041,0.4208 -0.836,0 -2.454,-0.1637 -3.04,-0.4208 -0.585,-0.2571 -1.199,-0.4676 -1.478,-0.1169 -0.396,0.4982 -0.335,0.8884 0.809,1.3325 0.963,0.3743 2.399,0.6079 3.709,0.6079 z" id="path166" inkscape:connector-curvature="0"/>
      </g>
      <g transform="matrix(0.895602,0,0,0.895702,239.4897,59.73914)" style="font-size:12px" id="g1070">
        <path transform="matrix(0.06308398,-0.04073591,0.03863361,0.06651678,712.0953,209.8693)" style="font-size:12px;fill:#b95a1e;fill-rule:evenodd;stroke:#000000;stroke-width:4.375" sodipodi:nodetypes="cccccc" id="path577" d="m 779.408,912.595 c 0,0 -0.12,103.595 0,179.235 0.12,75.63 19.822,104.91 54.262,103.59 34.44,-1.33 41.108,-58.83 34.531,-92.08 -6.577,-33.26 -53.24,-198.967 -53.24,-198.967 l -35.553,8.222 z" inkscape:connector-curvature="0"/>
        <path transform="matrix(0.07236112,-0.01619858,0.0153626,0.07629874,725.1523,182.3482)" style="font-size:12px;fill:#b95a1e;fill-rule:evenodd;stroke:#000000;stroke-width:4.375" sodipodi:nodetypes="cccccc" id="path576" d="m 779.408,912.595 c 0,0 -0.12,103.595 0,179.235 0.12,75.63 19.822,104.91 54.262,103.59 34.44,-1.33 41.108,-58.83 34.531,-92.08 -6.577,-33.26 -53.24,-198.967 -53.24,-198.967 l -35.553,8.222 z" inkscape:connector-curvature="0"/>
        <path transform="matrix(0.0739739,0,0,0.07799929,736.2345,168.4202)" style="font-size:12px;fill:#b95a1e;fill-rule:evenodd;stroke:#000000;stroke-width:4.375" sodipodi:nodetypes="cccccc" id="path575" d="m 779.408,912.595 c 0,0 -0.12,103.595 0,179.235 0.12,75.63 19.822,104.91 54.262,103.59 34.44,-1.33 41.108,-58.83 34.531,-92.08 -6.577,-33.26 -53.24,-198.967 -53.24,-198.967 l -35.553,8.222 z" inkscape:connector-curvature="0"/>
        <path transform="matrix(0.0459062,0,0,0.07799929,758.114,219.5496)" style="font-size:12px;fill:#b95a1e;fill-rule:evenodd;stroke:#000000;stroke-width:5.55368996" sodipodi:nodetypes="ccscc" id="path574" d="m 779.528,255.118 c 159.568,-1.394 177.165,-35.432 177.165,-35.432 0,0 35.43,-70.866 17.716,-88.584 -17.717,-17.716 -194.881,-17.716 -194.881,-17.716 l 0,141.732 z" inkscape:connector-curvature="0"/>
        <path transform="matrix(0.0739739,0,0,0.07799929,736.2344,214.0221)" style="font-size:12px;fill:#b95a1e;fill-rule:evenodd;stroke:#000000;stroke-width:4.375" sodipodi:nodetypes="ccscc" id="path570" d="m 779.528,255.118 c 106.299,0 124.016,-35.432 124.016,-35.432 0,0 35.43,-70.866 17.716,-88.584 -17.717,-17.716 -141.732,-17.716 -141.732,-17.716 l 0,141.732 z" inkscape:connector-curvature="0"/>
        <path transform="matrix(0.0739739,0,0,0.07799929,736.2344,208.4946)" style="font-size:12px;fill:#b95a1e;fill-rule:evenodd;stroke:#000000;stroke-width:4.375" sodipodi:nodetypes="ccscc" id="path569" d="m 779.528,255.118 c 88.583,0 141.733,-35.433 141.733,-35.433 0,0 35.43,-70.866 17.716,-88.584 C 921.26,113.385 779.528,113.386 779.528,113.386 l 0,141.732 z" inkscape:connector-curvature="0"/>
        <path transform="matrix(0.09180368,0,0,0.07799929,721.8746,168.5821)" style="font-size:12px;fill:#b95a1e;fill-rule:evenodd;stroke:#000000;stroke-width:3.92723989" sodipodi:nodetypes="cscscc" id="path554" d="m 832.677,113.386 c 0,0 70.866,-88.5828 194.883,-177.1655 124.01,-88.5825 213.73,-156.7215 230.31,-141.7325 0,17.717 -106.3,106.2994 -194.88,177.1655 C 974.409,42.5196 868.11,148.819 868.11,148.819 l -35.433,-35.433 z" inkscape:connector-curvature="0"/>
        <path transform="matrix(0.09180368,0,0,0.07799929,722.6294,174.1096)" style="font-size:12px;fill:#b95a1e;fill-rule:evenodd;stroke:#000000;stroke-width:3.92723989" sodipodi:nodetypes="cscscc" id="path557" d="m 832.677,113.386 c 0,0 70.05,-52.0252 204.383,-124.0158 132.23,-63.9177 318.89,-53.1497 318.89,-35.4331 -17.71,17.7164 -177.16,17.7165 -283.46,70.8661 C 971.023,75.5351 868.11,148.819 868.11,148.819 l -35.433,-35.433 z" inkscape:connector-curvature="0"/>
        <path transform="matrix(0.09180368,0,0,0.07799929,722.6986,183.628)" style="font-size:12px;fill:#b95a1e;fill-rule:evenodd;stroke:#000000;stroke-width:3.92723989" sodipodi:nodetypes="cscscc" id="path558" d="m 832.677,113.386 c 0,0 61.675,-35.0681 204.383,-88.5828 141.72,-53.1496 329.87,-17.71664 329.87,0 C 1349.22,42.5196 1196.5,31.7514 1090.2,60.2363 980.207,87.9936 868.11,148.819 868.11,148.819 l -35.433,-35.433 z" inkscape:connector-curvature="0"/>
        <path transform="matrix(0.09180368,0,0,0.07799929,723.317,193.294)" style="font-size:12px;fill:#b95a1e;fill-rule:evenodd;stroke:#000000;stroke-width:3.92723989" sodipodi:nodetypes="cscscc" id="path559" d="m 832.677,113.386 c 0,0 71.079,-70.9758 222.473,-88.5828 C 1207.48,7.08672 1331.5,113.386 1331.5,131.102 1313.79,148.819 1172.05,53.1275 1065.75,66.8135 953.132,80.4679 868.11,148.819 868.11,148.819 l -35.433,-35.433 z" inkscape:connector-curvature="0"/>
        <path transform="matrix(0.0739739,0,0,0.07799929,736.2344,201.5853)" style="font-size:12px;fill:#b95a1e;fill-rule:evenodd;stroke:#000000;stroke-width:4.375" sodipodi:nodetypes="ccscc" id="path568" d="m 779.528,255.118 c 159.568,-1.394 159.449,-45.508 159.449,-45.508 0,0 35.43,-70.866 17.716,-88.584 -17.717,-17.716 -177.165,-7.64 -177.165,-7.64 l 0,141.732 z" inkscape:connector-curvature="0"/>
        <path transform="matrix(0.0739739,0,0,0.07799929,736.2344,196.0577)" style="font-size:12px;fill:#b95a1e;fill-rule:evenodd;stroke:#000000;stroke-width:4.375" sodipodi:nodetypes="ccscc" id="path567" d="m 779.528,255.118 c 159.568,-1.394 177.165,-35.432 177.165,-35.432 0,0 35.43,-70.866 17.716,-88.584 -17.717,-17.716 -194.881,-17.716 -194.881,-17.716 l 0,141.732 z" inkscape:connector-curvature="0"/>
        <path transform="matrix(0.0739739,0,0,0.07799929,736.2344,189.1483)" style="font-size:12px;fill:#b95a1e;fill-rule:evenodd;stroke:#000000;stroke-width:4.375" sodipodi:nodetypes="ccscc" id="path565" d="m 779.528,255.118 c 159.568,-1.394 194.882,-35.433 194.882,-35.433 0,0 35.43,-70.866 17.716,-88.583 -17.717,-17.716 -212.598,-17.716 -212.598,-17.716 l 0,141.732 z" inkscape:connector-curvature="0"/>
        <path transform="matrix(0.0739739,0,0,0.07799929,736.2345,182.239)" style="font-size:12px;fill:#b95a1e;fill-rule:evenodd;stroke:#000000;stroke-width:4.375" sodipodi:nodetypes="ccscc" id="path566" d="m 779.528,255.118 c 159.568,-1.394 212.598,-35.433 212.598,-35.433 0,0 17.714,-70.866 0,-88.583 -17.717,-17.716 -212.598,-17.716 -212.598,-17.716 l 0,141.732 z" inkscape:connector-curvature="0"/>
        <path transform="matrix(0.09180368,0,0,0.07799929,720.0775,162.8927)" style="font-size:12px;fill:#b95a1e;fill-rule:evenodd;stroke:#000000;stroke-width:3.92723989" sodipodi:nodetypes="cscscc" id="path560" d="m 832.677,113.386 c 0,0 114.206,-88.5828 114.206,-159.4489 0,-70.8661 -50.349,-141.7321 -64.625,-177.1651 28.552,0 93.176,106.299 93.176,177.1651 0,77.4436 -107.324,194.8819 -107.324,194.8819 l -35.433,-35.433 z" inkscape:connector-curvature="0"/>
        <path transform="matrix(0.09180368,0,0,0.07799929,720.0775,162.8927)" style="font-size:12px;fill:#b95a1e;fill-rule:evenodd;stroke:#000000;stroke-width:3.92723989" sodipodi:nodetypes="cscscc" id="path561" d="m 832.677,113.386 c 0,0 -14.276,-53.1496 -14.276,-159.4489 0,-124.0161 63.001,-202.8931 85.654,-230.3151 5.898,27.422 -57.102,124.016 -57.102,230.3151 0,77.4437 21.157,194.8819 21.157,194.8819 l -35.433,-35.433 z" inkscape:connector-curvature="0"/>
        <path transform="matrix(0.0739739,0,0,0.07799929,736.2344,175.3296)" style="font-size:12px;fill:#b95a1e;fill-rule:evenodd;stroke:#000000;stroke-width:4.375" sodipodi:nodetypes="ccscc" id="path564" d="m 779.528,255.118 c 159.568,-1.394 212.598,-35.433 212.598,-35.433 0,0 0,-70.866 -17.716,-88.583 -17.717,-17.716 -194.882,-17.716 -194.882,-17.716 l 0,141.732 z" inkscape:connector-curvature="0"/>
        <path transform="matrix(0.0739739,0,0,0.07799929,736.2345,168.4202)" style="font-size:12px;fill:#b95a1e;fill-rule:evenodd;stroke:#000000;stroke-width:4.375" sodipodi:nodetypes="ccscc" id="path563" d="m 779.528,255.118 c 159.568,-1.394 194.881,-35.433 194.881,-35.433 0,0 0,-70.866 -17.716,-88.583 -17.717,-17.716 -177.165,-17.716 -177.165,-17.716 l 0,141.732 z" inkscape:connector-curvature="0"/>
        <path transform="matrix(-0.0739739,0,0,0.07799929,851.564,168.4202)" style="font-size:12px;fill:#b95a1e;fill-rule:evenodd;stroke:#fdc301;stroke-width:11.0255003;stroke-opacity:1;stroke-dasharray:none" sodipodi:nodetypes="csssccsssc" id="path553" d="m 318.898,1318.11 c 55.065,-122.32 70.866,-336.614 70.866,-372.047 0,-99.782 -32.948,-585.106 -35.433,-779.528 -2.485,-194.422 124.015,-301.181 248.031,-301.181 106.299,0 177.166,70.8665 177.166,177.1657 l -53.15,0 c 0,-70.8662 -53.15,-124.0157 -124.016,-124.0157 -106.299,0 -187.994,83.73897 -194.882,248.031 -7.605,189.886 21.316,682.945 17.717,814.961 -3.599,132.024 -51.234,249.724 -106.299,336.614 z" inkscape:connector-curvature="0"/>
        <path transform="matrix(-0.06308398,-0.04073591,-0.03863361,0.06651678,875.6903,209.8693)" style="font-size:12px;fill:#b95a1e;fill-rule:evenodd;stroke:#000000;stroke-width:4.375" sodipodi:nodetypes="cccccc" id="path578" d="m 779.408,912.595 c 0,0 -0.12,103.595 0,179.235 0.12,75.63 19.822,104.91 54.262,103.59 34.44,-1.33 41.108,-58.83 34.531,-92.08 -6.577,-33.26 -53.24,-198.967 -53.24,-198.967 l -35.553,8.222 z" inkscape:connector-curvature="0"/>
        <path transform="matrix(0.0739739,0,0,0.07799929,736.2345,168.4202)" style="font-size:12px;fill:#b95a1e;fill-rule:evenodd;stroke:#000000;stroke-width:4.375" sodipodi:nodetypes="ccscc" id="path562" d="M 779.528,32.8841 C 903.664,33.0247 957.295,135.273 956.994,133.188 l -35.734,33.347 c -18.985,17.717 -141.732,17.717 -140.208,17.626 L 779.528,32.8841 z" inkscape:connector-curvature="0"/>
        <path transform="matrix(-0.07236112,-0.01619858,-0.0153626,0.07629874,862.6333,182.3482)" style="font-size:12px;fill:#b95a1e;fill-rule:evenodd;stroke:#000000;stroke-width:4.375" sodipodi:nodetypes="cccccc" id="path579" d="m 779.408,912.595 c 0,0 -0.12,103.595 0,179.235 0.12,75.63 19.822,104.91 54.262,103.59 34.44,-1.33 41.108,-58.83 34.531,-92.08 -6.577,-33.26 -53.24,-198.967 -53.24,-198.967 l -35.553,8.222 z" inkscape:connector-curvature="0"/>
        <path transform="matrix(-0.0739739,0,0,0.07799929,851.5511,168.4202)" style="font-size:12px;fill:#b95a1e;fill-rule:evenodd;stroke:#000000;stroke-width:4.375" sodipodi:nodetypes="cccccc" id="path580" d="m 779.408,912.595 c 0,0 -0.12,103.595 0,179.235 0.12,75.63 19.822,104.91 54.262,103.59 34.44,-1.33 41.108,-58.83 34.531,-92.08 -6.577,-33.26 -53.24,-198.967 -53.24,-198.967 l -35.553,8.222 z" inkscape:connector-curvature="0"/>
        <path transform="matrix(-0.0459062,0,0,0.07799929,829.6716,219.5496)" style="font-size:12px;fill:#b95a1e;fill-rule:evenodd;stroke:#000000;stroke-width:5.55368996" sodipodi:nodetypes="ccscc" id="path581" d="m 779.528,255.118 c 159.568,-1.394 177.165,-35.432 177.165,-35.432 0,0 35.43,-70.866 17.716,-88.584 -17.717,-17.716 -194.881,-17.716 -194.881,-17.716 l 0,141.732 z" inkscape:connector-curvature="0"/>
        <path transform="matrix(-0.0739739,0,0,0.07799929,851.5511,214.0221)" style="font-size:12px;fill:#b95a1e;fill-rule:evenodd;stroke:#000000;stroke-width:4.375" sodipodi:nodetypes="ccscc" id="path582" d="m 779.528,255.118 c 106.299,0 124.016,-35.432 124.016,-35.432 0,0 35.43,-70.866 17.716,-88.584 -17.717,-17.716 -141.732,-17.716 -141.732,-17.716 l 0,141.732 z" inkscape:connector-curvature="0"/>
        <path transform="matrix(-0.0739739,0,0,0.07799929,851.5511,208.4946)" style="font-size:12px;fill:#b95a1e;fill-rule:evenodd;stroke:#000000;stroke-width:4.375" sodipodi:nodetypes="ccscc" id="path583" d="m 779.528,255.118 c 88.583,0 141.733,-35.433 141.733,-35.433 0,0 35.43,-70.866 17.716,-88.584 C 921.26,113.385 779.528,113.386 779.528,113.386 l 0,141.732 z" inkscape:connector-curvature="0"/>
        <path transform="matrix(-0.09180368,0,0,0.07799929,865.9109,168.5821)" style="font-size:12px;fill:#b95a1e;fill-rule:evenodd;stroke:#000000;stroke-width:3.92723989" sodipodi:nodetypes="cscscc" id="path584" d="m 832.677,113.386 c 0,0 70.866,-88.5828 194.883,-177.1655 124.01,-88.5825 213.73,-156.7215 230.31,-141.7325 0,17.717 -106.3,106.2994 -194.88,177.1655 C 974.409,42.5196 868.11,148.819 868.11,148.819 l -35.433,-35.433 z" inkscape:connector-curvature="0"/>
        <path transform="matrix(-0.09180368,0,0,0.07799929,865.1562,174.1096)" style="font-size:12px;fill:#b95a1e;fill-rule:evenodd;stroke:#000000;stroke-width:3.92723989" sodipodi:nodetypes="cscscc" id="path585" d="m 832.677,113.386 c 0,0 70.05,-52.0252 204.383,-124.0158 132.23,-63.9177 318.89,-53.1497 318.89,-35.4331 -17.71,17.7164 -177.16,17.7165 -283.46,70.8661 C 971.023,75.5351 868.11,148.819 868.11,148.819 l -35.433,-35.433 z" inkscape:connector-curvature="0"/>
        <path transform="matrix(-0.09180368,0,0,0.07799929,865.087,183.628)" style="font-size:12px;fill:#b95a1e;fill-rule:evenodd;stroke:#000000;stroke-width:3.92723989" sodipodi:nodetypes="cscscc" id="path586" d="m 832.677,113.386 c 0,0 61.675,-35.0681 204.383,-88.5828 141.72,-53.1496 329.87,-17.71664 329.87,0 C 1349.22,42.5196 1196.5,31.7514 1090.2,60.2363 980.207,87.9936 868.11,148.819 868.11,148.819 l -35.433,-35.433 z" inkscape:connector-curvature="0"/>
        <path transform="matrix(-0.09180368,0,0,0.07799929,864.4686,193.294)" style="font-size:12px;fill:#b95a1e;fill-rule:evenodd;stroke:#000000;stroke-width:3.92723989" sodipodi:nodetypes="cscscc" id="path587" d="m 832.677,113.386 c 0,0 71.079,-70.9758 222.473,-88.5828 C 1207.48,7.08672 1331.5,113.386 1331.5,131.102 1313.79,148.819 1172.05,53.1275 1065.75,66.8135 953.132,80.4679 868.11,148.819 868.11,148.819 l -35.433,-35.433 z" inkscape:connector-curvature="0"/>
        <path transform="matrix(-0.0739739,0,0,0.07799929,851.5511,201.5853)" style="font-size:12px;fill:#b95a1e;fill-rule:evenodd;stroke:#000000;stroke-width:4.375" sodipodi:nodetypes="ccscc" id="path588" d="m 779.528,255.118 c 159.568,-1.394 159.449,-45.508 159.449,-45.508 0,0 35.43,-70.866 17.716,-88.584 -17.717,-17.716 -177.165,-7.64 -177.165,-7.64 l 0,141.732 z" inkscape:connector-curvature="0"/>
        <path transform="matrix(-0.0739739,0,0,0.07799929,851.5511,196.0577)" style="font-size:12px;fill:#b95a1e;fill-rule:evenodd;stroke:#000000;stroke-width:4.375" sodipodi:nodetypes="ccscc" id="path589" d="m 779.528,255.118 c 159.568,-1.394 177.165,-35.432 177.165,-35.432 0,0 35.43,-70.866 17.716,-88.584 -17.717,-17.716 -194.881,-17.716 -194.881,-17.716 l 0,141.732 z" inkscape:connector-curvature="0"/>
        <path transform="matrix(-0.0739739,0,0,0.07799929,851.5511,189.1483)" style="font-size:12px;fill:#b95a1e;fill-rule:evenodd;stroke:#000000;stroke-width:4.375" sodipodi:nodetypes="ccscc" id="path590" d="m 779.528,255.118 c 159.568,-1.394 194.882,-35.433 194.882,-35.433 0,0 35.43,-70.866 17.716,-88.583 -17.717,-17.716 -212.598,-17.716 -212.598,-17.716 l 0,141.732 z" inkscape:connector-curvature="0"/>
        <path transform="matrix(-0.0739739,0,0,0.07799929,851.5511,182.239)" style="font-size:12px;fill:#b95a1e;fill-rule:evenodd;stroke:#000000;stroke-width:4.375" sodipodi:nodetypes="ccscc" id="path591" d="m 779.528,255.118 c 159.568,-1.394 212.598,-35.433 212.598,-35.433 0,0 17.714,-70.866 0,-88.583 -17.717,-17.716 -212.598,-17.716 -212.598,-17.716 l 0,141.732 z" inkscape:connector-curvature="0"/>
        <path transform="matrix(-0.09180368,0,0,0.07799929,867.7081,162.8927)" style="font-size:12px;fill:#b95a1e;fill-rule:evenodd;stroke:#000000;stroke-width:3.92723989" sodipodi:nodetypes="cscscc" id="path592" d="m 832.677,113.386 c 0,0 114.206,-88.5828 114.206,-159.4489 0,-70.8661 -50.349,-141.7321 -64.625,-177.1651 28.552,0 93.176,106.299 93.176,177.1651 0,77.4436 -107.324,194.8819 -107.324,194.8819 l -35.433,-35.433 z" inkscape:connector-curvature="0"/>
        <path transform="matrix(-0.09180368,0,0,0.07799929,867.7081,162.8927)" style="font-size:12px;fill:#b95a1e;fill-rule:evenodd;stroke:#000000;stroke-width:3.92723989" sodipodi:nodetypes="cscscc" id="path593" d="m 832.677,113.386 c 0,0 -14.276,-53.1496 -14.276,-159.4489 0,-124.0161 63.001,-202.8931 85.654,-230.3151 5.898,27.422 -57.102,124.016 -57.102,230.3151 0,77.4437 21.157,194.8819 21.157,194.8819 l -35.433,-35.433 z" inkscape:connector-curvature="0"/>
        <path transform="matrix(-0.0739739,0,0,0.07799929,851.5511,175.3296)" style="font-size:12px;fill:#b95a1e;fill-rule:evenodd;stroke:#000000;stroke-width:4.375" sodipodi:nodetypes="ccscc" id="path594" d="m 779.528,255.118 c 159.568,-1.394 212.598,-35.433 212.598,-35.433 0,0 0,-70.866 -17.716,-88.583 -17.717,-17.716 -194.882,-17.716 -194.882,-17.716 l 0,141.732 z" inkscape:connector-curvature="0"/>
        <path transform="matrix(-0.0739739,0,0,0.07799929,851.5511,168.4202)" style="font-size:12px;fill:#b95a1e;fill-rule:evenodd;stroke:#000000;stroke-width:4.375" sodipodi:nodetypes="ccscc" id="path595" d="m 779.528,255.118 c 159.568,-1.394 194.881,-35.433 194.881,-35.433 0,0 0,-70.866 -17.716,-88.583 -17.717,-17.716 -177.165,-17.716 -177.165,-17.716 l 0,141.732 z" inkscape:connector-curvature="0"/>
        <path transform="matrix(0.0739739,0,0,0.07799929,736.2217,168.4202)" style="font-size:12px;fill:#b95a1e;fill-rule:evenodd;stroke:#fdc301;stroke-width:11.0255003;stroke-opacity:1;stroke-dasharray:none" sodipodi:nodetypes="csssccsssc" id="path597" d="m 318.898,1318.11 c 55.065,-122.32 70.866,-336.614 70.866,-372.047 0,-99.782 -32.948,-585.106 -35.433,-779.528 -2.485,-194.422 124.015,-301.181 248.031,-301.181 106.299,0 177.166,70.8665 177.166,177.1657 l -53.15,0 c 0,-70.8662 -53.15,-124.0157 -124.016,-124.0157 -106.299,0 -187.994,83.73897 -194.882,248.031 -7.605,189.886 21.316,682.945 17.717,814.961 -3.599,132.024 -51.234,249.724 -106.299,336.614 z" inkscape:connector-curvature="0"/>
        <path transform="matrix(-0.0739739,0,0,0.07799929,851.5511,168.4202)" style="font-size:12px;fill:#b95a1e;fill-rule:evenodd;stroke:#000000;stroke-width:4.375" sodipodi:nodetypes="ccscc" id="path596" d="M 779.528,32.8841 C 903.664,33.0247 957.295,135.273 956.994,133.188 l -35.734,33.347 c -18.985,17.717 -141.732,17.717 -140.208,17.626 L 779.528,32.8841 z" inkscape:connector-curvature="0"/>
      </g>
    </g>
  </g></g>
  <g id="02" inkscape:label="02" style="display:inline" transform="translate(0,38)">
    <path sodipodi:nodetypes="sscssscss" inkscape:connector-curvature="0" id="path3862-8" d="m 214.21087,111.21099 c -45.24514,0.18809 -68.71568,7.73077 -64.09352,83.5526 l 2.8252,46.34456 c 47.4743,5.51239 56.66416,18.44506 104.35936,21.91413 68.07337,4.95126 67.93728,5.42092 130.56477,-14.38414 62.62753,-19.80506 5.82485,-65.24698 207.32205,-57.8201 4.60334,0.16968 17.3137,-3.05269 27.46187,-12.15043 5.5817,-46.52389 -2.78415,-69.14289 -66.93352,-68.87623 z" style="color:#000000;fill:url(#linearGradient5125);fill-opacity:1;fill-rule:nonzero;stroke:none;stroke-width:1.62399995;marker:none;visibility:visible;overflow:visible;enable-background:accumulate"/>
    <path inkscape:connector-curvature="0" id="path3079-9" d="m 531.03278,495.17335 c -31.60486,19.02245 -27.60116,31.26037 -37.91323,32.57276 -94.70417,12.0527 -145.97722,-0.72701 -165.79583,-12.06122 -59.58792,-34.07817 -68.46788,-13.01421 -100.22126,-16.5742 -20.11475,-2.25514 -59.24503,12.98404 -73.38763,44.34434 3.47222,27.60795 18.11064,32.09835 44.28127,31.98612 l 356.05526,-1.52684 c 69.69188,-0.29885 56.33547,-8.49265 65.54301,-56.03861 -14.77205,-21.67074 -13.15664,9.10903 -44.2237,-30.71666 z" style="color:#000000;fill:url(#linearGradient5122);fill-opacity:1;fill-rule:nonzero;stroke:none;stroke-width:1.62399994999999997;marker:none;visibility:visible;overflow:visible;enable-background:accumulate" sodipodi:nodetypes="cssscssccc"/>
    <rect id="rect5734" height="512" x="0" style="fill:none;stroke:#000000;stroke-width:20;stroke-miterlimit:4;stroke-opacity:1;stroke-dasharray:none;display:inline;filter:url(#filter5740)" width="512" y="0" ry="57" inkscape:label="#rect4203" transform="translate(128,90)" clip-path="url(#clipPath5796)"/>
  </g></g>
</svg>
