<?xml version="1.0" encoding="UTF-8" standalone="no"?>
<svg xmlns:dc="http://purl.org/dc/elements/1.1/" xmlns:cc="http://creativecommons.org/ns#" xmlns:rdf="http://www.w3.org/1999/02/22-rdf-syntax-ns#" xmlns:svg="http://www.w3.org/2000/svg" xmlns="http://www.w3.org/2000/svg" xmlns:xlink="http://www.w3.org/1999/xlink" xmlns:sodipodi="http://sodipodi.sourceforge.net/DTD/sodipodi-0.dtd" xmlns:inkscape="http://www.inkscape.org/namespaces/inkscape" width="768" height="768" id="svg2" version="1.1" inkscape:version="0.48.1 r9760" sodipodi:docname="template.svg">
  <defs id="defs4">
    <clipPath clipPathUnits="userSpaceOnUse" id="clipPathFlag">
      <rect id="rect3918" height="511" x="0.5" style="fill:#000000;fill-opacity:0.67000002;stroke:none" width="511" y="0.5" ry="57"/>
    </clipPath>
    <linearGradient id="linearGradient3852" inkscape:collect="always">
      <stop id="stop3854" offset="0" style="stop-color:#dbe3db;stop-opacity:1;"/>
      <stop id="stop3856" offset="1" style="stop-color:#dbe3db;stop-opacity:0;"/>
    </linearGradient>
    <linearGradient inkscape:collect="always" xlink:href="#linearGradient3852" id="linearGradient3070" gradientUnits="userSpaceOnUse" x1="339.54913" y1="646.63617" x2="345.74551" y2="566.63617" gradientTransform="matrix(0.93191514,0,0,0.93191514,7.9467803,7.2318863)"/>
    <clipPath id="clipPath3882" clipPathUnits="userSpaceOnUse">
      <path sodipodi:type="inkscape:offset" inkscape:radius="11.844458" inkscape:original="M 243.75 118.0625 C 179.93919 118.0625 128.5625 169.43919 128.5625 233.25 L 128.5625 528.59375 C 128.5625 592.40456 179.93919 643.78125 243.75 643.78125 L 539.09375 643.78125 C 602.90456 643.78125 654.28125 592.40456 654.28125 528.59375 L 654.28125 233.25 C 654.28125 169.43919 602.90456 118.0625 539.09375 118.0625 L 243.75 118.0625 z " style="color:#000000;fill:none;stroke:none;stroke-width:20;marker:none;visibility:visible;display:inline;overflow:visible;enable-background:accumulate" id="path3884" d="m 243.75,106.21875 c -70.16845,0 -127.03125,56.8628 -127.03125,127.03125 l 0,295.34375 c 0,70.16845 56.8628,127.03125 127.03125,127.03125 l 295.34375,0 c 70.16845,0 127.03125,-56.8628 127.03125,-127.03125 l 0,-295.34375 c 0,-70.16845 -56.8628,-127.03125 -127.03125,-127.03125 l -295.34375,0 z"/>
    </clipPath>
    <linearGradient id="linearGradient3852-0" inkscape:collect="always">
      <stop id="stop3854-6" offset="0" style="stop-color:#dbe3db;stop-opacity:1;"/>
      <stop id="stop3856-1" offset="1" style="stop-color:#dbe3db;stop-opacity:0;"/>
    </linearGradient>
    <linearGradient inkscape:collect="always" xlink:href="#linearGradient3852-0" id="linearGradient3070-5" gradientUnits="userSpaceOnUse" x1="339.54913" y1="646.63617" x2="345.74551" y2="566.63617" gradientTransform="matrix(0.93191514,0,0,0.93191514,7.9467803,7.2318863)"/>
    <linearGradient inkscape:collect="always" xlink:href="#linearGradient3852-0" id="linearGradient5122" gradientUnits="userSpaceOnUse" gradientTransform="matrix(1.1571075,0,0,1.3166846,-91.204261,-253.98784)" x1="342.1882" y1="705.75824" x2="358.07608" y2="523.40735"/>
    <linearGradient inkscape:collect="always" xlink:href="#linearGradient3852-0" id="linearGradient5125" gradientUnits="userSpaceOnUse" gradientTransform="matrix(0.95302723,0,0,0.86647129,11.575117,-4.501603)" x1="405.2634" y1="118.06474" x2="405.74554" y2="360.92188"/>
    <clipPath clipPathUnits="userSpaceOnUse" id="clipPath5712">
      <rect mask="none" inkscape:label="#rect4203" ry="64.777054" y="0" width="512" style="fill:none;display:inline" x="0" height="512" id="rect5714"/>
    </clipPath>
    <filter inkscape:collect="always" id="filter5740">
      <feGaussianBlur inkscape:collect="always" stdDeviation="5.12" id="feGaussianBlur5742"/>
    </filter>
    <clipPath clipPathUnits="userSpaceOnUse" id="clipPath5796">
      <rect inkscape:label="#rect4203" ry="57" y="0" width="512" style="fill:none;stroke:#00fa00;stroke-width:20;stroke-miterlimit:4;stroke-opacity:1;stroke-dasharray:none;display:inline" x="0" height="512" id="rect5798"/>
    </clipPath>
    <filter inkscape:collect="always" id="filter5912">
      <feGaussianBlur inkscape:collect="always" stdDeviation="17.92" id="feGaussianBlur5914"/>
    </filter>
  </defs>
  <sodipodi:namedview id="base" pagecolor="#ffffff" bordercolor="#666666" borderopacity="1.0" inkscape:pageopacity="0.0" inkscape:pageshadow="2" inkscape:zoom="0.65494792" inkscape:cx="191.61829" inkscape:cy="384" inkscape:document-units="px" showgrid="false" inkscape:window-width="1280" inkscape:window-height="723" inkscape:window-x="0" inkscape:window-y="24" inkscape:window-maximized="1"/>

  <g id="template-button" inkscape:label="template-button" style="display:inline">
  &gt;
  <g inkscape:label="00" id="00" style="display:inline" transform="translate(90,90)">
    <rect inkscape:label="#rect4203" ry="57" y="56" width="512" style="fill:#000000;fill-opacity:1;stroke:#a8a8a8;stroke-width:5;stroke-miterlimit:4;stroke-opacity:1;stroke-dasharray:none;display:inline;filter:url(#filter5912)" x="38" height="512" id="shadow"/>
  </g>
  <g id="01" inkscape:label="01" style="display:inline" transform="translate(128,128)" clip-path="url(#clipPathFlag)">
    <rect id="mask" height="512" x="0" style="fill:#0000ff;fill-opacity:1;stroke:none" width="512" y="0" ry="57" inkscape:label="#rect4203"/>
  <g transform="matrix(1.03068,0,0,1.03068,-256,2.2211914e-5)" id="flag" clip-path="url(#clipPath7106)" inkscape:label="#g7039">
    <rect style="font-size:12px;fill:#ffffff;fill-opacity:1;fill-rule:evenodd;stroke-width:1pt" id="rect3450" width="992.909" height="496.7594" x="0" y="0"/>
    <rect style="font-size:12px;fill:#239f40;fill-opacity:1;fill-rule:evenodd;stroke-width:1pt" id="rect3449" width="992.15692" height="134.98193" x="0" y="361.34515"/>
    <rect style="font-size:12px;fill:#cd1738;fill-opacity:1;fill-rule:evenodd;stroke-width:1pt" id="rect3452" width="992.15692" height="134.98193" x="0" y="0"/>
    <polygon d="m 391.56052,256.53049 3.57095,11.242 11.56027,-0.24853 -9.58829,6.87015 3.80868,10.91768 -9.49685,-6.99602 -9.20637,6.99602 3.71892,-11.19393 -9.49854,-6.59389 11.79527,0.0778 z" inkscape:randomized="0" inkscape:rounded="0" inkscape:flatsided="false" sodipodi:type="star" style="font-size:12px;fill:#ffff00;fill-opacity:1;fill-rule:evenodd;stroke:none" id="polygon3940" sodipodi:sides="5" sodipodi:cx="391.56052" sodipodi:cy="272.4404" sodipodi:r1="15.909912" sodipodi:r2="5.8771653" sodipodi:arg1="-1.5707964" sodipodi:arg2="-0.91776359" points="391.561,256.53 395.131,267.772 406.692,267.524 397.103,274.394 400.912,285.312 391.415,278.316 382.209,285.312 385.928,274.118 376.429,267.524 388.225,267.602 391.561,256.53 " transform="matrix(1,0,0,1.046066,11.9324,-62.41956)"/>
    <polygon d="m 391.56052,256.53049 3.57095,11.242 11.56027,-0.24853 -9.58829,6.87015 3.80868,10.91768 -9.49685,-6.99602 -9.20637,6.99602 3.71892,-11.19393 -9.49854,-6.59389 11.79527,0.0778 z" inkscape:randomized="0" inkscape:rounded="0" inkscape:flatsided="false" sodipodi:type="star" style="font-size:12px;fill:#ffff00;fill-opacity:1;fill-rule:evenodd;stroke:none" id="polygon3941" sodipodi:sides="5" sodipodi:cx="391.56052" sodipodi:cy="272.4404" sodipodi:r1="15.909912" sodipodi:r2="5.8771653" sodipodi:arg1="-1.5707964" sodipodi:arg2="-0.91776359" points="391.561,256.53 395.131,267.772 406.692,267.524 397.103,274.394 400.912,285.312 391.415,278.316 382.209,285.312 385.928,274.118 376.429,267.524 388.225,267.602 391.561,256.53 " transform="matrix(1,0,0,1.046066,0.441907,-12.03836)"/>
    <polygon d="m 391.56052,256.53049 3.57095,11.242 11.56027,-0.24853 -9.58829,6.87015 3.80868,10.91768 -9.49685,-6.99602 -9.20637,6.99602 3.71892,-11.19393 -9.49854,-6.59389 11.79527,0.0778 z" inkscape:randomized="0" inkscape:rounded="0" inkscape:flatsided="false" sodipodi:type="star" style="font-size:12px;fill:#ffff00;fill-opacity:1;fill-rule:evenodd;stroke:none" id="polygon3942" sodipodi:sides="5" sodipodi:cx="391.56052" sodipodi:cy="272.4404" sodipodi:r1="15.909912" sodipodi:r2="5.8771653" sodipodi:arg1="-1.5707964" sodipodi:arg2="-0.91776359" points="391.561,256.53 395.131,267.772 406.692,267.524 397.103,274.394 400.912,285.312 391.415,278.316 382.209,285.312 385.928,274.118 376.429,267.524 388.225,267.602 391.561,256.53 " transform="matrix(1,0,0,1.046066,50.82331,-103.52)"/>
    <polygon d="m 391.56052,256.53049 3.57095,11.242 11.56027,-0.24853 -9.58829,6.87015 3.80868,10.91768 -9.49685,-6.99602 -9.20637,6.99602 3.71892,-11.19393 -9.49854,-6.59389 11.79527,0.0778 z" inkscape:randomized="0" inkscape:rounded="0" inkscape:flatsided="false" sodipodi:type="star" style="font-size:12px;fill:#ffff00;fill-opacity:1;fill-rule:evenodd;stroke:none" id="polygon3943" sodipodi:sides="5" sodipodi:cx="391.56052" sodipodi:cy="272.4404" sodipodi:r1="15.909912" sodipodi:r2="5.8771653" sodipodi:arg1="-1.5707964" sodipodi:arg2="-0.91776359" points="391.561,256.53 395.131,267.772 406.692,267.524 397.103,274.394 400.912,285.312 391.415,278.316 382.209,285.312 385.928,274.118 376.429,267.524 388.225,267.602 391.561,256.53 " transform="matrix(1,0,0,1.046066,103.1935,-117.2202)"/>
    <polygon d="m 391.56052,256.53049 3.57095,11.242 11.56027,-0.24853 -9.58829,6.87015 3.80868,10.91768 -9.49685,-6.99602 -9.20637,6.99602 3.71892,-11.19393 -9.49854,-6.59389 11.79527,0.0778 z" inkscape:randomized="0" inkscape:rounded="0" inkscape:flatsided="false" sodipodi:type="star" style="font-size:12px;fill:#ffff00;fill-opacity:1;fill-rule:evenodd;stroke:none" id="polygon3944" sodipodi:sides="5" sodipodi:cx="391.56052" sodipodi:cy="272.4404" sodipodi:r1="15.909912" sodipodi:r2="5.8771653" sodipodi:arg1="-1.5707964" sodipodi:arg2="-0.91776359" points="391.561,256.53 395.131,267.772 406.692,267.524 397.103,274.394 400.912,285.312 391.415,278.316 382.209,285.312 385.928,274.118 376.429,267.524 388.225,267.602 391.561,256.53 " transform="matrix(1,0,0,1.046066,156.0054,-103.5201)"/>
    <polygon d="m 391.56052,256.53049 3.57095,11.242 11.56027,-0.24853 -9.58829,6.87015 3.80868,10.91768 -9.49685,-6.99602 -9.20637,6.99602 3.71892,-11.19393 -9.49854,-6.59389 11.79527,0.0778 z" inkscape:randomized="0" inkscape:rounded="0" inkscape:flatsided="false" sodipodi:type="star" style="font-size:12px;fill:#ffff00;fill-opacity:1;fill-rule:evenodd;stroke:none" id="polygon3945" sodipodi:sides="5" sodipodi:cx="391.56052" sodipodi:cy="272.4404" sodipodi:r1="15.909912" sodipodi:r2="5.8771653" sodipodi:arg1="-1.5707964" sodipodi:arg2="-0.91776359" points="391.561,256.53 395.131,267.772 406.692,267.524 397.103,274.394 400.912,285.312 391.415,278.316 382.209,285.312 385.928,274.118 376.429,267.524 388.225,267.602 391.561,256.53 " transform="matrix(1,0,0,1.046066,194.8961,-62.19869)"/>
    <polygon d="m 391.56052,256.53049 3.57095,11.242 11.56027,-0.24853 -9.58829,6.87015 3.80868,10.91768 -9.49685,-6.99602 -9.20637,6.99602 3.71892,-11.19393 -9.49854,-6.59389 11.79527,0.0778 z" inkscape:randomized="0" inkscape:rounded="0" inkscape:flatsided="false" sodipodi:type="star" style="font-size:12px;fill:#ffff00;fill-opacity:1;fill-rule:evenodd;stroke:none" id="polygon3946" sodipodi:sides="5" sodipodi:cx="391.56052" sodipodi:cy="272.4404" sodipodi:r1="15.909912" sodipodi:r2="5.8771653" sodipodi:arg1="-1.5707964" sodipodi:arg2="-0.91776359" points="391.561,256.53 395.131,267.772 406.692,267.524 397.103,274.394 400.912,285.312 391.415,278.316 382.209,285.312 385.928,274.118 376.429,267.524 388.225,267.602 391.561,256.53 " transform="matrix(1,0,0,1.046066,206.1656,-12.03848)"/>
    <path sodipodi:type="arc" style="fill:#ffff00;fill-opacity:1;fill-rule:evenodd;stroke:none" id="path3952" d="m 516.09489,230.63272 c 0,9.25511 -9.33908,16.75785 -20.85942,16.75785 -11.52034,0 -20.85942,-7.50274 -20.85942,-16.75785 0,-9.2551 9.33908,-16.75785 20.85942,-16.75785 11.52034,0 20.85942,7.50275 20.85942,16.75785 z" sodipodi:cx="495.23547" sodipodi:cy="230.63272" sodipodi:rx="20.859421" sodipodi:ry="16.757851" transform="matrix(0.960674,0,0,0.902098,19.12395,20.78249)"/>
    <rect style="font-size:12px;fill:#ffff00;fill-opacity:1;fill-rule:evenodd;stroke:none" id="rect3953" width="11.445346" height="53.281403" x="489.10306" y="239.49962"/>
    <path inkscape:connector-curvature="0" style="font-size:12px;fill:#ffff00;fill-opacity:1;fill-rule:evenodd;stroke:none" d="m 595.315,288.765 c -4.981,10.57 -11.684,14.321 -22.625,14.028 -19.148,0.454 -23.475,-13.61 -25.971,-19.819 -6.768,8.92 -10.615,12.466 -21.85,12.251 -16.007,0.358 -24.088,-8.753 -30.055,-25.979 -5.967,17.116 -14.048,26.227 -30.055,25.869 -11.235,0.215 -15.082,-3.331 -21.85,-12.251 -2.496,6.209 -6.823,20.273 -25.971,19.819 -10.941,0.293 -17.644,-3.458 -22.128,-14.175 5.205,14.967 10.361,23.342 26.344,23.864 14.476,0.174 21.105,-8.21 24.242,-13.944 10.429,5.54 11.501,6.77 26.287,6.423 11.037,-0.355 17.377,-7.566 23.089,-14.427 5.712,6.861 12.052,14.072 23.089,14.427 14.786,0.347 15.858,-0.883 26.287,-6.423 3.137,5.734 9.766,14.118 24.242,13.944 15.983,-0.522 21.139,-8.897 26.925,-23.607 z" id="path4004" sodipodi:nodetypes="ccccccccccccccccc"/>
    <path inkscape:connector-curvature="0" style="font-size:12px;fill:#ffff00;fill-opacity:1;fill-rule:evenodd;stroke:none" d="m 446.474,304.184 5.225,7.241 10.019,-0.294 -7.732,8.762 -15.137,0.387 -4.735,-6.342 8.743,-1.413 3.671,-8.32" id="path4048" sodipodi:nodetypes="cccccccc"/>
    <path inkscape:connector-curvature="0" style="font-size:12px;fill:#ffff00;fill-opacity:1;fill-rule:evenodd;stroke:none" d="m 446.474,304.184 5.225,7.241 10.019,-0.294 -7.732,8.762 -15.137,0.387 -4.735,-6.342 8.743,-1.413 3.671,-8.32" id="path4049" sodipodi:nodetypes="cccccccc" transform="matrix(-1,0,0,1,989.4354,-1.525879e-5)"/>
    <path inkscape:connector-curvature="0" style="fill:#ffff00;fill-opacity:1;fill-rule:evenodd;stroke:none" d="m 482.227,308.836 c 0,-0.039 6.875,0.039 6.875,0.039 l 5.781,-4.609 5.644,4.551 6.817,0.098 -6.133,9.062 -12.891,0 -6.093,-9.141 z" id="path4053" sodipodi:nodetypes="cccccccc"/>
    <path inkscape:connector-curvature="0" style="font-size:12px;fill:#ffff00;fill-opacity:1;fill-rule:evenodd;stroke:none" d="m 569.199,341.11 c -26.731,-5.519 -44.622,-8.234 -74.413,-8.234 -29.791,0 -47.682,2.715 -74.244,8.168 l -0.037,-11.525 c 26.599,-5.503 44.49,-8.219 74.281,-8.219 29.791,0 47.682,2.716 74.281,8.219 l 0.132,11.591 z" id="path4100" sodipodi:nodetypes="ccccccc"/>
    <path sodipodi:type="arc" style="fill:#ffffff;fill-opacity:1;fill-rule:evenodd;stroke:none" id="path4102" d="m 505.31268,228.8754 c 0,3.27919 -4.68702,5.9375 -10.46875,5.9375 -5.78173,0 -10.46875,-2.65831 -10.46875,-5.9375 0,-3.27919 4.68702,-5.9375 10.46875,-5.9375 5.78173,0 10.46875,2.65831 10.46875,5.9375 z" sodipodi:cx="494.84393" sodipodi:cy="228.8754" sodipodi:rx="10.46875" sodipodi:ry="5.9375"/>
  </g></g>
  <g id="02" inkscape:label="02" style="display:inline" transform="translate(0,38)">
    <path sodipodi:nodetypes="sscssscss" inkscape:connector-curvature="0" id="path3862-8" d="m 214.21087,111.21099 c -45.24514,0.18809 -68.71568,7.73077 -64.09352,83.5526 l 2.8252,46.34456 c 47.4743,5.51239 56.66416,18.44506 104.35936,21.91413 68.07337,4.95126 67.93728,5.42092 130.56477,-14.38414 62.62753,-19.80506 5.82485,-65.24698 207.32205,-57.8201 4.60334,0.16968 17.3137,-3.05269 27.46187,-12.15043 5.5817,-46.52389 -2.78415,-69.14289 -66.93352,-68.87623 z" style="color:#000000;fill:url(#linearGradient5125);fill-opacity:1;fill-rule:nonzero;stroke:none;stroke-width:1.62399995;marker:none;visibility:visible;overflow:visible;enable-background:accumulate"/>
    <path inkscape:connector-curvature="0" id="path3079-9" d="m 531.03278,495.17335 c -31.60486,19.02245 -27.60116,31.26037 -37.91323,32.57276 -94.70417,12.0527 -145.97722,-0.72701 -165.79583,-12.06122 -59.58792,-34.07817 -68.46788,-13.01421 -100.22126,-16.5742 -20.11475,-2.25514 -59.24503,12.98404 -73.38763,44.34434 3.47222,27.60795 18.11064,32.09835 44.28127,31.98612 l 356.05526,-1.52684 c 69.69188,-0.29885 56.33547,-8.49265 65.54301,-56.03861 -14.77205,-21.67074 -13.15664,9.10903 -44.2237,-30.71666 z" style="color:#000000;fill:url(#linearGradient5122);fill-opacity:1;fill-rule:nonzero;stroke:none;stroke-width:1.62399994999999997;marker:none;visibility:visible;overflow:visible;enable-background:accumulate" sodipodi:nodetypes="cssscssccc"/>
    <rect id="rect5734" height="512" x="0" style="fill:none;stroke:#000000;stroke-width:20;stroke-miterlimit:4;stroke-opacity:1;stroke-dasharray:none;display:inline;filter:url(#filter5740)" width="512" y="0" ry="57" inkscape:label="#rect4203" transform="translate(128,90)" clip-path="url(#clipPath5796)"/>
  </g></g>
</svg>
