<?xml version="1.0" encoding="UTF-8" standalone="no"?>
<svg xmlns:dc="http://purl.org/dc/elements/1.1/" xmlns:cc="http://creativecommons.org/ns#" xmlns:rdf="http://www.w3.org/1999/02/22-rdf-syntax-ns#" xmlns:svg="http://www.w3.org/2000/svg" xmlns="http://www.w3.org/2000/svg" xmlns:xlink="http://www.w3.org/1999/xlink" xmlns:sodipodi="http://sodipodi.sourceforge.net/DTD/sodipodi-0.dtd" xmlns:inkscape="http://www.inkscape.org/namespaces/inkscape" width="768" height="768" id="svg2" version="1.1" inkscape:version="0.48.1 r9760" sodipodi:docname="template.svg">
  <defs id="defs4">
    <clipPath clipPathUnits="userSpaceOnUse" id="clipPathFlag">
      <rect id="rect3918" height="511" x="0.5" style="fill:#000000;fill-opacity:0.67000002;stroke:none" width="511" y="0.5" ry="57"/>
    </clipPath>
    <linearGradient id="linearGradient3852" inkscape:collect="always">
      <stop id="stop3854" offset="0" style="stop-color:#dbe3db;stop-opacity:1;"/>
      <stop id="stop3856" offset="1" style="stop-color:#dbe3db;stop-opacity:0;"/>
    </linearGradient>
    <linearGradient inkscape:collect="always" xlink:href="#linearGradient3852" id="linearGradient3070" gradientUnits="userSpaceOnUse" x1="339.54913" y1="646.63617" x2="345.74551" y2="566.63617" gradientTransform="matrix(0.93191514,0,0,0.93191514,7.9467803,7.2318863)"/>
    <clipPath id="clipPath3882" clipPathUnits="userSpaceOnUse">
      <path sodipodi:type="inkscape:offset" inkscape:radius="11.844458" inkscape:original="M 243.75 118.0625 C 179.93919 118.0625 128.5625 169.43919 128.5625 233.25 L 128.5625 528.59375 C 128.5625 592.40456 179.93919 643.78125 243.75 643.78125 L 539.09375 643.78125 C 602.90456 643.78125 654.28125 592.40456 654.28125 528.59375 L 654.28125 233.25 C 654.28125 169.43919 602.90456 118.0625 539.09375 118.0625 L 243.75 118.0625 z " style="color:#000000;fill:none;stroke:none;stroke-width:20;marker:none;visibility:visible;display:inline;overflow:visible;enable-background:accumulate" id="path3884" d="m 243.75,106.21875 c -70.16845,0 -127.03125,56.8628 -127.03125,127.03125 l 0,295.34375 c 0,70.16845 56.8628,127.03125 127.03125,127.03125 l 295.34375,0 c 70.16845,0 127.03125,-56.8628 127.03125,-127.03125 l 0,-295.34375 c 0,-70.16845 -56.8628,-127.03125 -127.03125,-127.03125 l -295.34375,0 z"/>
    </clipPath>
    <linearGradient id="linearGradient3852-0" inkscape:collect="always">
      <stop id="stop3854-6" offset="0" style="stop-color:#dbe3db;stop-opacity:1;"/>
      <stop id="stop3856-1" offset="1" style="stop-color:#dbe3db;stop-opacity:0;"/>
    </linearGradient>
    <linearGradient inkscape:collect="always" xlink:href="#linearGradient3852-0" id="linearGradient3070-5" gradientUnits="userSpaceOnUse" x1="339.54913" y1="646.63617" x2="345.74551" y2="566.63617" gradientTransform="matrix(0.93191514,0,0,0.93191514,7.9467803,7.2318863)"/>
    <linearGradient inkscape:collect="always" xlink:href="#linearGradient3852-0" id="linearGradient5122" gradientUnits="userSpaceOnUse" gradientTransform="matrix(1.1571075,0,0,1.3166846,-91.204261,-253.98784)" x1="342.1882" y1="705.75824" x2="358.07608" y2="523.40735"/>
    <linearGradient inkscape:collect="always" xlink:href="#linearGradient3852-0" id="linearGradient5125" gradientUnits="userSpaceOnUse" gradientTransform="matrix(0.95302723,0,0,0.86647129,11.575117,-4.501603)" x1="405.2634" y1="118.06474" x2="405.74554" y2="360.92188"/>
    <clipPath clipPathUnits="userSpaceOnUse" id="clipPath5712">
      <rect mask="none" inkscape:label="#rect4203" ry="64.777054" y="0" width="512" style="fill:none;display:inline" x="0" height="512" id="rect5714"/>
    </clipPath>
    <filter inkscape:collect="always" id="filter5740">
      <feGaussianBlur inkscape:collect="always" stdDeviation="5.12" id="feGaussianBlur5742"/>
    </filter>
    <clipPath clipPathUnits="userSpaceOnUse" id="clipPath5796">
      <rect inkscape:label="#rect4203" ry="57" y="0" width="512" style="fill:none;stroke:#00fa00;stroke-width:20;stroke-miterlimit:4;stroke-opacity:1;stroke-dasharray:none;display:inline" x="0" height="512" id="rect5798"/>
    </clipPath>
    <filter inkscape:collect="always" id="filter5912">
      <feGaussianBlur inkscape:collect="always" stdDeviation="17.92" id="feGaussianBlur5914"/>
    </filter>
  </defs>
  <sodipodi:namedview id="base" pagecolor="#ffffff" bordercolor="#666666" borderopacity="1.0" inkscape:pageopacity="0.0" inkscape:pageshadow="2" inkscape:zoom="0.65494792" inkscape:cx="191.61829" inkscape:cy="384" inkscape:document-units="px" showgrid="false" inkscape:window-width="1280" inkscape:window-height="723" inkscape:window-x="0" inkscape:window-y="24" inkscape:window-maximized="1"/>

  <g id="template-button" inkscape:label="template-button" style="display:inline">
  &gt;
  <g inkscape:label="00" id="00" style="display:inline" transform="translate(90,90)">
    <rect inkscape:label="#rect4203" ry="57" y="56" width="512" style="fill:#000000;fill-opacity:1;stroke:#a8a8a8;stroke-width:5;stroke-miterlimit:4;stroke-opacity:1;stroke-dasharray:none;display:inline;filter:url(#filter5912)" x="38" height="512" id="shadow"/>
  </g>
  <g id="01" inkscape:label="01" style="display:inline" transform="translate(128,128)" clip-path="url(#clipPathFlag)">
    <rect id="mask" height="512" x="0" style="fill:#0000ff;fill-opacity:1;stroke:none" width="512" y="0" ry="57" inkscape:label="#rect4203"/>
  <g id="flag" clip-path="url(#clipPath6050)" inkscape:label="#g5986">
    <rect height="512" width="1024" y="0" x="0" id="rect124" style="fill:#000066;fill-opacity:1;fill-rule:nonzero;stroke:none"/>
    <path inkscape:connector-curvature="0" id="path146" d="M 0,0 0,28.621653 454.75669,256 512,256 512,227.37835 57.243306,0 0,0 z M 512,0 512,28.621227 57.243306,256 0,256 0,227.37749 454.75669,0 512,0 z" style="fill:#ffffff;fill-opacity:1;fill-rule:nonzero;stroke:none"/>
    <path inkscape:connector-curvature="0" id="path136" d="m 213.33333,0 0,256 85.33334,0 0,-256 -85.33334,0 z M 0,85.333333 l 0,85.333337 512,0 0,-85.333337 -512,0 z" style="font-size:12px;fill:#ffffff;stroke-width:1pt"/>
    <path inkscape:connector-curvature="0" id="path141" d="m 0,102.4 0,51.2 512,0 0,-51.2 -512,0 z M 230.4,0 l 0,256 51.2,0 0,-256 -51.2,0 z" style="font-size:12px;fill:#cc0000;fill-opacity:1;stroke-width:1pt"/>
    <path inkscape:connector-curvature="0" id="path150" d="m 0,256 170.66667,-85.33333 38.16192,0 L 38.162261,256 0,256 z M 0,0 l 170.66667,85.333333 -38.16192,0 L 0,19.081131 0,0 z M 303.17141,85.333333 473.83808,0 512,0 341.33333,85.333333 l -38.16192,0 z M 512,256 341.33333,170.66667 l 38.16192,0 L 512,236.91861 512,256 z" style="fill:#cc0000;fill-opacity:1;fill-rule:nonzero;stroke:none"/>
    <g transform="matrix(0.69448581,0,0,0.69448581,-177.29264,177.10966)" id="g5930">
      <g id="g141" transform="scale(8.5333333,8.5333333)">
        <path style="fill:#ffffff;fill-opacity:1;fill-rule:nonzero;stroke:none" d="m 90,7.9949625 0.899187,2.7674125 2.90983,0 -2.354102,1.710356 0.899187,2.767412 L 90,13.529788 l -2.354102,1.710355 0.899187,-2.767412 -2.354102,-1.710356 2.90983,0 z" id="path133" inkscape:connector-curvature="0"/>
        <path style="fill:#cc0000;fill-opacity:1;fill-rule:nonzero;stroke:none" d="m 90,8.8456133 0.708204,2.1796277 2.291796,0 -1.854102,1.347084 0.708204,2.179627 L 90,13.204868 88.145898,14.551952 88.854102,12.372325 87,11.025241 l 2.291796,0 z" id="path132" inkscape:connector-curvature="0"/>
      </g>
      <g id="g132" transform="matrix(8.5333333,0,0,8.5333333,-118.30403,119.02654)">
        <path style="fill:#ffffff;fill-opacity:1;fill-rule:nonzero;stroke:none" d="m 90,7.9949625 0.899187,2.7674125 2.90983,0 -2.354102,1.710356 0.899187,2.767412 L 90,13.529788 l -2.354102,1.710355 0.899187,-2.767412 -2.354102,-1.710356 2.90983,0 z" id="path134" inkscape:connector-curvature="0"/>
        <path style="fill:#cc0000;fill-opacity:1;fill-rule:nonzero;stroke:none" d="m 90,8.8456133 0.708204,2.1796277 2.291796,0 -1.854102,1.347084 0.708204,2.179627 L 90,13.204868 88.145898,14.551952 88.854102,12.372325 87,11.025241 l 2.291796,0 z" id="path135" inkscape:connector-curvature="0"/>
      </g>
      <g id="g139" transform="matrix(8.5333333,0,0,8.5333333,101.40345,-14.251325)">
        <path style="fill:#ffffff;fill-opacity:1;fill-rule:nonzero;stroke:none" d="m 90,20.647738 0.75263,2.316356 2.435561,0 -1.97041,1.431587 0.752629,2.316356 L 90,25.28045 l -1.97041,1.431587 0.752629,-2.316356 -1.97041,-1.431587 2.435561,0 z" id="path138" inkscape:connector-curvature="0"/>
        <path style="fill:#cc0000;fill-opacity:1;fill-rule:nonzero;stroke:none" d="m 90,21.371344 0.59017,1.816357 1.90983,0 -1.545085,1.12257 0.59017,1.816356 L 90,25.004057 l -1.545085,1.12257 0.59017,-1.816356 -1.545085,-1.12257 1.90983,0 z" id="path137" inkscape:connector-curvature="0"/>
      </g>
      <path style="fill:#ffffff;fill-opacity:1;fill-rule:evenodd;stroke:none" d="m 768,372.02155 8.43689,25.96607 27.30234,0 -22.08806,16.04791 8.43688,25.96607 L 768,423.95369 l -22.08806,16.04791 8.43688,-25.96607 -22.08805,-16.04791 27.30234,0 z" id="path142" inkscape:connector-curvature="0"/>
      <path style="fill:#cc0000;fill-opacity:1;fill-rule:evenodd;stroke:none" d="m 768,378.19632 7.05056,21.69941 22.8161,0 -18.45861,13.41097 7.05056,21.6994 L 768,421.59513 l -18.45862,13.41097 7.05057,-21.6994 -18.45862,-13.41097 22.8161,0 z" id="path143" inkscape:connector-curvature="0"/>
    </g>
  </g></g>
  <g id="02" inkscape:label="02" style="display:inline" transform="translate(0,38)">
    <path sodipodi:nodetypes="sscssscss" inkscape:connector-curvature="0" id="path3862-8" d="m 214.21087,111.21099 c -45.24514,0.18809 -68.71568,7.73077 -64.09352,83.5526 l 2.8252,46.34456 c 47.4743,5.51239 56.66416,18.44506 104.35936,21.91413 68.07337,4.95126 67.93728,5.42092 130.56477,-14.38414 62.62753,-19.80506 5.82485,-65.24698 207.32205,-57.8201 4.60334,0.16968 17.3137,-3.05269 27.46187,-12.15043 5.5817,-46.52389 -2.78415,-69.14289 -66.93352,-68.87623 z" style="color:#000000;fill:url(#linearGradient5125);fill-opacity:1;fill-rule:nonzero;stroke:none;stroke-width:1.62399995;marker:none;visibility:visible;overflow:visible;enable-background:accumulate"/>
    <path inkscape:connector-curvature="0" id="path3079-9" d="m 531.03278,495.17335 c -31.60486,19.02245 -27.60116,31.26037 -37.91323,32.57276 -94.70417,12.0527 -145.97722,-0.72701 -165.79583,-12.06122 -59.58792,-34.07817 -68.46788,-13.01421 -100.22126,-16.5742 -20.11475,-2.25514 -59.24503,12.98404 -73.38763,44.34434 3.47222,27.60795 18.11064,32.09835 44.28127,31.98612 l 356.05526,-1.52684 c 69.69188,-0.29885 56.33547,-8.49265 65.54301,-56.03861 -14.77205,-21.67074 -13.15664,9.10903 -44.2237,-30.71666 z" style="color:#000000;fill:url(#linearGradient5122);fill-opacity:1;fill-rule:nonzero;stroke:none;stroke-width:1.62399994999999997;marker:none;visibility:visible;overflow:visible;enable-background:accumulate" sodipodi:nodetypes="cssscssccc"/>
    <rect id="rect5734" height="512" x="0" style="fill:none;stroke:#000000;stroke-width:20;stroke-miterlimit:4;stroke-opacity:1;stroke-dasharray:none;display:inline;filter:url(#filter5740)" width="512" y="0" ry="57" inkscape:label="#rect4203" transform="translate(128,90)" clip-path="url(#clipPath5796)"/>
  </g></g>
</svg>
