<?xml version="1.0" encoding="UTF-8" standalone="no"?>
<svg xmlns:dc="http://purl.org/dc/elements/1.1/" xmlns:cc="http://creativecommons.org/ns#" xmlns:rdf="http://www.w3.org/1999/02/22-rdf-syntax-ns#" xmlns:svg="http://www.w3.org/2000/svg" xmlns="http://www.w3.org/2000/svg" xmlns:xlink="http://www.w3.org/1999/xlink" xmlns:sodipodi="http://sodipodi.sourceforge.net/DTD/sodipodi-0.dtd" xmlns:inkscape="http://www.inkscape.org/namespaces/inkscape" width="768" height="768" id="svg2" version="1.1" inkscape:version="0.48.1 r9760" sodipodi:docname="template.svg">
  <defs id="defs4">
    <clipPath clipPathUnits="userSpaceOnUse" id="clipPathFlag">
      <rect id="rect3918" height="511" x="0.5" style="fill:#000000;fill-opacity:0.67000002;stroke:none" width="511" y="0.5" ry="57"/>
    </clipPath>
    <linearGradient id="linearGradient3852" inkscape:collect="always">
      <stop id="stop3854" offset="0" style="stop-color:#dbe3db;stop-opacity:1;"/>
      <stop id="stop3856" offset="1" style="stop-color:#dbe3db;stop-opacity:0;"/>
    </linearGradient>
    <linearGradient inkscape:collect="always" xlink:href="#linearGradient3852" id="linearGradient3070" gradientUnits="userSpaceOnUse" x1="339.54913" y1="646.63617" x2="345.74551" y2="566.63617" gradientTransform="matrix(0.93191514,0,0,0.93191514,7.9467803,7.2318863)"/>
    <clipPath id="clipPath3882" clipPathUnits="userSpaceOnUse">
      <path sodipodi:type="inkscape:offset" inkscape:radius="11.844458" inkscape:original="M 243.75 118.0625 C 179.93919 118.0625 128.5625 169.43919 128.5625 233.25 L 128.5625 528.59375 C 128.5625 592.40456 179.93919 643.78125 243.75 643.78125 L 539.09375 643.78125 C 602.90456 643.78125 654.28125 592.40456 654.28125 528.59375 L 654.28125 233.25 C 654.28125 169.43919 602.90456 118.0625 539.09375 118.0625 L 243.75 118.0625 z " style="color:#000000;fill:none;stroke:none;stroke-width:20;marker:none;visibility:visible;display:inline;overflow:visible;enable-background:accumulate" id="path3884" d="m 243.75,106.21875 c -70.16845,0 -127.03125,56.8628 -127.03125,127.03125 l 0,295.34375 c 0,70.16845 56.8628,127.03125 127.03125,127.03125 l 295.34375,0 c 70.16845,0 127.03125,-56.8628 127.03125,-127.03125 l 0,-295.34375 c 0,-70.16845 -56.8628,-127.03125 -127.03125,-127.03125 l -295.34375,0 z"/>
    </clipPath>
    <linearGradient id="linearGradient3852-0" inkscape:collect="always">
      <stop id="stop3854-6" offset="0" style="stop-color:#dbe3db;stop-opacity:1;"/>
      <stop id="stop3856-1" offset="1" style="stop-color:#dbe3db;stop-opacity:0;"/>
    </linearGradient>
    <linearGradient inkscape:collect="always" xlink:href="#linearGradient3852-0" id="linearGradient3070-5" gradientUnits="userSpaceOnUse" x1="339.54913" y1="646.63617" x2="345.74551" y2="566.63617" gradientTransform="matrix(0.93191514,0,0,0.93191514,7.9467803,7.2318863)"/>
    <linearGradient inkscape:collect="always" xlink:href="#linearGradient3852-0" id="linearGradient5122" gradientUnits="userSpaceOnUse" gradientTransform="matrix(1.1571075,0,0,1.3166846,-91.204261,-253.98784)" x1="342.1882" y1="705.75824" x2="358.07608" y2="523.40735"/>
    <linearGradient inkscape:collect="always" xlink:href="#linearGradient3852-0" id="linearGradient5125" gradientUnits="userSpaceOnUse" gradientTransform="matrix(0.95302723,0,0,0.86647129,11.575117,-4.501603)" x1="405.2634" y1="118.06474" x2="405.74554" y2="360.92188"/>
    <clipPath clipPathUnits="userSpaceOnUse" id="clipPath5712">
      <rect mask="none" inkscape:label="#rect4203" ry="64.777054" y="0" width="512" style="fill:none;display:inline" x="0" height="512" id="rect5714"/>
    </clipPath>
    <filter inkscape:collect="always" id="filter5740">
      <feGaussianBlur inkscape:collect="always" stdDeviation="5.12" id="feGaussianBlur5742"/>
    </filter>
    <clipPath clipPathUnits="userSpaceOnUse" id="clipPath5796">
      <rect inkscape:label="#rect4203" ry="57" y="0" width="512" style="fill:none;stroke:#00fa00;stroke-width:20;stroke-miterlimit:4;stroke-opacity:1;stroke-dasharray:none;display:inline" x="0" height="512" id="rect5798"/>
    </clipPath>
    <filter inkscape:collect="always" id="filter5912">
      <feGaussianBlur inkscape:collect="always" stdDeviation="17.92" id="feGaussianBlur5914"/>
    </filter>
  </defs>
  <sodipodi:namedview id="base" pagecolor="#ffffff" bordercolor="#666666" borderopacity="1.0" inkscape:pageopacity="0.0" inkscape:pageshadow="2" inkscape:zoom="0.65494792" inkscape:cx="191.61829" inkscape:cy="384" inkscape:document-units="px" showgrid="false" inkscape:window-width="1280" inkscape:window-height="723" inkscape:window-x="0" inkscape:window-y="24" inkscape:window-maximized="1"/>

  <g id="template-button" inkscape:label="template-button" style="display:inline">
  &gt;
  <g inkscape:label="00" id="00" style="display:inline" transform="translate(90,90)">
    <rect inkscape:label="#rect4203" ry="57" y="56" width="512" style="fill:#000000;fill-opacity:1;stroke:#a8a8a8;stroke-width:5;stroke-miterlimit:4;stroke-opacity:1;stroke-dasharray:none;display:inline;filter:url(#filter5912)" x="38" height="512" id="shadow"/>
  </g>
  <g id="01" inkscape:label="01" style="display:inline" transform="translate(128,128)" clip-path="url(#clipPathFlag)">
    <rect id="mask" height="512" x="0" style="fill:#0000ff;fill-opacity:1;stroke:none" width="512" y="0" ry="57" inkscape:label="#rect4203"/>
  <g transform="matrix(1.032127,0,0,1.032127,0,1.9948573e-5)" id="flag" clip-path="url(#clipPath5411)" inkscape:label="#g5383">
    <rect style="font-size:12px;fill:#de2110;fill-opacity:1;fill-rule:evenodd;stroke-width:1pt" id="rect983" width="744.09448" height="496.06299" x="0" y="-4.6000001e-05" transform="translate(0,2.288818e-5)"/>
    <rect style="font-size:12px;fill:#08399c;fill-opacity:1;fill-rule:evenodd;stroke-width:1pt" id="rect984" width="373.68927" height="248.03149" x="0" y="-3.1e-05"/>
    <polygon d="m 272.53271,171.98603 -45.86308,-9.42646 9.76653,45.79186 -35.00536,-31.09509 -14.43787,44.54018 -14.76798,-44.43182 -34.77366,31.35399 9.42647,-45.86307 -45.79187,9.76652 31.0951,-35.00536 -44.540187,-14.43787 44.431827,-14.76798 -31.354,-34.773654 45.86308,9.426464 -9.76653,-45.791867 35.00536,31.095097 14.43787,-44.540185 14.76798,44.431823 34.77366,-31.353996 -9.42647,45.863079 45.79187,-9.766529 -31.0951,35.005358 44.54019,14.43787 -44.43182,14.76798 z" inkscape:randomized="0" inkscape:rounded="0" inkscape:flatsided="false" sodipodi:type="star" style="font-size:12px;fill:#ffffff;fill-rule:evenodd;stroke-width:1pt" id="polygon1007" sodipodi:sides="12" sodipodi:cx="186.62567" sodipodi:cy="122.81165" sodipodi:r1="98.98555" sodipodi:r2="56.421764" sodipodi:arg1="0.51988852" sodipodi:arg2="0.78168792" points="272.533,171.986 226.67,162.56 236.436,208.351 201.431,177.256 186.993,221.797 172.225,177.365 137.451,208.719 146.878,162.856 101.086,172.622 132.181,137.617 87.6408,123.179 132.073,108.411 100.719,73.6373 146.582,83.0637 136.815,37.2719 171.821,68.367 186.258,23.8268 201.026,68.2586 235.8,36.9046 226.374,82.7677 272.165,73.0012 241.07,108.007 285.611,122.444 241.179,137.212 272.533,171.986 " transform="translate(0.794239,1.011375)"/>
    <polygon d="m 230.41383,167.61855 -14.31689,7.62192 -13.95306,8.26918 -16.20975,-0.55767 -16.21829,0.18478 -13.75923,-8.58783 -14.13784,-7.94911 -7.62192,-14.3169 -8.26917,-13.95306 0.55767,-16.20975 -0.18479,-16.21829 8.58784,-13.759224 7.94911,-14.137842 14.3169,-7.621921 13.95305,-8.269174 16.20976,0.557671 16.21828,-0.184788 13.75923,8.587836 14.13784,7.949113 7.62192,14.316896 8.26918,13.953053 -0.55768,16.20976 0.18479,16.21829 -8.58783,13.75922 z" inkscape:randomized="0" inkscape:rounded="0" inkscape:flatsided="false" sodipodi:type="star" style="font-size:12px;fill:#005387;fill-rule:evenodd;stroke-width:1pt" id="polygon1009" sodipodi:sides="12" sodipodi:cx="186.62567" sodipodi:cy="122.81165" sodipodi:r1="62.650311" sodipodi:r2="60.144299" sodipodi:arg1="0.79689646" sodipodi:arg2="1.0586959" points="230.414,167.619 216.097,175.24 202.144,183.51 185.934,182.952 169.716,183.137 155.957,174.549 141.819,166.6 134.197,152.283 125.928,138.33 126.485,122.12 126.301,105.902 134.888,92.1426 142.838,78.0047 157.154,70.3828 171.107,62.1137 187.317,62.6713 203.536,62.4865 217.295,71.0744 231.433,79.0235 239.054,93.3404 247.324,107.293 246.766,123.503 246.951,139.721 238.363,153.481 230.414,167.619 " transform="matrix(1.01122,0,0,1.008521,-1.945835,0.434593)"/>
    <path sodipodi:type="arc" style="font-size:12px;fill:#ffffff;fill-rule:evenodd;stroke-width:1pt" id="path1011" d="m 236.87869,122.81165 c 0,27.75398 -22.49904,50.25303 -50.25302,50.25303 -27.75398,0 -50.25302,-22.49905 -50.25302,-50.25303 0,-27.753976 22.49904,-50.253022 50.25302,-50.253022 27.75398,0 50.25302,22.499046 50.25302,50.253022 z" sodipodi:cx="186.62567" sodipodi:cy="122.81165" sodipodi:rx="50.253021" sodipodi:ry="50.253025" transform="translate(0.148106,1.481079)"/>
  </g></g>
  <g id="02" inkscape:label="02" style="display:inline" transform="translate(0,38)">
    <path sodipodi:nodetypes="sscssscss" inkscape:connector-curvature="0" id="path3862-8" d="m 214.21087,111.21099 c -45.24514,0.18809 -68.71568,7.73077 -64.09352,83.5526 l 2.8252,46.34456 c 47.4743,5.51239 56.66416,18.44506 104.35936,21.91413 68.07337,4.95126 67.93728,5.42092 130.56477,-14.38414 62.62753,-19.80506 5.82485,-65.24698 207.32205,-57.8201 4.60334,0.16968 17.3137,-3.05269 27.46187,-12.15043 5.5817,-46.52389 -2.78415,-69.14289 -66.93352,-68.87623 z" style="color:#000000;fill:url(#linearGradient5125);fill-opacity:1;fill-rule:nonzero;stroke:none;stroke-width:1.62399995;marker:none;visibility:visible;overflow:visible;enable-background:accumulate"/>
    <path inkscape:connector-curvature="0" id="path3079-9" d="m 531.03278,495.17335 c -31.60486,19.02245 -27.60116,31.26037 -37.91323,32.57276 -94.70417,12.0527 -145.97722,-0.72701 -165.79583,-12.06122 -59.58792,-34.07817 -68.46788,-13.01421 -100.22126,-16.5742 -20.11475,-2.25514 -59.24503,12.98404 -73.38763,44.34434 3.47222,27.60795 18.11064,32.09835 44.28127,31.98612 l 356.05526,-1.52684 c 69.69188,-0.29885 56.33547,-8.49265 65.54301,-56.03861 -14.77205,-21.67074 -13.15664,9.10903 -44.2237,-30.71666 z" style="color:#000000;fill:url(#linearGradient5122);fill-opacity:1;fill-rule:nonzero;stroke:none;stroke-width:1.62399994999999997;marker:none;visibility:visible;overflow:visible;enable-background:accumulate" sodipodi:nodetypes="cssscssccc"/>
    <rect id="rect5734" height="512" x="0" style="fill:none;stroke:#000000;stroke-width:20;stroke-miterlimit:4;stroke-opacity:1;stroke-dasharray:none;display:inline;filter:url(#filter5740)" width="512" y="0" ry="57" inkscape:label="#rect4203" transform="translate(128,90)" clip-path="url(#clipPath5796)"/>
  </g></g>
</svg>
