<?xml version="1.0" encoding="UTF-8" standalone="no"?>
<svg xmlns:dc="http://purl.org/dc/elements/1.1/" xmlns:cc="http://creativecommons.org/ns#" xmlns:rdf="http://www.w3.org/1999/02/22-rdf-syntax-ns#" xmlns:svg="http://www.w3.org/2000/svg" xmlns="http://www.w3.org/2000/svg" xmlns:xlink="http://www.w3.org/1999/xlink" xmlns:sodipodi="http://sodipodi.sourceforge.net/DTD/sodipodi-0.dtd" xmlns:inkscape="http://www.inkscape.org/namespaces/inkscape" width="768" height="768" id="svg2" version="1.1" inkscape:version="0.48.1 r9760" sodipodi:docname="template.svg">
  <defs id="defs4">
    <clipPath clipPathUnits="userSpaceOnUse" id="clipPathFlag">
      <rect id="rect3918" height="511" x="0.5" style="fill:#000000;fill-opacity:0.67000002;stroke:none" width="511" y="0.5" ry="57"/>
    </clipPath>
    <linearGradient id="linearGradient3852" inkscape:collect="always">
      <stop id="stop3854" offset="0" style="stop-color:#dbe3db;stop-opacity:1;"/>
      <stop id="stop3856" offset="1" style="stop-color:#dbe3db;stop-opacity:0;"/>
    </linearGradient>
    <linearGradient inkscape:collect="always" xlink:href="#linearGradient3852" id="linearGradient3070" gradientUnits="userSpaceOnUse" x1="339.54913" y1="646.63617" x2="345.74551" y2="566.63617" gradientTransform="matrix(0.93191514,0,0,0.93191514,7.9467803,7.2318863)"/>
    <clipPath id="clipPath3882" clipPathUnits="userSpaceOnUse">
      <path sodipodi:type="inkscape:offset" inkscape:radius="11.844458" inkscape:original="M 243.75 118.0625 C 179.93919 118.0625 128.5625 169.43919 128.5625 233.25 L 128.5625 528.59375 C 128.5625 592.40456 179.93919 643.78125 243.75 643.78125 L 539.09375 643.78125 C 602.90456 643.78125 654.28125 592.40456 654.28125 528.59375 L 654.28125 233.25 C 654.28125 169.43919 602.90456 118.0625 539.09375 118.0625 L 243.75 118.0625 z " style="color:#000000;fill:none;stroke:none;stroke-width:20;marker:none;visibility:visible;display:inline;overflow:visible;enable-background:accumulate" id="path3884" d="m 243.75,106.21875 c -70.16845,0 -127.03125,56.8628 -127.03125,127.03125 l 0,295.34375 c 0,70.16845 56.8628,127.03125 127.03125,127.03125 l 295.34375,0 c 70.16845,0 127.03125,-56.8628 127.03125,-127.03125 l 0,-295.34375 c 0,-70.16845 -56.8628,-127.03125 -127.03125,-127.03125 l -295.34375,0 z"/>
    </clipPath>
    <linearGradient id="linearGradient3852-0" inkscape:collect="always">
      <stop id="stop3854-6" offset="0" style="stop-color:#dbe3db;stop-opacity:1;"/>
      <stop id="stop3856-1" offset="1" style="stop-color:#dbe3db;stop-opacity:0;"/>
    </linearGradient>
    <linearGradient inkscape:collect="always" xlink:href="#linearGradient3852-0" id="linearGradient3070-5" gradientUnits="userSpaceOnUse" x1="339.54913" y1="646.63617" x2="345.74551" y2="566.63617" gradientTransform="matrix(0.93191514,0,0,0.93191514,7.9467803,7.2318863)"/>
    <linearGradient inkscape:collect="always" xlink:href="#linearGradient3852-0" id="linearGradient5122" gradientUnits="userSpaceOnUse" gradientTransform="matrix(1.1571075,0,0,1.3166846,-91.204261,-253.98784)" x1="342.1882" y1="705.75824" x2="358.07608" y2="523.40735"/>
    <linearGradient inkscape:collect="always" xlink:href="#linearGradient3852-0" id="linearGradient5125" gradientUnits="userSpaceOnUse" gradientTransform="matrix(0.95302723,0,0,0.86647129,11.575117,-4.501603)" x1="405.2634" y1="118.06474" x2="405.74554" y2="360.92188"/>
    <clipPath clipPathUnits="userSpaceOnUse" id="clipPath5712">
      <rect mask="none" inkscape:label="#rect4203" ry="64.777054" y="0" width="512" style="fill:none;display:inline" x="0" height="512" id="rect5714"/>
    </clipPath>
    <filter inkscape:collect="always" id="filter5740">
      <feGaussianBlur inkscape:collect="always" stdDeviation="5.12" id="feGaussianBlur5742"/>
    </filter>
    <clipPath clipPathUnits="userSpaceOnUse" id="clipPath5796">
      <rect inkscape:label="#rect4203" ry="57" y="0" width="512" style="fill:none;stroke:#00fa00;stroke-width:20;stroke-miterlimit:4;stroke-opacity:1;stroke-dasharray:none;display:inline" x="0" height="512" id="rect5798"/>
    </clipPath>
    <filter inkscape:collect="always" id="filter5912">
      <feGaussianBlur inkscape:collect="always" stdDeviation="17.92" id="feGaussianBlur5914"/>
    </filter>
  </defs>
  <sodipodi:namedview id="base" pagecolor="#ffffff" bordercolor="#666666" borderopacity="1.0" inkscape:pageopacity="0.0" inkscape:pageshadow="2" inkscape:zoom="0.65494792" inkscape:cx="191.61829" inkscape:cy="384" inkscape:document-units="px" showgrid="false" inkscape:window-width="1280" inkscape:window-height="723" inkscape:window-x="0" inkscape:window-y="24" inkscape:window-maximized="1"/>

  <g id="template-button" inkscape:label="template-button" style="display:inline">
  &gt;
  <g inkscape:label="00" id="00" style="display:inline" transform="translate(90,90)">
    <rect inkscape:label="#rect4203" ry="57" y="56" width="512" style="fill:#000000;fill-opacity:1;stroke:#a8a8a8;stroke-width:5;stroke-miterlimit:4;stroke-opacity:1;stroke-dasharray:none;display:inline;filter:url(#filter5912)" x="38" height="512" id="shadow"/>
  </g>
  <g id="01" inkscape:label="01" style="display:inline" transform="translate(128,128)" clip-path="url(#clipPathFlag)">
    <rect id="mask" height="512" x="0" style="fill:#0000ff;fill-opacity:1;stroke:none" width="512" y="0" ry="57" inkscape:label="#rect4203"/>
  <g transform="matrix(1.0307174,0,0,1.0307174,0.14743791,0.34957608)" id="flag" clip-path="url(#clipPath6042)" inkscape:label="#g5878">
    <g transform="matrix(0.469047,0,0,0.469047,112.7334,-59.8854)" style="font-size:12px" id="g594">
      <rect width="1587.0061" height="1059.0439" x="-240.6506" y="126.95157" style="fill:#ffffff;fill-rule:evenodd;stroke-width:1pt" id="rect741"/>
      <path inkscape:connector-curvature="0" d="m 101.665,488.822 c 9.641,18.113 21.855,33.027 30.418,58.686 1.846,34.313 -2.07,40.849 4.635,57.059 2.696,5.929 6.544,8.378 7.285,22.123 -1.146,19.675 -9.645,20.899 -18,20.359 -1.5,-6.043 -0.002,-9.946 -10.648,-20.357 -5.765,-6.161 -12.613,-16.348 -16.234,-29.493 -1.1265,-12.074 -1.7577,-27.767 -7.7864,-40.892 -8.6741,-14.17 -9.9698,-21.069 -18.2111,-28.491 -8.486,-9.873 -8.0016,-13.336 -12.6503,-24.094 11.3905,-18.449 22.1873,-20.33 41.1918,-14.9 z" transform="matrix(-0.709714,0.70449,-0.70449,-0.709714,390.9567,688.9282)" style="fill:url(#linearGradient6024);fill-opacity:0.56078384;fill-rule:evenodd;stroke:#cbaa19;stroke-width:3.125" id="path593"/>
      <path inkscape:connector-curvature="0" d="m 101.665,488.822 c 9.641,18.113 21.855,33.027 30.418,58.686 1.846,34.313 -2.07,40.849 4.635,57.059 2.696,5.929 6.544,8.378 7.285,22.123 -1.146,19.675 -9.645,20.899 -18,20.359 -1.5,-6.043 -0.002,-9.946 -10.648,-20.357 -5.765,-6.161 -12.613,-16.348 -16.234,-29.493 -1.1265,-12.074 -1.7577,-27.767 -7.7864,-40.892 -8.6741,-14.17 -9.9698,-21.069 -18.2111,-28.491 -8.486,-9.873 -8.0016,-13.336 -12.6503,-24.094 11.3905,-18.449 22.1873,-20.33 41.1918,-14.9 z" transform="matrix(-0.999916,-0.01293707,0.01293707,-0.999916,101.58,850.6795)" style="fill:url(#linearGradient6026);fill-opacity:0.56078384;fill-rule:evenodd;stroke:#cbaa19;stroke-width:3.125" id="path591"/>
      <path inkscape:connector-curvature="0" d="m 101.665,488.822 c 9.641,18.113 21.855,33.027 30.418,58.686 1.846,34.313 -2.07,40.849 4.635,57.059 2.696,5.929 6.544,8.378 7.285,22.123 -1.146,19.675 -9.645,20.899 -18,20.359 -1.5,-6.043 -0.002,-9.946 -10.648,-20.357 -5.765,-6.161 -12.613,-16.348 -16.234,-29.493 -1.1265,-12.074 -1.7577,-27.767 -7.7864,-40.892 -8.6741,-14.17 -9.9698,-21.069 -18.2111,-28.491 -8.486,-9.873 -8.0016,-13.336 -12.6503,-24.094 11.3905,-18.449 22.1873,-20.33 41.1918,-14.9 z" transform="matrix(-0.699453,-0.714678,0.714678,-0.699453,-212.755,760.5516)" style="fill:url(#linearGradient6028);fill-opacity:0.56078384;fill-rule:evenodd;stroke:#cbaa19;stroke-width:3.125" id="path590"/>
      <path inkscape:connector-curvature="0" d="m 101.665,488.822 c 9.641,18.113 21.855,33.027 30.418,58.686 1.846,34.313 -2.07,40.849 4.635,57.059 2.696,5.929 6.544,8.378 7.285,22.123 -1.146,19.675 -9.645,20.899 -18,20.359 -1.5,-6.043 -0.002,-9.946 -10.648,-20.357 -5.765,-6.161 -12.613,-16.348 -16.234,-29.493 -1.1265,-12.074 -1.7577,-27.767 -7.7864,-40.892 -8.6741,-14.17 -9.9698,-21.069 -18.2111,-28.491 -8.486,-9.873 -8.0016,-13.336 -12.6503,-24.094 11.3905,-18.449 22.1873,-20.33 41.1918,-14.9 z" transform="matrix(0.00717119,-0.999974,0.999974,0.00717119,-371.8428,475.5034)" style="fill:url(#linearGradient6030);fill-opacity:0.56078384;fill-rule:evenodd;stroke:#cbaa19;stroke-width:3.125" id="path589"/>
      <path inkscape:connector-curvature="0" d="m 101.665,488.822 c 9.641,18.113 21.855,33.027 30.418,58.686 1.846,34.313 -2.07,40.849 4.635,57.059 2.696,5.929 6.544,8.378 7.285,22.123 -1.146,19.675 -9.645,20.899 -18,20.359 -1.5,-6.043 -0.002,-9.946 -10.648,-20.357 -5.765,-6.161 -12.613,-16.348 -16.234,-29.493 -1.1265,-12.074 -1.7577,-27.767 -7.7864,-40.892 -8.6741,-14.17 -9.9698,-21.069 -18.2111,-28.491 -8.486,-9.873 -8.0016,-13.336 -12.6503,-24.094 11.3905,-18.449 22.1873,-20.33 41.1918,-14.9 z" transform="matrix(0.71126,-0.702929,0.702929,0.71126,-283.293,160.3533)" style="fill:url(#linearGradient6032);fill-opacity:0.56078384;fill-rule:evenodd;stroke:#cbaa19;stroke-width:3.125" id="path587"/>
      <path inkscape:connector-curvature="0" d="m 101.665,488.822 c 9.641,18.113 21.855,33.027 30.418,58.686 1.846,34.313 -2.07,40.849 4.635,57.059 2.696,5.929 6.544,8.378 7.285,22.123 -1.146,19.675 -9.645,20.899 -18,20.359 -1.5,-6.043 -0.002,-9.946 -10.648,-20.357 -5.765,-6.161 -12.613,-16.348 -16.234,-29.493 -1.1265,-12.074 -1.7577,-27.767 -7.7864,-40.892 -8.6741,-14.17 -9.9698,-21.069 -18.2111,-28.491 -8.486,-9.873 -8.0016,-13.336 -12.6503,-24.094 11.3905,-18.449 22.1873,-20.33 41.1918,-14.9 z" transform="matrix(0.703451,0.710744,-0.710744,0.703451,317.9518,87.98238)" style="fill:url(#linearGradient6034);fill-opacity:0.56078384;fill-rule:evenodd;stroke:#cbaa19;stroke-width:3.125" id="path595"/>
      <path inkscape:connector-curvature="0" d="m 101.665,488.822 c 9.641,18.113 21.855,33.027 30.418,58.686 1.846,34.313 -2.07,40.849 4.635,57.059 2.696,5.929 6.544,8.378 7.285,22.123 -1.146,19.675 -9.645,20.899 -18,20.359 -1.5,-6.043 -0.002,-9.946 -10.648,-20.357 -5.765,-6.161 -12.613,-16.348 -16.234,-29.493 -1.1265,-12.074 -1.7577,-27.767 -7.7864,-40.892 -8.6741,-14.17 -9.9698,-21.069 -18.2111,-28.491 -8.486,-9.873 -8.0016,-13.336 -12.6503,-24.094 11.3905,-18.449 22.1873,-20.33 41.1918,-14.9 z" transform="matrix(-0.0043019,0.999991,-0.999991,-0.0043019,478.7791,373.2985)" style="fill:url(#linearGradient6036);fill-opacity:0.56078384;fill-rule:evenodd;stroke:#cbaa19;stroke-width:3.125" id="path594"/>
      <rect width="1001.2239" height="120.52206" x="345.13156" y="247.98491" style="fill:#002993;fill-rule:evenodd;stroke-width:1pt" id="rect845"/>
      <rect width="1001.224" height="120.52206" x="345.13141" y="482.62103" style="fill:#002993;fill-rule:evenodd;stroke-width:1pt" id="rect846"/>
      <path inkscape:connector-curvature="0" d="m 101.665,488.822 c 9.641,18.113 21.855,33.027 30.418,58.686 1.846,34.313 -2.07,40.849 4.635,57.059 2.696,5.929 6.544,8.378 7.285,22.123 -1.146,19.675 -9.645,20.899 -18,20.359 -1.5,-6.043 -0.002,-9.946 -10.648,-20.357 -5.765,-6.161 -12.613,-16.348 -16.234,-29.493 -1.1265,-12.074 -1.7577,-27.767 -7.7864,-40.892 -8.6741,-14.17 -9.9698,-21.069 -18.2111,-28.491 -8.486,-9.873 -8.0016,-13.336 -12.6503,-24.094 11.3905,-18.449 22.1873,-20.33 41.1918,-14.9 z" style="fill:url(#linearGradient6038);fill-opacity:0.56078384;fill-rule:evenodd;stroke:#cbaa19;stroke-width:3.125" id="path613"/>
      <rect width="1587.0061" height="120.52206" x="-240.65059" y="714.54321" style="fill:#002993;fill-rule:evenodd;stroke-width:1pt" id="rect847"/>
      <rect width="1587.0061" height="120.52206" x="-240.6506" y="947.82214" style="fill:#002993;fill-rule:evenodd;stroke-width:1pt" id="rect848"/>
      <path inkscape:connector-curvature="0" d="m 82.6605,496.87 -29.119,159.363 0,-159.363 c 0,0 29.119,0 29.119,0 z" style="fill:#faff00;fill-rule:evenodd;stroke:#cbaa19;stroke-width:3.125;stroke-linecap:round;stroke-dashoffset:0" id="path585"/>
      <path inkscape:connector-curvature="0" d="m 82.6605,496.87 -29.119,159.363 0,-159.363 c 0,0 29.119,0 29.119,0 z" transform="matrix(-1,0,0,1,107.083,-4.882812e-4)" style="fill:#f5c402;fill-rule:evenodd;stroke:#cbaa19;stroke-width:3.125" id="path588"/>
      <path inkscape:connector-curvature="0" d="m 82.6605,496.87 -29.119,159.363 0,-159.363 c 0,0 29.119,0 29.119,0 z" transform="matrix(0.705812,-0.708399,0.708399,0.705812,-285.3263,162.9619)" style="fill:#faff00;fill-rule:evenodd;stroke:#cbaa19;stroke-width:3.125;stroke-linecap:round;stroke-dashoffset:0" id="path596"/>
      <path inkscape:connector-curvature="0" d="m 82.6605,496.87 -29.119,159.363 0,-159.363 c 0,0 29.119,0 29.119,0 z" transform="matrix(-0.705812,0.708399,0.708399,0.705812,-209.7462,87.104)" style="fill:#f5c402;fill-rule:evenodd;stroke:#cbaa19;stroke-width:3.125" id="path597"/>
      <path inkscape:connector-curvature="0" d="m 82.6605,496.87 -29.119,159.363 0,-159.363 c 0,0 29.119,0 29.119,0 z" transform="matrix(-0.00192816,-0.999998,0.999998,-0.00192816,-371.3657,479.372)" style="fill:#faff00;fill-rule:evenodd;stroke:#cbaa19;stroke-width:3.125;stroke-linecap:round;stroke-dashoffset:0" id="path598"/>
      <path inkscape:connector-curvature="0" d="m 82.6605,496.87 -29.119,159.363 0,-159.363 c 0,0 29.119,0 29.119,0 z" transform="matrix(0.00192816,0.999998,0.999998,-0.00192816,-371.5727,372.2892)" style="fill:#f5c402;fill-rule:evenodd;stroke:#cbaa19;stroke-width:3.125" id="path599"/>
      <path inkscape:connector-curvature="0" d="m 82.6605,496.87 -29.119,159.363 0,-159.363 c 0,0 29.119,0 29.119,0 z" transform="matrix(-0.705436,-0.708774,0.708774,-0.705436,-209.9252,762.7782)" style="fill:#faff00;fill-rule:evenodd;stroke:#cbaa19;stroke-width:3.125;stroke-linecap:round;stroke-dashoffset:0" id="path600"/>
      <path inkscape:connector-curvature="0" d="m 82.6605,496.87 -29.119,159.363 0,-159.363 c 0,0 29.119,0 29.119,0 z" transform="matrix(0.705436,0.708774,0.708774,-0.705436,-285.4658,686.8809)" style="fill:#f5c402;fill-rule:evenodd;stroke:#cbaa19;stroke-width:3.125" id="path601"/>
      <path inkscape:connector-curvature="0" d="m 82.6605,496.87 -29.119,159.363 0,-159.363 c 0,0 29.119,0 29.119,0 z" transform="matrix(-0.999998,0.00195557,-0.00195557,-0.999998,107.914,849.9169)" style="fill:#faff00;fill-rule:evenodd;stroke:#cbaa19;stroke-width:3.125;stroke-linecap:round;stroke-dashoffset:0" id="path602"/>
      <path inkscape:connector-curvature="0" d="m 82.6605,496.87 -29.119,159.363 0,-159.363 c 0,0 29.119,0 29.119,0 z" transform="matrix(0.999998,-0.00195557,-0.00195557,-0.999998,0.831174,850.1268)" style="fill:#f5c402;fill-rule:evenodd;stroke:#cbaa19;stroke-width:3.125" id="path603"/>
      <path inkscape:connector-curvature="0" d="m 82.6605,496.87 -29.119,159.363 0,-159.363 c 0,0 29.119,0 29.119,0 z" transform="matrix(-0.705774,0.708437,-0.708437,-0.705774,392.4233,687.0423)" style="fill:#faff00;fill-rule:evenodd;stroke:#cbaa19;stroke-width:3.125;stroke-linecap:round;stroke-dashoffset:0" id="path604"/>
      <path inkscape:connector-curvature="0" d="m 82.6605,496.87 -29.119,159.363 0,-159.363 c 0,0 29.119,0 29.119,0 z" transform="matrix(0.705774,-0.708437,-0.708437,-0.705774,316.8473,762.9042)" style="fill:#f5c402;fill-rule:evenodd;stroke:#cbaa19;stroke-width:3.125" id="path605"/>
      <path inkscape:connector-curvature="0" d="m 82.6605,496.87 -29.119,159.363 0,-159.363 c 0,0 29.119,0 29.119,0 z" transform="matrix(0.01105657,0.999939,-0.999939,0.01105657,477.9347,366.7738)" style="fill:#faff00;fill-rule:evenodd;stroke:#cbaa19;stroke-width:3.125;stroke-linecap:round;stroke-dashoffset:0" id="path606"/>
      <path inkscape:connector-curvature="0" d="m 82.6605,496.87 -29.119,159.363 0,-159.363 c 0,0 29.119,0 29.119,0 z" transform="matrix(-0.01105657,-0.999939,-0.999939,0.01105657,479.1191,473.8503)" style="fill:#f5c402;fill-rule:evenodd;stroke:#cbaa19;stroke-width:3.125" id="path607"/>
      <path inkscape:connector-curvature="0" d="m 82.6605,496.87 -29.119,159.363 0,-159.363 c 0,0 29.119,0 29.119,0 z" transform="matrix(0.712353,0.701822,-0.701822,0.712353,313.6831,84.67671)" style="fill:#faff00;fill-rule:evenodd;stroke:#cbaa19;stroke-width:3.125;stroke-linecap:round;stroke-dashoffset:0" id="path608"/>
      <path inkscape:connector-curvature="0" d="m 82.6605,496.87 -29.119,159.363 0,-159.363 c 0,0 29.119,0 29.119,0 z" transform="matrix(-0.712353,-0.701822,-0.701822,0.712353,389.9643,159.8295)" style="fill:#f5c402;fill-rule:evenodd;stroke:#cbaa19;stroke-width:3.125" id="path609"/>
      <ellipse sodipodi:ry="81.268311" sodipodi:rx="82.224388" sodipodi:cy="422.29388" sodipodi:cx="52.585365" cx="52.585365" cy="422.29388" rx="82.224388" ry="81.268311" transform="translate(0.956097,2.868317)" style="fill:#faff00;fill-rule:evenodd;stroke:#cbaa19;stroke-width:3.125" id="path566" d="m 134.80975,422.29388 c 0,44.88325 -36.813109,81.26831 -82.224385,81.26831 -45.4112753,0 -82.224388,-36.38506 -82.224388,-81.26831 0,-44.88324 36.8131127,-81.26831 82.224388,-81.26831 45.411276,0 82.224385,36.38507 82.224385,81.26831 z"/>
    </g>
  </g></g>
  <g id="02" inkscape:label="02" style="display:inline" transform="translate(0,38)">
    <path sodipodi:nodetypes="sscssscss" inkscape:connector-curvature="0" id="path3862-8" d="m 214.21087,111.21099 c -45.24514,0.18809 -68.71568,7.73077 -64.09352,83.5526 l 2.8252,46.34456 c 47.4743,5.51239 56.66416,18.44506 104.35936,21.91413 68.07337,4.95126 67.93728,5.42092 130.56477,-14.38414 62.62753,-19.80506 5.82485,-65.24698 207.32205,-57.8201 4.60334,0.16968 17.3137,-3.05269 27.46187,-12.15043 5.5817,-46.52389 -2.78415,-69.14289 -66.93352,-68.87623 z" style="color:#000000;fill:url(#linearGradient5125);fill-opacity:1;fill-rule:nonzero;stroke:none;stroke-width:1.62399995;marker:none;visibility:visible;overflow:visible;enable-background:accumulate"/>
    <path inkscape:connector-curvature="0" id="path3079-9" d="m 531.03278,495.17335 c -31.60486,19.02245 -27.60116,31.26037 -37.91323,32.57276 -94.70417,12.0527 -145.97722,-0.72701 -165.79583,-12.06122 -59.58792,-34.07817 -68.46788,-13.01421 -100.22126,-16.5742 -20.11475,-2.25514 -59.24503,12.98404 -73.38763,44.34434 3.47222,27.60795 18.11064,32.09835 44.28127,31.98612 l 356.05526,-1.52684 c 69.69188,-0.29885 56.33547,-8.49265 65.54301,-56.03861 -14.77205,-21.67074 -13.15664,9.10903 -44.2237,-30.71666 z" style="color:#000000;fill:url(#linearGradient5122);fill-opacity:1;fill-rule:nonzero;stroke:none;stroke-width:1.62399994999999997;marker:none;visibility:visible;overflow:visible;enable-background:accumulate" sodipodi:nodetypes="cssscssccc"/>
    <rect id="rect5734" height="512" x="0" style="fill:none;stroke:#000000;stroke-width:20;stroke-miterlimit:4;stroke-opacity:1;stroke-dasharray:none;display:inline;filter:url(#filter5740)" width="512" y="0" ry="57" inkscape:label="#rect4203" transform="translate(128,90)" clip-path="url(#clipPath5796)"/>
  </g></g>
</svg>
